<svg width="328" height="972" viewBox="0 0 328 972" fill="none" xmlns="http://www.w3.org/2000/svg">
<mask id="mask0" mask-type="alpha" maskUnits="userSpaceOnUse" x="0" y="0" width="328" height="972">
<rect width="328" height="972" fill="url(#paint0_linear)"/>
</mask>
<g mask="url(#mask0)">
<rect x="-513" width="1354" height="972" fill="url(#paint1_linear)"/>
<path d="M139 337.5L-165 522.5L-230 214L139 337.5Z" fill="url(#paint2_linear)"/>
<path d="M139 337.5L-198.5 -405L-230 214L139 337.5Z" fill="url(#paint3_linear)"/>
<g filter="url(#filter0_d)">
<path fill-rule="evenodd" clip-rule="evenodd" d="M45.2254 74.9706C35.8528 65.598 20.6569 65.598 11.2843 74.9706L-0.0294375 86.2843C-9.40202 95.6568 -9.40202 110.853 -0.0294375 120.225L16.9411 137.196L32.8832 153.138C42.8238 163.079 58.9407 163.079 68.8813 153.138V153.138C69.8754 152.144 69.8754 150.532 68.8813 149.538L46.9225 127.579C41.2989 121.956 41.2989 112.838 46.9225 107.215V107.215C55.3578 98.7793 55.3578 85.1029 46.9225 76.6676L45.2254 74.9706Z" fill="#FFBA00"/>
</g>
<g opacity="0.64" filter="url(#filter1_d)">
<path fill-rule="evenodd" clip-rule="evenodd" d="M260 130.25C260 126.246 256.754 123 252.75 123L250 123C244.477 123 240 127.477 240 133L240 137.5L240 144.045C240 148.439 243.561 152 247.955 152V152C248.394 152 248.75 151.644 248.75 151.205L248.75 142C248.75 139.515 250.765 137.5 253.25 137.5V137.5C256.978 137.5 260 134.478 260 130.75L260 130.25Z" fill="#FFBA00"/>
</g>
<g filter="url(#filter2_d)">
<path fill-rule="evenodd" clip-rule="evenodd" d="M134.033 81.1822C130.602 68.379 117.442 60.781 104.639 64.2116L89.1842 68.3527C76.381 71.7833 68.783 84.9434 72.2136 97.7466L78.4253 120.929L84.2605 142.706C87.899 156.285 101.857 164.344 115.436 160.705V160.705C116.794 160.341 117.6 158.946 117.236 157.588L109.198 127.591C107.14 119.909 111.699 112.013 119.381 109.955V109.955C130.903 106.867 137.742 95.0233 134.654 83.5004L134.033 81.1822Z" fill="#E732FB"/>
</g>
<g opacity="0.64" filter="url(#filter3_d)">
<path fill-rule="evenodd" clip-rule="evenodd" d="M278.365 151.652C280.373 148.175 279.181 143.729 275.704 141.722L273.606 140.51C268.97 137.834 263.042 139.422 260.366 144.058L257.943 148.255L254.528 154.169C252.399 157.857 253.663 162.572 257.35 164.701V164.701C257.719 164.914 258.19 164.788 258.403 164.419L263.106 156.273C264.311 154.187 266.978 153.472 269.065 154.676V154.676C272.194 156.483 276.195 155.411 278.002 152.282L278.365 151.652Z" fill="#E732FB"/>
</g>
<g opacity="0.4" filter="url(#filter4_d)">
<g opacity="0.4">
<path d="M244.746 259.141L237.83 260.994L239.78 268.273L237.607 268.855L233.191 252.374L243.401 249.638L243.88 251.427L235.843 253.58L237.354 259.217L244.27 257.364L244.746 259.141ZM252.368 264.9L250.273 265.461L246.992 253.213L249.086 252.652L252.368 264.9ZM245.951 250.01C245.86 249.671 245.885 249.357 246.027 249.068C246.175 248.778 246.453 248.578 246.861 248.469C247.268 248.359 247.609 248.393 247.883 248.571C248.157 248.748 248.339 249.006 248.43 249.346C248.521 249.686 248.492 249.997 248.341 250.28C248.19 250.563 247.911 250.759 247.504 250.868C247.096 250.977 246.757 250.947 246.485 250.777C246.22 250.606 246.042 250.35 245.951 250.01ZM257.755 255.122L259.273 249.923L261.718 249.268L259.334 256.397L265.125 261.482L262.702 262.131L258.644 258.305L257.042 263.647L254.609 264.299L257.081 257.001L251.452 252.018L253.874 251.369L257.755 255.122ZM271.668 246.601L272.089 247.945C272.704 246.648 273.773 245.795 275.298 245.386C277.011 244.927 278.352 245.271 279.323 246.419C279.573 245.721 279.974 245.104 280.526 244.568C281.085 244.03 281.81 243.641 282.7 243.403C285.387 242.683 287.134 243.739 287.942 246.572L290.141 254.779L288.046 255.34L285.881 247.258C285.646 246.382 285.271 245.783 284.756 245.46C284.239 245.13 283.509 245.091 282.565 245.344C281.788 245.552 281.206 245.959 280.818 246.564C280.428 247.162 280.297 247.864 280.424 248.671L282.602 256.799L280.496 257.363L278.346 249.337C277.869 247.557 276.759 246.9 275.015 247.367C273.642 247.735 272.859 248.571 272.667 249.876L275.063 258.819L272.969 259.38L269.687 247.132L271.668 246.601ZM296.495 249.788L296.888 239.844L299.129 239.243L297.993 254.701C297.777 256.942 296.839 258.286 295.179 258.731L294.773 258.803L293.953 258.865L293.498 257.167L294.076 257.061C294.786 256.871 295.298 256.58 295.614 256.188C295.937 255.794 296.124 255.181 296.177 254.35L296.307 252.981L288.693 242.04L290.979 241.427L296.495 249.788Z" fill="#364250"/>
<path d="M244.746 259.141L245.264 261.073L247.196 260.555L246.678 258.624L244.746 259.141ZM237.83 260.994L237.312 259.062L235.381 259.58L235.898 261.512L237.83 260.994ZM239.78 268.273L240.298 270.205L242.23 269.687L241.712 267.755L239.78 268.273ZM237.607 268.855L235.675 269.373L236.193 271.305L238.125 270.787L237.607 268.855ZM233.191 252.374L232.673 250.442L230.741 250.96L231.259 252.892L233.191 252.374ZM243.401 249.638L245.333 249.121L244.815 247.189L242.883 247.706L243.401 249.638ZM243.88 251.427L244.398 253.359L246.33 252.841L245.812 250.909L243.88 251.427ZM235.843 253.58L235.326 251.648L233.394 252.166L233.912 254.098L235.843 253.58ZM237.354 259.217L235.422 259.735L235.94 261.667L237.872 261.149L237.354 259.217ZM244.27 257.364L246.202 256.846L245.684 254.915L243.752 255.432L244.27 257.364ZM244.229 257.209L237.312 259.062L238.348 262.926L245.264 261.073L244.229 257.209ZM235.898 261.512L237.848 268.79L241.712 267.755L239.762 260.477L235.898 261.512ZM239.263 266.341L237.089 266.923L238.125 270.787L240.298 270.205L239.263 266.341ZM239.539 268.337L235.123 251.856L231.259 252.892L235.675 269.373L239.539 268.337ZM233.709 254.306L243.919 251.57L242.883 247.706L232.673 250.442L233.709 254.306ZM241.469 250.156L241.948 251.944L245.812 250.909L245.333 249.121L241.469 250.156ZM243.363 249.495L235.326 251.648L236.361 255.512L244.398 253.359L243.363 249.495ZM233.912 254.098L235.422 259.735L239.286 258.7L237.775 253.062L233.912 254.098ZM237.872 261.149L244.788 259.296L243.752 255.432L236.836 257.285L237.872 261.149ZM242.338 257.882L242.814 259.659L246.678 258.624L246.202 256.846L242.338 257.882ZM252.368 264.9L252.885 266.832L254.817 266.314L254.299 264.382L252.368 264.9ZM250.273 265.461L248.342 265.979L248.859 267.911L250.791 267.393L250.273 265.461ZM246.992 253.213L246.474 251.282L244.542 251.799L245.06 253.731L246.992 253.213ZM249.086 252.652L251.018 252.135L250.5 250.203L248.568 250.721L249.086 252.652ZM246.027 249.068L244.246 248.157L244.238 248.173L244.23 248.19L246.027 249.068ZM246.485 250.777L245.395 252.454L245.41 252.464L245.425 252.474L246.485 250.777ZM251.85 262.968L249.756 263.529L250.791 267.393L252.885 266.832L251.85 262.968ZM252.205 264.943L248.924 252.696L245.06 253.731L248.342 265.979L252.205 264.943ZM247.509 255.145L249.603 254.584L248.568 250.721L246.474 251.282L247.509 255.145ZM247.154 253.17L250.436 265.418L254.299 264.382L251.018 252.135L247.154 253.17ZM247.883 249.493C247.89 249.518 247.903 249.584 247.896 249.679C247.888 249.777 247.861 249.87 247.823 249.947L244.23 248.19C243.856 248.954 243.816 249.77 244.02 250.528L247.883 249.493ZM247.807 249.979C247.729 250.131 247.62 250.248 247.514 250.324C247.417 250.394 247.356 250.406 247.378 250.4L246.343 246.537C245.559 246.747 244.723 247.225 244.246 248.157L247.807 249.979ZM247.378 250.4C247.401 250.394 247.342 250.414 247.223 250.402C247.093 250.389 246.94 250.342 246.796 250.25L248.97 246.892C248.091 246.323 247.127 246.327 246.343 246.537L247.378 250.4ZM246.796 250.25C246.726 250.204 246.652 250.137 246.592 250.051C246.532 249.967 246.507 249.897 246.499 249.864L250.362 248.828C250.154 248.051 249.693 247.36 248.97 246.892L246.796 250.25ZM246.499 249.864C246.49 249.831 246.475 249.753 246.485 249.644C246.496 249.53 246.53 249.425 246.575 249.34L250.106 251.22C250.519 250.445 250.571 249.606 250.362 248.828L246.499 249.864ZM246.575 249.34C246.657 249.187 246.768 249.074 246.869 249.003C246.96 248.938 247.015 248.929 246.986 248.936L248.021 252.8C248.787 252.595 249.62 252.134 250.106 251.22L246.575 249.34ZM246.986 248.936C246.957 248.944 247.009 248.925 247.121 248.935C247.244 248.946 247.396 248.989 247.544 249.081L245.425 252.474C246.304 253.022 247.256 253.005 248.021 252.8L246.986 248.936ZM247.574 249.1C247.656 249.154 247.734 249.228 247.795 249.315C247.854 249.4 247.877 249.468 247.883 249.493L244.02 250.528C244.223 251.286 244.668 251.982 245.395 252.454L247.574 249.1ZM257.755 255.122L256.364 256.56L258.746 258.862L259.674 255.683L257.755 255.122ZM259.273 249.923L258.756 247.991L257.669 248.282L257.354 249.362L259.273 249.923ZM261.718 249.268L263.615 249.902L264.795 246.372L261.201 247.336L261.718 249.268ZM259.334 256.397L257.437 255.763L257.016 257.023L258.014 257.9L259.334 256.397ZM265.125 261.482L265.642 263.414L269.254 262.446L266.444 259.979L265.125 261.482ZM262.702 262.131L261.33 263.586L262.142 264.351L263.22 264.063L262.702 262.131ZM258.644 258.305L260.016 256.85L257.658 254.627L256.728 257.73L258.644 258.305ZM257.042 263.647L257.56 265.579L258.638 265.29L258.958 264.222L257.042 263.647ZM254.609 264.299L252.715 263.658L251.515 267.199L255.126 266.231L254.609 264.299ZM257.081 257.001L258.976 257.642L259.402 256.384L258.407 255.503L257.081 257.001ZM251.452 252.018L250.934 250.087L247.339 251.05L250.126 253.516L251.452 252.018ZM253.874 251.369L255.264 249.932L254.45 249.144L253.356 249.438L253.874 251.369ZM259.674 255.683L261.193 250.483L257.354 249.362L255.835 254.561L259.674 255.683ZM259.791 251.854L262.236 251.199L261.201 247.336L258.756 247.991L259.791 251.854ZM259.822 248.633L257.437 255.763L261.231 257.031L263.615 249.902L259.822 248.633ZM258.014 257.9L263.805 262.985L266.444 259.979L260.654 254.894L258.014 257.9ZM264.607 259.55L262.185 260.199L263.22 264.063L265.642 263.414L264.607 259.55ZM264.074 260.676L260.016 256.85L257.272 259.76L261.33 263.586L264.074 260.676ZM256.728 257.73L255.127 263.073L258.958 264.222L260.56 258.879L256.728 257.73ZM256.525 261.716L254.091 262.368L255.126 266.231L257.56 265.579L256.525 261.716ZM256.503 264.941L258.976 257.642L255.187 256.359L252.715 263.658L256.503 264.941ZM258.407 255.503L252.777 250.521L250.126 253.516L255.756 258.498L258.407 255.503ZM251.969 253.95L254.392 253.301L253.356 249.438L250.934 250.087L251.969 253.95ZM252.484 252.807L256.364 256.56L259.145 253.684L255.264 249.932L252.484 252.807ZM271.668 246.601L273.577 246.004L273.003 244.173L271.15 244.67L271.668 246.601ZM272.089 247.945L270.18 248.542L271.707 253.419L273.896 248.801L272.089 247.945ZM279.323 246.419L277.796 247.71L280.037 250.359L281.206 247.093L279.323 246.419ZM280.526 244.568L279.139 243.126L279.132 243.133L280.526 244.568ZM287.942 246.572L289.873 246.055L289.869 246.039L289.865 246.024L287.942 246.572ZM290.141 254.779L290.658 256.711L292.59 256.193L292.072 254.261L290.141 254.779ZM288.046 255.34L286.115 255.858L286.632 257.789L288.564 257.272L288.046 255.34ZM284.756 245.46L283.679 247.146L283.687 247.15L283.694 247.155L284.756 245.46ZM280.818 246.564L282.493 247.656L282.498 247.65L282.502 247.643L280.818 246.564ZM280.424 248.671L278.448 248.983L278.465 249.087L278.492 249.189L280.424 248.671ZM282.602 256.799L283.119 258.731L285.051 258.213L284.534 256.281L282.602 256.799ZM280.496 257.363L278.565 257.881L279.082 259.812L281.014 259.295L280.496 257.363ZM272.667 249.876L270.688 249.585L270.628 249.994L270.735 250.394L272.667 249.876ZM275.063 258.819L275.581 260.751L277.513 260.233L276.995 258.301L275.063 258.819ZM272.969 259.38L271.037 259.898L271.555 261.829L273.487 261.312L272.969 259.38ZM269.687 247.132L269.17 245.2L267.238 245.718L267.755 247.65L269.687 247.132ZM269.759 247.199L270.18 248.542L273.997 247.347L273.577 246.004L269.759 247.199ZM273.896 248.801C274.233 248.091 274.794 247.592 275.815 247.318L274.78 243.454C272.752 243.998 271.175 245.204 270.281 247.088L273.896 248.801ZM275.815 247.318C276.431 247.153 276.835 247.172 277.092 247.237C277.326 247.298 277.555 247.425 277.796 247.71L280.85 245.127C280.12 244.265 279.193 243.647 278.086 243.363C277.001 243.085 275.877 243.16 274.78 243.454L275.815 247.318ZM281.206 247.093C281.349 246.694 281.578 246.334 281.919 246.002L279.132 243.133C278.37 243.874 277.797 244.748 277.44 245.745L281.206 247.093ZM281.912 246.009C282.186 245.746 282.593 245.502 283.218 245.335L282.183 241.471C281.027 241.781 279.984 242.314 279.139 243.126L281.912 246.009ZM283.218 245.335C284.232 245.063 284.732 245.21 284.991 245.367C285.273 245.537 285.692 245.976 286.018 247.12L289.865 246.024C289.384 244.335 288.525 242.829 287.061 241.944C285.572 241.043 283.855 241.023 282.183 241.471L283.218 245.335ZM286.01 247.09L288.209 255.296L292.072 254.261L289.873 246.055L286.01 247.09ZM289.623 252.847L287.529 253.408L288.564 257.272L290.658 256.711L289.623 252.847ZM289.978 254.822L287.813 246.74L283.949 247.775L286.115 255.858L289.978 254.822ZM287.813 246.74C287.51 245.611 286.931 244.463 285.818 243.766L283.694 247.155C283.612 247.104 283.782 247.154 283.949 247.775L287.813 246.74ZM285.833 243.775C284.625 243.003 283.22 243.098 282.048 243.412L283.083 247.275C283.415 247.187 283.616 247.175 283.714 247.18C283.8 247.185 283.763 247.199 283.679 247.146L285.833 243.775ZM282.048 243.412C280.851 243.732 279.823 244.409 279.134 245.485L282.502 247.643C282.588 247.508 282.725 247.371 283.083 247.275L282.048 243.412ZM279.143 245.472C278.443 246.544 278.256 247.763 278.448 248.983L282.4 248.36C282.338 247.966 282.413 247.78 282.493 247.656L279.143 245.472ZM278.492 249.189L280.67 257.316L284.534 256.281L282.356 248.154L278.492 249.189ZM282.084 254.867L279.979 255.431L281.014 259.295L283.119 258.731L282.084 254.867ZM282.428 256.845L280.278 248.82L276.414 249.855L278.565 257.881L282.428 256.845ZM280.278 248.82C279.962 247.642 279.342 246.479 278.174 245.788C276.997 245.091 275.678 245.119 274.498 245.435L275.533 249.299C276.096 249.148 276.204 249.27 276.137 249.23C276.079 249.196 276.253 249.252 276.414 249.855L280.278 248.82ZM274.498 245.435C273.537 245.692 272.64 246.154 271.938 246.904C271.228 247.662 270.834 248.593 270.688 249.585L274.646 250.168C274.692 249.855 274.786 249.714 274.859 249.637C274.94 249.55 275.12 249.409 275.533 249.299L274.498 245.435ZM270.735 250.394L273.131 259.336L276.995 258.301L274.599 249.359L270.735 250.394ZM274.545 256.887L272.451 257.448L273.487 261.312L275.581 260.751L274.545 256.887ZM274.901 258.862L271.619 246.615L267.755 247.65L271.037 259.898L274.901 258.862ZM270.205 249.064L272.186 248.533L271.15 244.67L269.17 245.2L270.205 249.064ZM296.495 249.788L294.826 250.89L298.248 256.078L298.494 249.867L296.495 249.788ZM296.888 239.844L296.37 237.912L294.947 238.293L294.889 239.765L296.888 239.844ZM299.129 239.243L301.124 239.39L301.33 236.583L298.611 237.311L299.129 239.243ZM297.993 254.701L299.984 254.893L299.986 254.87L299.988 254.847L297.993 254.701ZM295.179 258.731L295.53 260.7L295.614 260.685L295.696 260.662L295.179 258.731ZM294.773 258.803L294.924 260.797L295.025 260.789L295.124 260.772L294.773 258.803ZM293.953 258.865L292.021 259.382L292.45 260.984L294.104 260.859L293.953 258.865ZM293.498 257.167L293.136 255.2L291.005 255.592L291.566 257.685L293.498 257.167ZM294.076 257.061L294.438 259.028L294.517 259.013L294.594 258.992L294.076 257.061ZM295.614 256.188L294.067 254.919L294.061 254.926L294.056 254.933L295.614 256.188ZM296.177 254.35L294.186 254.161L294.183 254.193L294.181 254.225L296.177 254.35ZM296.307 252.981L298.298 253.171L298.368 252.44L297.949 251.838L296.307 252.981ZM288.693 242.04L288.175 240.108L285.424 240.845L287.051 243.182L288.693 242.04ZM290.979 241.427L292.649 240.326L291.854 239.122L290.461 239.495L290.979 241.427ZM298.494 249.867L298.886 239.923L294.889 239.765L294.497 249.709L298.494 249.867ZM297.405 241.776L299.647 241.175L298.611 237.311L296.37 237.912L297.405 241.776ZM297.134 239.097L295.999 254.554L299.988 254.847L301.124 239.39L297.134 239.097ZM296.003 254.509C295.916 255.409 295.7 255.941 295.488 256.244C295.302 256.51 295.06 256.692 294.661 256.799L295.696 260.662C296.957 260.325 298.014 259.612 298.767 258.535C299.494 257.495 299.855 256.234 299.984 254.893L296.003 254.509ZM294.828 256.762L294.423 256.834L295.124 260.772L295.53 260.7L294.828 256.762ZM294.622 256.808L293.802 256.871L294.104 260.859L294.924 260.797L294.622 256.808ZM295.885 258.347L295.43 256.649L291.566 257.685L292.021 259.382L295.885 258.347ZM293.86 259.134L294.438 259.028L293.714 255.094L293.136 255.2L293.86 259.134ZM294.594 258.992C295.533 258.741 296.493 258.285 297.171 257.442L294.056 254.933C294.103 254.874 294.038 255 293.559 255.129L294.594 258.992ZM297.16 257.456C297.87 256.59 298.109 255.483 298.173 254.476L294.181 254.225C294.162 254.528 294.121 254.727 294.084 254.847C294.048 254.966 294.027 254.968 294.067 254.919L297.16 257.456ZM298.168 254.54L298.298 253.171L294.316 252.791L294.186 254.161L298.168 254.54ZM297.949 251.838L290.334 240.897L287.051 243.182L294.666 254.123L297.949 251.838ZM289.21 243.972L291.497 243.359L290.461 239.495L288.175 240.108L289.21 243.972ZM289.31 242.528L294.826 250.89L298.165 248.687L292.649 240.326L289.31 242.528Z" fill="white"/>
</g>
<g opacity="0.4">
<path d="M174.291 308.718C172.57 307.683 171.388 306.662 170.743 305.656C170.108 304.645 169.945 303.566 170.252 302.419C170.6 301.121 171.404 300.188 172.664 299.62C173.934 299.046 175.399 298.982 177.059 299.426C178.191 299.73 179.14 300.218 179.906 300.893C180.679 301.569 181.204 302.357 181.48 303.256C181.765 304.157 181.784 305.064 181.54 305.977L179.355 305.392C179.622 304.396 179.514 303.53 179.032 302.794C178.552 302.051 177.735 301.524 176.58 301.215C175.508 300.928 174.607 300.941 173.876 301.255C173.154 301.563 172.681 302.136 172.457 302.973C172.277 303.645 172.407 304.29 172.848 304.91C173.298 305.524 174.155 306.206 175.417 306.957C176.688 307.71 177.645 308.424 178.289 309.098C178.943 309.766 179.372 310.46 179.576 311.177C179.788 311.897 179.781 312.676 179.557 313.514C179.199 314.849 178.391 315.782 177.133 316.31C175.878 316.831 174.378 316.858 172.635 316.391C171.503 316.087 170.504 315.589 169.638 314.896C168.775 314.196 168.176 313.396 167.842 312.498C167.516 311.602 167.482 310.675 167.739 309.716L169.923 310.302C169.656 311.298 169.811 312.184 170.387 312.962C170.973 313.733 171.881 314.284 173.111 314.613C174.258 314.921 175.2 314.922 175.937 314.618C176.673 314.314 177.15 313.758 177.366 312.951C177.582 312.144 177.466 311.445 177.018 310.856C176.571 310.259 175.662 309.546 174.291 308.718ZM183.177 318.973L181.083 318.412L184.365 306.164L186.459 306.725L183.177 318.973ZM185.066 302.87C185.157 302.53 185.335 302.271 185.602 302.091C185.876 301.914 186.217 301.88 186.624 301.989C187.032 302.098 187.31 302.298 187.458 302.589C187.607 302.879 187.636 303.195 187.545 303.534C187.454 303.874 187.272 304.128 187 304.298C186.728 304.468 186.389 304.498 185.981 304.389C185.574 304.28 185.295 304.084 185.144 303.801C185.001 303.52 184.975 303.209 185.066 302.87ZM193.457 305.422L192.662 308.387L194.949 309L194.515 310.619L192.228 310.006L190.193 317.601C190.062 318.092 190.065 318.489 190.202 318.792C190.341 319.089 190.656 319.302 191.146 319.434C191.388 319.498 191.732 319.542 192.179 319.565L191.724 321.263C191.132 321.266 190.576 321.198 190.056 321.058C189.12 320.808 188.49 320.336 188.166 319.642C187.843 318.949 187.82 318.082 188.099 317.04L190.134 309.445L187.904 308.847L188.338 307.229L190.568 307.826L191.363 304.86L193.457 305.422ZM199.145 323.494C197.485 323.049 196.28 322.144 195.529 320.778C194.781 319.405 194.652 317.805 195.141 315.979L195.244 315.594C195.57 314.379 196.09 313.358 196.805 312.53C197.53 311.697 198.379 311.124 199.353 310.811C200.336 310.492 201.314 310.463 202.288 310.724C203.88 311.15 204.977 312.007 205.579 313.292C206.181 314.578 206.22 316.198 205.696 318.152L205.463 319.024L197.166 316.8C196.872 318.016 196.961 319.087 197.433 320.014C197.914 320.936 198.675 321.536 199.716 321.815C200.456 322.013 201.123 322.03 201.717 321.866C202.311 321.701 202.867 321.422 203.385 321.027L204.397 322.366C202.948 323.668 201.198 324.044 199.145 323.494ZM201.827 312.444C200.982 312.218 200.189 312.337 199.45 312.802C198.713 313.26 198.128 314.025 197.694 315.098L203.83 316.742L203.872 316.583C204.097 315.503 204.03 314.604 203.673 313.885C203.318 313.159 202.702 312.679 201.827 312.444Z" fill="#364250"/>
<path d="M174.291 308.718L175.325 307.006L175.322 307.004L174.291 308.718ZM170.743 305.656L169.049 306.72L169.054 306.728L169.059 306.735L170.743 305.656ZM172.664 299.62L173.486 301.443L173.488 301.442L172.664 299.62ZM179.906 300.893L178.584 302.394L178.589 302.398L179.906 300.893ZM181.48 303.256L179.569 303.844L179.573 303.858L181.48 303.256ZM181.54 305.977L181.022 307.909L182.954 308.427L183.472 306.495L181.54 305.977ZM179.355 305.392L177.423 304.874L176.906 306.806L178.838 307.324L179.355 305.392ZM179.032 302.794L177.352 303.879L177.359 303.89L179.032 302.794ZM173.876 301.255L174.661 303.094L174.665 303.093L173.876 301.255ZM172.848 304.91L171.218 306.069L171.227 306.081L171.235 306.093L172.848 304.91ZM175.417 306.957L174.395 308.676L174.398 308.678L175.417 306.957ZM178.289 309.098L176.844 310.48L176.852 310.488L176.86 310.496L178.289 309.098ZM179.576 311.177L177.652 311.724L177.655 311.733L177.657 311.741L179.576 311.177ZM177.133 316.31L177.9 318.157L177.908 318.154L177.133 316.31ZM169.638 314.896L168.379 316.449L168.389 316.458L169.638 314.896ZM167.842 312.498L165.963 313.182L165.968 313.194L167.842 312.498ZM167.739 309.716L168.256 307.784L166.324 307.267L165.807 309.199L167.739 309.716ZM169.923 310.302L171.855 310.819L172.373 308.887L170.441 308.37L169.923 310.302ZM170.387 312.962L168.781 314.153L168.787 314.162L168.794 314.171L170.387 312.962ZM177.018 310.856L175.416 312.054L175.421 312.061L175.426 312.067L177.018 310.856ZM175.322 307.004C173.708 306.033 172.829 305.205 172.427 304.577L169.059 306.735C169.946 308.119 171.432 309.332 173.259 310.431L175.322 307.004ZM172.437 304.593C172.096 304.05 172.021 303.543 172.184 302.936L168.32 301.901C167.868 303.589 168.121 305.24 169.049 306.72L172.437 304.593ZM172.184 302.936C172.371 302.237 172.755 301.773 173.486 301.443L171.842 297.796C170.053 298.603 168.828 300.005 168.32 301.901L172.184 302.936ZM173.488 301.442C174.245 301.1 175.22 301.004 176.542 301.358L177.577 297.495C175.578 296.959 173.623 296.992 171.841 297.797L173.488 301.442ZM176.542 301.358C177.42 301.594 178.082 301.951 178.584 302.394L181.227 299.392C180.198 298.486 178.962 297.866 177.577 297.495L176.542 301.358ZM178.589 302.398C179.109 302.853 179.411 303.332 179.569 303.844L183.392 302.668C182.996 301.381 182.248 300.285 181.222 299.387L178.589 302.398ZM179.573 303.858C179.743 304.395 179.754 304.914 179.608 305.46L183.472 306.495C183.815 305.214 183.787 303.919 183.388 302.654L179.573 303.858ZM182.057 304.045L179.873 303.46L178.838 307.324L181.022 307.909L182.057 304.045ZM181.287 305.91C181.673 304.467 181.554 302.993 180.705 301.698L177.359 303.89C177.475 304.066 177.571 304.324 177.423 304.874L181.287 305.91ZM180.712 301.709C179.88 300.421 178.561 299.675 177.098 299.283L176.062 303.147C176.908 303.373 177.223 303.68 177.352 303.879L180.712 301.709ZM177.098 299.283C175.761 298.925 174.367 298.868 173.087 299.417L174.665 303.093C174.847 303.014 175.256 302.931 176.062 303.147L177.098 299.283ZM173.09 299.415C171.74 299.992 170.889 301.096 170.525 302.456L174.389 303.491C174.474 303.175 174.569 303.133 174.661 303.094L173.09 299.415ZM170.525 302.456C170.175 303.762 170.469 305.015 171.218 306.069L174.478 303.751C174.395 303.635 174.382 303.574 174.38 303.565C174.379 303.559 174.379 303.554 174.379 303.547C174.379 303.54 174.38 303.522 174.389 303.491L170.525 302.456ZM171.235 306.093C171.931 307.042 173.076 307.892 174.395 308.676L176.44 305.238C175.233 304.521 174.665 304.006 174.461 303.727L171.235 306.093ZM174.398 308.678C175.591 309.385 176.376 309.991 176.844 310.48L179.735 307.716C178.914 306.856 177.784 306.035 176.437 305.237L174.398 308.678ZM176.86 310.496C177.338 310.986 177.56 311.398 177.652 311.724L181.5 310.631C181.185 309.521 180.548 308.547 179.719 307.699L176.86 310.496ZM177.657 311.741C177.75 312.057 177.769 312.457 177.625 312.996L181.489 314.031C181.793 312.895 181.825 311.738 181.495 310.614L177.657 311.741ZM177.625 312.996C177.425 313.744 177.037 314.181 176.359 314.466L177.908 318.154C179.745 317.382 180.973 315.955 181.489 314.031L177.625 312.996ZM176.367 314.463C175.634 314.767 174.609 314.849 173.153 314.459L172.117 318.322C174.147 318.866 176.121 318.895 177.9 318.157L176.367 314.463ZM173.153 314.459C172.272 314.223 171.526 313.845 170.888 313.335L168.389 316.458C169.482 317.333 170.734 317.952 172.117 318.322L173.153 314.459ZM170.898 313.343C170.267 312.831 169.907 312.314 169.717 311.802L165.968 313.194C166.445 314.479 167.282 315.56 168.379 316.449L170.898 313.343ZM169.722 311.814C169.542 311.32 169.515 310.813 169.67 310.234L165.807 309.199C165.448 310.536 165.491 311.884 165.963 313.182L169.722 311.814ZM167.221 311.648L169.406 312.233L170.441 308.37L168.256 307.784L167.221 311.648ZM167.991 309.784C167.578 311.325 167.814 312.849 168.781 314.153L171.994 311.77C171.808 311.519 171.734 311.271 171.855 310.819L167.991 309.784ZM168.794 314.171C169.722 315.393 171.07 316.137 172.594 316.545L173.629 312.682C172.692 312.431 172.224 312.073 171.98 311.752L168.794 314.171ZM172.594 316.545C173.966 316.913 175.401 317.003 176.7 316.467L175.173 312.77C174.999 312.842 174.55 312.928 173.629 312.682L172.594 316.545ZM176.7 316.467C178.044 315.912 178.93 314.843 179.298 313.469L175.434 312.433C175.392 312.589 175.346 312.651 175.328 312.672C175.313 312.69 175.277 312.727 175.173 312.77L176.7 316.467ZM179.298 313.469C179.651 312.151 179.484 310.794 178.609 309.644L175.426 312.067C175.463 312.115 175.466 312.137 175.468 312.15C175.472 312.171 175.482 312.256 175.434 312.433L179.298 313.469ZM178.619 309.658C177.924 308.728 176.721 307.85 175.325 307.006L173.256 310.43C174.602 311.243 175.218 311.79 175.416 312.054L178.619 309.658ZM183.177 318.973L182.66 320.905L184.592 321.422L185.109 319.49L183.177 318.973ZM181.083 318.412L179.151 317.894L178.634 319.826L180.566 320.344L181.083 318.412ZM184.365 306.164L184.883 304.232L182.951 303.715L182.433 305.646L184.365 306.164ZM186.459 306.725L188.391 307.243L188.909 305.311L186.977 304.793L186.459 306.725ZM185.602 302.091L184.515 300.412L184.5 300.422L184.485 300.432L185.602 302.091ZM185.144 303.801L183.362 304.708L183.37 304.724L183.378 304.74L185.144 303.801ZM183.695 317.041L181.601 316.48L180.566 320.344L182.66 320.905L183.695 317.041ZM183.015 318.929L186.297 306.682L182.433 305.646L179.151 317.894L183.015 318.929ZM183.847 308.096L185.942 308.657L186.977 304.793L184.883 304.232L183.847 308.096ZM184.527 306.208L181.246 318.455L185.109 319.49L188.391 307.243L184.527 306.208ZM186.998 303.388C186.991 303.413 186.969 303.476 186.915 303.555C186.859 303.636 186.789 303.703 186.719 303.751L184.485 300.432C183.779 300.908 183.337 301.594 183.134 302.352L186.998 303.388ZM186.689 303.771C186.545 303.863 186.392 303.91 186.262 303.923C186.143 303.935 186.084 303.915 186.106 303.921L187.142 300.057C186.358 299.847 185.394 299.844 184.515 300.412L186.689 303.771ZM186.106 303.921C186.129 303.927 186.068 303.915 185.971 303.845C185.865 303.769 185.755 303.652 185.678 303.5L189.239 301.678C188.762 300.746 187.926 300.268 187.142 300.057L186.106 303.921ZM185.678 303.5C185.64 303.425 185.609 303.33 185.6 303.225C185.59 303.123 185.604 303.049 185.613 303.016L189.477 304.052C189.685 303.274 189.631 302.445 189.239 301.678L185.678 303.5ZM185.613 303.016C185.622 302.984 185.648 302.909 185.712 302.819C185.778 302.727 185.86 302.653 185.941 302.602L188.059 305.995C188.804 305.53 189.268 304.829 189.477 304.052L185.613 303.016ZM185.941 302.602C186.089 302.51 186.241 302.467 186.364 302.456C186.475 302.446 186.528 302.465 186.499 302.457L185.463 306.321C186.229 306.526 187.181 306.543 188.059 305.995L185.941 302.602ZM186.499 302.457C186.47 302.449 186.524 302.459 186.616 302.524C186.717 302.594 186.828 302.708 186.909 302.861L183.378 304.74C183.865 305.654 184.698 306.116 185.463 306.321L186.499 302.457ZM186.926 302.893C186.971 302.98 187.001 303.084 187.01 303.19C187.019 303.293 187.004 303.363 186.998 303.388L183.134 302.352C182.931 303.11 182.968 303.935 183.362 304.708L186.926 302.893ZM193.457 305.422L195.389 305.939L195.906 304.007L193.975 303.49L193.457 305.422ZM192.662 308.387L190.73 307.87L190.213 309.801L192.145 310.319L192.662 308.387ZM194.949 309L196.881 309.518L197.398 307.586L195.466 307.068L194.949 309ZM194.515 310.619L193.997 312.55L195.929 313.068L196.447 311.136L194.515 310.619ZM192.228 310.006L192.746 308.074L190.814 307.556L190.297 309.488L192.228 310.006ZM190.202 318.792L188.379 319.615L188.385 319.629L188.391 319.643L190.202 318.792ZM192.179 319.565L194.11 320.082L194.751 317.693L192.28 317.567L192.179 319.565ZM191.724 321.263L191.735 323.263L193.261 323.254L193.655 321.78L191.724 321.263ZM190.134 309.445L192.066 309.962L192.584 308.031L190.652 307.513L190.134 309.445ZM187.904 308.847L185.973 308.33L185.455 310.262L187.387 310.779L187.904 308.847ZM188.338 307.229L188.856 305.297L186.924 304.779L186.406 306.711L188.338 307.229ZM190.568 307.826L190.05 309.758L191.982 310.276L192.5 308.344L190.568 307.826ZM191.363 304.86L191.88 302.929L189.949 302.411L189.431 304.343L191.363 304.86ZM191.525 304.904L190.73 307.87L194.594 308.905L195.389 305.939L191.525 304.904ZM192.145 310.319L194.431 310.932L195.466 307.068L193.18 306.455L192.145 310.319ZM193.017 308.482L192.583 310.101L196.447 311.136L196.881 309.518L193.017 308.482ZM195.033 308.687L192.746 308.074L191.711 311.938L193.997 312.55L195.033 308.687ZM190.297 309.488L188.261 317.084L192.125 318.119L194.16 310.524L190.297 309.488ZM188.261 317.084C188.07 317.797 187.975 318.72 188.379 319.615L192.025 317.97C192.091 318.116 192.097 318.225 192.097 318.253C192.097 318.276 192.094 318.236 192.125 318.119L188.261 317.084ZM188.391 319.643C188.893 320.71 189.884 321.166 190.628 321.366L191.664 317.502C191.567 317.476 191.588 317.467 191.666 317.52C191.756 317.582 191.906 317.716 192.012 317.942L188.391 319.643ZM190.628 321.366C191.073 321.485 191.581 321.537 192.077 321.562L192.28 317.567C191.882 317.547 191.702 317.512 191.664 317.502L190.628 321.366ZM190.247 319.047L189.792 320.745L193.655 321.78L194.11 320.082L190.247 319.047ZM191.712 319.263C191.282 319.265 190.906 319.216 190.573 319.127L189.538 322.99C190.247 323.18 190.982 323.267 191.735 323.263L191.712 319.263ZM190.573 319.127C190.044 318.985 189.988 318.817 189.978 318.796L186.354 320.489C186.992 321.854 188.196 322.631 189.538 322.99L190.573 319.127ZM189.978 318.796C189.922 318.674 189.825 318.328 190.031 317.558L186.167 316.523C185.816 317.835 185.763 319.224 186.354 320.489L189.978 318.796ZM190.031 317.558L192.066 309.962L188.203 308.927L186.167 316.523L190.031 317.558ZM190.652 307.513L188.422 306.915L187.387 310.779L189.617 311.377L190.652 307.513ZM189.836 309.365L190.27 307.746L186.406 306.711L185.973 308.33L189.836 309.365ZM187.821 309.161L190.05 309.758L191.086 305.894L188.856 305.297L187.821 309.161ZM192.5 308.344L193.295 305.378L189.431 304.343L188.636 307.309L192.5 308.344ZM190.845 306.792L192.939 307.353L193.975 303.49L191.88 302.929L190.845 306.792ZM195.529 320.778L193.773 321.735L193.777 321.741L195.529 320.778ZM196.805 312.53L195.296 311.218L195.292 311.223L196.805 312.53ZM199.353 310.811L199.966 312.715L199.97 312.713L199.353 310.811ZM205.463 319.024L204.945 320.955L206.877 321.473L207.395 319.541L205.463 319.024ZM197.166 316.8L197.683 314.869L195.702 314.338L195.221 316.331L197.166 316.8ZM197.433 320.014L195.65 320.921L195.655 320.93L195.66 320.94L197.433 320.014ZM203.385 321.027L204.981 319.821L203.77 318.219L202.173 319.436L203.385 321.027ZM204.397 322.366L205.734 323.853L207.101 322.625L205.993 321.16L204.397 322.366ZM199.45 312.802L200.505 314.502L200.515 314.495L199.45 312.802ZM197.694 315.098L195.84 314.349L194.994 316.445L197.177 317.03L197.694 315.098ZM203.83 316.742L203.312 318.674L205.244 319.191L205.761 317.26L203.83 316.742ZM203.872 316.583L205.804 317.101L205.819 317.046L205.83 316.991L203.872 316.583ZM203.673 313.885L201.877 314.765L201.882 314.776L203.673 313.885ZM199.663 321.562C198.469 321.242 197.742 320.651 197.282 319.815L193.777 321.741C194.818 323.636 196.501 324.856 198.627 325.426L199.663 321.562ZM197.286 319.821C196.833 318.99 196.687 317.937 197.073 316.497L193.209 315.461C192.617 317.674 192.73 319.82 193.773 321.735L197.286 319.821ZM197.073 316.497L197.176 316.112L193.312 315.076L193.209 315.461L197.073 316.497ZM197.176 316.112C197.435 315.145 197.828 314.405 198.319 313.838L195.292 311.223C194.352 312.311 193.704 313.614 193.312 315.076L197.176 316.112ZM198.314 313.843C198.819 313.262 199.366 312.908 199.966 312.715L198.74 308.907C197.392 309.341 196.241 310.132 195.296 311.218L198.314 313.843ZM199.97 312.713C200.596 312.51 201.18 312.497 201.77 312.656L202.805 308.792C201.449 308.428 200.076 308.474 198.736 308.908L199.97 312.713ZM201.77 312.656C202.895 312.957 203.458 313.478 203.768 314.14L207.39 312.444C206.497 310.535 204.865 309.344 202.805 308.792L201.77 312.656ZM203.768 314.14C204.1 314.849 204.217 315.945 203.764 317.634L207.628 318.67C208.223 316.45 208.262 314.306 207.39 312.444L203.768 314.14ZM203.764 317.634L203.531 318.506L207.395 319.541L207.628 318.67L203.764 317.634ZM205.98 317.092L197.683 314.869L196.648 318.732L204.945 320.955L205.98 317.092ZM195.221 316.331C194.84 317.912 194.921 319.487 195.65 320.921L199.215 319.108C199.002 318.687 198.905 318.12 199.11 317.27L195.221 316.331ZM195.66 320.94C196.411 322.378 197.639 323.329 199.199 323.747L200.234 319.883C199.711 319.743 199.417 319.493 199.206 319.089L195.66 320.94ZM199.199 323.747C200.2 324.015 201.238 324.073 202.25 323.793L201.183 319.938C201.007 319.987 200.712 320.011 200.234 319.883L199.199 323.747ZM202.25 323.793C203.103 323.557 203.888 323.158 204.597 322.618L202.173 319.436C201.846 319.685 201.518 319.846 201.183 319.938L202.25 323.793ZM201.79 322.233L202.802 323.572L205.993 321.16L204.981 319.821L201.79 322.233ZM203.06 320.878C202.167 321.681 201.132 321.956 199.663 321.562L198.627 325.426C201.263 326.132 203.73 325.654 205.734 323.853L203.06 320.878ZM202.344 310.513C200.963 310.142 199.597 310.347 198.385 311.109L200.515 314.495C200.782 314.327 201.001 314.294 201.309 314.376L202.344 310.513ZM198.395 311.103C197.194 311.849 196.379 313.013 195.84 314.349L199.549 315.847C199.876 315.038 200.231 314.671 200.505 314.502L198.395 311.103ZM197.177 317.03L203.312 318.674L204.347 314.81L198.212 313.166L197.177 317.03ZM205.761 317.26L205.804 317.101L201.94 316.066L201.898 316.224L205.761 317.26ZM205.83 316.991C206.112 315.634 206.084 314.242 205.464 312.995L201.882 314.776C201.977 314.966 202.081 315.373 201.914 316.176L205.83 316.991ZM205.469 313.006C204.827 311.694 203.703 310.876 202.344 310.513L201.309 314.376C201.702 314.481 201.808 314.624 201.877 314.765L205.469 313.006Z" fill="white"/>
</g>
<g opacity="0.4">
<path d="M216.273 83.3905L214.089 83.9759L212.048 76.3579L203.739 78.5841L205.78 86.2021L203.607 86.7845L199.191 70.3034L201.364 69.721L203.263 76.807L211.571 74.5807L209.673 67.4948L211.857 66.9094L216.273 83.3905ZM224.948 81.3088C223.288 81.7536 221.792 81.5722 220.459 80.7646C219.125 79.9494 218.213 78.6287 217.723 76.8025L217.62 76.4177C217.295 75.2027 217.235 74.0581 217.44 72.984C217.651 71.9002 218.1 70.9792 218.787 70.221C219.479 69.4533 220.311 68.9389 221.285 68.6781C222.877 68.2515 224.255 68.4443 225.419 69.2567C226.583 70.069 227.427 71.4525 227.951 73.4069L228.184 74.2785L219.887 76.5018C220.241 77.7011 220.854 78.5843 221.725 79.1514C222.603 79.709 223.562 79.8482 224.603 79.5692C225.343 79.371 225.929 79.0523 226.361 78.6129C226.793 78.1736 227.135 77.6533 227.387 77.0521L228.933 77.7055C228.329 79.5577 227.001 80.7588 224.948 81.3088ZM221.746 70.3987C220.901 70.6251 220.274 71.1246 219.866 71.8971C219.457 72.662 219.333 73.6173 219.494 74.763L225.629 73.1191L225.587 72.9606C225.241 71.9128 224.734 71.1671 224.065 70.7235C223.394 70.2724 222.621 70.1641 221.746 70.3987ZM234.373 78.5407L232.279 79.1018L227.62 61.7151L229.715 61.154L234.373 78.5407ZM240.01 77.0302L237.916 77.5913L233.257 60.2047L235.352 59.6436L240.01 77.0302ZM241.146 70.041C240.825 68.8412 240.77 67.6994 240.981 66.6156C241.199 65.5299 241.658 64.6144 242.356 63.8693C243.061 63.1221 243.954 62.6039 245.033 62.3148C246.701 61.8679 248.202 62.0843 249.538 62.9639C250.881 63.8414 251.81 65.2386 252.323 67.1554L252.363 67.3025C252.682 68.4948 252.739 69.6281 252.534 70.7023C252.334 71.7669 251.878 72.6775 251.167 73.4343C250.463 74.189 249.56 74.7139 248.459 75.0091C246.799 75.454 245.297 75.2376 243.954 74.3601C242.618 73.4805 241.695 72.0898 241.186 70.1882L241.146 70.041ZM243.318 69.7259C243.682 71.0842 244.288 72.0908 245.135 72.7455C245.989 73.3982 246.944 73.583 248.001 73.2999C249.065 73.0148 249.799 72.3733 250.203 71.3754C250.605 70.3699 250.604 69.1163 250.202 67.6146C249.842 66.2714 249.23 65.2706 248.366 64.6124C247.508 63.9446 246.55 63.7523 245.494 64.0353C244.46 64.3124 243.737 64.9471 243.323 65.9395C242.91 66.9319 242.908 68.194 243.318 69.7259ZM257.69 67.3067L255.8 67.8132L252.483 56.0238L254.679 55.4354L257.69 67.3067ZM256.538 71.4735C256.447 71.1339 256.473 70.8236 256.616 70.5426C256.764 70.2521 257.042 70.0522 257.45 69.943C257.857 69.8338 258.198 69.8679 258.472 70.0452C258.744 70.215 258.926 70.4696 259.017 70.8092C259.108 71.1488 259.078 71.4601 258.927 71.7431C258.774 72.0186 258.494 72.2109 258.087 72.3201C257.679 72.4293 257.341 72.4028 257.071 72.2405C256.806 72.0687 256.629 71.8131 256.538 71.4735Z" fill="#364250"/>
<path d="M216.273 83.3905L216.791 85.3224L218.723 84.8047L218.205 82.8729L216.273 83.3905ZM214.089 83.9759L212.157 84.4935L212.675 86.4254L214.606 85.9077L214.089 83.9759ZM212.048 76.3579L213.979 75.8403L213.462 73.9084L211.53 74.426L212.048 76.3579ZM203.739 78.5841L203.221 76.6523L201.29 77.1699L201.807 79.1018L203.739 78.5841ZM205.78 86.2021L206.298 88.134L208.23 87.6163L207.712 85.6845L205.78 86.2021ZM203.607 86.7845L201.675 87.3021L202.193 89.234L204.125 88.7163L203.607 86.7845ZM199.191 70.3034L198.673 68.3715L196.741 68.8892L197.259 70.821L199.191 70.3034ZM201.364 69.721L203.296 69.2034L202.778 67.2715L200.847 67.7892L201.364 69.721ZM203.263 76.807L201.331 77.3246L201.849 79.2565L203.781 78.7388L203.263 76.807ZM211.571 74.5807L212.089 76.5126L214.021 75.995L213.503 74.0631L211.571 74.5807ZM209.673 67.4948L209.155 65.5629L207.223 66.0806L207.741 68.0124L209.673 67.4948ZM211.857 66.9094L213.789 66.3918L213.272 64.4599L211.34 64.9775L211.857 66.9094ZM215.756 81.4587L213.571 82.044L214.606 85.9077L216.791 85.3224L215.756 81.4587ZM216.021 83.4582L213.979 75.8403L210.116 76.8755L212.157 84.4935L216.021 83.4582ZM211.53 74.426L203.221 76.6523L204.257 80.516L212.565 78.2898L211.53 74.426ZM201.807 79.1018L203.848 86.7198L207.712 85.6845L205.671 78.0665L201.807 79.1018ZM205.263 84.2703L203.089 84.8526L204.125 88.7163L206.298 88.134L205.263 84.2703ZM205.539 86.2668L201.123 69.7857L197.259 70.821L201.675 87.3021L205.539 86.2668ZM199.709 72.2352L201.882 71.6529L200.847 67.7892L198.673 68.3715L199.709 72.2352ZM199.432 70.2387L201.331 77.3246L205.195 76.2894L203.296 69.2034L199.432 70.2387ZM203.781 78.7388L212.089 76.5126L211.054 72.6489L202.745 74.8751L203.781 78.7388ZM213.503 74.0631L211.605 66.9771L207.741 68.0124L209.64 75.0984L213.503 74.0631ZM210.19 69.4266L212.375 68.8413L211.34 64.9775L209.155 65.5629L210.19 69.4266ZM209.926 67.427L214.342 83.9081L218.205 82.8729L213.789 66.3918L209.926 67.427ZM220.459 80.7646L219.417 82.4714L219.422 82.475L220.459 80.7646ZM217.44 72.984L215.477 72.6016L215.476 72.6081L217.44 72.984ZM218.787 70.221L220.269 71.5634L220.272 71.5601L218.787 70.221ZM228.184 74.2785L228.702 76.2104L230.634 75.6928L230.116 73.7609L228.184 74.2785ZM219.887 76.5018L219.369 74.5699L217.389 75.1006L217.969 77.0675L219.887 76.5018ZM221.725 79.1514L220.635 80.8279L220.644 80.8337L220.653 80.8394L221.725 79.1514ZM227.387 77.0521L228.165 75.2099L226.316 74.4284L225.541 76.2805L227.387 77.0521ZM228.933 77.7055L230.834 78.3253L231.404 76.5785L229.711 75.8633L228.933 77.7055ZM219.866 71.8971L221.63 72.8414L221.635 72.8306L219.866 71.8971ZM219.494 74.763L217.514 75.042L217.829 77.2797L220.012 76.6949L219.494 74.763ZM225.629 73.1191L226.147 75.0509L228.079 74.5333L227.561 72.6015L225.629 73.1191ZM225.587 72.9606L227.519 72.443L227.504 72.3882L227.486 72.3344L225.587 72.9606ZM224.065 70.7235L222.949 72.3832L222.96 72.3903L224.065 70.7235ZM224.431 79.3769C223.237 79.6967 222.311 79.5486 221.496 79.0542L219.422 82.475C221.272 83.5958 223.339 83.8105 225.466 83.2406L224.431 79.3769ZM221.502 79.0578C220.693 78.5641 220.041 77.7251 219.655 76.2849L215.791 77.3202C216.384 79.5324 217.556 81.3347 219.417 82.4714L221.502 79.0578ZM219.655 76.2849L219.552 75.9L215.688 76.9353L215.791 77.3202L219.655 76.2849ZM219.552 75.9C219.293 74.9329 219.264 74.096 219.404 73.3599L215.476 72.6081C215.206 74.0202 215.296 75.4725 215.688 76.9353L219.552 75.9ZM219.403 73.3663C219.55 72.6109 219.847 72.03 220.269 71.5634L217.304 68.8786C216.353 69.9285 215.752 71.1895 215.477 72.6016L219.403 73.3663ZM220.272 71.5601C220.713 71.0715 221.212 70.7681 221.802 70.61L220.767 66.7463C219.411 67.1097 218.245 67.8351 217.301 68.882L220.272 71.5601ZM221.802 70.61C222.927 70.3086 223.675 70.4784 224.275 70.8967L226.564 67.6166C224.835 66.4103 222.827 66.1943 220.767 66.7463L221.802 70.61ZM224.275 70.8967C224.916 71.3447 225.566 72.2348 226.019 73.9246L229.883 72.8893C229.288 70.6701 228.25 68.7934 226.564 67.6166L224.275 70.8967ZM226.019 73.9246L226.252 74.7962L230.116 73.7609L229.883 72.8893L226.019 73.9246ZM227.667 72.3467L219.369 74.5699L220.405 78.4336L228.702 76.2104L227.667 72.3467ZM217.969 77.0675C218.429 78.6272 219.287 79.9509 220.635 80.8279L222.816 77.4749C222.421 77.2177 222.053 76.7749 221.805 75.936L217.969 77.0675ZM220.653 80.8394C222.022 81.7097 223.562 81.9189 225.121 81.501L224.086 77.6373C223.563 77.7775 223.183 77.7083 222.798 77.4634L220.653 80.8394ZM225.121 81.501C226.122 81.2328 227.051 80.7639 227.787 80.0156L224.935 77.2103C224.807 77.3406 224.564 77.5093 224.086 77.6373L225.121 81.501ZM227.787 80.0156C228.408 79.3843 228.888 78.6465 229.232 77.8238L225.541 76.2805C225.383 76.6602 225.179 76.9628 224.935 77.2103L227.787 80.0156ZM226.608 78.8944L228.154 79.5478L229.711 75.8633L228.165 75.2099L226.608 78.8944ZM227.031 77.0857C226.659 78.2282 225.9 78.9831 224.431 79.3769L225.466 83.2406C228.101 82.5344 229.999 80.8872 230.834 78.3253L227.031 77.0857ZM221.228 68.4668C219.846 68.8371 218.766 69.6976 218.098 70.9635L221.635 72.8306C221.783 72.5515 221.955 72.4132 222.263 72.3305L221.228 68.4668ZM218.103 70.9527C217.436 72.1991 217.312 73.6146 217.514 75.042L221.474 74.484C221.353 73.62 221.478 73.1249 221.629 72.8414L218.103 70.9527ZM220.012 76.6949L226.147 75.0509L225.111 71.1872L218.976 72.8312L220.012 76.6949ZM227.561 72.6015L227.519 72.443L223.655 73.4783L223.697 73.6367L227.561 72.6015ZM227.486 72.3344C227.052 71.0182 226.332 69.8267 225.171 69.0567L222.96 72.3903C223.137 72.5075 223.43 72.8073 223.687 73.5869L227.486 72.3344ZM225.181 69.0638C223.969 68.249 222.586 68.1029 221.228 68.4668L222.263 72.3305C222.656 72.2253 222.819 72.2958 222.949 72.3832L225.181 69.0638ZM234.373 78.5407L234.891 80.4725L236.823 79.9549L236.305 78.023L234.373 78.5407ZM232.279 79.1018L230.347 79.6194L230.865 81.5513L232.797 81.0336L232.279 79.1018ZM227.62 61.7151L227.103 59.7833L225.171 60.3009L225.689 62.2328L227.62 61.7151ZM229.715 61.154L231.646 60.6364L231.129 58.7045L229.197 59.2222L229.715 61.154ZM233.856 76.6088L231.762 77.1699L232.797 81.0336L234.891 80.4725L233.856 76.6088ZM234.211 78.5842L229.552 61.1975L225.689 62.2328L230.347 79.6194L234.211 78.5842ZM228.138 63.647L230.232 63.0859L229.197 59.2222L227.103 59.7833L228.138 63.647ZM227.783 61.6717L232.441 79.0583L236.305 78.023L231.646 60.6364L227.783 61.6717ZM240.01 77.0302L240.528 78.9621L242.46 78.4444L241.942 76.5126L240.01 77.0302ZM237.916 77.5913L235.984 78.109L236.502 80.0408L238.434 79.5232L237.916 77.5913ZM233.257 60.2047L232.74 58.2728L230.808 58.7905L231.326 60.7223L233.257 60.2047ZM235.352 59.6436L237.283 59.1259L236.766 57.1941L234.834 57.7117L235.352 59.6436ZM239.493 75.0984L237.399 75.6595L238.434 79.5232L240.528 78.9621L239.493 75.0984ZM239.848 77.0737L235.189 59.687L231.326 60.7223L235.984 78.109L239.848 77.0737ZM233.775 62.1365L235.869 61.5754L234.834 57.7117L232.74 58.2728L233.775 62.1365ZM233.42 60.1612L238.078 77.5479L241.942 76.5126L237.283 59.1259L233.42 60.1612ZM240.981 66.6156L239.02 66.2208L239.018 66.2333L240.981 66.6156ZM242.356 63.8693L240.902 62.496L240.896 62.5018L242.356 63.8693ZM249.538 62.9639L248.438 64.6342L248.444 64.6382L249.538 62.9639ZM252.534 70.7023L250.569 70.3264L250.568 70.3329L252.534 70.7023ZM251.167 73.4343L249.709 72.0646L249.704 72.0704L251.167 73.4343ZM243.954 74.3601L242.854 76.0304L242.86 76.0344L243.954 74.3601ZM245.135 72.7455L243.911 74.3277L243.92 74.3347L245.135 72.7455ZM250.203 71.3754L252.057 72.1258L252.06 72.1177L250.203 71.3754ZM248.366 64.6124L247.138 66.1909L247.146 66.1971L247.154 66.2032L248.366 64.6124ZM243.078 69.5234C242.825 68.5802 242.798 67.7478 242.944 66.998L239.018 66.2333C238.741 67.6509 238.824 69.1021 239.215 70.5587L243.078 69.5234ZM242.941 67.0104C243.093 66.2571 243.393 65.6876 243.815 65.2367L240.896 62.5018C239.923 63.5412 239.306 64.8026 239.02 66.2208L242.941 67.0104ZM243.81 65.2425C244.239 64.788 244.797 64.4486 245.551 64.2466L244.515 60.3829C243.111 60.7593 241.884 61.4562 240.902 62.496L243.81 65.2425ZM245.551 64.2466C246.716 63.9344 247.621 64.0959 248.438 64.6342L250.638 61.2935C248.784 60.0727 246.685 59.8015 244.515 60.3829L245.551 64.2466ZM248.444 64.6382C249.284 65.1867 249.974 66.1144 250.391 67.673L254.255 66.6377C253.646 64.3628 252.479 62.4962 250.632 61.2895L248.444 64.6382ZM250.391 67.673L250.431 67.8202L254.295 66.7849L254.255 66.6377L250.391 67.673ZM250.431 67.8202C250.682 68.7586 250.711 69.5848 250.569 70.3264L254.498 71.0781C254.767 69.6714 254.682 68.231 254.295 66.7849L250.431 67.8202ZM250.568 70.3329C250.435 71.0394 250.148 71.5983 249.709 72.0646L252.624 74.8039C253.608 73.7567 254.232 72.4943 254.499 71.0716L250.568 70.3329ZM249.704 72.0704C249.282 72.5225 248.72 72.8685 247.941 73.0773L248.976 76.941C250.401 76.5593 251.644 75.8554 252.63 74.7981L249.704 72.0704ZM247.941 73.0773C246.786 73.3868 245.878 73.2281 245.048 72.6857L242.86 76.0344C244.716 77.2472 246.811 77.5212 248.976 76.941L247.941 73.0773ZM245.054 72.6897C244.216 72.1381 243.531 71.2131 243.118 69.6705L239.254 70.7058C239.86 72.9666 241.02 74.8229 242.854 76.0304L245.054 72.6897ZM243.118 69.6705L243.078 69.5234L239.215 70.5587L239.254 70.7058L243.118 69.6705ZM241.387 70.2435C241.828 71.892 242.623 73.3318 243.911 74.3277L246.358 71.1633C245.952 70.8497 245.537 70.2765 245.25 69.2083L241.387 70.2435ZM243.92 74.3347C245.277 75.3716 246.875 75.6721 248.518 75.2318L247.483 71.3681C247.014 71.4939 246.7 71.4247 246.349 71.1562L243.92 74.3347ZM248.518 75.2318C250.172 74.7887 251.411 73.721 252.057 72.1258L248.349 70.625C248.187 71.0256 247.958 71.2409 247.483 71.3681L248.518 75.2318ZM252.06 72.1177C252.678 70.5702 252.601 68.8401 252.134 67.097L248.27 68.1322C248.608 69.3925 248.531 70.1696 248.345 70.633L252.06 72.1177ZM252.134 67.097C251.692 65.4474 250.883 64.0153 249.578 63.0216L247.154 66.2032C247.578 66.526 247.992 67.0953 248.27 68.1322L252.134 67.097ZM249.594 63.0339C248.238 61.9788 246.634 61.6594 244.976 62.1035L246.012 65.9672C246.467 65.8452 246.778 65.9104 247.138 66.1909L249.594 63.0339ZM244.976 62.1035C243.34 62.5419 242.128 63.6083 241.477 65.1703L245.169 66.7087C245.345 66.2859 245.58 66.0828 246.012 65.9672L244.976 62.1035ZM241.477 65.1703C240.83 66.7238 240.914 68.4796 241.387 70.2435L245.25 69.2083C244.902 67.9084 244.989 67.14 245.169 66.7087L241.477 65.1703ZM257.69 67.3067L258.208 69.2386L260.114 68.7278L259.628 66.815L257.69 67.3067ZM255.8 67.8132L253.874 68.3549L254.409 70.2563L256.317 69.7451L255.8 67.8132ZM252.483 56.0238L251.965 54.092L250.009 54.6161L250.558 56.5655L252.483 56.0238ZM254.679 55.4354L256.617 54.9437L256.119 52.979L254.161 53.5036L254.679 55.4354ZM256.616 70.5426L254.835 69.6319L254.834 69.635L256.616 70.5426ZM258.472 70.0452L257.386 71.7242L257.399 71.7331L257.413 71.7418L258.472 70.0452ZM258.927 71.7431L260.676 72.7126L260.685 72.6978L260.693 72.6828L258.927 71.7431ZM257.071 72.2405L255.981 73.9176L256.01 73.9367L256.041 73.9548L257.071 72.2405ZM257.172 65.3749L255.282 65.8814L256.317 69.7451L258.208 69.2386L257.172 65.3749ZM257.725 67.2716L254.408 55.4822L250.558 56.5655L253.874 68.3549L257.725 67.2716ZM253 57.9557L255.196 57.3673L254.161 53.5036L251.965 54.092L253 57.9557ZM252.74 55.9271L255.751 67.7984L259.628 66.815L256.617 54.9437L252.74 55.9271ZM258.469 70.9558C258.476 70.9806 258.491 71.0507 258.482 71.1534C258.473 71.2596 258.442 71.3629 258.398 71.4502L254.834 69.635C254.44 70.4079 254.403 71.2334 254.606 71.9911L258.469 70.9558ZM258.396 71.4534C258.319 71.6053 258.209 71.7225 258.103 71.7988C258.006 71.8684 257.945 71.8809 257.968 71.8749L256.932 68.0112C256.148 68.2213 255.312 68.6999 254.835 69.6319L258.396 71.4534ZM257.968 71.8749C257.99 71.8688 257.931 71.8886 257.812 71.8767C257.682 71.8637 257.529 71.8169 257.386 71.7242L259.559 68.3662C258.68 67.7974 257.716 67.801 256.932 68.0112L257.968 71.8749ZM257.413 71.7418C257.331 71.6908 257.249 71.6167 257.183 71.5242C257.119 71.4344 257.093 71.3593 257.085 71.3269L260.948 70.2916C260.74 69.5141 260.276 68.8136 259.531 68.3486L257.413 71.7418ZM257.085 71.3269C257.076 71.2944 257.061 71.2164 257.072 71.1067C257.082 70.9936 257.116 70.8883 257.162 70.8034L260.693 72.6828C261.105 71.9078 261.157 71.0691 260.948 70.2916L257.085 71.3269ZM257.178 70.7737C257.263 70.6192 257.375 70.5105 257.47 70.4452C257.557 70.386 257.605 70.3788 257.569 70.3882L258.605 74.2519C259.352 74.0518 260.181 73.6072 260.676 72.7126L257.178 70.7737ZM257.569 70.3882C257.534 70.3977 257.579 70.38 257.683 70.3882C257.798 70.3972 257.95 70.4353 258.101 70.5263L256.041 73.9548C256.917 74.4816 257.857 74.4521 258.605 74.2519L257.569 70.3882ZM258.16 70.5634C258.243 70.6168 258.321 70.691 258.381 70.7785C258.44 70.8631 258.463 70.931 258.469 70.9558L254.606 71.9911C254.809 72.7488 255.254 73.4451 255.981 73.9176L258.16 70.5634Z" fill="white"/>
</g>
<g opacity="0.4">
<path d="M256.492 351.632C256.266 350.73 256.178 349.994 256.227 349.422C256.276 348.851 256.506 348.171 256.917 347.381L257.991 345.456C258.433 344.569 258.543 343.714 258.323 342.892C258.111 342.099 257.737 341.536 257.203 341.202C256.667 340.861 256.002 340.796 255.21 341.008C254.44 341.215 253.876 341.584 253.517 342.117C253.159 342.65 253.071 343.26 253.255 343.946L251.161 344.508C250.849 343.281 251.019 342.18 251.671 341.204C252.329 340.219 253.345 339.543 254.719 339.175C256.145 338.792 257.357 338.88 258.356 339.438C259.36 339.985 260.041 340.927 260.399 342.263C260.753 343.583 260.49 345.049 259.611 346.659L258.705 348.212C258.318 348.971 258.278 349.924 258.586 351.071L256.492 351.632ZM257.362 355.245C257.271 354.905 257.297 354.595 257.441 354.314C257.589 354.024 257.867 353.824 258.275 353.715C258.682 353.605 259.023 353.639 259.297 353.817C259.569 353.986 259.75 354.241 259.841 354.581C259.932 354.92 259.903 355.232 259.752 355.515C259.599 355.79 259.319 355.982 258.912 356.092C258.504 356.201 258.165 356.174 257.896 356.012C257.631 355.84 257.453 355.585 257.362 355.245Z" fill="#364250"/>
<path d="M256.492 351.632L254.551 352.118L255.045 354.091L257.009 353.564L256.492 351.632ZM256.917 347.381L255.171 346.407L255.157 346.432L255.144 346.457L256.917 347.381ZM257.991 345.456L259.738 346.43L259.76 346.389L259.781 346.348L257.991 345.456ZM257.203 341.202L256.129 342.889L256.136 342.894L256.143 342.898L257.203 341.202ZM253.255 343.946L253.773 345.878L255.705 345.361L255.187 343.429L253.255 343.946ZM251.161 344.508L249.223 345.001L249.723 346.963L251.679 346.439L251.161 344.508ZM251.671 341.204L253.334 342.316L253.334 342.315L251.671 341.204ZM258.356 339.438L257.381 341.184L257.389 341.189L257.398 341.193L258.356 339.438ZM259.611 346.659L261.339 347.667L261.353 347.643L261.367 347.617L259.611 346.659ZM258.705 348.212L256.978 347.205L256.949 347.253L256.924 347.304L258.705 348.212ZM258.586 351.071L259.103 353.003L261.035 352.486L260.517 350.554L258.586 351.071ZM257.441 354.314L255.66 353.403L255.658 353.407L257.441 354.314ZM259.297 353.817L258.21 355.496L258.224 355.505L258.238 355.513L259.297 353.817ZM259.752 355.515L261.501 356.484L261.509 356.469L261.517 356.454L259.752 355.515ZM257.896 356.012L256.806 357.689L256.835 357.708L256.865 357.726L257.896 356.012ZM258.432 351.147C258.231 350.344 258.197 349.851 258.22 349.594L254.234 349.251C254.158 350.136 254.301 351.117 254.551 352.118L258.432 351.147ZM258.22 349.594C258.237 349.39 258.342 348.976 258.691 348.305L255.144 346.457C254.671 347.365 254.315 348.313 254.234 349.251L258.22 349.594ZM258.664 348.355L259.738 346.43L256.244 344.482L255.171 346.407L258.664 348.355ZM259.781 346.348C260.403 345.1 260.622 343.744 260.255 342.374L256.391 343.409C256.465 343.685 256.463 344.038 256.201 344.564L259.781 346.348ZM260.255 342.374C259.952 341.245 259.344 340.182 258.263 339.506L256.143 342.898C256.151 342.903 256.176 342.919 256.217 342.98C256.262 343.048 256.329 343.179 256.391 343.409L260.255 342.374ZM258.277 339.515C257.14 338.791 255.86 338.764 254.692 339.077L255.727 342.94C255.943 342.882 256.063 342.884 256.109 342.888C256.131 342.89 256.138 342.893 256.136 342.893C256.135 342.892 256.134 342.892 256.132 342.891C256.13 342.89 256.129 342.889 256.129 342.889L258.277 339.515ZM254.692 339.077C253.573 339.377 252.547 339.977 251.858 341L255.176 343.234C255.205 343.191 255.308 343.053 255.727 342.94L254.692 339.077ZM251.858 341C251.14 342.068 251.008 343.286 251.323 344.464L255.187 343.429C255.17 343.367 255.165 343.324 255.163 343.297C255.161 343.271 255.162 343.259 255.163 343.258C255.163 343.256 255.163 343.256 255.163 343.257C255.162 343.258 255.162 343.259 255.162 343.258C255.162 343.258 255.163 343.256 255.165 343.253C255.167 343.249 255.17 343.243 255.176 343.234L251.858 341ZM252.738 342.015L250.644 342.576L251.679 346.439L253.773 345.878L252.738 342.015ZM253.099 344.014C252.915 343.289 253.024 342.78 253.334 342.316L250.009 340.092C249.014 341.58 248.783 343.273 249.223 345.001L253.099 344.014ZM253.334 342.315C253.671 341.811 254.233 341.375 255.236 341.107L254.201 337.243C252.457 337.71 250.988 338.627 250.008 340.093L253.334 342.315ZM255.236 341.107C256.312 340.818 256.958 340.948 257.381 341.184L259.331 337.691C257.756 336.812 255.978 336.767 254.201 337.243L255.236 341.107ZM257.398 341.193C257.823 341.425 258.219 341.855 258.467 342.78L262.331 341.745C261.863 340 260.896 338.545 259.314 337.682L257.398 341.193ZM258.467 342.78C258.648 343.455 258.575 344.384 257.856 345.701L261.367 347.617C262.406 345.714 262.858 343.712 262.331 341.745L258.467 342.78ZM257.884 345.651L256.978 347.205L260.433 349.22L261.339 347.667L257.884 345.651ZM256.924 347.304C256.237 348.65 256.269 350.153 256.654 351.589L260.517 350.554C260.288 349.696 260.4 349.292 260.487 349.121L256.924 347.304ZM258.068 349.139L255.974 349.701L257.009 353.564L259.103 353.003L258.068 349.139ZM259.294 354.727C259.301 354.752 259.315 354.822 259.307 354.925C259.298 355.031 259.267 355.134 259.223 355.222L255.658 353.407C255.265 354.179 255.228 355.005 255.431 355.763L259.294 354.727ZM259.221 355.225C259.143 355.377 259.034 355.494 258.928 355.57C258.831 355.64 258.77 355.652 258.792 355.646L257.757 351.783C256.973 351.993 256.137 352.471 255.66 353.403L259.221 355.225ZM258.792 355.646C258.815 355.64 258.756 355.66 258.637 355.648C258.507 355.635 258.354 355.588 258.21 355.496L260.384 352.138C259.505 351.569 258.541 351.573 257.757 351.783L258.792 355.646ZM258.238 355.513C258.156 355.462 258.074 355.388 258.008 355.296C257.944 355.206 257.918 355.131 257.91 355.098L261.773 354.063C261.565 353.286 261.101 352.585 260.356 352.12L258.238 355.513ZM257.91 355.098C257.901 355.066 257.886 354.988 257.896 354.878C257.907 354.765 257.941 354.66 257.986 354.575L261.517 356.454C261.93 355.679 261.982 354.841 261.773 354.063L257.91 355.098ZM258.003 354.545C258.088 354.391 258.2 354.282 258.295 354.217C258.382 354.157 258.429 354.15 258.394 354.16L259.429 358.023C260.176 357.823 261.005 357.379 261.501 356.484L258.003 354.545ZM258.394 354.16C258.359 354.169 258.404 354.152 258.508 354.16C258.623 354.169 258.774 354.207 258.926 354.298L256.865 357.726C257.742 358.253 258.682 358.224 259.429 358.023L258.394 354.16ZM258.985 354.335C259.067 354.388 259.145 354.462 259.206 354.55C259.265 354.635 259.288 354.703 259.294 354.727L255.431 355.763C255.634 356.52 256.079 357.217 256.806 357.689L258.985 354.335Z" fill="white"/>
</g>
</g>
<g style="mix-blend-mode:screen" opacity="0.64" filter="url(#filter5_f)">
<path d="M39 190C39 160.729 62.7289 137 92 137H191.996C216.141 137 237.234 153.319 243.298 176.689L290.772 359.665C303.385 408.277 247.609 445.536 207.531 415.27L60.0602 303.904C46.7967 293.888 39 278.23 39 261.609V190Z" fill="white"/>
</g>
<g filter="url(#filter6_d)">
<path d="M137.606 237.827L102.333 245.667L110.173 210.393C105.01 200.736 102.317 189.951 102.333 179C102.333 142.18 132.18 112.333 169 112.333C205.82 112.333 235.666 142.18 235.666 179C235.666 215.82 205.82 245.667 169 245.667C158.049 245.683 147.264 242.99 137.606 237.827V237.827ZM139.54 223.74L143.893 226.073C151.617 230.201 160.242 232.352 169 232.333C179.548 232.333 189.86 229.205 198.63 223.345C207.401 217.485 214.237 209.155 218.273 199.41C222.31 189.664 223.366 178.941 221.308 168.595C219.25 158.25 214.171 148.746 206.712 141.288C199.253 133.829 189.75 128.749 179.405 126.691C169.059 124.634 158.335 125.69 148.59 129.726C138.845 133.763 130.515 140.599 124.655 149.37C118.794 158.14 115.666 168.452 115.666 179C115.666 187.893 117.833 196.453 121.933 204.107L124.26 208.46L119.893 228.107L139.54 223.74V223.74ZM135.666 179H149C149 184.304 151.107 189.391 154.858 193.142C158.608 196.893 163.695 199 169 199C174.304 199 179.391 196.893 183.142 193.142C186.893 189.391 189 184.304 189 179H202.333C202.333 187.841 198.821 196.319 192.57 202.57C186.319 208.821 177.84 212.333 169 212.333C160.159 212.333 151.681 208.821 145.43 202.57C139.178 196.319 135.666 187.841 135.666 179V179Z" fill="white"/>
</g>
<g opacity="0.24">
<path d="M24.5926 216.259C24.5011 218.074 23.9264 219.51 22.8688 220.566C21.8183 221.614 20.3655 222.199 18.5101 222.322C16.4989 222.455 14.8376 221.84 13.5263 220.478C12.2227 219.116 11.4911 217.226 11.3316 214.81L11.2234 213.173C11.1189 211.59 11.3077 210.18 11.7897 208.943C12.2795 207.705 13.0217 206.732 14.0162 206.024C15.0103 205.308 16.1895 204.906 17.5537 204.816C19.3622 204.696 20.8457 205.107 22.004 206.048C23.1618 206.982 23.8892 208.335 24.1864 210.109L21.9296 210.258C21.6452 208.914 21.1554 207.96 20.4605 207.395C19.7733 206.83 18.845 206.586 17.6757 206.663C16.2413 206.758 15.1499 207.362 14.4014 208.477C13.6606 209.59 13.3549 211.126 13.4841 213.082L13.593 214.731C13.715 216.578 14.1979 218.022 15.0418 219.063C15.8856 220.103 17.0013 220.578 18.3889 220.486C19.6362 220.404 20.5726 220.06 21.1982 219.455C21.831 218.842 22.2102 217.826 22.3358 216.408L24.5926 216.259ZM35.4967 220.965C35.3555 220.724 35.2248 220.286 35.1047 219.652C34.168 220.763 33.002 221.365 31.6066 221.457C30.3593 221.539 29.3111 221.256 28.4618 220.608C27.6198 219.951 27.163 219.081 27.0915 217.997C27.0045 216.68 27.4359 215.625 28.3859 214.835C29.3431 214.035 30.7299 213.576 32.5463 213.456L34.651 213.317L34.5854 212.323C34.5355 211.567 34.2698 210.981 33.7883 210.567C33.3063 210.145 32.6248 209.963 31.7439 210.021C30.9722 210.072 30.338 210.309 29.8415 210.734C29.3449 211.158 29.1149 211.647 29.1514 212.2L26.9765 212.344C26.9348 211.712 27.1168 211.09 27.5225 210.476C27.9356 209.853 28.5127 209.345 29.254 208.952C30.0031 208.558 30.8376 208.331 31.7575 208.27C33.2153 208.174 34.3815 208.465 35.2562 209.143C36.1304 209.813 36.6253 210.787 36.7409 212.063L37.1255 217.886C37.2022 219.048 37.4113 219.962 37.7529 220.628L37.7652 220.815L35.4967 220.965ZM31.798 219.554C32.4762 219.509 33.1078 219.291 33.6926 218.9C34.2775 218.509 34.6879 218.024 34.9236 217.445L34.7522 214.849L33.0567 214.961C30.4062 215.136 29.1322 215.999 29.2346 217.55C29.2794 218.228 29.5405 218.743 30.0179 219.096C30.4952 219.448 31.0886 219.6 31.798 219.554ZM41.9227 207.834L42.0979 209.419C42.9842 208.139 44.2069 207.448 45.766 207.345C48.4399 207.168 49.8881 208.588 50.1108 211.603L50.6629 219.964L48.4997 220.106L47.9467 211.734C47.8787 210.823 47.6237 210.162 47.1817 209.753C46.7475 209.343 46.0978 209.167 45.2325 209.224C44.5309 209.27 43.9274 209.498 43.422 209.907C42.9166 210.316 42.5359 210.835 42.2798 211.462L42.8752 220.478L40.7119 220.621L39.8764 207.969L41.9227 207.834ZM63.7957 215.914L66.1161 206.236L68.4314 206.083L64.3093 221.024C63.661 223.18 62.4793 224.316 60.7643 224.429L60.3527 224.421L59.5358 224.322L59.42 222.568L60.0077 222.576C60.7405 222.528 61.2998 222.342 61.6856 222.019C62.0792 221.696 62.3825 221.131 62.5956 220.327L62.99 219.009L57.6502 206.795L60.0122 206.639L63.7957 215.914ZM70.0224 212.214C69.9406 210.975 70.1086 209.844 70.5266 208.822C70.9523 207.799 71.5801 206.991 72.4098 206.396C73.2474 205.8 74.2236 205.465 75.3383 205.392C77.0612 205.278 78.492 205.783 79.631 206.905C80.7777 208.027 81.4165 209.579 81.5473 211.559L81.5573 211.711C81.6386 212.942 81.474 214.065 81.0633 215.079C80.66 216.084 80.0358 216.889 79.191 217.492C78.3539 218.096 77.3663 218.435 76.2282 218.51C74.5132 218.623 73.0823 218.119 71.9355 216.997C70.7966 215.874 70.1622 214.331 70.0325 212.366L70.0224 212.214ZM72.2144 212.328C72.307 213.731 72.705 214.836 73.4081 215.643C74.119 216.449 75.0202 216.817 76.1116 216.744C77.2107 216.672 78.0555 216.185 78.6459 215.285C79.2358 214.377 79.4795 213.148 79.3771 211.596C79.2854 210.209 78.88 209.108 78.1607 208.294C77.4488 207.472 76.5471 207.097 75.4557 207.169C74.3877 207.24 73.5544 207.722 72.9557 208.614C72.357 209.507 72.1099 210.745 72.2144 212.328ZM92.4071 215.95C91.6306 216.996 90.4277 217.572 88.7984 217.68C87.4498 217.769 86.3951 217.447 85.6342 216.715C84.8806 215.974 84.4492 214.835 84.34 213.3L83.7963 205.068L85.9596 204.925L86.4994 213.099C86.626 215.017 87.4689 215.924 89.028 215.821C90.6807 215.712 91.7391 215.023 92.2035 213.756L91.5958 204.553L93.759 204.41L94.5946 217.062L92.5365 217.198L92.4071 215.95Z" fill="#364250"/>
<path d="M24.5926 216.259L26.5901 216.36L26.7033 214.116L24.4608 214.264L24.5926 216.259ZM22.8688 220.566L24.2814 221.982L24.2821 221.981L22.8688 220.566ZM13.5263 220.478L12.0812 221.861L12.0856 221.866L13.5263 220.478ZM11.7897 208.943L9.92989 208.207L9.92603 208.217L11.7897 208.943ZM14.0162 206.024L15.1758 207.654L15.1846 207.647L14.0162 206.024ZM22.004 206.048L20.7426 207.601L20.7486 207.605L22.004 206.048ZM24.1864 210.109L24.3182 212.104L26.5244 211.959L26.1589 209.778L24.1864 210.109ZM21.9296 210.258L19.973 210.672L20.332 212.368L22.0614 212.253L21.9296 210.258ZM20.4605 207.395L19.1898 208.94L19.1991 208.947L20.4605 207.395ZM14.4014 208.477L12.7412 207.361L12.736 207.369L14.4014 208.477ZM21.1982 219.455L22.5886 220.893L22.5901 220.891L21.1982 219.455ZM22.3358 216.408L22.204 214.413L20.4948 214.526L20.3436 216.232L22.3358 216.408ZM22.5952 216.159C22.5229 217.59 22.0901 218.517 21.4554 219.151L24.2821 221.981C25.7628 220.502 26.4792 218.558 26.5901 216.36L22.5952 216.159ZM21.4561 219.15C20.8286 219.776 19.8771 220.227 18.3783 220.326L18.6419 224.318C20.8538 224.171 22.8081 223.452 24.2814 221.982L21.4561 219.15ZM18.3783 220.326C16.911 220.423 15.8395 219.997 14.9669 219.091L12.0856 221.866C13.8357 223.683 16.0868 224.486 18.6419 224.318L18.3783 220.326ZM14.9713 219.096C14.0757 218.16 13.4648 216.762 13.3272 214.678L9.3359 214.942C9.51746 217.691 10.3697 220.072 12.0812 221.861L14.9713 219.096ZM13.3272 214.678L13.2191 213.041L9.22779 213.305L9.3359 214.942L13.3272 214.678ZM13.2191 213.041C13.1302 211.695 13.2962 210.585 13.6533 209.669L9.92603 208.217C9.31917 209.775 9.10769 211.486 9.22779 213.305L13.2191 213.041ZM13.6494 209.678C14.0105 208.766 14.5245 208.117 15.1758 207.654L12.8567 204.394C11.5188 205.346 10.5484 206.643 9.92991 208.207L13.6494 209.678ZM15.1846 207.647C15.8404 207.175 16.6501 206.88 17.6855 206.811L17.4219 202.82C15.7288 202.932 14.1803 203.442 12.8479 204.401L15.1846 207.647ZM17.6855 206.811C19.1041 206.718 20.0564 207.043 20.7426 207.601L23.2653 204.496C21.6349 203.171 19.6203 202.675 17.4219 202.82L17.6855 206.811ZM20.7486 207.605C21.4493 208.17 21.9799 209.043 22.2139 210.439L26.1589 209.778C25.7986 207.628 24.8742 205.794 23.2594 204.492L20.7486 207.605ZM24.0546 208.113L21.7978 208.262L22.0614 212.253L24.3182 212.104L24.0546 208.113ZM23.8863 209.844C23.5551 208.279 22.9177 206.815 21.7218 205.843L19.1991 208.947C19.3931 209.105 19.7352 209.549 19.973 210.672L23.8863 209.844ZM21.7311 205.851C20.5392 204.87 19.0556 204.568 17.5439 204.667L17.8075 208.659C18.6344 208.604 19.0074 208.79 19.1898 208.94L21.7311 205.851ZM17.5439 204.667C15.5419 204.8 13.8626 205.692 12.7412 207.361L16.0615 209.592C16.4371 209.033 16.9407 208.716 17.8075 208.659L17.5439 204.667ZM12.736 207.369C11.662 208.984 11.3433 211.015 11.4885 213.214L15.4798 212.95C15.3665 211.236 15.6593 210.197 16.0667 209.584L12.736 207.369ZM11.4885 213.214L11.5973 214.863L15.5886 214.599L15.4798 212.95L11.4885 213.214ZM11.5973 214.863C11.7365 216.969 12.3015 218.859 13.4884 220.323L16.5951 217.803C16.0944 217.186 15.6935 216.188 15.5886 214.599L11.5973 214.863ZM13.4884 220.323C14.7594 221.89 16.5145 222.614 18.5207 222.482L18.2571 218.49C17.4881 218.541 17.0118 218.317 16.5951 217.803L13.4884 220.323ZM18.5207 222.482C20.0381 222.381 21.501 221.944 22.5886 220.893L19.8077 218.017C19.6442 218.175 19.2343 218.426 18.2571 218.49L18.5207 222.482ZM22.5901 220.891C23.725 219.791 24.1845 218.205 24.328 216.585L20.3436 216.232C20.2359 217.447 19.937 217.892 19.8062 218.019L22.5901 220.891ZM22.4676 218.404L24.7244 218.255L24.4608 214.264L22.204 214.413L22.4676 218.404ZM35.4967 220.965L33.7707 221.976L34.3951 223.042L35.6285 222.961L35.4967 220.965ZM35.1047 219.652L37.0697 219.28L36.2865 215.147L33.5756 218.363L35.1047 219.652ZM28.4618 220.608L27.2316 222.185L27.2397 222.191L27.2479 222.197L28.4618 220.608ZM28.3859 214.835L29.6655 216.372L29.6677 216.37L28.3859 214.835ZM34.651 213.317L34.7828 215.312L36.7785 215.181L36.6467 213.185L34.651 213.317ZM33.7883 210.567L32.4703 212.071L32.4769 212.077L32.4835 212.083L33.7883 210.567ZM29.1514 212.2L29.2832 214.196L31.2789 214.064L31.1471 212.068L29.1514 212.2ZM26.9765 212.344L24.9808 212.476L25.1126 214.471L27.1083 214.339L26.9765 212.344ZM27.5225 210.476L25.8561 209.37L25.8539 209.373L27.5225 210.476ZM29.254 208.952L28.3231 207.182L28.3164 207.185L29.254 208.952ZM35.2562 209.143L34.0307 210.723L34.0391 210.73L35.2562 209.143ZM36.7409 212.063L38.7366 211.931L38.735 211.907L38.7328 211.883L36.7409 212.063ZM37.7529 220.628L39.7485 220.496L39.7213 220.084L39.5328 219.716L37.7529 220.628ZM37.7652 220.815L37.897 222.811L39.8927 222.679L39.7609 220.684L37.7652 220.815ZM34.9236 217.445L36.7761 218.198L36.9496 217.772L36.9193 217.313L34.9236 217.445ZM34.7522 214.849L36.7479 214.717L36.6161 212.721L34.6204 212.853L34.7522 214.849ZM37.2228 219.955C37.2674 220.031 37.2537 220.033 37.2092 219.884C37.1696 219.751 37.1218 219.555 37.0697 219.28L33.1396 220.025C33.2612 220.666 33.4391 221.409 33.7707 221.976L37.2228 219.955ZM33.5756 218.363C32.9739 219.077 32.3044 219.407 31.4748 219.461L31.7384 223.453C33.6996 223.323 35.3621 222.45 36.6338 220.941L33.5756 218.363ZM31.4748 219.461C30.6238 219.518 30.0764 219.324 29.6757 219.018L27.2479 222.197C28.5457 223.188 30.0949 223.561 31.7384 223.453L31.4748 219.461ZM29.692 219.031C29.308 218.731 29.1218 218.391 29.0871 217.865L25.0958 218.129C25.2042 219.77 25.9316 221.17 27.2316 222.185L29.692 219.031ZM29.0871 217.865C29.0389 217.136 29.2456 216.721 29.6655 216.372L27.1062 213.297C25.6263 214.53 24.97 216.223 25.0958 218.129L29.0871 217.865ZM29.6677 216.37C30.1813 215.941 31.0982 215.556 32.678 215.451L32.4145 211.46C30.3616 211.596 28.5049 212.13 27.1041 213.299L29.6677 216.37ZM32.678 215.451L34.7828 215.312L34.5192 211.321L32.4145 211.46L32.678 215.451ZM36.6467 213.185L36.5811 212.191L32.5897 212.455L32.6554 213.449L36.6467 213.185ZM36.5811 212.191C36.5031 211.011 36.0583 209.882 35.0931 209.051L32.4835 212.083C32.5014 212.098 32.5133 212.112 32.5275 212.143C32.5448 212.182 32.5779 212.275 32.5897 212.455L36.5811 212.191ZM35.1062 209.063C34.094 208.176 32.8182 207.945 31.6121 208.025L31.8757 212.016C32.1506 211.998 32.3153 212.023 32.3995 212.046C32.474 212.066 32.4827 212.082 32.4703 212.071L35.1062 209.063ZM31.6121 208.025C30.492 208.099 29.4239 208.46 28.5423 209.213L31.1406 212.254C31.2522 212.159 31.4524 212.044 31.8757 212.016L31.6121 208.025ZM28.5423 209.213C27.6622 209.965 27.0699 211.032 27.1558 212.332L31.1471 212.068C31.1484 212.088 31.148 212.121 31.1404 212.162C31.1328 212.203 31.1202 212.24 31.1063 212.27C31.078 212.33 31.0639 212.32 31.1406 212.254L28.5423 209.213ZM29.0197 210.205L26.8447 210.348L27.1083 214.339L29.2832 214.196L29.0197 210.205ZM28.9721 212.212C28.9638 212.085 28.9855 211.889 29.1912 211.578L25.8539 209.373C25.2481 210.29 24.9058 211.339 24.9808 212.476L28.9721 212.212ZM29.1889 211.582C29.396 211.27 29.7075 210.976 30.1917 210.719L28.3164 207.185C27.3179 207.715 26.4751 208.437 25.8561 209.37L29.1889 211.582ZM30.185 210.722C30.665 210.47 31.2235 210.31 31.8893 210.266L31.6257 206.274C30.4518 206.352 29.3413 206.646 28.3231 207.182L30.185 210.722ZM31.8893 210.266C33.0181 210.191 33.6522 210.43 34.0307 210.723L36.4817 207.562C35.1108 206.499 33.4124 206.156 31.6257 206.274L31.8893 210.266ZM34.0391 210.73C34.3964 211.004 34.6749 211.424 34.7491 212.243L38.7328 211.883C38.5758 210.149 37.8645 208.623 36.4733 207.556L34.0391 210.73ZM34.7453 212.195L35.1299 218.018L39.1212 217.755L38.7366 211.931L34.7453 212.195ZM35.1299 218.018C35.2156 219.317 35.4575 220.534 35.973 221.54L39.5328 219.716C39.3652 219.389 39.1888 218.779 39.1212 217.755L35.1299 218.018ZM35.7572 220.76L35.7696 220.947L39.7609 220.684L39.7485 220.496L35.7572 220.76ZM37.6334 218.82L35.3649 218.97L35.6285 222.961L37.897 222.811L37.6334 218.82ZM31.9298 221.549C32.9707 221.48 33.9382 221.141 34.8041 220.563L32.5812 217.237C32.2773 217.44 31.9817 217.537 31.6662 217.558L31.9298 221.549ZM34.8041 220.563C35.6782 219.978 36.3713 219.193 36.7761 218.198L33.0712 216.691C33.0045 216.855 32.8768 217.04 32.5812 217.237L34.8041 220.563ZM36.9193 217.313L36.7479 214.717L32.7565 214.98L32.928 217.576L36.9193 217.313ZM34.6204 212.853L32.9249 212.965L33.1885 216.956L34.884 216.844L34.6204 212.853ZM32.9249 212.965C31.4703 213.061 30.0653 213.356 28.9915 214.083C27.759 214.919 27.1415 216.207 27.239 217.682L31.2303 217.418C31.2239 217.321 31.2429 217.332 31.2152 217.389C31.1871 217.447 31.1639 217.443 31.2351 217.395C31.4353 217.259 31.9926 217.035 33.1885 216.956L32.9249 212.965ZM27.239 217.682C27.3163 218.852 27.8073 219.95 28.8306 220.705L31.2051 217.486C31.2041 217.485 31.212 217.491 31.2232 217.504C31.2346 217.518 31.243 217.531 31.248 217.541C31.2528 217.55 31.2506 217.549 31.2462 217.532C31.2415 217.514 31.2342 217.477 31.2303 217.418L27.239 217.682ZM28.8306 220.705C29.7603 221.391 30.8467 221.621 31.9298 221.549L31.6662 217.558C31.3305 217.58 31.2302 217.505 31.2051 217.486L28.8306 220.705ZM41.9227 207.834L43.9106 207.614L43.7005 205.712L41.7909 205.838L41.9227 207.834ZM42.0979 209.419L40.11 209.639L40.6973 214.955L43.7421 210.558L42.0979 209.419ZM50.1108 211.603L52.1064 211.471L52.1059 211.463L52.1053 211.456L50.1108 211.603ZM50.6629 219.964L50.7947 221.959L52.7904 221.827L52.6586 219.832L50.6629 219.964ZM48.4997 220.106L46.504 220.238L46.6358 222.234L48.6314 222.102L48.4997 220.106ZM47.9467 211.734L49.9424 211.602L49.9418 211.594L49.9412 211.585L47.9467 211.734ZM47.1817 209.753L45.809 211.207L45.8159 211.214L45.8229 211.22L47.1817 209.753ZM42.2798 211.462L40.428 210.707L40.2538 211.134L40.2841 211.594L42.2798 211.462ZM42.8752 220.478L43.007 222.474L45.0026 222.342L44.8708 220.346L42.8752 220.478ZM40.7119 220.621L38.7163 220.753L38.8481 222.748L40.8437 222.616L40.7119 220.621ZM39.8764 207.969L39.7446 205.973L37.7489 206.105L37.8807 208.1L39.8764 207.969ZM39.9348 208.053L40.11 209.639L44.0858 209.2L43.9106 207.614L39.9348 208.053ZM43.7421 210.558C44.2799 209.781 44.9446 209.403 45.8978 209.34L45.6342 205.349C43.4693 205.492 41.6886 206.497 40.4536 208.281L43.7421 210.558ZM45.8978 209.34C46.8594 209.277 47.2602 209.512 47.4577 209.705C47.6982 209.941 48.0236 210.496 48.1162 211.75L52.1053 211.456C51.9753 209.694 51.4652 208.032 50.2575 206.849C49.0068 205.623 47.3465 205.236 45.6342 205.349L45.8978 209.34ZM48.1151 211.735L48.6673 220.095L52.6586 219.832L52.1064 211.471L48.1151 211.735ZM50.5311 217.968L48.3679 218.111L48.6314 222.102L50.7947 221.959L50.5311 217.968ZM50.4953 219.975L49.9424 211.602L45.9511 211.866L46.504 220.238L50.4953 219.975ZM49.9412 211.585C49.8545 210.423 49.5055 209.179 48.5405 208.285L45.8229 211.22C45.7419 211.145 45.9029 211.222 45.9523 211.883L49.9412 211.585ZM48.5544 208.298C47.5617 207.361 46.2666 207.151 45.1007 207.228L45.3643 211.22C45.6365 211.202 45.7849 211.227 45.845 211.243C45.8931 211.257 45.8606 211.256 45.809 211.207L48.5544 208.298ZM45.1007 207.228C44.0222 207.299 43.0163 207.662 42.1635 208.353L44.6805 211.462C44.8385 211.334 45.0395 211.241 45.3643 211.22L45.1007 207.228ZM42.1635 208.353C41.3849 208.983 40.8058 209.781 40.428 210.707L44.1316 212.218C44.266 211.889 44.4483 211.65 44.6805 211.462L42.1635 208.353ZM40.2841 211.594L40.8795 220.61L44.8708 220.346L44.2755 211.331L40.2841 211.594ZM42.7434 218.482L40.5801 218.625L40.8437 222.616L43.007 222.474L42.7434 218.482ZM42.7076 220.489L41.872 207.837L37.8807 208.1L38.7163 220.753L42.7076 220.489ZM40.0082 209.964L42.0545 209.829L41.7909 205.838L39.7446 205.973L40.0082 209.964ZM63.7957 215.914L61.9438 216.669L64.2914 222.424L65.7405 216.38L63.7957 215.914ZM66.1161 206.236L65.9843 204.24L64.5146 204.337L64.1712 205.769L66.1161 206.236ZM68.4314 206.083L70.3593 206.615L71.1078 203.902L68.2996 204.087L68.4314 206.083ZM64.3093 221.024L66.2246 221.599L66.2312 221.578L66.2373 221.556L64.3093 221.024ZM60.7643 224.429L60.7251 226.428L60.8107 226.43L60.8961 226.424L60.7643 224.429ZM60.3527 224.421L60.1127 226.406L60.2128 226.418L60.3136 226.42L60.3527 224.421ZM59.5358 224.322L57.5401 224.454L57.6494 226.109L59.2958 226.308L59.5358 224.322ZM59.42 222.568L59.4477 220.568L57.2816 220.538L57.4243 222.7L59.42 222.568ZM60.0077 222.576L59.9799 224.576L60.0598 224.577L60.1395 224.572L60.0077 222.576ZM61.6856 222.019L60.4156 220.474L60.4087 220.48L60.4017 220.486L61.6856 222.019ZM62.5956 220.327L60.6796 219.753L60.6704 219.784L60.6622 219.815L62.5956 220.327ZM62.99 219.009L64.9061 219.582L65.1164 218.879L64.8226 218.207L62.99 219.009ZM57.6502 206.795L57.5184 204.799L54.6769 204.987L55.8177 207.596L57.6502 206.795ZM60.0122 206.639L61.8641 205.883L61.3194 204.548L59.8804 204.643L60.0122 206.639ZM65.7405 216.38L68.061 206.702L64.1712 205.769L61.8508 215.447L65.7405 216.38ZM66.2479 208.231L68.5632 208.079L68.2996 204.087L65.9843 204.24L66.2479 208.231ZM66.5034 205.551L62.3813 220.492L66.2373 221.556L70.3593 206.615L66.5034 205.551ZM62.394 220.448C62.1335 221.315 61.8181 221.794 61.5513 222.05C61.3178 222.274 61.045 222.406 60.6325 222.433L60.8961 226.424C62.1986 226.338 63.3741 225.846 64.3222 224.935C65.2371 224.056 65.8368 222.89 66.2246 221.599L62.394 220.448ZM60.8034 222.429L60.3918 222.421L60.3136 226.42L60.7251 226.428L60.8034 222.429ZM60.5927 222.435L59.7758 222.336L59.2958 226.308L60.1127 226.406L60.5927 222.435ZM61.5315 224.19L61.4156 222.436L57.4243 222.7L57.5401 224.454L61.5315 224.19ZM59.3922 224.568L59.9799 224.576L60.0355 220.576L59.4477 220.568L59.3922 224.568ZM60.1395 224.572C61.1093 224.508 62.1397 224.247 62.9695 223.553L60.4017 220.486C60.4599 220.437 60.3717 220.548 59.8759 220.581L60.1395 224.572ZM62.9555 223.564C63.8206 222.853 64.2708 221.814 64.529 220.838L60.6622 219.815C60.5845 220.108 60.506 220.296 60.4467 220.406C60.3879 220.516 60.3667 220.514 60.4156 220.474L62.9555 223.564ZM64.5116 220.9L64.9061 219.582L61.074 218.435L60.6796 219.753L64.5116 220.9ZM64.8226 218.207L59.4827 205.994L55.8177 207.596L61.1575 219.81L64.8226 218.207ZM57.782 208.791L60.144 208.635L59.8804 204.643L57.5184 204.799L57.782 208.791ZM58.1604 207.394L61.9438 216.669L65.6475 215.158L61.8641 205.883L58.1604 207.394ZM70.5266 208.822L68.6802 208.053L68.6754 208.065L70.5266 208.822ZM72.4098 206.396L71.2509 204.766L71.2443 204.77L72.4098 206.396ZM79.631 206.905L78.227 208.33L78.2322 208.335L79.631 206.905ZM81.0633 215.079L79.2097 214.328L79.2072 214.334L81.0633 215.079ZM79.191 217.492L78.028 215.865L78.0215 215.87L79.191 217.492ZM71.9355 216.997L70.5315 218.421L70.5367 218.426L71.9355 216.997ZM73.4081 215.643L71.9002 216.957L71.9078 216.965L73.4081 215.643ZM78.6459 215.285L80.3183 216.382L80.3231 216.375L78.6459 215.285ZM78.1607 208.294L76.6489 209.604L76.6555 209.611L76.6622 209.619L78.1607 208.294ZM72.0181 212.082C71.9538 211.108 72.0886 210.286 72.3777 209.579L68.6754 208.065C68.1287 209.402 67.9274 210.841 68.0268 212.346L72.0181 212.082ZM72.3729 209.591C72.6683 208.881 73.0732 208.381 73.5753 208.021L71.2443 204.77C70.0869 205.6 69.2363 206.718 68.6802 208.053L72.3729 209.591ZM73.5688 208.026C74.0783 207.663 74.6917 207.439 75.4701 207.388L75.2066 203.396C73.7555 203.492 72.4165 203.937 71.2509 204.766L73.5688 208.026ZM75.4701 207.388C76.674 207.308 77.53 207.643 78.227 208.33L81.035 205.481C79.4541 203.923 77.4483 203.248 75.2066 203.396L75.4701 207.388ZM78.2322 208.335C78.9489 209.036 79.4453 210.08 79.5516 211.69L83.5429 211.427C83.3877 209.077 82.6066 207.019 81.0298 205.476L78.2322 208.335ZM79.5516 211.69L79.5617 211.842L83.553 211.579L83.5429 211.427L79.5516 211.69ZM79.5617 211.842C79.6257 212.812 79.4932 213.628 79.2097 214.328L82.917 215.83C83.4548 214.502 83.6516 213.073 83.553 211.579L79.5617 211.842ZM79.2072 214.334C78.9395 215.001 78.5485 215.493 78.028 215.865L80.354 219.12C81.5231 218.284 82.3804 217.167 82.9195 215.823L79.2072 214.334ZM78.0215 215.87C77.52 216.231 76.9012 216.461 76.0964 216.515L76.36 220.506C77.8314 220.409 79.1878 219.96 80.3604 219.115L78.0215 215.87ZM76.0964 216.515C74.9033 216.593 74.0431 216.261 73.3343 215.567L70.5367 218.426C72.1215 219.977 74.123 220.654 76.36 220.506L76.0964 216.515ZM73.3395 215.572C72.6252 214.868 72.1334 213.828 72.0281 212.234L68.0368 212.498C68.1911 214.833 68.9679 216.88 70.5315 218.421L73.3395 215.572ZM72.0281 212.234L72.0181 212.082L68.0268 212.346L68.0368 212.498L72.0281 212.234ZM70.2187 212.459C70.3312 214.162 70.8307 215.729 71.9002 216.957L74.916 214.329C74.5792 213.943 74.2829 213.299 74.21 212.196L70.2187 212.459ZM71.9078 216.965C73.0372 218.247 74.5456 218.852 76.2434 218.74L75.9798 214.749C75.4948 214.781 75.2008 214.652 74.9084 214.32L71.9078 216.965ZM76.2434 218.74C77.9515 218.627 79.3745 217.821 80.3183 216.382L76.9735 214.188C76.7365 214.55 76.4699 214.716 75.9798 214.749L76.2434 218.74ZM80.3231 216.375C81.231 214.977 81.4916 213.265 81.3727 211.464L77.3814 211.728C77.4674 213.03 77.2406 213.777 76.9687 214.196L80.3231 216.375ZM81.3727 211.464C81.2602 209.76 80.7451 208.198 79.6593 206.97L76.6622 209.619C77.0149 210.018 77.3107 210.657 77.3814 211.728L81.3727 211.464ZM79.6726 206.985C78.5477 205.686 77.0362 205.061 75.3239 205.174L75.5875 209.165C76.058 209.134 76.3499 209.258 76.6489 209.604L79.6726 206.985ZM75.3239 205.174C73.6337 205.285 72.2368 206.095 71.2945 207.501L74.6169 209.728C74.8719 209.348 75.1417 209.194 75.5875 209.165L75.3239 205.174ZM71.2945 207.501C70.3573 208.899 70.0984 210.637 70.2187 212.459L74.21 212.196C74.1214 210.853 74.3567 210.116 74.6169 209.728L71.2945 207.501ZM92.4071 215.95L94.3965 215.744L93.8664 210.631L90.8015 214.758L92.4071 215.95ZM85.6342 216.715L84.2319 218.141L84.2394 218.148L84.2469 218.155L85.6342 216.715ZM84.34 213.3L82.3443 213.432L82.345 213.442L84.34 213.3ZM83.7963 205.068L83.6645 203.073L81.6689 203.204L81.8007 205.2L83.7963 205.068ZM85.9596 204.925L87.9552 204.794L87.8235 202.798L85.8278 202.93L85.9596 204.925ZM92.2035 213.756L94.0815 214.444L94.227 214.046L94.1991 213.624L92.2035 213.756ZM91.5958 204.553L91.464 202.557L89.4683 202.689L89.6001 204.685L91.5958 204.553ZM93.759 204.41L95.7547 204.278L95.6229 202.283L93.6272 202.415L93.759 204.41ZM94.5946 217.062L94.7263 219.058L96.722 218.926L96.5902 216.931L94.5946 217.062ZM92.5365 217.198L90.5472 217.405L90.7459 219.321L92.6683 219.194L92.5365 217.198ZM90.8015 214.758C90.4606 215.217 89.8715 215.605 88.6666 215.684L88.9302 219.676C90.9839 219.54 92.8006 218.775 94.0128 217.143L90.8015 214.758ZM88.6666 215.684C87.7128 215.747 87.27 215.513 87.0215 215.274L84.2469 218.155C85.5201 219.381 87.1868 219.791 88.9302 219.676L88.6666 215.684ZM87.0365 215.289C86.7594 215.016 86.4251 214.425 86.3349 213.158L82.345 213.442C82.4733 215.246 83.0018 216.931 84.2319 218.141L87.0365 215.289ZM86.3356 213.168L85.792 204.936L81.8007 205.2L82.3443 213.432L86.3356 213.168ZM83.9281 207.064L86.0914 206.921L85.8278 202.93L83.6645 203.073L83.9281 207.064ZM83.9639 205.057L84.5037 213.231L88.495 212.967L87.9552 204.794L83.9639 205.057ZM84.5037 213.231C84.5815 214.408 84.8954 215.647 85.7612 216.579C86.6964 217.586 87.9508 217.897 89.1598 217.817L88.8962 213.825C88.7073 213.838 88.6312 213.813 88.6281 213.812C88.6273 213.812 88.6383 213.816 88.6551 213.827C88.6722 213.838 88.6849 213.849 88.6918 213.857C88.7148 213.881 88.5439 213.707 88.495 212.967L84.5037 213.231ZM89.1598 217.817C90.2244 217.746 91.2598 217.48 92.1518 216.899C93.0694 216.303 93.7115 215.454 94.0815 214.444L90.3255 213.068C90.2311 213.326 90.1119 213.455 89.9709 213.546C89.8044 213.655 89.4842 213.787 88.8962 213.825L89.1598 217.817ZM94.1991 213.624L93.5914 204.421L89.6001 204.685L90.2078 213.888L94.1991 213.624ZM91.7275 206.549L93.8908 206.406L93.6272 202.415L91.464 202.557L91.7275 206.549ZM91.7634 204.542L92.5989 217.194L96.5902 216.931L95.7547 204.278L91.7634 204.542ZM94.4628 215.067L92.4047 215.203L92.6683 219.194L94.7263 219.058L94.4628 215.067ZM94.5259 216.992L94.3965 215.744L90.4178 216.156L90.5472 217.405L94.5259 216.992Z" fill="white"/>
</g>
</g>
<defs>
<filter id="filter0_d" x="-57" y="42" width="193.137" height="193.137" filterUnits="userSpaceOnUse" color-interpolation-filters="sRGB">
<feFlood flood-opacity="0" result="BackgroundImageFix"/>
<feColorMatrix in="SourceAlpha" type="matrix" values="0 0 0 0 0 0 0 0 0 0 0 0 0 0 0 0 0 0 127 0"/>
<feOffset dy="24"/>
<feGaussianBlur stdDeviation="20"/>
<feColorMatrix type="matrix" values="0 0 0 0 0.145098 0 0 0 0 0.835294 0 0 0 0 0.909804 0 0 0 0.4 0"/>
<feBlend mode="normal" in2="BackgroundImageFix" result="effect1_dropShadow"/>
<feBlend mode="normal" in="SourceGraphic" in2="effect1_dropShadow" result="shape"/>
</filter>
<filter id="filter1_d" x="200" y="107" width="100" height="109" filterUnits="userSpaceOnUse" color-interpolation-filters="sRGB">
<feFlood flood-opacity="0" result="BackgroundImageFix"/>
<feColorMatrix in="SourceAlpha" type="matrix" values="0 0 0 0 0 0 0 0 0 0 0 0 0 0 0 0 0 0 127 0"/>
<feOffset dy="24"/>
<feGaussianBlur stdDeviation="20"/>
<feColorMatrix type="matrix" values="0 0 0 0 0.145098 0 0 0 0 0.835294 0 0 0 0 0.909804 0 0 0 0.4 0"/>
<feBlend mode="normal" in2="BackgroundImageFix" result="effect1_dropShadow"/>
<feBlend mode="normal" in="SourceGraphic" in2="effect1_dropShadow" result="shape"/>
</filter>
<filter id="filter2_d" x="26.002" y="42" width="166.666" height="189.293" filterUnits="userSpaceOnUse" color-interpolation-filters="sRGB">
<feFlood flood-opacity="0" result="BackgroundImageFix"/>
<feColorMatrix in="SourceAlpha" type="matrix" values="0 0 0 0 0 0 0 0 0 0 0 0 0 0 0 0 0 0 127 0"/>
<feOffset dy="24"/>
<feGaussianBlur stdDeviation="20"/>
<feColorMatrix type="matrix" values="0 0 0 0 0.145098 0 0 0 0 0.835294 0 0 0 0 0.909804 0 0 0 0.4 0"/>
<feBlend mode="normal" in2="BackgroundImageFix" result="effect1_dropShadow"/>
<feBlend mode="normal" in="SourceGraphic" in2="effect1_dropShadow" result="shape"/>
</filter>
<filter id="filter3_d" x="210.673" y="119.664" width="111.327" height="114.874" filterUnits="userSpaceOnUse" color-interpolation-filters="sRGB">
<feFlood flood-opacity="0" result="BackgroundImageFix"/>
<feColorMatrix in="SourceAlpha" type="matrix" values="0 0 0 0 0 0 0 0 0 0 0 0 0 0 0 0 0 0 127 0"/>
<feOffset dy="24"/>
<feGaussianBlur stdDeviation="20"/>
<feColorMatrix type="matrix" values="0 0 0 0 0.145098 0 0 0 0 0.835294 0 0 0 0 0.909804 0 0 0 0.4 0"/>
<feBlend mode="normal" in2="BackgroundImageFix" result="effect1_dropShadow"/>
<feBlend mode="normal" in="SourceGraphic" in2="effect1_dropShadow" result="shape"/>
</filter>
<filter id="filter4_d" x="-515.756" y="36.9789" width="1371" height="827.15" filterUnits="userSpaceOnUse" color-interpolation-filters="sRGB">
<feFlood flood-opacity="0" result="BackgroundImageFix"/>
<feColorMatrix in="SourceAlpha" type="matrix" values="0 0 0 0 0 0 0 0 0 0 0 0 0 0 0 0 0 0 127 0"/>
<feOffset dy="24"/>
<feGaussianBlur stdDeviation="20"/>
<feColorMatrix type="matrix" values="0 0 0 0 0.145098 0 0 0 0 0.835294 0 0 0 0 0.909804 0 0 0 0.4 0"/>
<feBlend mode="normal" in2="BackgroundImageFix" result="effect1_dropShadow"/>
<feBlend mode="normal" in="SourceGraphic" in2="effect1_dropShadow" result="shape"/>
</filter>
<filter id="filter5_f" x="-25" y="73" width="381.589" height="417.186" filterUnits="userSpaceOnUse" color-interpolation-filters="sRGB">
<feFlood flood-opacity="0" result="BackgroundImageFix"/>
<feBlend mode="normal" in="SourceGraphic" in2="BackgroundImageFix" result="shape"/>
<feGaussianBlur stdDeviation="32" result="effect1_foregroundBlur"/>
</filter>
<filter id="filter6_d" x="62.333" y="96.3333" width="213.333" height="213.333" filterUnits="userSpaceOnUse" color-interpolation-filters="sRGB">
<feFlood flood-opacity="0" result="BackgroundImageFix"/>
<feColorMatrix in="SourceAlpha" type="matrix" values="0 0 0 0 0 0 0 0 0 0 0 0 0 0 0 0 0 0 127 0"/>
<feOffset dy="24"/>
<feGaussianBlur stdDeviation="20"/>
<feColorMatrix type="matrix" values="0 0 0 0 0.145098 0 0 0 0 0.835294 0 0 0 0 0.909804 0 0 0 0.4 0"/>
<feBlend mode="normal" in2="BackgroundImageFix" result="effect1_dropShadow"/>
<feBlend mode="normal" in="SourceGraphic" in2="effect1_dropShadow" result="shape"/>
</filter>
<linearGradient id="paint0_linear" x1="164" y1="0" x2="164" y2="375.5" gradientUnits="userSpaceOnUse">
<stop stop-color="#F2F1F9"/>
<stop offset="1" stop-color="white"/>
</linearGradient>
<linearGradient id="paint1_linear" x1="164" y1="0" x2="164" y2="375.5" gradientUnits="userSpaceOnUse">
<stop stop-color="#F2F1F9"/>
<stop offset="1" stop-color="white"/>
</linearGradient>
<linearGradient id="paint2_linear" x1="-182.5" y1="425.5" x2="-31.6851" y2="214.907" gradientUnits="userSpaceOnUse">
<stop stop-color="#437BFF"/>
<stop offset="1" stop-color="#25D5E8"/>
</linearGradient>
<linearGradient id="paint3_linear" x1="-209" y1="197" x2="-65.1393" y2="27.0599" gradientUnits="userSpaceOnUse">
<stop stop-color="#437BFF"/>
<stop offset="1" stop-color="#25D5E8"/>
</linearGradient>
</defs>
</svg>
