<svg width="1366" height="864" viewBox="0 0 1366 864" fill="none" xmlns="http://www.w3.org/2000/svg">
<path d="M0 864L1366 864V0L0 0V864Z" fill="url(#paint0_linear)"/>
<g filter="url(#filter0_d)">
<path d="M256 340H152C129.909 340 112 357.909 112 380V484C112 506.091 129.909 524 152 524H256C278.091 524 296 506.091 296 484V380C296 357.909 278.091 340 256 340Z" fill="#82E397"/>
<path fill-rule="evenodd" clip-rule="evenodd" d="M152 344C132.118 344 116 360.118 116 380V484C116 503.882 132.118 520 152 520H256C275.882 520 292 503.882 292 484V380C292 360.118 275.882 344 256 344H152ZM112 380C112 357.909 129.909 340 152 340H256C278.091 340 296 357.909 296 380V484C296 506.091 278.091 524 256 524H152C129.909 524 112 506.091 112 484V380Z" fill="white"/>
</g>
<g filter="url(#filter1_i)">
<path d="M256 340H152C129.909 340 112 357.909 112 380V484C112 506.091 129.909 524 152 524H256C278.091 524 296 506.091 296 484V380C296 357.909 278.091 340 256 340Z" fill="#82E397"/>
</g>
<path fill-rule="evenodd" clip-rule="evenodd" d="M152 344C132.118 344 116 360.118 116 380V484C116 503.882 132.118 520 152 520H256C275.882 520 292 503.882 292 484V380C292 360.118 275.882 344 256 344H152ZM112 380C112 357.909 129.909 340 152 340H256C278.091 340 296 357.909 296 380V484C296 506.091 278.091 524 256 524H152C129.909 524 112 506.091 112 484V380Z" fill="white"/>
<g filter="url(#filter2_d)">
<path d="M735 340H631C608.909 340 591 357.909 591 380V484C591 506.091 608.909 524 631 524H735C757.091 524 775 506.091 775 484V380C775 357.909 757.091 340 735 340Z" fill="#437BFF"/>
<path fill-rule="evenodd" clip-rule="evenodd" d="M631 344C611.118 344 595 360.118 595 380V484C595 503.882 611.118 520 631 520H735C754.882 520 771 503.882 771 484V380C771 360.118 754.882 344 735 344H631ZM591 380C591 357.909 608.909 340 631 340H735C757.091 340 775 357.909 775 380V484C775 506.091 757.091 524 735 524H631C608.909 524 591 506.091 591 484V380Z" fill="white"/>
</g>
<g filter="url(#filter3_i)">
<path d="M736 340H632C609.909 340 592 357.909 592 380V484C592 506.091 609.909 524 632 524H736C758.091 524 776 506.091 776 484V380C776 357.909 758.091 340 736 340Z" fill="#437BFF"/>
</g>
<path fill-rule="evenodd" clip-rule="evenodd" d="M631 344C611.118 344 595 360.118 595 380V484C595 503.882 611.118 520 631 520H735C754.882 520 771 503.882 771 484V380C771 360.118 754.882 344 735 344H631ZM591 380C591 357.909 608.909 340 631 340H735C757.091 340 775 357.909 775 380V484C775 506.091 757.091 524 735 524H631C608.909 524 591 506.091 591 484V380Z" fill="white"/>
<g filter="url(#filter4_d)">
<path d="M975 340H871C848.909 340 831 357.909 831 380V484C831 506.091 848.909 524 871 524H975C997.091 524 1015 506.091 1015 484V380C1015 357.909 997.091 340 975 340Z" fill="#E732FB"/>
<path fill-rule="evenodd" clip-rule="evenodd" d="M871 344C851.118 344 835 360.118 835 380V484C835 503.882 851.118 520 871 520H975C994.882 520 1011 503.882 1011 484V380C1011 360.118 994.882 344 975 344H871ZM831 380C831 357.909 848.909 340 871 340H975C997.091 340 1015 357.909 1015 380V484C1015 506.091 997.091 524 975 524H871C848.909 524 831 506.091 831 484V380Z" fill="white"/>
</g>
<g filter="url(#filter5_i)">
<path d="M975 340H871C848.909 340 831 357.909 831 380V484C831 506.091 848.909 524 871 524H975C997.091 524 1015 506.091 1015 484V380C1015 357.909 997.091 340 975 340Z" fill="#E732FB"/>
</g>
<g filter="url(#filter6_d)">
<path d="M496 340H392C369.909 340 352 357.909 352 380V484C352 506.091 369.909 524 392 524H496C518.091 524 536 506.091 536 484V380C536 357.909 518.091 340 496 340Z" fill="#25D5E8"/>
<path fill-rule="evenodd" clip-rule="evenodd" d="M392 344C372.118 344 356 360.118 356 380V484C356 503.882 372.118 520 392 520H496C515.882 520 532 503.882 532 484V380C532 360.118 515.882 344 496 344H392ZM352 380C352 357.909 369.909 340 392 340H496C518.091 340 536 357.909 536 380V484C536 506.091 518.091 524 496 524H392C369.909 524 352 506.091 352 484V380Z" fill="white"/>
</g>
<g filter="url(#filter7_i)">
<path d="M496 340H392C369.909 340 352 357.909 352 380V484C352 506.091 369.909 524 392 524H496C518.091 524 536 506.091 536 484V380C536 357.909 518.091 340 496 340Z" fill="#25D5E8"/>
</g>
<path fill-rule="evenodd" clip-rule="evenodd" d="M392 344C372.118 344 356 360.118 356 380V484C356 503.882 372.118 520 392 520H496C515.882 520 532 503.882 532 484V380C532 360.118 515.882 344 496 344H392ZM352 380C352 357.909 369.909 340 392 340H496C518.091 340 536 357.909 536 380V484C536 506.091 518.091 524 496 524H392C369.909 524 352 506.091 352 484V380Z" fill="white"/>
<g filter="url(#filter8_d)">
<path d="M1214 340H1110C1087.91 340 1070 357.909 1070 380V484C1070 506.091 1087.91 524 1110 524H1214C1236.09 524 1254 506.091 1254 484V380C1254 357.909 1236.09 340 1214 340Z" fill="#F6328D"/>
<path fill-rule="evenodd" clip-rule="evenodd" d="M1110 344C1090.12 344 1074 360.118 1074 380V484C1074 503.882 1090.12 520 1110 520H1214C1233.88 520 1250 503.882 1250 484V380C1250 360.118 1233.88 344 1214 344H1110ZM1070 380C1070 357.909 1087.91 340 1110 340H1214C1236.09 340 1254 357.909 1254 380V484C1254 506.091 1236.09 524 1214 524H1110C1087.91 524 1070 506.091 1070 484V380Z" fill="white"/>
</g>
<g filter="url(#filter9_i)">
<path d="M1214 340H1110C1087.91 340 1070 357.909 1070 380V484C1070 506.091 1087.91 524 1110 524H1214C1236.09 524 1254 506.091 1254 484V380C1254 357.909 1236.09 340 1214 340Z" fill="#F6328D"/>
</g>
<path fill-rule="evenodd" clip-rule="evenodd" d="M1110 344C1090.12 344 1074 360.118 1074 380V484C1074 503.882 1090.12 520 1110 520H1214C1233.88 520 1250 503.882 1250 484V380C1250 360.118 1233.88 344 1214 344H1110ZM1070 380C1070 357.909 1087.91 340 1110 340H1214C1236.09 340 1254 357.909 1254 380V484C1254 506.091 1236.09 524 1214 524H1110C1087.91 524 1070 506.091 1070 484V380Z" fill="white"/>
<g filter="url(#filter10_d)">
<path d="M129.253 420.216H143.653V422.392H131.845V430.328H143.013V432.536H131.845V440.824H143.653V443H129.253V420.216Z" fill="white"/>
<path d="M165.602 426.52C169.165 426.52 170.946 428.643 170.946 432.888V443H168.354V433.016C168.354 431.501 168.087 430.403 167.554 429.72C167.042 429.037 166.199 428.696 165.026 428.696C163.661 428.696 162.594 429.155 161.826 430.072C161.058 430.989 160.674 432.237 160.674 433.816V443H158.082V433.016C158.082 431.523 157.815 430.435 157.282 429.752C156.749 429.048 155.895 428.696 154.722 428.696C153.357 428.696 152.279 429.155 151.49 430.072C150.722 430.989 150.338 432.237 150.338 433.816V443H147.746V431.416C147.746 429.752 147.661 428.248 147.49 426.904H149.954L150.21 429.72C150.658 428.696 151.319 427.907 152.194 427.352C153.09 426.797 154.125 426.52 155.298 426.52C156.578 426.52 157.623 426.776 158.434 427.288C159.245 427.8 159.842 428.589 160.226 429.656C160.717 428.696 161.431 427.939 162.37 427.384C163.33 426.808 164.407 426.52 165.602 426.52Z" fill="white"/>
<path d="M183.903 426.52C185.311 426.52 186.559 426.872 187.647 427.576C188.735 428.28 189.578 429.272 190.175 430.552C190.772 431.811 191.071 433.272 191.071 434.936C191.071 436.6 190.772 438.061 190.175 439.32C189.578 440.557 188.735 441.517 187.647 442.2C186.58 442.883 185.332 443.224 183.903 443.224C182.644 443.224 181.546 442.947 180.607 442.392C179.668 441.837 178.954 441.048 178.463 440.024V449.912H175.871V431.416C175.871 429.752 175.786 428.248 175.615 426.904H178.079L178.335 430.008C178.783 428.899 179.487 428.045 180.447 427.448C181.428 426.829 182.58 426.52 183.903 426.52ZM183.423 441.08C185.002 441.08 186.218 440.547 187.071 439.48C187.946 438.413 188.383 436.899 188.383 434.936C188.383 432.973 187.946 431.448 187.071 430.36C186.196 429.251 184.98 428.696 183.423 428.696C181.823 428.696 180.596 429.229 179.743 430.296C178.89 431.363 178.463 432.888 178.463 434.872C178.463 436.856 178.89 438.392 179.743 439.48C180.596 440.547 181.823 441.08 183.423 441.08Z" fill="white"/>
<path d="M209.234 426.904V443H206.674V440.088C206.205 441.091 205.49 441.869 204.53 442.424C203.592 442.957 202.493 443.224 201.234 443.224C199.805 443.224 198.546 442.883 197.458 442.2C196.392 441.517 195.56 440.557 194.962 439.32C194.386 438.061 194.098 436.6 194.098 434.936C194.098 433.272 194.397 431.811 194.994 430.552C195.592 429.272 196.424 428.28 197.49 427.576C198.578 426.872 199.826 426.52 201.234 426.52C202.493 426.52 203.592 426.797 204.53 427.352C205.469 427.907 206.184 428.685 206.674 429.688V426.904H209.234ZM201.746 441.08C203.325 441.08 204.541 440.547 205.394 439.48C206.248 438.392 206.674 436.856 206.674 434.872C206.674 432.888 206.248 431.363 205.394 430.296C204.541 429.229 203.325 428.696 201.746 428.696C200.168 428.696 198.93 429.251 198.034 430.36C197.16 431.448 196.722 432.973 196.722 434.936C196.722 436.899 197.16 438.413 198.034 439.48C198.909 440.547 200.146 441.08 201.746 441.08Z" fill="white"/>
<path d="M217.702 428.952V437.752C217.702 438.947 217.947 439.789 218.438 440.28C218.929 440.749 219.622 440.984 220.518 440.984C221.115 440.984 221.691 440.888 222.246 440.696V442.904C221.585 443.117 220.838 443.224 220.006 443.224C218.47 443.224 217.265 442.797 216.39 441.944C215.537 441.069 215.11 439.789 215.11 438.104V428.952H211.974V426.904H215.11V422.776L217.702 421.848V426.904H222.31V428.952H217.702Z" fill="white"/>
<path d="M233.465 426.52C237.327 426.52 239.257 428.643 239.257 432.888V443H236.665V433.016C236.665 431.523 236.367 430.435 235.769 429.752C235.172 429.048 234.233 428.696 232.953 428.696C231.46 428.696 230.265 429.155 229.369 430.072C228.473 430.989 228.025 432.227 228.025 433.784V443H225.433V419.448H228.025V429.528C228.537 428.547 229.263 427.8 230.201 427.288C231.161 426.776 232.249 426.52 233.465 426.52Z" fill="white"/>
<path d="M244.152 426.904H246.744V443H244.152V426.904ZM247.064 420.088V423.032H243.896V420.088H247.064Z" fill="white"/>
<path d="M257.217 443.224C254.508 443.224 252.364 442.531 250.785 441.144L251.649 439.224C252.524 439.907 253.409 440.397 254.305 440.696C255.201 440.995 256.204 441.144 257.313 441.144C258.529 441.144 259.447 440.941 260.065 440.536C260.705 440.109 261.025 439.501 261.025 438.712C261.025 438.072 260.812 437.56 260.385 437.176C259.959 436.792 259.255 436.493 258.273 436.28L255.553 435.64C254.209 435.341 253.164 434.808 252.417 434.04C251.692 433.272 251.329 432.355 251.329 431.288C251.329 429.88 251.895 428.739 253.025 427.864C254.156 426.968 255.649 426.52 257.505 426.52C258.636 426.52 259.703 426.701 260.705 427.064C261.708 427.427 262.551 427.949 263.233 428.632L262.369 430.52C260.855 429.261 259.233 428.632 257.505 428.632C256.353 428.632 255.457 428.856 254.817 429.304C254.198 429.731 253.889 430.339 253.889 431.128C253.889 431.789 254.081 432.312 254.465 432.696C254.871 433.08 255.511 433.379 256.385 433.592L259.105 434.264C260.599 434.605 261.708 435.139 262.433 435.864C263.159 436.568 263.521 437.496 263.521 438.648C263.521 440.035 262.956 441.144 261.825 441.976C260.695 442.808 259.159 443.224 257.217 443.224Z" fill="white"/>
<path d="M281.124 434.872H269.316C269.338 436.92 269.807 438.467 270.724 439.512C271.663 440.557 273.018 441.08 274.788 441.08C276.666 441.08 278.394 440.451 279.972 439.192L280.836 441.08C280.132 441.741 279.226 442.264 278.116 442.648C277.028 443.032 275.908 443.224 274.756 443.224C272.239 443.224 270.265 442.488 268.836 441.016C267.407 439.523 266.692 437.485 266.692 434.904C266.692 433.261 267.012 431.811 267.652 430.552C268.292 429.272 269.188 428.28 270.34 427.576C271.492 426.872 272.804 426.52 274.276 426.52C276.41 426.52 278.084 427.224 279.3 428.632C280.516 430.019 281.124 431.939 281.124 434.392V434.872ZM274.308 428.536C272.964 428.536 271.866 428.941 271.012 429.752C270.18 430.563 269.647 431.704 269.412 433.176H278.788C278.66 431.661 278.212 430.509 277.444 429.72C276.698 428.931 275.652 428.536 274.308 428.536Z" fill="white"/>
</g>
<g filter="url(#filter11_d)">
<path d="M1139.76 422.456H1131.82V420.216H1150.35V422.456H1142.41V443H1139.76V422.456Z" fill="white"/>
<path d="M1164.22 434.872H1152.41C1152.43 436.92 1152.9 438.467 1153.82 439.512C1154.76 440.557 1156.11 441.08 1157.88 441.08C1159.76 441.08 1161.49 440.451 1163.07 439.192L1163.93 441.08C1163.23 441.741 1162.32 442.264 1161.21 442.648C1160.12 443.032 1159 443.224 1157.85 443.224C1155.33 443.224 1153.36 442.488 1151.93 441.016C1150.5 439.523 1149.79 437.485 1149.79 434.904C1149.79 433.261 1150.11 431.811 1150.75 430.552C1151.39 429.272 1152.28 428.28 1153.43 427.576C1154.59 426.872 1155.9 426.52 1157.37 426.52C1159.5 426.52 1161.18 427.224 1162.39 428.632C1163.61 430.019 1164.22 431.939 1164.22 434.392V434.872ZM1157.4 428.536C1156.06 428.536 1154.96 428.941 1154.11 429.752C1153.27 430.563 1152.74 431.704 1152.51 433.176H1161.88C1161.75 431.661 1161.31 430.509 1160.54 429.72C1159.79 428.931 1158.75 428.536 1157.4 428.536Z" fill="white"/>
<path d="M1173.59 443.224C1170.88 443.224 1168.74 442.531 1167.16 441.144L1168.02 439.224C1168.9 439.907 1169.78 440.397 1170.68 440.696C1171.58 440.995 1172.58 441.144 1173.69 441.144C1174.9 441.144 1175.82 440.941 1176.44 440.536C1177.08 440.109 1177.4 439.501 1177.4 438.712C1177.4 438.072 1177.19 437.56 1176.76 437.176C1176.33 436.792 1175.63 436.493 1174.65 436.28L1171.93 435.64C1170.58 435.341 1169.54 434.808 1168.79 434.04C1168.07 433.272 1167.7 432.355 1167.7 431.288C1167.7 429.88 1168.27 428.739 1169.4 427.864C1170.53 426.968 1172.02 426.52 1173.88 426.52C1175.01 426.52 1176.08 426.701 1177.08 427.064C1178.08 427.427 1178.93 427.949 1179.61 428.632L1178.74 430.52C1177.23 429.261 1175.61 428.632 1173.88 428.632C1172.73 428.632 1171.83 428.856 1171.19 429.304C1170.57 429.731 1170.26 430.339 1170.26 431.128C1170.26 431.789 1170.46 432.312 1170.84 432.696C1171.25 433.08 1171.89 433.379 1172.76 433.592L1175.48 434.264C1176.97 434.605 1178.08 435.139 1178.81 435.864C1179.53 436.568 1179.9 437.496 1179.9 438.648C1179.9 440.035 1179.33 441.144 1178.2 441.976C1177.07 442.808 1175.53 443.224 1173.59 443.224Z" fill="white"/>
<path d="M1187.33 428.952V437.752C1187.33 438.947 1187.57 439.789 1188.06 440.28C1188.55 440.749 1189.25 440.984 1190.14 440.984C1190.74 440.984 1191.32 440.888 1191.87 440.696V442.904C1191.21 443.117 1190.46 443.224 1189.63 443.224C1188.1 443.224 1186.89 442.797 1186.02 441.944C1185.16 441.069 1184.74 439.789 1184.74 438.104V428.952H1181.6V426.904H1184.74V422.776L1187.33 421.848V426.904H1191.94V428.952H1187.33Z" fill="white"/>
</g>
<g filter="url(#filter12_d)">
<path d="M854.05 420.216H863.138C865.485 420.216 867.309 420.781 868.61 421.912C869.933 423.043 870.594 424.6 870.594 426.584C870.594 428.568 869.933 430.136 868.61 431.288C867.288 432.419 865.464 432.984 863.138 432.984H856.674V443H854.05V420.216ZM862.914 430.808C864.6 430.808 865.869 430.445 866.722 429.72C867.576 428.995 868.002 427.949 868.002 426.584C868.002 425.219 867.576 424.184 866.722 423.48C865.869 422.755 864.6 422.392 862.914 422.392H856.674V430.808H862.914Z" fill="white"/>
<path d="M881.75 426.52C882.283 426.52 882.774 426.584 883.222 426.712L883.158 429.08C882.667 428.909 882.102 428.824 881.462 428.824C879.904 428.824 878.742 429.315 877.974 430.296C877.227 431.256 876.854 432.429 876.854 433.816V443H874.262V431.416C874.262 429.752 874.176 428.248 874.006 426.904H876.47L876.726 429.88C877.131 428.792 877.782 427.96 878.678 427.384C879.574 426.808 880.598 426.52 881.75 426.52Z" fill="white"/>
<path d="M892.199 443.224C890.684 443.224 889.351 442.883 888.199 442.2C887.047 441.517 886.151 440.547 885.511 439.288C884.892 438.029 884.583 436.557 884.583 434.872C884.583 433.187 884.892 431.715 885.511 430.456C886.151 429.197 887.047 428.227 888.199 427.544C889.351 426.861 890.684 426.52 892.199 426.52C893.713 426.52 895.047 426.861 896.199 427.544C897.351 428.227 898.236 429.197 898.855 430.456C899.495 431.715 899.815 433.187 899.815 434.872C899.815 436.557 899.495 438.029 898.855 439.288C898.236 440.547 897.351 441.517 896.199 442.2C895.047 442.883 893.713 443.224 892.199 443.224ZM892.199 441.08C893.799 441.08 895.025 440.557 895.879 439.512C896.732 438.445 897.159 436.899 897.159 434.872C897.159 432.909 896.721 431.395 895.847 430.328C894.972 429.24 893.756 428.696 892.199 428.696C890.62 428.696 889.393 429.24 888.519 430.328C887.644 431.395 887.207 432.909 887.207 434.872C887.207 436.899 887.633 438.445 888.487 439.512C889.361 440.557 890.599 441.08 892.199 441.08Z" fill="white"/>
<path d="M907.28 428.952V437.752C907.28 438.947 907.525 439.789 908.016 440.28C908.507 440.749 909.2 440.984 910.096 440.984C910.693 440.984 911.269 440.888 911.824 440.696V442.904C911.163 443.117 910.416 443.224 909.584 443.224C908.048 443.224 906.843 442.797 905.968 441.944C905.115 441.069 904.688 439.789 904.688 438.104V428.952H901.552V426.904H904.688V422.776L907.28 421.848V426.904H911.888V428.952H907.28Z" fill="white"/>
<path d="M921.668 443.224C920.153 443.224 918.82 442.883 917.668 442.2C916.516 441.517 915.62 440.547 914.98 439.288C914.361 438.029 914.052 436.557 914.052 434.872C914.052 433.187 914.361 431.715 914.98 430.456C915.62 429.197 916.516 428.227 917.668 427.544C918.82 426.861 920.153 426.52 921.668 426.52C923.182 426.52 924.516 426.861 925.668 427.544C926.82 428.227 927.705 429.197 928.324 430.456C928.964 431.715 929.284 433.187 929.284 434.872C929.284 436.557 928.964 438.029 928.324 439.288C927.705 440.547 926.82 441.517 925.668 442.2C924.516 442.883 923.182 443.224 921.668 443.224ZM921.668 441.08C923.268 441.08 924.494 440.557 925.348 439.512C926.201 438.445 926.628 436.899 926.628 434.872C926.628 432.909 926.19 431.395 925.316 430.328C924.441 429.24 923.225 428.696 921.668 428.696C920.089 428.696 918.862 429.24 917.988 430.328C917.113 431.395 916.676 432.909 916.676 434.872C916.676 436.899 917.102 438.445 917.956 439.512C918.83 440.557 920.068 441.08 921.668 441.08Z" fill="white"/>
<path d="M936.749 428.952V437.752C936.749 438.947 936.994 439.789 937.485 440.28C937.975 440.749 938.669 440.984 939.565 440.984C940.162 440.984 940.738 440.888 941.293 440.696V442.904C940.631 443.117 939.885 443.224 939.053 443.224C937.517 443.224 936.311 442.797 935.437 441.944C934.583 441.069 934.157 439.789 934.157 438.104V428.952H931.021V426.904H934.157V422.776L936.749 421.848V426.904H941.357V428.952H936.749Z" fill="white"/>
<path d="M958.812 426.904L951.292 444.472C950.502 446.307 949.51 447.651 948.316 448.504C947.121 449.357 945.649 449.944 943.9 450.264L943.356 448.248C944.87 447.907 946.012 447.448 946.78 446.872C947.569 446.317 948.22 445.453 948.732 444.28L949.372 442.84L942.556 426.904H945.276L950.716 440.184L956.22 426.904H958.812Z" fill="white"/>
<path d="M969.7 426.52C971.108 426.52 972.356 426.872 973.444 427.576C974.532 428.28 975.374 429.272 975.972 430.552C976.569 431.811 976.868 433.272 976.868 434.936C976.868 436.6 976.569 438.061 975.972 439.32C975.374 440.557 974.532 441.517 973.444 442.2C972.377 442.883 971.129 443.224 969.7 443.224C968.441 443.224 967.342 442.947 966.404 442.392C965.465 441.837 964.75 441.048 964.26 440.024V449.912H961.668V431.416C961.668 429.752 961.582 428.248 961.412 426.904H963.876L964.132 430.008C964.58 428.899 965.284 428.045 966.244 427.448C967.225 426.829 968.377 426.52 969.7 426.52ZM969.22 441.08C970.798 441.08 972.014 440.547 972.868 439.48C973.742 438.413 974.18 436.899 974.18 434.936C974.18 432.973 973.742 431.448 972.868 430.36C971.993 429.251 970.777 428.696 969.22 428.696C967.62 428.696 966.393 429.229 965.54 430.296C964.686 431.363 964.26 432.888 964.26 434.872C964.26 436.856 964.686 438.392 965.54 439.48C966.393 440.547 967.62 441.08 969.22 441.08Z" fill="white"/>
<path d="M994.327 434.872H982.519C982.541 436.92 983.01 438.467 983.927 439.512C984.866 440.557 986.221 441.08 987.991 441.08C989.869 441.08 991.597 440.451 993.175 439.192L994.039 441.08C993.335 441.741 992.429 442.264 991.319 442.648C990.231 443.032 989.111 443.224 987.959 443.224C985.442 443.224 983.469 442.488 982.039 441.016C980.61 439.523 979.895 437.485 979.895 434.904C979.895 433.261 980.215 431.811 980.855 430.552C981.495 429.272 982.391 428.28 983.543 427.576C984.695 426.872 986.007 426.52 987.479 426.52C989.613 426.52 991.287 427.224 992.503 428.632C993.719 430.019 994.327 431.939 994.327 434.392V434.872ZM987.511 428.536C986.167 428.536 985.069 428.941 984.215 429.752C983.383 430.563 982.85 431.704 982.615 433.176H991.991C991.863 431.661 991.415 430.509 990.647 429.72C989.901 428.931 988.855 428.536 987.511 428.536Z" fill="white"/>
</g>
<g filter="url(#filter13_d)">
<path d="M640.003 420.216H642.627V443H640.003V420.216Z" fill="white"/>
<path d="M662.109 419.448V443H659.549V440.088C659.08 441.091 658.365 441.869 657.405 442.424C656.467 442.957 655.368 443.224 654.109 443.224C652.701 443.224 651.453 442.872 650.365 442.168C649.299 441.464 648.467 440.483 647.869 439.224C647.272 437.944 646.973 436.472 646.973 434.808C646.973 433.144 647.261 431.693 647.837 430.456C648.435 429.197 649.277 428.227 650.365 427.544C651.453 426.861 652.701 426.52 654.109 426.52C655.368 426.52 656.467 426.797 657.405 427.352C658.344 427.885 659.048 428.643 659.517 429.624V419.448H662.109ZM654.621 441.08C656.2 441.08 657.416 440.547 658.269 439.48C659.123 438.392 659.549 436.856 659.549 434.872C659.549 432.909 659.123 431.395 658.269 430.328C657.416 429.24 656.2 428.696 654.621 428.696C653.043 428.696 651.805 429.229 650.909 430.296C650.035 431.363 649.597 432.867 649.597 434.808C649.597 436.792 650.035 438.339 650.909 439.448C651.805 440.536 653.043 441.08 654.621 441.08Z" fill="white"/>
<path d="M680.593 434.872H668.785C668.806 436.92 669.276 438.467 670.193 439.512C671.132 440.557 672.486 441.08 674.257 441.08C676.134 441.08 677.862 440.451 679.441 439.192L680.305 441.08C679.601 441.741 678.694 442.264 677.585 442.648C676.497 443.032 675.377 443.224 674.225 443.224C671.708 443.224 669.734 442.488 668.305 441.016C666.876 439.523 666.161 437.485 666.161 434.904C666.161 433.261 666.481 431.811 667.121 430.552C667.761 429.272 668.657 428.28 669.809 427.576C670.961 426.872 672.273 426.52 673.745 426.52C675.878 426.52 677.553 427.224 678.769 428.632C679.985 430.019 680.593 431.939 680.593 434.392V434.872ZM673.777 428.536C672.433 428.536 671.334 428.941 670.481 429.752C669.649 430.563 669.116 431.704 668.881 433.176H678.257C678.129 431.661 677.681 430.509 676.913 429.72C676.166 428.931 675.121 428.536 673.777 428.536Z" fill="white"/>
<path d="M698.703 426.904V443H696.143V440.088C695.674 441.091 694.959 441.869 693.999 442.424C693.061 442.957 691.962 443.224 690.703 443.224C689.274 443.224 688.015 442.883 686.927 442.2C685.86 441.517 685.029 440.557 684.431 439.32C683.855 438.061 683.567 436.6 683.567 434.936C683.567 433.272 683.866 431.811 684.463 430.552C685.06 429.272 685.893 428.28 686.959 427.576C688.047 426.872 689.295 426.52 690.703 426.52C691.962 426.52 693.061 426.797 693.999 427.352C694.938 427.907 695.652 428.685 696.143 429.688V426.904H698.703ZM691.215 441.08C692.794 441.08 694.01 440.547 694.863 439.48C695.716 438.392 696.143 436.856 696.143 434.872C696.143 432.888 695.716 431.363 694.863 430.296C694.01 429.229 692.794 428.696 691.215 428.696C689.636 428.696 688.399 429.251 687.503 430.36C686.628 431.448 686.191 432.973 686.191 434.936C686.191 436.899 686.628 438.413 687.503 439.48C688.378 440.547 689.615 441.08 691.215 441.08Z" fill="white"/>
<path d="M707.171 428.952V437.752C707.171 438.947 707.416 439.789 707.907 440.28C708.397 440.749 709.091 440.984 709.987 440.984C710.584 440.984 711.16 440.888 711.715 440.696V442.904C711.053 443.117 710.307 443.224 709.475 443.224C707.939 443.224 706.733 442.797 705.859 441.944C705.005 441.069 704.579 439.789 704.579 438.104V428.952H701.443V426.904H704.579V422.776L707.171 421.848V426.904H711.779V428.952H707.171Z" fill="white"/>
<path d="M728.374 434.872H716.566C716.588 436.92 717.057 438.467 717.974 439.512C718.913 440.557 720.268 441.08 722.038 441.08C723.916 441.08 725.644 440.451 727.222 439.192L728.086 441.08C727.382 441.741 726.475 442.264 725.366 442.648C724.278 443.032 723.158 443.224 722.006 443.224C719.489 443.224 717.515 442.488 716.086 441.016C714.657 439.523 713.942 437.485 713.942 434.904C713.942 433.261 714.262 431.811 714.902 430.552C715.542 429.272 716.438 428.28 717.59 427.576C718.742 426.872 720.054 426.52 721.526 426.52C723.66 426.52 725.334 427.224 726.55 428.632C727.766 430.019 728.374 431.939 728.374 434.392V434.872ZM721.558 428.536C720.214 428.536 719.116 428.941 718.262 429.752C717.43 430.563 716.897 431.704 716.662 433.176H726.038C725.91 431.661 725.462 430.509 724.694 429.72C723.948 428.931 722.902 428.536 721.558 428.536Z" fill="white"/>
</g>
<g filter="url(#filter14_d)">
<path d="M398.957 420.216H406.605C410.253 420.216 413.069 421.208 415.053 423.192C417.058 425.155 418.061 427.949 418.061 431.576C418.061 435.224 417.058 438.04 415.053 440.024C413.069 442.008 410.253 443 406.605 443H398.957V420.216ZM406.445 440.76C409.389 440.76 411.597 439.992 413.069 438.456C414.562 436.92 415.309 434.627 415.309 431.576C415.309 425.496 412.354 422.456 406.445 422.456H401.581V440.76H406.445Z" fill="white"/>
<path d="M435.984 434.872H424.176C424.197 436.92 424.667 438.467 425.584 439.512C426.523 440.557 427.877 441.08 429.648 441.08C431.525 441.08 433.253 440.451 434.832 439.192L435.696 441.08C434.992 441.741 434.085 442.264 432.976 442.648C431.888 443.032 430.768 443.224 429.616 443.224C427.099 443.224 425.125 442.488 423.696 441.016C422.267 439.523 421.552 437.485 421.552 434.904C421.552 433.261 421.872 431.811 422.512 430.552C423.152 429.272 424.048 428.28 425.2 427.576C426.352 426.872 427.664 426.52 429.136 426.52C431.269 426.52 432.944 427.224 434.16 428.632C435.376 430.019 435.984 431.939 435.984 434.392V434.872ZM429.168 428.536C427.824 428.536 426.725 428.941 425.872 429.752C425.04 430.563 424.507 431.704 424.272 433.176H433.648C433.52 431.661 433.072 430.509 432.304 429.72C431.557 428.931 430.512 428.536 429.168 428.536Z" fill="white"/>
<path d="M443.343 426.904H453.231V443H450.639V428.952H443.343V443H440.751V428.952H437.615V426.904H440.751V424.76C440.751 423.459 440.943 422.413 441.327 421.624C441.732 420.835 442.383 420.259 443.279 419.896C444.175 419.533 445.391 419.352 446.927 419.352H447.951V421.368H447.151C446.042 421.368 445.22 421.464 444.687 421.656C444.175 421.848 443.823 422.221 443.631 422.776C443.439 423.309 443.343 424.141 443.343 425.272V426.904ZM453.551 419.928V422.936H450.319V419.928H453.551Z" fill="white"/>
<path d="M466.263 426.52C470.124 426.52 472.055 428.643 472.055 432.888V443H469.463V433.016C469.463 431.523 469.164 430.435 468.567 429.752C467.969 429.048 467.031 428.696 465.751 428.696C464.257 428.696 463.063 429.155 462.167 430.072C461.271 430.989 460.823 432.227 460.823 433.784V443H458.231V431.416C458.231 429.752 458.145 428.248 457.975 426.904H460.439L460.695 429.784C461.185 428.739 461.921 427.939 462.903 427.384C463.884 426.808 465.004 426.52 466.263 426.52Z" fill="white"/>
<path d="M490.422 434.872H478.614C478.635 436.92 479.104 438.467 480.022 439.512C480.96 440.557 482.315 441.08 484.086 441.08C485.963 441.08 487.691 440.451 489.27 439.192L490.134 441.08C489.43 441.741 488.523 442.264 487.414 442.648C486.326 443.032 485.206 443.224 484.054 443.224C481.536 443.224 479.563 442.488 478.134 441.016C476.704 439.523 475.99 437.485 475.99 434.904C475.99 433.261 476.31 431.811 476.95 430.552C477.59 429.272 478.486 428.28 479.638 427.576C480.79 426.872 482.102 426.52 483.574 426.52C485.707 426.52 487.382 427.224 488.598 428.632C489.814 430.019 490.422 431.939 490.422 434.392V434.872ZM483.606 428.536C482.262 428.536 481.163 428.941 480.31 429.752C479.478 430.563 478.944 431.704 478.71 433.176H488.086C487.958 431.661 487.51 430.509 486.742 429.72C485.995 428.931 484.95 428.536 483.606 428.536Z" fill="white"/>
</g>
<path fill-rule="evenodd" clip-rule="evenodd" d="M339.732 433.232C340.709 432.256 342.291 432.256 343.268 433.232L347.768 437.732C348.237 438.201 348.5 438.837 348.5 439.5C348.5 440.163 348.237 440.799 347.768 441.268L343.268 445.768C342.291 446.744 340.709 446.744 339.732 445.768C338.756 444.791 338.756 443.209 339.732 442.232L339.964 442H304C302.619 442 301.5 440.881 301.5 439.5C301.5 438.119 302.619 437 304 437H339.964L339.732 436.768C338.756 435.791 338.756 434.209 339.732 433.232Z" fill="#FFBA00"/>
<path fill-rule="evenodd" clip-rule="evenodd" d="M203.938 321.39C203.17 321.08 202.799 320.206 203.109 319.438L204.5 319.999C203.109 319.438 203.109 319.438 203.109 319.438L203.112 319.431L203.117 319.418L203.137 319.368C203.155 319.326 203.181 319.264 203.215 319.183C203.283 319.022 203.384 318.786 203.518 318.48C203.788 317.869 204.192 316.979 204.737 315.85C205.097 315.104 205.994 314.792 206.74 315.152C207.486 315.512 207.798 316.409 207.438 317.155C206.909 318.25 206.52 319.109 206.264 319.69C206.136 319.98 206.041 320.202 205.979 320.348C205.948 320.422 205.925 320.477 205.911 320.512L205.895 320.551L205.891 320.561C205.581 321.329 204.706 321.7 203.938 321.39ZM210.8 307.68C210.089 307.255 209.858 306.334 210.283 305.623C211.502 303.584 212.886 301.381 214.441 299.06C214.902 298.372 215.834 298.188 216.522 298.649C217.21 299.11 217.395 300.041 216.934 300.73C215.409 303.006 214.052 305.165 212.858 307.163C212.432 307.873 211.511 308.105 210.8 307.68ZM221.549 291.723C220.897 291.211 220.784 290.269 221.295 289.617C222.836 287.655 224.483 285.656 226.238 283.64C226.782 283.015 227.73 282.95 228.355 283.494C228.979 284.038 229.045 284.986 228.5 285.611C226.78 287.586 225.165 289.546 223.655 291.47C223.143 292.121 222.2 292.235 221.549 291.723ZM234.22 277.273C233.641 276.681 233.651 275.731 234.243 275.151C236.053 273.38 237.95 271.618 239.935 269.877C240.559 269.331 241.506 269.394 242.052 270.017C242.598 270.64 242.536 271.588 241.913 272.134C239.97 273.836 238.113 275.561 236.341 277.295C235.749 277.875 234.8 277.865 234.22 277.273ZM248.707 264.67C248.216 264.002 248.36 263.064 249.028 262.573C251.085 261.063 253.22 259.589 255.433 258.159C256.129 257.71 257.057 257.91 257.507 258.606C257.956 259.301 257.756 260.23 257.06 260.679C254.899 262.075 252.814 263.516 250.803 264.992C250.136 265.482 249.197 265.338 248.707 264.67ZM264.88 254.31C264.497 253.575 264.781 252.669 265.516 252.286C267.783 251.102 270.119 249.971 272.526 248.901C273.283 248.565 274.17 248.906 274.506 249.663C274.843 250.42 274.502 251.306 273.745 251.643C271.396 252.687 269.116 253.79 266.904 254.945C266.17 255.329 265.264 255.044 264.88 254.31ZM282.458 246.569C282.194 245.784 282.618 244.933 283.403 244.67C285.824 243.858 288.307 243.108 290.853 242.427C291.653 242.213 292.475 242.688 292.689 243.489C292.903 244.289 292.428 245.111 291.627 245.325C289.143 245.99 286.72 246.721 284.357 247.514C283.572 247.778 282.722 247.355 282.458 246.569ZM301.047 241.663C300.907 240.847 301.456 240.072 302.272 239.932C304.785 239.502 307.351 239.139 309.972 238.847C310.796 238.756 311.537 239.349 311.629 240.172C311.721 240.996 311.127 241.737 310.304 241.829C307.741 242.114 305.233 242.469 302.779 242.889C301.962 243.029 301.187 242.48 301.047 241.663ZM320.116 239.593C320.094 238.764 320.747 238.075 321.575 238.053C322.871 238.018 324.18 238 325.5 238C326.868 238 328.221 238.017 329.561 238.049C330.389 238.069 331.044 238.757 331.024 239.585C331.004 240.414 330.316 241.069 329.488 241.048C328.173 241.016 326.844 241 325.5 241C324.206 241 322.925 241.017 321.656 241.052C320.828 241.074 320.139 240.421 320.116 239.593ZM339.905 240.138C339.989 239.314 340.726 238.714 341.55 238.798C344.268 239.075 346.923 239.421 349.515 239.832C350.333 239.961 350.891 240.73 350.761 241.548C350.632 242.366 349.863 242.924 349.045 242.795C346.509 242.393 343.909 242.054 341.246 241.782C340.421 241.698 339.821 240.962 339.905 240.138ZM359.504 243.33C359.706 242.526 360.521 242.039 361.324 242.241C363.976 242.908 366.553 243.645 369.058 244.446C369.847 244.698 370.282 245.543 370.03 246.332C369.777 247.121 368.933 247.556 368.144 247.304C365.7 246.522 363.183 245.802 360.593 245.15C359.789 244.948 359.302 244.133 359.504 243.33ZM378.36 249.451C378.689 248.69 379.572 248.34 380.332 248.669C382.846 249.755 385.274 250.907 387.619 252.115C388.356 252.494 388.645 253.399 388.266 254.135C387.887 254.872 386.982 255.161 386.246 254.782C383.96 253.604 381.593 252.482 379.142 251.423C378.382 251.094 378.032 250.211 378.36 249.451ZM395.966 258.615C396.419 257.921 397.349 257.726 398.042 258.179C400.336 259.675 402.534 261.224 404.64 262.813C405.302 263.312 405.433 264.253 404.934 264.914C404.435 265.576 403.495 265.707 402.833 265.208C400.781 263.659 398.638 262.15 396.403 260.691C395.709 260.238 395.514 259.309 395.966 258.615ZM411.775 270.64C412.338 270.032 413.287 269.996 413.895 270.558C415.905 272.419 417.809 274.307 419.612 276.208C420.182 276.809 420.157 277.758 419.556 278.328C418.955 278.898 418.005 278.873 417.435 278.272C415.676 276.417 413.817 274.575 411.857 272.76C411.249 272.197 411.212 271.248 411.775 270.64ZM425.376 285.079C426.028 284.567 426.971 284.682 427.482 285.334C429.195 287.519 430.784 289.689 432.255 291.82C432.725 292.502 432.554 293.436 431.872 293.907C431.19 294.377 430.256 294.206 429.785 293.524C428.347 291.44 426.795 289.32 425.121 287.185C424.61 286.533 424.724 285.59 425.376 285.079ZM436.609 301.477C437.331 301.069 438.246 301.323 438.653 302.044C440.076 304.559 441.32 306.948 442.401 309.16C442.764 309.904 442.456 310.802 441.711 311.166C440.967 311.53 440.069 311.221 439.705 310.476C438.649 308.315 437.433 305.98 436.042 303.521C435.634 302.8 435.888 301.884 436.609 301.477ZM438.502 322.426C438.536 321.73 439.046 321.149 439.732 321.024L441.932 320.624C442.747 320.476 443.528 321.017 443.676 321.832C443.804 322.537 443.417 323.216 442.782 323.483C442.492 324.173 441.726 324.553 440.988 324.342L439.588 323.942C438.917 323.751 438.467 323.123 438.502 322.426ZM444.874 322.787C444.537 322.974 444.272 323.289 444.158 323.688C443.93 324.484 444.391 325.315 445.188 325.542L446.588 325.942C447.112 326.092 447.675 325.946 448.061 325.561L448.861 324.761C449.446 324.175 449.446 323.225 448.861 322.639C448.749 322.528 448.624 322.437 448.491 322.368C448.676 322.407 448.871 322.412 449.068 322.376L449.141 322.363C449.727 322.946 450.675 322.946 451.261 322.361L452.061 321.561C452.525 321.097 452.633 320.385 452.329 319.804C452.024 319.223 451.377 318.907 450.732 319.024L448.532 319.424C447.88 319.543 447.404 320.065 447.315 320.686C447.262 320.538 447.206 320.385 447.149 320.229C446.865 319.451 446.003 319.051 445.225 319.335C444.447 319.62 444.047 320.481 444.332 321.259C444.54 321.83 444.721 322.341 444.874 322.787ZM447.773 321.993C447.797 322.064 447.82 322.133 447.843 322.201C447.933 322.203 448.022 322.214 448.111 322.232C447.988 322.169 447.874 322.088 447.773 321.993ZM445.556 324.908C445.557 324.908 445.557 324.908 445.556 324.908Z" fill="#25D5E8"/>
<path fill-rule="evenodd" clip-rule="evenodd" d="M924.062 546.11C924.83 546.42 925.201 547.294 924.891 548.062L923.5 547.501C924.891 548.062 924.891 548.062 924.891 548.062L924.888 548.069L924.883 548.082L924.863 548.132C924.845 548.174 924.819 548.236 924.785 548.317C924.717 548.478 924.616 548.714 924.482 549.02C924.212 549.631 923.808 550.521 923.263 551.65C922.903 552.396 922.006 552.708 921.26 552.348C920.514 551.988 920.202 551.091 920.562 550.345C921.091 549.25 921.48 548.391 921.736 547.81C921.864 547.52 921.959 547.298 922.021 547.152C922.052 547.078 922.075 547.023 922.089 546.988L922.105 546.949L922.109 546.939C922.419 546.171 923.294 545.8 924.062 546.11ZM917.2 559.82C917.911 560.245 918.142 561.166 917.717 561.877C916.498 563.916 915.114 566.119 913.559 568.44C913.098 569.128 912.166 569.312 911.478 568.851C910.79 568.39 910.605 567.459 911.066 566.77C912.591 564.494 913.948 562.335 915.142 560.337C915.568 559.627 916.489 559.395 917.2 559.82ZM906.451 575.777C907.103 576.289 907.216 577.231 906.705 577.883C905.164 579.845 903.517 581.844 901.762 583.86C901.217 584.485 900.27 584.55 899.645 584.006C899.021 583.462 898.955 582.514 899.5 581.889C901.22 579.914 902.835 577.954 904.345 576.03C904.857 575.379 905.8 575.265 906.451 575.777ZM893.78 590.227C894.359 590.819 894.349 591.769 893.757 592.349C891.947 594.12 890.05 595.882 888.065 597.623C887.441 598.169 886.494 598.106 885.948 597.483C885.402 596.86 885.464 595.912 886.087 595.366C888.03 593.664 889.887 591.939 891.659 590.205C892.251 589.625 893.2 589.635 893.78 590.227ZM879.293 602.83C879.784 603.498 879.64 604.436 878.972 604.927C876.915 606.437 874.78 607.911 872.567 609.341C871.871 609.79 870.943 609.59 870.493 608.894C870.044 608.199 870.244 607.27 870.94 606.821C873.101 605.425 875.186 603.984 877.197 602.508C877.864 602.018 878.803 602.162 879.293 602.83ZM863.12 613.19C863.503 613.925 863.219 614.831 862.484 615.214C860.217 616.398 857.881 617.529 855.474 618.599C854.717 618.935 853.83 618.594 853.494 617.837C853.157 617.08 853.498 616.194 854.255 615.857C856.604 614.813 858.884 613.71 861.096 612.555C861.83 612.171 862.736 612.456 863.12 613.19ZM845.542 620.931C845.806 621.716 845.382 622.567 844.597 622.83C842.176 623.642 839.693 624.392 837.147 625.073C836.347 625.287 835.525 624.812 835.311 624.011C835.097 623.211 835.572 622.389 836.373 622.175C838.857 621.51 841.28 620.779 843.643 619.986C844.428 619.722 845.278 620.145 845.542 620.931ZM826.953 625.837C827.093 626.653 826.544 627.428 825.728 627.568C823.215 627.998 820.649 628.361 818.028 628.653C817.204 628.744 816.462 628.151 816.371 627.328C816.279 626.504 816.873 625.763 817.696 625.671C820.259 625.386 822.767 625.031 825.221 624.611C826.038 624.471 826.813 625.02 826.953 625.837ZM807.884 627.907C807.906 628.736 807.253 629.425 806.425 629.447C805.129 629.482 803.82 629.5 802.5 629.5C801.132 629.5 799.779 629.483 798.439 629.451C797.611 629.431 796.956 628.743 796.976 627.915C796.996 627.086 797.684 626.431 798.512 626.452C799.827 626.484 801.156 626.5 802.5 626.5C803.794 626.5 805.075 626.483 806.344 626.448C807.172 626.426 807.861 627.079 807.884 627.907ZM788.095 627.362C788.011 628.186 787.274 628.786 786.45 628.702C783.732 628.425 781.077 628.079 778.485 627.668C777.667 627.539 777.109 626.77 777.239 625.952C777.368 625.134 778.137 624.576 778.955 624.705C781.491 625.107 784.091 625.446 786.754 625.718C787.579 625.802 788.179 626.538 788.095 627.362ZM768.496 624.17C768.294 624.974 767.479 625.461 766.676 625.259C764.024 624.592 761.447 623.855 758.942 623.054C758.153 622.802 757.718 621.957 757.97 621.168C758.223 620.379 759.067 619.944 759.856 620.196C762.3 620.978 764.817 621.698 767.407 622.35C768.211 622.552 768.698 623.367 768.496 624.17ZM749.64 618.049C749.311 618.81 748.428 619.16 747.668 618.831C745.154 617.745 742.726 616.593 740.381 615.385C739.644 615.006 739.355 614.101 739.734 613.365C740.113 612.628 741.018 612.339 741.754 612.718C744.04 613.896 746.407 615.018 748.858 616.077C749.618 616.406 749.968 617.289 749.64 618.049ZM732.034 608.885C731.581 609.579 730.651 609.774 729.958 609.321C727.664 607.825 725.466 606.276 723.36 604.687C722.698 604.188 722.567 603.247 723.066 602.586C723.565 601.924 724.505 601.793 725.167 602.292C727.219 603.841 729.362 605.35 731.597 606.809C732.291 607.262 732.486 608.191 732.034 608.885ZM716.225 596.86C715.662 597.468 714.713 597.504 714.105 596.942C712.095 595.081 710.191 593.193 708.388 591.292C707.818 590.691 707.843 589.742 708.444 589.172C709.045 588.602 709.995 588.627 710.565 589.228C712.324 591.083 714.183 592.925 716.143 594.74C716.751 595.303 716.788 596.252 716.225 596.86ZM702.624 582.421C701.972 582.933 701.029 582.818 700.518 582.166C698.805 579.981 697.216 577.811 695.745 575.68C695.275 574.998 695.446 574.064 696.128 573.593C696.81 573.122 697.744 573.294 698.215 573.976C699.653 576.06 701.205 578.18 702.879 580.315C703.39 580.967 703.276 581.91 702.624 582.421ZM691.391 566.023C690.669 566.431 689.754 566.177 689.347 565.456C687.924 562.941 686.68 560.552 685.599 558.34C685.236 557.596 685.544 556.698 686.289 556.334C687.033 555.97 687.931 556.279 688.295 557.023C689.351 559.185 690.567 561.52 691.958 563.979C692.366 564.7 692.112 565.616 691.391 566.023ZM689.498 545.074C689.464 545.77 688.954 546.351 688.268 546.476L686.068 546.876C685.253 547.024 684.472 546.483 684.324 545.668C684.196 544.963 684.583 544.284 685.218 544.017C685.508 543.327 686.274 542.947 687.012 543.158L688.412 543.558C689.083 543.749 689.533 544.377 689.498 545.074ZM683.126 544.713C683.463 544.526 683.728 544.211 683.842 543.812C684.07 543.016 683.609 542.185 682.812 541.958L681.412 541.558C680.888 541.408 680.325 541.554 679.939 541.939L679.139 542.739C678.554 543.325 678.554 544.275 679.139 544.861C679.251 544.972 679.376 545.063 679.509 545.132C679.324 545.093 679.129 545.088 678.932 545.124L678.859 545.137C678.273 544.554 677.325 544.554 676.739 545.139L675.939 545.939C675.475 546.403 675.367 547.115 675.671 547.696C675.976 548.277 676.623 548.593 677.268 548.476L679.468 548.076C680.12 547.957 680.596 547.435 680.685 546.814C680.738 546.962 680.794 547.115 680.851 547.271C681.135 548.049 681.997 548.449 682.775 548.165C683.553 547.88 683.953 547.019 683.668 546.241C683.46 545.67 683.279 545.159 683.126 544.713ZM680.227 545.507C680.203 545.436 680.18 545.367 680.157 545.299C680.067 545.297 679.978 545.286 679.889 545.268C680.012 545.331 680.126 545.412 680.227 545.507ZM682.444 542.592C682.443 542.592 682.443 542.592 682.444 542.592Z" fill="#25D5E8"/>
<path fill-rule="evenodd" clip-rule="evenodd" d="M1175.5 548.001C1176.33 548.001 1177 548.672 1177 549.501L1175.5 549.501C1177 549.501 1177 549.5 1177 549.501L1177 549.506L1177 549.513L1177 549.533C1177 549.549 1177 549.57 1177 549.597C1177 549.65 1177 549.724 1176.99 549.819C1176.98 550.008 1176.97 550.28 1176.94 550.63C1176.87 551.329 1176.75 552.339 1176.51 553.627C1176.36 554.441 1175.57 554.978 1174.76 554.826C1173.95 554.673 1173.41 553.89 1173.56 553.075C1173.78 551.886 1173.89 550.971 1173.95 550.365C1173.97 550.061 1173.99 549.835 1173.99 549.689C1174 549.617 1174 549.564 1174 549.533L1174 549.501C1174 549.501 1174 549.501 1174 549.501M1175.5 548.001C1174.67 548.001 1174 548.673 1174 549.501ZM1172.09 563.146C1172.85 563.476 1173.2 564.36 1172.87 565.12C1171.9 567.351 1170.7 569.774 1169.23 572.357C1168.82 573.077 1167.9 573.327 1167.18 572.916C1166.46 572.506 1166.21 571.59 1166.62 570.87C1168.04 568.382 1169.19 566.057 1170.12 563.925C1170.45 563.165 1171.33 562.817 1172.09 563.146ZM1162.35 580.182C1163.01 580.683 1163.13 581.624 1162.63 582.283C1161.11 584.285 1159.43 586.343 1157.58 588.449C1157.03 589.07 1156.08 589.129 1155.46 588.581C1154.84 588.033 1154.78 587.085 1155.33 586.464C1157.14 584.413 1158.77 582.411 1160.24 580.469C1160.75 579.809 1161.69 579.681 1162.35 580.182ZM1149.37 594.845C1149.94 595.449 1149.91 596.398 1149.3 596.966C1147.44 598.716 1145.46 600.488 1143.34 602.277C1142.71 602.811 1141.76 602.731 1141.23 602.098C1140.69 601.465 1140.77 600.519 1141.41 599.984C1143.48 598.23 1145.43 596.494 1147.25 594.781C1147.85 594.213 1148.8 594.242 1149.37 594.845ZM1134.36 607.489C1134.85 608.158 1134.7 609.096 1134.03 609.586C1131.96 611.1 1129.79 612.622 1127.52 614.147C1126.83 614.609 1125.9 614.426 1125.44 613.738C1124.98 613.05 1125.16 612.118 1125.85 611.656C1128.09 610.153 1130.22 608.655 1132.26 607.165C1132.93 606.676 1133.87 606.821 1134.36 607.489ZM1118.04 618.414C1118.46 619.126 1118.23 620.046 1117.52 620.471C1115.33 621.771 1113.07 623.071 1110.73 624.37C1110 624.771 1109.09 624.509 1108.69 623.785C1108.29 623.06 1108.55 622.147 1109.27 621.746C1111.59 620.462 1113.83 619.177 1115.98 617.894C1116.69 617.469 1117.61 617.702 1118.04 618.414ZM1100.89 627.882C1101.26 628.623 1100.96 629.524 1100.22 629.894C1097.92 631.043 1095.55 632.189 1093.1 633.331C1092.35 633.682 1091.46 633.358 1091.11 632.607C1090.76 631.857 1091.08 630.964 1091.83 630.613C1094.25 629.482 1096.6 628.348 1098.88 627.21C1099.62 626.84 1100.52 627.141 1100.89 627.882ZM1083.15 636.159C1083.47 636.921 1083.12 637.802 1082.35 638.127C1079.93 639.157 1077.45 640.183 1074.91 641.202C1074.14 641.51 1073.26 641.136 1072.96 640.367C1072.65 639.598 1073.02 638.725 1073.79 638.417C1076.32 637.406 1078.78 636.388 1081.18 635.367C1081.94 635.042 1082.82 635.397 1083.15 636.159ZM1064.91 643.453C1065.2 644.23 1064.8 645.092 1064.02 645.378C1061.56 646.282 1059.05 647.181 1056.48 648.073C1055.7 648.345 1054.84 647.931 1054.57 647.148C1054.3 646.365 1054.71 645.511 1055.5 645.239C1058.05 644.353 1060.55 643.46 1062.99 642.562C1063.77 642.276 1064.63 642.675 1064.91 643.453ZM1046.37 649.884C1046.62 650.673 1046.18 651.517 1045.39 651.77C1042.89 652.571 1040.34 653.365 1037.75 654.153C1036.95 654.393 1036.12 653.946 1035.88 653.153C1035.64 652.36 1036.08 651.522 1036.88 651.282C1039.46 650.499 1041.99 649.709 1044.48 648.913C1045.27 648.66 1046.11 649.095 1046.37 649.884ZM1027.6 655.568C1027.82 656.366 1027.35 657.194 1026.56 657.417C1024.01 658.133 1021.41 658.842 1018.77 659.545C1017.97 659.758 1017.15 659.281 1016.94 658.481C1016.72 657.68 1017.2 656.858 1018 656.645C1020.63 655.947 1023.21 655.241 1025.75 654.529C1026.54 654.305 1027.37 654.77 1027.6 655.568ZM1008.64 660.606C1008.84 661.411 1008.35 662.223 1007.55 662.422C1005 663.05 1002.41 663.672 999.791 664.287C998.985 664.476 998.178 663.976 997.989 663.169C997.8 662.363 998.3 661.556 999.107 661.366C1001.72 660.754 1004.29 660.135 1006.83 659.509C1007.63 659.311 1008.44 659.802 1008.64 660.606ZM989.503 665.085C989.679 665.895 989.166 666.694 988.356 666.87C985.83 667.419 983.269 667.963 980.674 668.499C979.863 668.667 979.069 668.145 978.902 667.334C978.734 666.523 979.255 665.729 980.067 665.561C982.652 665.027 985.202 664.486 987.719 663.938C988.528 663.762 989.327 664.276 989.503 665.085ZM970.151 669.077C970.307 669.89 969.774 670.676 968.96 670.832C966.463 671.311 963.937 671.783 961.379 672.25C960.564 672.398 959.783 671.858 959.635 671.043C959.486 670.228 960.026 669.447 960.841 669.298C963.389 668.834 965.907 668.363 968.395 667.886C969.209 667.73 969.995 668.263 970.151 669.077ZM950.896 672.578C951.034 673.394 950.483 674.168 949.667 674.307C947.091 674.742 944.486 675.171 941.851 675.594C941.034 675.725 940.264 675.168 940.133 674.35C940.001 673.532 940.558 672.763 941.376 672.632C944.002 672.21 946.599 671.782 949.167 671.348C949.984 671.21 950.758 671.761 950.896 672.578ZM931.624 675.665C931.745 676.484 931.18 677.247 930.36 677.369C927.766 677.755 925.145 678.135 922.495 678.509C921.675 678.624 920.916 678.053 920.801 677.233C920.685 676.412 921.256 675.654 922.076 675.538C924.718 675.165 927.332 674.787 929.919 674.402C930.739 674.28 931.502 674.846 931.624 675.665ZM912.067 678.417C912.174 679.238 911.595 679.991 910.773 680.098C908.236 680.428 905.674 680.753 903.089 681.072C902.266 681.174 901.518 680.589 901.416 679.767C901.315 678.945 901.899 678.196 902.721 678.095C905.3 677.776 907.855 677.452 910.386 677.123C911.207 677.016 911.96 677.595 912.067 678.417ZM892.608 680.81C892.701 681.633 892.11 682.376 891.286 682.47C888.658 682.768 886.006 683.061 883.329 683.348C882.505 683.436 881.766 682.84 881.678 682.016C881.59 681.192 882.186 680.453 883.01 680.365C885.68 680.078 888.326 679.787 890.948 679.489C891.771 679.395 892.514 679.987 892.608 680.81ZM873.177 682.889C873.258 683.713 872.656 684.447 871.831 684.528C869.243 684.783 866.633 685.032 864.001 685.275C863.176 685.352 862.446 684.745 862.369 683.92C862.293 683.095 862.9 682.364 863.725 682.288C866.351 682.045 868.955 681.797 871.538 681.543C872.362 681.462 873.096 682.064 873.177 682.889ZM853.376 684.714C853.445 685.54 852.832 686.265 852.007 686.334C849.467 686.548 846.908 686.757 844.329 686.96C843.503 687.025 842.781 686.409 842.716 685.583C842.651 684.757 843.267 684.035 844.093 683.969C846.667 683.766 849.221 683.558 851.755 683.345C852.581 683.276 853.306 683.888 853.376 684.714ZM834.077 686.231C834.136 687.058 833.514 687.775 832.687 687.834C830.07 688.021 827.434 688.202 824.777 688.379C823.95 688.434 823.236 687.808 823.181 686.981C823.126 686.155 823.751 685.44 824.578 685.385C827.23 685.209 829.862 685.028 832.474 684.842C833.3 684.783 834.018 685.405 834.077 686.231ZM814.244 687.542C814.293 688.369 813.662 689.079 812.835 689.128C810.297 689.278 807.74 689.423 805.165 689.564C804.338 689.61 803.631 688.976 803.586 688.148C803.54 687.321 804.174 686.614 805.001 686.569C807.572 686.428 810.124 686.283 812.658 686.133C813.485 686.084 814.195 686.715 814.244 687.542ZM794.885 688.595C794.925 689.423 794.286 690.126 793.459 690.166C790.831 690.292 788.184 690.414 785.52 690.53C784.692 690.567 783.992 689.925 783.955 689.097C783.919 688.27 784.561 687.569 785.388 687.533C788.049 687.417 790.691 687.295 793.315 687.169C794.142 687.129 794.845 687.768 794.885 688.595ZM775.036 689.46C775.067 690.288 774.421 690.984 773.594 691.015C771.048 691.11 768.487 691.201 765.91 691.288C765.082 691.316 764.388 690.667 764.36 689.839C764.332 689.011 764.981 688.318 765.809 688.29C768.382 688.203 770.94 688.112 773.481 688.017C774.309 687.986 775.005 688.632 775.036 689.46ZM755.659 690.106C755.682 690.935 755.029 691.625 754.201 691.648C751.575 691.721 748.932 691.789 746.273 691.853C745.445 691.873 744.758 691.218 744.738 690.39C744.718 689.562 745.373 688.874 746.201 688.854C748.857 688.79 751.495 688.722 754.118 688.649C754.946 688.626 755.636 689.278 755.659 690.106ZM735.721 690.581C735.737 691.41 735.078 692.093 734.249 692.109C731.709 692.156 729.155 692.198 726.585 692.237C725.757 692.25 725.075 691.588 725.063 690.76C725.05 689.931 725.712 689.25 726.54 689.237C729.106 689.199 731.657 689.156 734.194 689.109C735.022 689.094 735.706 689.753 735.721 690.581ZM716.409 690.868C716.417 691.696 715.752 692.374 714.924 692.383C712.31 692.408 709.682 692.43 707.039 692.448C706.21 692.453 705.534 691.786 705.529 690.958C705.523 690.129 706.191 689.453 707.019 689.448C709.659 689.43 712.284 689.409 714.894 689.383C715.722 689.374 716.401 690.039 716.409 690.868ZM696.541 690.994C696.542 691.823 695.872 692.495 695.043 692.497C693.699 692.499 692.352 692.5 691 692.5C689.626 692.5 688.257 692.499 686.891 692.497C686.062 692.495 685.392 691.822 685.393 690.994C685.395 690.166 686.067 689.495 686.896 689.497C688.26 689.499 689.628 689.5 691 689.5C692.35 689.5 693.696 689.499 695.039 689.497C695.867 689.495 696.54 690.166 696.541 690.994ZM676.21 690.955C676.204 691.783 675.528 692.45 674.7 692.444C672.013 692.426 669.342 692.402 666.686 692.375C665.858 692.366 665.193 691.688 665.202 690.859C665.21 690.031 665.889 689.366 666.717 689.375C669.37 689.403 672.038 689.426 674.72 689.444C675.549 689.45 676.216 690.126 676.21 690.955ZM656.358 690.744C656.344 691.572 655.662 692.233 654.834 692.22C652.223 692.179 649.626 692.133 647.045 692.083C646.216 692.067 645.558 691.383 645.574 690.554C645.59 689.726 646.274 689.068 647.103 689.084C649.681 689.134 652.274 689.179 654.881 689.22C655.71 689.233 656.371 689.915 656.358 690.744ZM636.33 690.349C636.309 691.177 635.621 691.831 634.793 691.81C632.093 691.742 629.411 691.669 626.744 691.591C625.916 691.567 625.265 690.876 625.289 690.048C625.313 689.22 626.004 688.569 626.832 688.593C629.494 688.67 632.173 688.743 634.868 688.811C635.696 688.832 636.351 689.52 636.33 690.349ZM616.41 689.763C616.381 690.591 615.686 691.238 614.858 691.209C612.241 691.117 609.641 691.02 607.057 690.919C606.229 690.886 605.584 690.189 605.617 689.361C605.649 688.533 606.347 687.888 607.175 687.921C609.755 688.022 612.351 688.119 614.964 688.211C615.791 688.24 616.439 688.935 616.41 689.763ZM596.442 688.97C596.405 689.798 595.703 690.438 594.875 690.4C592.174 690.276 589.49 690.147 586.825 690.013C585.998 689.971 585.361 689.267 585.403 688.439C585.445 687.612 586.149 686.975 586.976 687.017C589.637 687.151 592.316 687.28 595.013 687.403C595.84 687.441 596.48 688.143 596.442 688.97ZM576.538 687.962C576.491 688.79 575.782 689.422 574.955 689.374C572.344 689.225 569.752 689.07 567.177 688.911C566.35 688.86 565.721 688.148 565.773 687.321C565.824 686.494 566.536 685.866 567.362 685.917C569.932 686.076 572.521 686.23 575.127 686.379C575.954 686.427 576.586 687.135 576.538 687.962ZM556.56 686.716C556.502 687.543 555.786 688.166 554.959 688.109C552.269 687.922 549.599 687.73 546.949 687.532C546.123 687.47 545.503 686.75 545.565 685.924C545.627 685.098 546.346 684.479 547.172 684.54C549.817 684.738 552.482 684.93 555.167 685.116C555.994 685.174 556.617 685.89 556.56 686.716ZM536.777 685.234C536.709 686.06 535.985 686.674 535.159 686.606C532.495 686.386 529.851 686.161 527.228 685.93C526.403 685.857 525.793 685.129 525.866 684.304C525.938 683.479 526.666 682.869 527.491 682.941C530.109 683.172 532.747 683.397 535.406 683.616C536.231 683.684 536.846 684.409 536.777 685.234ZM516.738 683.461C516.658 684.286 515.925 684.889 515.1 684.809C512.439 684.552 509.8 684.289 507.182 684.02C506.358 683.935 505.759 683.198 505.843 682.374C505.928 681.55 506.665 680.951 507.489 681.035C510.1 681.304 512.734 681.566 515.389 681.823C516.214 681.903 516.818 682.636 516.738 683.461ZM497.12 681.438C497.028 682.261 496.286 682.854 495.463 682.762C492.728 682.456 490.018 682.143 487.332 681.825C486.51 681.727 485.922 680.981 486.02 680.158C486.117 679.336 486.863 678.748 487.686 678.845C490.364 679.163 493.068 679.475 495.797 679.78C496.62 679.873 497.212 680.615 497.12 681.438ZM477.095 679.054C476.989 679.876 476.237 680.456 475.416 680.35C472.804 680.014 470.217 679.671 467.655 679.323C466.834 679.212 466.259 678.456 466.37 677.635C466.482 676.814 467.238 676.239 468.059 676.35C470.614 676.698 473.195 677.039 475.799 677.375C476.621 677.481 477.201 678.233 477.095 679.054ZM457.323 676.355C457.202 677.174 456.44 677.741 455.62 677.62C452.95 677.227 450.307 676.827 447.691 676.422C446.873 676.295 446.312 675.528 446.439 674.709C446.566 673.891 447.332 673.33 448.151 673.457C450.759 673.862 453.394 674.26 456.057 674.652C456.877 674.773 457.443 675.535 457.323 676.355ZM437.821 673.321C437.684 674.138 436.911 674.69 436.094 674.553C433.367 674.097 430.671 673.634 428.005 673.164C427.189 673.02 426.644 672.242 426.788 671.427C426.932 670.611 427.71 670.066 428.526 670.21C431.182 670.678 433.87 671.139 436.589 671.594C437.406 671.731 437.957 672.504 437.821 673.321ZM417.971 669.813C417.816 670.627 417.031 671.161 416.217 671.007C413.624 670.514 411.062 670.015 408.531 669.51C407.718 669.348 407.191 668.558 407.353 667.746C407.515 666.933 408.305 666.406 409.118 666.568C411.64 667.071 414.193 667.569 416.777 668.059C417.591 668.214 418.125 668.999 417.971 669.813ZM398.351 665.879C398.176 666.689 397.378 667.205 396.568 667.03C393.961 666.469 391.388 665.901 388.849 665.327C388.041 665.144 387.534 664.341 387.717 663.533C387.899 662.725 388.703 662.218 389.511 662.401C392.04 662.973 394.603 663.538 397.2 664.097C398.01 664.272 398.525 665.07 398.351 665.879ZM378.924 661.468C378.727 662.273 377.916 662.766 377.111 662.57C374.481 661.929 371.889 661.281 369.335 660.626C368.533 660.42 368.049 659.603 368.255 658.8C368.46 657.998 369.278 657.514 370.08 657.72C372.622 658.372 375.203 659.017 377.822 659.655C378.626 659.852 379.12 660.663 378.924 661.468ZM359.656 656.512C359.436 657.31 358.61 657.779 357.811 657.558C355.172 656.828 352.575 656.092 350.021 655.348C349.226 655.117 348.769 654.284 349 653.489C349.232 652.694 350.064 652.236 350.86 652.468C353.4 653.207 355.984 653.94 358.61 654.666C359.409 654.887 359.877 655.713 359.656 656.512ZM340.539 650.93C340.291 651.721 339.449 652.16 338.658 651.912C336.028 651.085 333.446 650.251 330.912 649.411C330.125 649.15 329.699 648.301 329.96 647.515C330.221 646.729 331.07 646.303 331.856 646.563C334.375 647.399 336.942 648.227 339.558 649.05C340.348 649.298 340.787 650.14 340.539 650.93ZM321.595 644.629C321.315 645.409 320.456 645.814 319.676 645.534C317.079 644.601 314.537 643.662 312.048 642.717C311.273 642.423 310.884 641.557 311.178 640.782C311.472 640.008 312.338 639.618 313.113 639.912C315.584 640.851 318.11 641.784 320.69 642.71C321.469 642.99 321.875 643.849 321.595 644.629ZM302.896 637.502C302.58 638.268 301.702 638.632 300.937 638.316C298.405 637.269 295.934 636.217 293.523 635.16C292.764 634.827 292.419 633.943 292.751 633.184C293.084 632.425 293.969 632.08 294.727 632.412C297.119 633.461 299.57 634.505 302.083 635.543C302.848 635.859 303.212 636.737 302.896 637.502ZM284.582 629.436C284.223 630.183 283.327 630.498 282.58 630.139C280.153 628.973 277.794 627.802 275.501 626.63C274.764 626.252 274.472 625.348 274.849 624.611C275.226 623.873 276.13 623.581 276.868 623.959C279.138 625.12 281.474 626.279 283.879 627.435C284.626 627.793 284.941 628.69 284.582 629.436ZM266.878 620.324C266.47 621.045 265.555 621.298 264.834 620.89C262.434 619.531 260.118 618.172 257.883 616.812C257.176 616.382 256.951 615.459 257.381 614.751C257.812 614.044 258.734 613.819 259.442 614.249C261.65 615.592 263.939 616.936 266.312 618.28C267.033 618.688 267.286 619.603 266.878 620.324ZM249.844 609.903C249.377 610.587 248.444 610.763 247.76 610.297C245.506 608.76 243.351 607.227 241.29 605.703C240.624 605.21 240.483 604.271 240.976 603.605C241.469 602.939 242.408 602.798 243.074 603.291C245.103 604.792 247.227 606.302 249.45 607.818C250.134 608.285 250.311 609.218 249.844 609.903ZM233.905 598.012C233.369 598.644 232.422 598.721 231.791 598.185C229.661 596.379 227.66 594.59 225.779 592.824C225.176 592.257 225.146 591.308 225.713 590.704C226.28 590.1 227.229 590.07 227.833 590.637C229.677 592.368 231.64 594.124 233.731 595.898C234.363 596.434 234.441 597.38 233.905 598.012ZM219.396 584.25C218.778 584.802 217.83 584.748 217.278 584.13C215.383 582.008 213.66 579.936 212.093 577.922C211.585 577.268 211.702 576.326 212.356 575.817C213.01 575.309 213.953 575.426 214.461 576.08C215.986 578.04 217.665 580.06 219.515 582.132C220.067 582.75 220.014 583.698 219.396 584.25ZM207.285 568.463C206.575 568.889 205.653 568.659 205.227 567.948C203.683 565.375 202.411 562.962 201.364 560.74C201.01 559.991 201.331 559.097 202.081 558.743C202.83 558.39 203.724 558.711 204.077 559.46C205.083 561.593 206.308 563.918 207.8 566.405C208.226 567.116 207.995 568.037 207.285 568.463ZM206.498 547.074C206.464 547.77 205.954 548.351 205.268 548.476L203.068 548.876C202.253 549.024 201.472 548.483 201.324 547.668C201.196 546.963 201.583 546.284 202.218 546.017C202.508 545.327 203.274 544.947 204.012 545.158L205.412 545.558C206.082 545.749 206.532 546.377 206.498 547.074ZM199.775 546.853C200.273 546.724 200.691 546.342 200.842 545.812C201.07 545.016 200.609 544.185 199.812 543.958L198.412 543.558C197.888 543.408 197.325 543.554 196.939 543.939L196.139 544.739C195.554 545.325 195.554 546.275 196.139 546.861C196.251 546.972 196.376 547.063 196.509 547.132C196.324 547.093 196.129 547.088 195.932 547.124L195.859 547.137C195.273 546.554 194.325 546.554 193.739 547.139L192.939 547.939C192.475 548.403 192.367 549.115 192.671 549.696C192.976 550.277 193.623 550.593 194.268 550.476L196.468 550.076C196.822 550.012 197.123 549.829 197.34 549.575C197.647 550.178 198.335 550.516 199.022 550.352C199.828 550.161 200.327 549.352 200.135 548.546C199.982 547.9 199.864 547.334 199.775 546.853Z" fill="#25D5E8"/>
<path d="M440 322.5L447 324.5L451 320.5L440 322.5Z" fill="#25D5E8"/>
<path fill-rule="evenodd" clip-rule="evenodd" d="M449.121 326.621C448.351 327.392 447.223 327.684 446.176 327.385L439.176 325.385C437.835 325.001 436.935 323.745 437.004 322.352C437.072 320.96 438.091 319.798 439.463 319.548L450.463 317.548C451.754 317.314 453.048 317.945 453.657 319.108C454.266 320.27 454.049 321.693 453.121 322.621L449.121 326.621ZM447 324.5L440 322.5L451 320.5L447 324.5Z" fill="#25D5E8"/>
<path d="M688 545L681 543L677 547L688 545Z" fill="#25D5E8"/>
<path fill-rule="evenodd" clip-rule="evenodd" d="M678.879 540.879C679.649 540.108 680.777 539.816 681.824 540.116L688.824 542.116C690.165 542.499 691.065 543.755 690.996 545.148C690.928 546.54 689.909 547.702 688.537 547.952L677.537 549.952C676.246 550.186 674.952 549.555 674.343 548.392C673.734 547.23 673.951 545.807 674.879 544.879L678.879 540.879ZM681 543L688 545L677 547L681 543Z" fill="#25D5E8"/>
<path d="M205 547L198 545L194 549L205 547Z" fill="#25D5E8"/>
<path fill-rule="evenodd" clip-rule="evenodd" d="M195.879 542.879C196.649 542.108 197.777 541.816 198.824 542.116L205.824 544.116C207.165 544.499 208.065 545.755 207.996 547.148C207.928 548.54 206.909 549.702 205.537 549.952L194.537 551.952C193.246 552.186 191.952 551.555 191.343 550.392C190.734 549.23 190.951 547.807 191.879 546.879L195.879 542.879ZM198 545L205 547L194 549L198 545Z" fill="#25D5E8"/>
<path fill-rule="evenodd" clip-rule="evenodd" d="M204.5 321.499C203.672 321.499 203 320.828 203 319.999L204.5 319.999C203 319.999 203 320 203 319.999L203 319.996L203 319.99L203 319.973L203.001 319.913C203.001 319.863 203.003 319.791 203.005 319.698C203.011 319.513 203.021 319.243 203.041 318.894C203.081 318.196 203.161 317.179 203.32 315.877C203.42 315.055 204.167 314.469 204.99 314.569C205.812 314.669 206.398 315.417 206.298 316.239C206.147 317.476 206.073 318.429 206.036 319.067C206.018 319.386 206.009 319.626 206.004 319.783C206.002 319.861 206.001 319.919 206 319.955L206 319.993L206 319.999C206 320.828 205.328 321.499 204.5 321.499ZM206.801 305.885C206.004 305.66 205.541 304.831 205.766 304.034C206.433 301.673 207.261 299.099 208.288 296.346C208.578 295.57 209.442 295.175 210.218 295.465C210.994 295.755 211.388 296.619 211.099 297.395C210.101 300.069 209.298 302.565 208.653 304.849C208.428 305.647 207.599 306.11 206.801 305.885ZM213.793 287.309C213.053 286.937 212.755 286.035 213.127 285.295C214.28 283.004 215.564 280.641 216.994 278.218C217.415 277.504 218.335 277.267 219.048 277.688C219.762 278.109 219.999 279.029 219.578 279.742C218.182 282.107 216.93 284.412 215.807 286.644C215.434 287.384 214.533 287.682 213.793 287.309ZM223.924 270.252C223.252 269.767 223.101 268.829 223.586 268.158C225.104 266.057 226.733 263.927 228.483 261.777C229.005 261.135 229.95 261.037 230.593 261.56C231.235 262.083 231.333 263.028 230.81 263.67C229.097 265.776 227.502 267.86 226.018 269.914C225.533 270.586 224.595 270.737 223.924 270.252ZM236.48 254.894C235.881 254.322 235.859 253.372 236.431 252.773C238.229 250.889 240.124 248.998 242.121 247.102C242.722 246.532 243.671 246.556 244.242 247.157C244.812 247.758 244.787 248.707 244.187 249.278C242.225 251.14 240.365 252.997 238.601 254.845C238.029 255.444 237.079 255.466 236.48 254.894ZM250.907 241.255C250.379 240.617 250.468 239.671 251.106 239.143C253.13 237.467 255.24 235.793 257.437 234.124C258.097 233.623 259.038 233.752 259.539 234.412C260.04 235.072 259.911 236.013 259.251 236.514C257.087 238.157 255.011 239.805 253.019 241.454C252.381 241.982 251.435 241.893 250.907 241.255ZM266.81 229.223C266.348 228.535 266.531 227.604 267.218 227.142C269.36 225.703 271.573 224.271 273.859 222.849C274.563 222.412 275.488 222.628 275.925 223.331C276.363 224.034 276.147 224.959 275.444 225.397C273.187 226.801 271.004 228.213 268.891 229.632C268.204 230.094 267.272 229.911 266.81 229.223ZM283.602 218.82C283.2 218.096 283.46 217.183 284.185 216.78C286.495 215.496 288.871 214.223 291.315 212.962C292.051 212.582 292.955 212.871 293.335 213.607C293.715 214.343 293.427 215.248 292.691 215.628C290.274 216.875 287.925 218.134 285.642 219.403C284.918 219.805 284.004 219.544 283.602 218.82ZM301.315 209.703C300.966 208.951 301.292 208.059 302.044 207.711C304.398 206.618 306.808 205.537 309.276 204.468C310.036 204.139 310.919 204.489 311.248 205.249C311.577 206.009 311.228 206.892 310.468 207.221C308.024 208.28 305.637 209.35 303.307 210.432C302.555 210.78 301.663 210.454 301.315 209.703ZM319.583 201.822C319.282 201.051 319.664 200.181 320.435 199.88C322.839 198.942 325.292 198.015 327.795 197.102C328.573 196.818 329.434 197.218 329.718 197.997C330.002 198.775 329.601 199.636 328.823 199.92C326.341 200.826 323.909 201.744 321.526 202.674C320.754 202.976 319.885 202.594 319.583 201.822ZM338.197 195.056C337.938 194.269 338.366 193.421 339.152 193.162C341.623 192.347 344.138 191.545 346.699 190.756C347.491 190.512 348.33 190.956 348.574 191.748C348.818 192.54 348.374 193.379 347.582 193.623C345.04 194.407 342.543 195.203 340.091 196.011C339.305 196.27 338.457 195.843 338.197 195.056ZM357.168 189.231C356.946 188.433 357.413 187.606 358.211 187.384C360.723 186.685 363.276 185.998 365.87 185.324C366.672 185.116 367.49 185.597 367.699 186.399C367.907 187.2 367.426 188.019 366.624 188.228C364.047 188.898 361.51 189.58 359.015 190.274C358.217 190.496 357.39 190.029 357.168 189.231ZM376.406 184.25C376.217 183.443 376.718 182.636 377.525 182.448C380.058 181.854 382.627 181.273 385.235 180.704C386.044 180.527 386.843 181.04 387.02 181.85C387.197 182.659 386.684 183.458 385.874 183.635C383.282 184.201 380.727 184.779 378.208 185.369C377.402 185.557 376.595 185.057 376.406 184.25ZM395.862 180.021C395.702 179.208 396.232 178.42 397.045 178.261C399.583 177.764 402.153 177.279 404.757 176.805C405.572 176.657 406.353 177.197 406.501 178.012C406.649 178.827 406.109 179.608 405.294 179.757C402.703 180.228 400.146 180.711 397.622 181.205C396.809 181.364 396.021 180.834 395.862 180.021ZM415.461 176.473C415.329 175.655 415.885 174.885 416.702 174.752C419.247 174.34 421.823 173.939 424.429 173.548C425.248 173.426 426.012 173.99 426.134 174.81C426.257 175.629 425.692 176.393 424.873 176.515C422.279 176.904 419.715 177.304 417.182 177.714C416.364 177.846 415.594 177.291 415.461 176.473ZM434.99 173.562C434.881 172.741 435.459 171.987 436.28 171.879C438.911 171.531 441.572 171.194 444.263 170.868C445.086 170.769 445.833 171.355 445.933 172.177C446.032 173 445.446 173.747 444.624 173.847C441.944 174.171 439.293 174.506 436.673 174.853C435.852 174.961 435.098 174.384 434.99 173.562ZM454.645 171.192C454.558 170.368 455.155 169.629 455.979 169.543C458.624 169.264 461.296 168.995 463.996 168.738C464.821 168.659 465.553 169.264 465.632 170.089C465.711 170.913 465.106 171.646 464.281 171.724C461.591 171.981 458.928 172.248 456.294 172.526C455.47 172.613 454.731 172.016 454.645 171.192ZM474.464 169.31C474.397 168.484 475.012 167.761 475.838 167.694C478.442 167.482 481.07 167.281 483.724 167.089C484.55 167.03 485.268 167.651 485.328 168.477C485.388 169.304 484.766 170.022 483.94 170.081C481.295 170.272 478.675 170.473 476.081 170.684C475.255 170.751 474.531 170.136 474.464 169.31ZM494.426 167.881C494.378 167.054 495.008 166.344 495.835 166.296C498.416 166.143 501.02 166 503.646 165.867C504.473 165.825 505.178 166.461 505.22 167.289C505.262 168.116 504.626 168.821 503.798 168.863C501.18 168.996 498.585 169.139 496.012 169.29C495.185 169.339 494.475 168.708 494.426 167.881ZM514.073 166.891C514.041 166.063 514.686 165.366 515.514 165.334C518.185 165.229 520.879 165.135 523.596 165.049C524.424 165.023 525.117 165.674 525.143 166.502C525.169 167.33 524.518 168.022 523.69 168.048C520.981 168.133 518.294 168.227 515.631 168.332C514.803 168.364 514.106 167.719 514.073 166.891ZM533.965 166.273C533.948 165.445 534.606 164.76 535.434 164.743C538.046 164.689 540.678 164.645 543.331 164.609C544.16 164.597 544.84 165.26 544.852 166.088C544.863 166.916 544.201 167.597 543.372 167.608C540.726 167.644 538.1 167.689 535.495 167.742C534.667 167.759 533.982 167.102 533.965 166.273ZM553.916 166.012C553.913 165.183 554.582 164.51 555.411 164.507C556.769 164.502 558.132 164.5 559.5 164.5C560.867 164.5 562.23 164.503 563.588 164.509C564.416 164.513 565.085 165.188 565.081 166.016C565.077 166.844 564.403 167.513 563.574 167.509C562.221 167.503 560.863 167.5 559.5 167.5C558.135 167.5 556.775 167.502 555.421 167.507C554.593 167.51 553.919 166.84 553.916 166.012ZM574.147 166.119C574.162 165.29 574.846 164.631 575.674 164.646C578.331 164.695 580.968 164.755 583.586 164.827C584.414 164.85 585.067 165.539 585.044 166.367C585.022 167.196 584.332 167.848 583.504 167.826C580.895 167.754 578.267 167.694 575.62 167.646C574.791 167.631 574.132 166.947 574.147 166.119ZM594.062 166.68C594.097 165.853 594.797 165.21 595.624 165.245C598.318 165.358 600.991 165.484 603.643 165.622C604.47 165.665 605.106 166.371 605.062 167.198C605.019 168.026 604.314 168.661 603.486 168.618C600.845 168.48 598.182 168.355 595.498 168.242C594.67 168.207 594.028 167.508 594.062 166.68ZM613.871 167.724C613.927 166.898 614.642 166.273 615.468 166.329C618.195 166.513 620.899 166.71 623.58 166.92C624.406 166.985 625.023 167.707 624.958 168.533C624.893 169.359 624.171 169.976 623.345 169.911C620.675 169.702 617.982 169.505 615.266 169.322C614.44 169.266 613.815 168.551 613.871 167.724ZM633.855 169.304C633.933 168.479 634.665 167.874 635.49 167.953C638.157 168.206 640.8 168.473 643.419 168.752C644.243 168.84 644.839 169.579 644.752 170.402C644.664 171.226 643.925 171.823 643.101 171.735C640.493 171.457 637.861 171.191 635.206 170.939C634.382 170.861 633.777 170.129 633.855 169.304ZM653.747 171.442C653.85 170.62 654.599 170.037 655.421 170.139C658.051 170.467 660.657 170.809 663.238 171.162C664.059 171.275 664.633 172.031 664.521 172.852C664.408 173.673 663.651 174.247 662.831 174.135C660.261 173.782 657.668 173.443 655.05 173.116C654.228 173.014 653.644 172.264 653.747 171.442ZM673.521 174.174C673.649 173.355 674.417 172.796 675.235 172.924C677.875 173.338 680.489 173.766 683.076 174.206C683.892 174.346 684.442 175.12 684.302 175.937C684.163 176.754 683.389 177.303 682.572 177.164C679.998 176.726 677.398 176.3 674.771 175.888C673.952 175.76 673.393 174.992 673.521 174.174ZM693.176 177.542C693.332 176.728 694.118 176.195 694.932 176.351C697.573 176.857 700.185 177.377 702.768 177.911C703.579 178.078 704.101 178.871 703.934 179.683C703.766 180.494 702.973 181.016 702.161 180.849C699.592 180.318 696.994 179.801 694.367 179.297C693.553 179.142 693.02 178.356 693.176 177.542ZM712.7 181.593C712.886 180.786 713.691 180.282 714.498 180.467C717.129 181.072 719.729 181.69 722.298 182.322C723.102 182.52 723.594 183.332 723.396 184.137C723.198 184.941 722.386 185.433 721.581 185.235C719.027 184.607 716.442 183.992 713.826 183.391C713.019 183.206 712.515 182.401 712.7 181.593ZM732.067 186.379C732.284 185.58 733.108 185.108 733.908 185.325C736.517 186.033 739.092 186.756 741.634 187.491C742.43 187.722 742.888 188.554 742.658 189.349C742.427 190.145 741.596 190.604 740.8 190.373C738.274 189.642 735.715 188.924 733.122 188.22C732.322 188.003 731.85 187.179 732.067 186.379ZM751.235 191.952C751.486 191.163 752.33 190.726 753.119 190.977C755.692 191.795 758.229 192.626 760.73 193.471C761.515 193.736 761.936 194.587 761.671 195.372C761.406 196.157 760.555 196.578 759.77 196.313C757.286 195.474 754.767 194.648 752.211 193.836C751.421 193.585 750.985 192.742 751.235 191.952ZM770.146 198.366C770.433 197.589 771.296 197.192 772.073 197.479C774.594 198.41 777.076 199.354 779.52 200.311C780.291 200.613 780.672 201.483 780.37 202.254C780.068 203.026 779.198 203.406 778.426 203.104C776.001 202.155 773.537 201.217 771.034 200.293C770.257 200.006 769.859 199.143 770.146 198.366ZM788.722 205.67C789.047 204.908 789.928 204.555 790.69 204.88C793.147 205.929 795.561 206.991 797.934 208.063C798.689 208.404 799.024 209.293 798.683 210.048C798.342 210.803 797.453 211.138 796.698 210.797C794.344 209.733 791.949 208.68 789.512 207.639C788.75 207.313 788.396 206.432 788.722 205.67ZM806.862 213.907C807.228 213.164 808.127 212.858 808.871 213.224C811.305 214.423 813.692 215.633 816.032 216.853C816.767 217.236 817.052 218.142 816.669 218.877C816.286 219.611 815.38 219.896 814.646 219.513C812.326 218.304 809.959 217.104 807.545 215.916C806.802 215.55 806.496 214.65 806.862 213.907ZM824.51 223.141C824.919 222.42 825.834 222.168 826.555 222.576C828.933 223.926 831.258 225.284 833.531 226.65C834.241 227.076 834.47 227.998 834.044 228.708C833.617 229.418 832.696 229.648 831.985 229.221C829.734 227.868 827.431 226.523 825.074 225.186C824.354 224.777 824.101 223.861 824.51 223.141ZM841.653 233.481C842.107 232.788 843.037 232.594 843.73 233.048C845.99 234.528 848.193 236.013 850.339 237.502C851.019 237.974 851.188 238.908 850.716 239.589C850.244 240.27 849.309 240.439 848.629 239.967C846.505 238.493 844.324 237.023 842.086 235.557C841.393 235.103 841.199 234.174 841.653 233.481ZM857.971 244.847C858.471 244.187 859.412 244.057 860.072 244.558C862.26 246.216 864.381 247.873 866.437 249.528C867.082 250.048 867.185 250.992 866.665 251.637C866.146 252.282 865.201 252.385 864.556 251.865C862.523 250.229 860.425 248.589 858.26 246.949C857.6 246.449 857.471 245.508 857.971 244.847ZM873.522 257.416C874.07 256.795 875.018 256.736 875.639 257.285C877.701 259.105 879.685 260.916 881.594 262.714C882.197 263.282 882.226 264.231 881.658 264.834C881.09 265.437 880.141 265.466 879.538 264.898C877.651 263.122 875.691 261.332 873.653 259.533C873.032 258.985 872.974 258.037 873.522 257.416ZM888.03 271.137C888.628 270.563 889.577 270.582 890.151 271.179C892.068 273.173 893.892 275.142 895.627 277.079C896.18 277.697 896.128 278.645 895.511 279.198C894.894 279.75 893.945 279.698 893.393 279.081C891.68 277.17 889.88 275.227 887.988 273.258C887.414 272.661 887.433 271.711 888.03 271.137ZM901.278 286.001C901.925 285.483 902.869 285.588 903.386 286.234C905.137 288.422 906.768 290.55 908.286 292.609C908.777 293.275 908.635 294.215 907.968 294.706C907.302 295.198 906.362 295.056 905.871 294.389C904.376 292.361 902.77 290.265 901.044 288.109C900.527 287.462 900.631 286.518 901.278 286.001ZM913.093 302.144C913.791 301.698 914.719 301.901 915.165 302.599C916.735 305.051 918.113 307.34 919.316 309.441C919.728 310.159 919.479 311.076 918.76 311.488C918.041 311.899 917.125 311.65 916.713 310.931C915.534 308.873 914.181 306.626 912.639 304.216C912.192 303.519 912.396 302.591 913.093 302.144ZM916.502 322.426C916.536 321.73 917.046 321.149 917.732 321.024L919.932 320.624C920.747 320.476 921.528 321.017 921.676 321.832C921.804 322.537 921.417 323.216 920.782 323.483C920.492 324.173 919.726 324.553 918.988 324.342L917.588 323.942C916.918 323.751 916.468 323.123 916.502 322.426ZM922.88 319.481C923.637 319.142 924.524 319.481 924.862 320.237C925.205 321.004 925.486 321.661 925.71 322.203C925.844 322.195 925.979 322.205 926.111 322.232C925.712 322.026 925.411 321.644 925.324 321.168C925.176 320.353 925.717 319.572 926.532 319.424L928.732 319.024C929.377 318.907 930.024 319.223 930.329 319.804C930.633 320.385 930.525 321.097 930.061 321.561L929.261 322.361C928.675 322.946 927.727 322.946 927.141 322.363L927.068 322.376C926.871 322.412 926.676 322.407 926.491 322.368C926.624 322.437 926.749 322.528 926.861 322.639C927.446 323.225 927.446 324.175 926.861 324.761L926.061 325.561C925.675 325.946 925.112 326.092 924.588 325.942L923.188 325.542C922.391 325.315 921.93 324.484 922.158 323.688C922.256 323.344 922.467 323.063 922.738 322.872C922.563 322.459 922.359 321.988 922.124 321.462C921.785 320.706 922.124 319.819 922.88 319.481Z" fill="#25D5E8"/>
<path d="M918 322.5L925 324.5L929 320.5L918 322.5Z" fill="#25D5E8"/>
<path fill-rule="evenodd" clip-rule="evenodd" d="M927.121 326.621C926.351 327.392 925.223 327.684 924.176 327.385L917.176 325.385C915.835 325.001 914.935 323.745 915.004 322.352C915.072 320.96 916.091 319.798 917.463 319.548L928.463 317.548C929.754 317.314 931.048 317.945 931.657 319.108C932.266 320.27 932.049 321.693 931.121 322.621L927.121 326.621ZM925 324.5L918 322.5L929 320.5L925 324.5Z" fill="#25D5E8"/>
<path fill-rule="evenodd" clip-rule="evenodd" d="M817.732 433.232C818.709 432.256 820.291 432.256 821.268 433.232L825.768 437.732C826.237 438.201 826.5 438.837 826.5 439.5C826.5 440.163 826.237 440.799 825.768 441.268L821.268 445.768C820.291 446.744 818.709 446.744 817.732 445.768C816.756 444.791 816.756 443.209 817.732 442.232L817.964 442H782C780.619 442 779.5 440.881 779.5 439.5C779.5 438.119 780.619 437 782 437H817.964L817.732 436.768C816.756 435.791 816.756 434.209 817.732 433.232Z" fill="#FFBA00"/>
<path fill-rule="evenodd" clip-rule="evenodd" d="M1057.73 433.232C1058.71 432.256 1060.29 432.256 1061.27 433.232L1065.77 437.732C1066.24 438.201 1066.5 438.837 1066.5 439.5C1066.5 440.163 1066.24 440.799 1065.77 441.268L1061.27 445.768C1060.29 446.744 1058.71 446.744 1057.73 445.768C1056.76 444.791 1056.76 443.209 1057.73 442.232L1057.96 442H1022C1020.62 442 1019.5 440.881 1019.5 439.5C1019.5 438.119 1020.62 437 1022 437H1057.96L1057.73 436.768C1056.76 435.791 1056.76 434.209 1057.73 433.232Z" fill="#FFBA00"/>
<path fill-rule="evenodd" clip-rule="evenodd" d="M577.732 433.232C578.709 432.256 580.291 432.256 581.268 433.232L585.768 437.732C586.237 438.201 586.5 438.837 586.5 439.5C586.5 440.163 586.237 440.799 585.768 441.268L581.268 445.768C580.291 446.744 578.709 446.744 577.732 445.768C576.756 444.791 576.756 443.209 577.732 442.232L577.964 442H542C540.619 442 539.5 440.881 539.5 439.5C539.5 438.119 540.619 437 542 437H577.964L577.732 436.768C576.756 435.791 576.756 434.209 577.732 433.232Z" fill="#FFBA00"/>
<defs>
<filter id="filter0_d" x="72" y="324" width="264" height="264" filterUnits="userSpaceOnUse" color-interpolation-filters="sRGB">
<feFlood flood-opacity="0" result="BackgroundImageFix"/>
<feColorMatrix in="SourceAlpha" type="matrix" values="0 0 0 0 0 0 0 0 0 0 0 0 0 0 0 0 0 0 127 0"/>
<feOffset dy="24"/>
<feGaussianBlur stdDeviation="20"/>
<feColorMatrix type="matrix" values="0 0 0 0 0.145098 0 0 0 0 0.835294 0 0 0 0 0.909804 0 0 0 0.4 0"/>
<feBlend mode="normal" in2="BackgroundImageFix" result="effect1_dropShadow"/>
<feBlend mode="normal" in="SourceGraphic" in2="effect1_dropShadow" result="shape"/>
</filter>
<filter id="filter1_i" x="112" y="340" width="184" height="232" filterUnits="userSpaceOnUse" color-interpolation-filters="sRGB">
<feFlood flood-opacity="0" result="BackgroundImageFix"/>
<feBlend mode="normal" in="SourceGraphic" in2="BackgroundImageFix" result="shape"/>
<feColorMatrix in="SourceAlpha" type="matrix" values="0 0 0 0 0 0 0 0 0 0 0 0 0 0 0 0 0 0 127 0" result="hardAlpha"/>
<feOffset dy="48"/>
<feGaussianBlur stdDeviation="37.5"/>
<feComposite in2="hardAlpha" operator="arithmetic" k2="-1" k3="1"/>
<feColorMatrix type="matrix" values="0 0 0 0 0.984314 0 0 0 0 0.956863 0 0 0 0 0.196078 0 0 0 0.478 0"/>
<feBlend mode="normal" in2="shape" result="effect1_innerShadow"/>
</filter>
<filter id="filter2_d" x="551" y="324" width="264" height="264" filterUnits="userSpaceOnUse" color-interpolation-filters="sRGB">
<feFlood flood-opacity="0" result="BackgroundImageFix"/>
<feColorMatrix in="SourceAlpha" type="matrix" values="0 0 0 0 0 0 0 0 0 0 0 0 0 0 0 0 0 0 127 0"/>
<feOffset dy="24"/>
<feGaussianBlur stdDeviation="20"/>
<feColorMatrix type="matrix" values="0 0 0 0 0.145098 0 0 0 0 0.835294 0 0 0 0 0.909804 0 0 0 0.4 0"/>
<feBlend mode="normal" in2="BackgroundImageFix" result="effect1_dropShadow"/>
<feBlend mode="normal" in="SourceGraphic" in2="effect1_dropShadow" result="shape"/>
</filter>
<filter id="filter3_i" x="592" y="340" width="184" height="232" filterUnits="userSpaceOnUse" color-interpolation-filters="sRGB">
<feFlood flood-opacity="0" result="BackgroundImageFix"/>
<feBlend mode="normal" in="SourceGraphic" in2="BackgroundImageFix" result="shape"/>
<feColorMatrix in="SourceAlpha" type="matrix" values="0 0 0 0 0 0 0 0 0 0 0 0 0 0 0 0 0 0 127 0" result="hardAlpha"/>
<feOffset dy="48"/>
<feGaussianBlur stdDeviation="37.5"/>
<feComposite in2="hardAlpha" operator="arithmetic" k2="-1" k3="1"/>
<feColorMatrix type="matrix" values="0 0 0 0 0.984314 0 0 0 0 0.956863 0 0 0 0 0.196078 0 0 0 0.478 0"/>
<feBlend mode="normal" in2="shape" result="effect1_innerShadow"/>
</filter>
<filter id="filter4_d" x="791" y="324" width="264" height="264" filterUnits="userSpaceOnUse" color-interpolation-filters="sRGB">
<feFlood flood-opacity="0" result="BackgroundImageFix"/>
<feColorMatrix in="SourceAlpha" type="matrix" values="0 0 0 0 0 0 0 0 0 0 0 0 0 0 0 0 0 0 127 0"/>
<feOffset dy="24"/>
<feGaussianBlur stdDeviation="20"/>
<feColorMatrix type="matrix" values="0 0 0 0 0.145098 0 0 0 0 0.835294 0 0 0 0 0.909804 0 0 0 0.4 0"/>
<feBlend mode="normal" in2="BackgroundImageFix" result="effect1_dropShadow"/>
<feBlend mode="normal" in="SourceGraphic" in2="effect1_dropShadow" result="shape"/>
</filter>
<filter id="filter5_i" x="831" y="340" width="184" height="232" filterUnits="userSpaceOnUse" color-interpolation-filters="sRGB">
<feFlood flood-opacity="0" result="BackgroundImageFix"/>
<feBlend mode="normal" in="SourceGraphic" in2="BackgroundImageFix" result="shape"/>
<feColorMatrix in="SourceAlpha" type="matrix" values="0 0 0 0 0 0 0 0 0 0 0 0 0 0 0 0 0 0 127 0" result="hardAlpha"/>
<feOffset dy="48"/>
<feGaussianBlur stdDeviation="37.5"/>
<feComposite in2="hardAlpha" operator="arithmetic" k2="-1" k3="1"/>
<feColorMatrix type="matrix" values="0 0 0 0 0.984314 0 0 0 0 0.956863 0 0 0 0 0.196078 0 0 0 0.478 0"/>
<feBlend mode="normal" in2="shape" result="effect1_innerShadow"/>
</filter>
<filter id="filter6_d" x="312" y="324" width="264" height="264" filterUnits="userSpaceOnUse" color-interpolation-filters="sRGB">
<feFlood flood-opacity="0" result="BackgroundImageFix"/>
<feColorMatrix in="SourceAlpha" type="matrix" values="0 0 0 0 0 0 0 0 0 0 0 0 0 0 0 0 0 0 127 0"/>
<feOffset dy="24"/>
<feGaussianBlur stdDeviation="20"/>
<feColorMatrix type="matrix" values="0 0 0 0 0.145098 0 0 0 0 0.835294 0 0 0 0 0.909804 0 0 0 0.4 0"/>
<feBlend mode="normal" in2="BackgroundImageFix" result="effect1_dropShadow"/>
<feBlend mode="normal" in="SourceGraphic" in2="effect1_dropShadow" result="shape"/>
</filter>
<filter id="filter7_i" x="352" y="340" width="184" height="232" filterUnits="userSpaceOnUse" color-interpolation-filters="sRGB">
<feFlood flood-opacity="0" result="BackgroundImageFix"/>
<feBlend mode="normal" in="SourceGraphic" in2="BackgroundImageFix" result="shape"/>
<feColorMatrix in="SourceAlpha" type="matrix" values="0 0 0 0 0 0 0 0 0 0 0 0 0 0 0 0 0 0 127 0" result="hardAlpha"/>
<feOffset dy="48"/>
<feGaussianBlur stdDeviation="37.5"/>
<feComposite in2="hardAlpha" operator="arithmetic" k2="-1" k3="1"/>
<feColorMatrix type="matrix" values="0 0 0 0 0.984314 0 0 0 0 0.956863 0 0 0 0 0.196078 0 0 0 0.478 0"/>
<feBlend mode="normal" in2="shape" result="effect1_innerShadow"/>
</filter>
<filter id="filter8_d" x="1030" y="324" width="264" height="264" filterUnits="userSpaceOnUse" color-interpolation-filters="sRGB">
<feFlood flood-opacity="0" result="BackgroundImageFix"/>
<feColorMatrix in="SourceAlpha" type="matrix" values="0 0 0 0 0 0 0 0 0 0 0 0 0 0 0 0 0 0 127 0"/>
<feOffset dy="24"/>
<feGaussianBlur stdDeviation="20"/>
<feColorMatrix type="matrix" values="0 0 0 0 0.145098 0 0 0 0 0.835294 0 0 0 0 0.909804 0 0 0 0.4 0"/>
<feBlend mode="normal" in2="BackgroundImageFix" result="effect1_dropShadow"/>
<feBlend mode="normal" in="SourceGraphic" in2="effect1_dropShadow" result="shape"/>
</filter>
<filter id="filter9_i" x="1070" y="340" width="184" height="232" filterUnits="userSpaceOnUse" color-interpolation-filters="sRGB">
<feFlood flood-opacity="0" result="BackgroundImageFix"/>
<feBlend mode="normal" in="SourceGraphic" in2="BackgroundImageFix" result="shape"/>
<feColorMatrix in="SourceAlpha" type="matrix" values="0 0 0 0 0 0 0 0 0 0 0 0 0 0 0 0 0 0 127 0" result="hardAlpha"/>
<feOffset dy="48"/>
<feGaussianBlur stdDeviation="37.5"/>
<feComposite in2="hardAlpha" operator="arithmetic" k2="-1" k3="1"/>
<feColorMatrix type="matrix" values="0 0 0 0 0.984314 0 0 0 0 0.956863 0 0 0 0 0.196078 0 0 0 0.478 0"/>
<feBlend mode="normal" in2="shape" result="effect1_innerShadow"/>
</filter>
<filter id="filter10_d" x="73.2534" y="366.448" width="263.871" height="142.464" filterUnits="userSpaceOnUse" color-interpolation-filters="sRGB">
<feFlood flood-opacity="0" result="BackgroundImageFix"/>
<feColorMatrix in="SourceAlpha" type="matrix" values="0 0 0 0 0 0 0 0 0 0 0 0 0 0 0 0 0 0 127 0"/>
<feOffset dy="3"/>
<feGaussianBlur stdDeviation="28"/>
<feColorMatrix type="matrix" values="0 0 0 0 0.262745 0 0 0 0 0.482353 0 0 0 0 1 0 0 0 1 0"/>
<feBlend mode="normal" in2="BackgroundImageFix" result="effect1_dropShadow"/>
<feBlend mode="normal" in="SourceGraphic" in2="effect1_dropShadow" result="shape"/>
</filter>
<filter id="filter11_d" x="1075.82" y="367.216" width="172.114" height="135.008" filterUnits="userSpaceOnUse" color-interpolation-filters="sRGB">
<feFlood flood-opacity="0" result="BackgroundImageFix"/>
<feColorMatrix in="SourceAlpha" type="matrix" values="0 0 0 0 0 0 0 0 0 0 0 0 0 0 0 0 0 0 127 0"/>
<feOffset dy="3"/>
<feGaussianBlur stdDeviation="28"/>
<feColorMatrix type="matrix" values="0 0 0 0 0.262745 0 0 0 0 0.482353 0 0 0 0 1 0 0 0 1 0"/>
<feBlend mode="normal" in2="BackgroundImageFix" result="effect1_dropShadow"/>
<feBlend mode="normal" in="SourceGraphic" in2="effect1_dropShadow" result="shape"/>
</filter>
<filter id="filter12_d" x="798.05" y="367.216" width="252.277" height="142.048" filterUnits="userSpaceOnUse" color-interpolation-filters="sRGB">
<feFlood flood-opacity="0" result="BackgroundImageFix"/>
<feColorMatrix in="SourceAlpha" type="matrix" values="0 0 0 0 0 0 0 0 0 0 0 0 0 0 0 0 0 0 127 0"/>
<feOffset dy="3"/>
<feGaussianBlur stdDeviation="28"/>
<feColorMatrix type="matrix" values="0 0 0 0 0.262745 0 0 0 0 0.482353 0 0 0 0 1 0 0 0 1 0"/>
<feBlend mode="normal" in2="BackgroundImageFix" result="effect1_dropShadow"/>
<feBlend mode="normal" in="SourceGraphic" in2="effect1_dropShadow" result="shape"/>
</filter>
<filter id="filter13_d" x="584.003" y="366.448" width="200.371" height="135.776" filterUnits="userSpaceOnUse" color-interpolation-filters="sRGB">
<feFlood flood-opacity="0" result="BackgroundImageFix"/>
<feColorMatrix in="SourceAlpha" type="matrix" values="0 0 0 0 0 0 0 0 0 0 0 0 0 0 0 0 0 0 127 0"/>
<feOffset dy="3"/>
<feGaussianBlur stdDeviation="28"/>
<feColorMatrix type="matrix" values="0 0 0 0 0.262745 0 0 0 0 0.482353 0 0 0 0 1 0 0 0 1 0"/>
<feBlend mode="normal" in2="BackgroundImageFix" result="effect1_dropShadow"/>
<feBlend mode="normal" in="SourceGraphic" in2="effect1_dropShadow" result="shape"/>
</filter>
<filter id="filter14_d" x="342.957" y="366.352" width="203.465" height="135.872" filterUnits="userSpaceOnUse" color-interpolation-filters="sRGB">
<feFlood flood-opacity="0" result="BackgroundImageFix"/>
<feColorMatrix in="SourceAlpha" type="matrix" values="0 0 0 0 0 0 0 0 0 0 0 0 0 0 0 0 0 0 127 0"/>
<feOffset dy="3"/>
<feGaussianBlur stdDeviation="28"/>
<feColorMatrix type="matrix" values="0 0 0 0 0.262745 0 0 0 0 0.482353 0 0 0 0 1 0 0 0 1 0"/>
<feBlend mode="normal" in2="BackgroundImageFix" result="effect1_dropShadow"/>
<feBlend mode="normal" in="SourceGraphic" in2="effect1_dropShadow" result="shape"/>
</filter>
<linearGradient id="paint0_linear" x1="683" y1="864" x2="683" y2="0" gradientUnits="userSpaceOnUse">
<stop stop-color="white"/>
<stop offset="1" stop-color="#F2F1F9"/>
</linearGradient>
</defs>
</svg>
