<svg width="1080" height="880" viewBox="0 0 1080 880" fill="none" xmlns="http://www.w3.org/2000/svg">
<mask id="mask0" mask-type="alpha" maskUnits="userSpaceOnUse" x="0" y="0" width="1080" height="880">
<rect width="1080" height="880" fill="#C4C4C4"/>
</mask>
<g mask="url(#mask0)">
<g filter="url(#filter0_f)">
<path d="M1339.52 329.295L1368.95 511.691L1207.5 795.331L555.724 543.29L1339.52 329.295Z" fill="url(#paint0_linear)"/>
</g>
<path opacity="0.1" d="M1337.27 265.595L1374.08 493.889L1172.02 848.922L356.435 533.508L1337.27 265.595Z" fill="url(#paint1_linear)"/>
<path d="M1339.52 329.295L1368.95 511.691L1207.5 795.331L555.724 543.29L1339.52 329.295Z" fill="url(#paint2_linear)"/>
<path opacity="0.1" d="M1374.01 494.174L1172.02 848.923L356.418 533.576L1374.01 494.174Z" fill="url(#paint3_linear)"/>
<path d="M1368.95 511.691L1207.5 795.331L555.726 543.29L1368.95 511.691Z" fill="url(#paint4_linear)"/>
<mask id="mask1" mask-type="alpha" maskUnits="userSpaceOnUse" x="536" y="147" width="877" height="670">
<path d="M1339.52 329.295L1368.95 511.691L1207.5 795.331L555.724 543.29L1339.52 329.295Z" fill="url(#paint5_linear)"/>
</mask>
<g mask="url(#mask1)">
<g style="mix-blend-mode:darken" opacity="0.2">
<path d="M1095.65 742.517C1095.65 742.517 1140.96 820.94 1182.91 811.526C1224.86 802.113 1288.22 775.901 1295.03 841.57C1301.85 907.239 1240.08 1074.71 1361.93 1075.44C1483.79 1076.17 1652.65 950.537 1640.19 1116.19C1627.72 1281.85 1332.12 1647.1 986.071 1444.53C640.018 1241.96 954.656 1170.04 1020.02 1126.53C1085.38 1083.01 1073.99 1079.96 997.985 1008.33C921.977 936.705 1064.44 831.058 1070.52 781.41C1076.6 731.762 1092.25 731.364 1070.98 735.906C1049.72 740.447 819.191 726.328 827.378 814.203C835.566 902.078 744.192 1029.92 680.117 949.28C616.043 868.644 609.016 800.12 507.34 788.743C405.665 777.366 244.677 667.589 392.948 516.916C541.218 366.243 705.704 356.369 714.474 453.92C723.244 551.471 739.45 601.314 805.728 561.296C872.005 521.279 995.804 424.156 987.14 526.981C978.476 629.806 1051.46 701.584 1067.44 695.865C1083.42 690.146 1104.71 693.628 1091.84 637.961C1078.98 582.294 1028.27 486.263 1078.02 446.153C1127.76 406.043 1046.24 343.748 989.395 302.522C932.555 261.296 1471.52 411.481 1471.52 411.481C1471.52 411.481 1466.17 528.488 1407.5 515.656C1348.82 502.824 1286.4 471.654 1290.99 540.771C1295.58 609.889 1271.34 662.614 1213.76 645.739C1156.17 628.864 1087.43 691.333 1117.08 699.277" stroke="white"/>
</g>
</g>
</g>
<defs>
<filter id="filter0_f" x="296.375" y="-92.3192" width="1356.2" height="1149.01" filterUnits="userSpaceOnUse" color-interpolation-filters="sRGB">
<feFlood flood-opacity="0" result="BackgroundImageFix"/>
<feBlend mode="normal" in="SourceGraphic" in2="BackgroundImageFix" result="shape"/>
<feGaussianBlur stdDeviation="120" result="effect1_foregroundBlur"/>
</filter>
<linearGradient id="paint0_linear" x1="917.864" y1="328.167" x2="1174.78" y2="587.829" gradientUnits="userSpaceOnUse">
<stop stop-color="#25D5E8"/>
<stop offset="1" stop-color="#437BFF"/>
</linearGradient>
<linearGradient id="paint1_linear" x1="1163.47" y1="283.226" x2="771.881" y2="674.721" gradientUnits="userSpaceOnUse">
<stop stop-color="#25D5E8"/>
<stop offset="1" stop-color="#00D3BD"/>
</linearGradient>
<linearGradient id="paint2_linear" x1="1200.63" y1="343.373" x2="887.798" y2="656.205" gradientUnits="userSpaceOnUse">
<stop stop-color="#25D5E8"/>
<stop offset="1" stop-color="#00D3BD"/>
</linearGradient>
<linearGradient id="paint3_linear" x1="767.138" y1="422.775" x2="982.442" y2="752.908" gradientUnits="userSpaceOnUse">
<stop stop-color="#25D5E8"/>
<stop offset="1" stop-color="#437BFF"/>
</linearGradient>
<linearGradient id="paint4_linear" x1="883.97" y1="454.666" x2="1056.13" y2="718.503" gradientUnits="userSpaceOnUse">
<stop stop-color="#25D5E8"/>
<stop offset="1" stop-color="#437BFF"/>
</linearGradient>
<linearGradient id="paint5_linear" x1="1200.63" y1="343.373" x2="887.798" y2="656.205" gradientUnits="userSpaceOnUse">
<stop stop-color="#25D5E8"/>
<stop offset="1" stop-color="#00D3BD"/>
</linearGradient>
</defs>
</svg>
