<svg width="200" height="200" viewBox="0 0 200 200" fill="none" xmlns="http://www.w3.org/2000/svg">
<rect width="200" height="200" rx="100" fill="white"/>
<path fill-rule="evenodd" clip-rule="evenodd" d="M108 32H92V56V115H108V56V32ZM108 56L100 66L92 56H108Z" fill="#437BFF"/>
<rect x="92" y="32" width="16" height="18" fill="#FFBA00"/>
<rect x="92" y="50" width="16" height="6" fill="white"/>
<rect x="92" y="109" width="16" height="6" fill="white"/>
<path d="M60 115H140L100 163L60 115Z" fill="#E732FB"/>
<path d="M92 50H108L100 60L92 50Z" fill="#FFBA00"/>
<path d="M92 115H108L100 125L92 115Z" fill="white"/>
<path d="M92 109H108L100 119L92 109Z" fill="#437BFF"/>
<path d="M92 32H108L100 42L92 32Z" fill="white"/>
</svg>
