<svg xmlns="http://www.w3.org/2000/svg" width="88" height="88" viewBox="0 0 88 88">
  <g id="icon-social-skype" transform="translate(-247 -289)">
    <circle id="Ellipse_3" data-name="Ellipse 3" cx="44" cy="44" r="44" transform="translate(247 289)" fill="#1778f2" opacity="0"/>
    <g id="Page-1" transform="translate(271.006 313)">
      <g id="Logo" transform="translate(-0.006 0)">
        <path id="Shape" d="M21.075,32.215c-6.681,0-9.734-3.4-9.734-5.9a2.165,2.165,0,0,1,2.285-2.165c2.861,0,2.112,4.291,7.45,4.291,2.728,0,4.331-1.642,4.331-3.185,0-.927-.53-1.987-2.331-2.41l-5.96-1.5c-4.788-1.218-5.622-3.88-5.622-6.35,0-5.125,4.688-6.979,9.151-6.979,4.112,0,9,2.271,9,5.344a2.127,2.127,0,0,1-2.39,2.033c-2.443,0-2.033-3.43-6.946-3.43-2.443,0-3.728,1.146-3.728,2.748s1.9,2.145,3.569,2.51l4.4.993c4.821,1.086,6.105,3.913,6.105,6.622,0,4.165-3.225,7.383-9.582,7.383M39.523,23.4a19.115,19.115,0,0,0,.285-3.311A18.819,18.819,0,0,0,17.731,1.477,11.072,11.072,0,0,0,12.182,0,11.257,11.257,0,0,0,2.468,16.826a18.832,18.832,0,0,0,21.8,21.918,11.065,11.065,0,0,0,5.542,1.477A11.257,11.257,0,0,0,39.523,23.4" transform="translate(-0.994 0)" fill="#0078d7"/>
      </g>
    </g>
  </g>
</svg>
