<svg width="1342" height="712" viewBox="0 0 1342 712" fill="none" xmlns="http://www.w3.org/2000/svg">
<g clip-path="url(#clip0)">
<g filter="url(#filter0_d)">
<path d="M1222.93 126.971L1158.27 147.891C1157.74 148.061 1157.45 148.624 1157.62 149.149L1178.54 213.811C1178.71 214.336 1179.28 214.624 1179.8 214.454L1244.46 193.534C1244.99 193.364 1245.27 192.801 1245.1 192.276L1224.18 127.615C1224.01 127.089 1223.45 126.802 1222.93 126.971Z" fill="white"/>
</g>
<path d="M1205.99 175.681L1193.34 179.792L1188.37 170.871L1199.5 155.71L1203.5 168C1203.34 168.028 1203.19 168.066 1203.03 168.115C1202.61 168.245 1202.21 168.458 1201.87 168.742C1201.53 169.026 1201.25 169.374 1201.05 169.768C1200.84 170.162 1200.72 170.592 1200.68 171.034C1200.64 171.476 1200.7 171.922 1200.83 172.344C1200.97 172.766 1201.19 173.156 1201.48 173.492C1201.77 173.828 1202.12 174.103 1202.52 174.301C1202.92 174.499 1203.35 174.616 1203.79 174.645C1204.23 174.675 1204.68 174.615 1205.1 174.471C1205.25 174.421 1205.4 174.361 1205.54 174.291L1205.99 175.681Z" fill="#00D3BD"/>
<path d="M1193.34 179.796L1205.99 175.686L1208.06 182.042L1193.53 186.761L1193.34 179.796Z" fill="#25D5E8"/>
<path d="M1217.12 175.332L1206.04 178.929L1205.66 177.738C1206.39 177.497 1207.01 176.974 1207.36 176.283C1207.71 175.592 1207.77 174.79 1207.53 174.053C1207.29 173.316 1206.77 172.706 1206.08 172.354C1205.39 172.002 1204.59 171.939 1203.85 172.177L1200.37 161.452L1216.05 166.458L1217.12 175.332Z" fill="#437BFF"/>
<path d="M1217.12 175.332L1206.04 178.929L1207.85 184.491L1220.56 180.361L1217.12 175.332Z" fill="#437BFF"/>
<g filter="url(#filter1_d)">
<path d="M1066.62 248.993L1001.96 269.912C1001.44 270.082 1001.15 270.645 1001.32 271.17L1022.24 335.832C1022.41 336.357 1022.97 336.645 1023.5 336.475L1088.16 315.555C1088.68 315.386 1088.97 314.822 1088.8 314.297L1067.88 249.636C1067.71 249.111 1067.15 248.823 1066.62 248.993Z" fill="white"/>
</g>
<path d="M1023.23 283.983L1033.44 280.663L1034.18 284.645L1023.05 288.261L1023.23 283.983Z" fill="#00D3BD"/>
<path d="M1036.09 302.141L1035.5 300.325L1037.64 300.412L1059.13 293.428L1058.66 295.087L1038.21 301.733L1036.09 302.141ZM1035.5 300.325L1030.76 285.758L1034.19 284.645L1037.64 300.412L1035.5 300.325Z" fill="#00D3BD"/>
<path d="M1037.63 300.411L1059.12 293.427L1059.82 276.314L1034.18 284.646L1037.63 300.411Z" fill="#25D5E8"/>
<path d="M1063.58 283.448L1057.02 285.58L1058.14 287.927L1065.28 285.605L1063.58 283.448Z" fill="#437BFF"/>
<path d="M1063.37 296.565L1060.33 287.213L1058.14 287.927L1062.29 297.417L1063.37 296.565Z" fill="#437BFF"/>
<path d="M1062.29 297.416L1053.03 300.425L1046.21 291.8L1058.14 287.926L1062.29 297.416Z" fill="#437BFF"/>
<path d="M1056.94 303.173C1057.69 302.929 1058.1 302.121 1057.86 301.369C1057.61 300.617 1056.8 300.205 1056.05 300.449C1055.3 300.694 1054.89 301.502 1055.13 302.254C1055.38 303.006 1056.18 303.417 1056.94 303.173Z" fill="#437BFF"/>
<path d="M1062.38 301.403C1063.14 301.159 1063.55 300.351 1063.3 299.599C1063.06 298.847 1062.25 298.435 1061.5 298.679C1060.75 298.924 1060.34 299.732 1060.58 300.484C1060.82 301.236 1061.63 301.648 1062.38 301.403Z" fill="#437BFF"/>
<g filter="url(#filter2_d)">
<path d="M1129.6 141.097L1064.94 162.016C1064.42 162.186 1064.13 162.749 1064.3 163.274L1085.22 227.936C1085.39 228.461 1085.95 228.749 1086.48 228.579L1151.14 207.66C1151.66 207.49 1151.95 206.926 1151.78 206.401L1130.86 141.74C1130.69 141.215 1130.13 140.927 1129.6 141.097Z" fill="white"/>
</g>
<path d="M1115.3 195.084C1122.07 192.885 1125.78 185.614 1123.58 178.844C1121.38 172.075 1114.1 168.37 1107.34 170.569C1100.57 172.769 1096.86 180.04 1099.06 186.81C1101.26 193.579 1108.53 197.284 1115.3 195.084Z" fill="#25D5E8"/>
<path d="M1093.87 185.846L1103.31 168.644L1122.1 180.24L1114.04 193.427L1093.87 185.846Z" fill="#00D3BD"/>
<path d="M1108.32 200.811L1096.41 194.744L1102.26 183.26L1114.17 189.328L1108.32 200.81L1108.32 200.811ZM1100.44 193.386C1100.31 193.43 1100.19 193.513 1100.1 193.624C1100.02 193.735 1099.96 193.87 1099.95 194.011C1099.94 194.152 1099.97 194.294 1100.04 194.417C1100.11 194.541 1100.21 194.641 1100.34 194.705C1100.47 194.769 1100.61 194.795 1100.75 194.778C1100.89 194.762 1101.02 194.704 1101.13 194.612C1101.24 194.52 1101.32 194.398 1101.35 194.262C1101.39 194.125 1101.39 193.981 1101.35 193.846C1101.32 193.757 1101.27 193.674 1101.21 193.602C1101.15 193.531 1101.07 193.472 1100.99 193.429C1100.91 193.387 1100.82 193.361 1100.72 193.353C1100.63 193.346 1100.53 193.357 1100.44 193.386Z" fill="#437BFF"/>
<g filter="url(#filter3_d)">
<path d="M1159.75 234.282L1095.09 255.202C1094.56 255.371 1094.28 255.935 1094.45 256.46L1115.37 321.121C1115.54 321.646 1116.1 321.934 1116.62 321.764L1181.28 300.845C1181.81 300.675 1182.1 300.112 1181.93 299.587L1161.01 234.925C1160.84 234.4 1160.27 234.112 1159.75 234.282Z" fill="white"/>
</g>
<path d="M1130.57 289.169L1124.78 271.374L1138.95 266.161L1144.73 283.956L1130.57 289.169Z" fill="#25D5E8"/>
<path d="M1131.7 285.134L1125.92 267.339L1138.95 266.16L1144.73 283.955L1131.7 285.134Z" fill="#00D3BD"/>
<path d="M1144.76 283.948L1138.97 266.152L1153.5 262.044L1159.28 279.839L1144.76 283.948Z" fill="#00D3BD"/>
<path d="M1144.76 283.947L1138.97 266.152L1150.21 259.446L1155.99 277.241L1144.76 283.947Z" fill="#25D5E8"/>
<path d="M1138.56 291.066L1131.65 289.861L1126.68 294.925L1121.34 278.482L1133.21 274.623L1138.56 291.066Z" fill="#437BFF"/>
<g filter="url(#filter4_d)">
<path d="M1189.84 327.39L1125.24 348.381C1124.71 348.552 1124.43 349.115 1124.6 349.64L1145.59 414.245C1145.76 414.77 1146.32 415.057 1146.85 414.886L1211.45 393.895C1211.98 393.725 1212.26 393.161 1212.09 392.637L1191.1 328.031C1190.93 327.507 1190.37 327.22 1189.84 327.39Z" fill="white"/>
</g>
<path d="M1175.23 358.786C1178.14 360.267 1180.35 362.82 1181.41 365.906C1182.47 368.992 1182.28 372.368 1180.89 375.32C1179.51 378.271 1177.02 380.567 1173.97 381.721C1170.92 382.874 1167.54 382.796 1164.55 381.501L1170.7 369.592L1171.09 357.512C1172.54 357.693 1173.94 358.125 1175.23 358.786Z" fill="#00D3BD"/>
<path d="M1157.18 363.685C1158.39 361.304 1160.27 359.324 1162.58 357.987C1164.83 356.685 1167.39 356.04 1169.99 356.124L1169.53 369.976L1162.35 381.825C1159.36 380.021 1157.17 377.154 1156.21 373.801C1155.24 370.428 1155.59 366.81 1157.19 363.685L1157.18 363.685Z" fill="#00D3BD"/>
<path d="M1161.01 364.814L1169.53 369.977L1179.49 370.307C1179.44 371.829 1179.04 373.319 1178.32 374.663C1177.6 376.007 1176.59 377.169 1175.35 378.059C1174.12 378.949 1172.69 379.544 1171.19 379.798C1169.69 380.052 1168.15 379.959 1166.69 379.525C1165.23 379.091 1163.89 378.328 1162.77 377.294C1161.65 376.261 1160.79 374.985 1160.24 373.564C1159.69 372.144 1159.47 370.616 1159.61 369.099C1159.74 367.582 1160.22 366.116 1161.01 364.814V364.814Z" fill="#25D5E8"/>
<path d="M1160.1 373.091C1161.81 378.357 1167.46 381.239 1172.73 379.528C1178 377.817 1180.88 372.16 1179.17 366.894C1177.46 361.627 1171.8 358.745 1166.53 360.456C1161.27 362.167 1158.38 367.824 1160.1 373.091Z" fill="#25D5E8"/>
<path d="M1167.48 369.562L1184.84 369.523L1178.24 386.121C1178.24 386.121 1175.58 382.035 1172.61 377.463C1169.64 372.89 1167.48 369.562 1167.48 369.562Z" fill="#437BFF"/>
<path d="M1169.14 372.23L1166.79 373.756L1174.04 384.914L1176.39 383.388L1169.14 372.23Z" fill="#437BFF"/>
<g filter="url(#filter5_d)">
<path d="M1330.19 155.94L1265.53 176.859C1265 177.029 1264.72 177.592 1264.89 178.118L1285.81 242.779C1285.98 243.304 1286.54 243.592 1287.06 243.422L1351.72 222.503C1352.25 222.333 1352.54 221.77 1352.37 221.245L1331.45 156.583C1331.28 156.058 1330.71 155.77 1330.19 155.94Z" fill="white"/>
</g>
<path d="M1311.24 210.738C1311.24 210.738 1298.06 210.019 1294.21 203.866C1290.36 197.713 1291.25 190.494 1297.94 188.318C1299.89 187.682 1301.99 187.674 1303.94 188.295C1305.16 186.643 1306.87 185.415 1308.82 184.783C1315.51 182.611 1320.47 187.926 1320.98 195.168C1321.48 202.41 1311.24 210.738 1311.24 210.738Z" fill="#25D5E8"/>
<path d="M1294.21 203.88C1290.37 197.722 1291.25 190.506 1297.95 188.33C1299.73 187.73 1301.65 187.684 1303.46 188.197L1310.78 210.715C1308.4 210.52 1297.63 209.343 1294.21 203.88Z" fill="#00D3BD"/>
<path d="M1317 196.987L1329.05 193.073L1331.25 204.248L1320.5 207.743L1317 196.987Z" fill="#437BFF"/>
<path d="M1316.74 196.179L1312.37 197.599L1316.42 210.082L1320.79 208.662L1316.74 196.179Z" fill="#437BFF"/>
<path d="M1318.28 191.578L1321.3 190.6L1322.01 195.362L1318.25 196.585L1318.28 191.578Z" fill="#437BFF"/>
<g filter="url(#filter6_d)">
<path d="M1253.1 220.232L1188.44 241.151C1187.91 241.321 1187.62 241.885 1187.79 242.41L1208.71 307.071C1208.88 307.596 1209.45 307.884 1209.97 307.714L1274.63 286.795C1275.16 286.625 1275.44 286.062 1275.27 285.537L1254.35 220.875C1254.18 220.35 1253.62 220.062 1253.1 220.232Z" fill="white"/>
</g>
<path d="M1218.71 276.817L1218.3 275.565L1238.28 269.076L1238.68 270.323L1218.71 276.817ZM1237.03 269.48L1218.3 275.565L1211.82 255.594L1231.79 249.105L1238.28 269.076L1237.03 269.48Z" fill="#00D3BD"/>
<path d="M1238.69 270.326L1238.28 269.077L1252.01 264.615L1252.42 265.863L1238.69 270.326ZM1252.01 264.615L1238.28 269.077L1233.82 255.345L1244.71 251.806L1248.48 253.727L1252.01 264.614L1252.01 264.615Z" fill="#25D5E8"/>
<path d="M1224.44 260.465L1238.66 274.48L1231.59 276.087L1228.7 273.574L1227.84 277.304L1221.18 280.158L1224.44 260.465Z" fill="#437BFF"/>
<g filter="url(#filter7_d)">
<path d="M953.567 202.133L888.906 223.053C888.381 223.222 888.093 223.786 888.263 224.311L909.183 288.972C909.353 289.497 909.916 289.785 910.441 289.616L975.102 268.696C975.627 268.526 975.915 267.963 975.745 267.438L954.825 202.776C954.655 202.251 954.092 201.963 953.567 202.133Z" fill="white"/>
</g>
<path d="M939.858 232.091L919.884 238.582L924.309 252.201L944.284 245.711L939.858 232.091Z" fill="#00D3BD"/>
<path d="M924.341 252.136L944.217 245.678L948.473 250.887L923.96 258.852L924.341 252.136Z" fill="#25D5E8"/>
<path d="M932.838 261.477L921.035 265.312L915.725 248.969L927.528 245.134L932.838 261.477ZM924.69 261.113L924.985 262.021L927.709 261.136L927.414 260.228L924.69 261.113Z" fill="#437BFF"/>
<g filter="url(#filter8_d)">
<path d="M1036.44 155.742L971.784 176.661C971.259 176.831 970.971 177.395 971.141 177.92L992.06 242.581C992.23 243.106 992.794 243.394 993.319 243.224L1057.98 222.305C1058.5 222.135 1058.79 221.572 1058.62 221.047L1037.7 156.385C1037.53 155.86 1036.97 155.572 1036.44 155.742Z" fill="white"/>
</g>
<path d="M1000.01 191.309L1017.26 185.704L1016.71 199.437L999.454 205.042L1000.01 191.309Z" fill="#00D3BD"/>
<path d="M1007.98 215.823L1025.23 210.218L1016.71 199.436L999.454 205.041L1007.98 215.823Z" fill="#25D5E8"/>
<path d="M1028.61 192.056L1015.67 196.258L1022.06 204.344L1035 200.142L1028.61 192.056Z" fill="#437BFF"/>
<path d="M1034.58 210.441L1021.65 214.643L1022.06 204.344L1035 200.142L1034.58 210.441Z" fill="#437BFF"/>
<g filter="url(#filter9_d)">
<path d="M301.21 369.89L83.9612 311.642C75.3525 309.334 66.5027 314.442 64.1946 323.05L43.8208 399.039C41.5127 407.647 46.6203 416.497 55.229 418.805L272.478 477.053C281.087 479.361 289.937 474.254 292.245 465.645L312.618 389.657C314.926 381.048 309.819 372.198 301.21 369.89Z" fill="white"/>
</g>
<path opacity="0.5" d="M100.363 343.821L102.554 335.649L103.795 335.981L105.26 342.102L109.579 337.532L110.796 337.859L108.605 346.031L107.261 345.67L108.737 340.164L105.252 343.802L104.382 343.569L103.178 338.699L101.708 344.182L100.363 343.821ZM112.018 339.565L112.397 338.151L114.02 338.586L113.641 340L112.018 339.565ZM110.265 346.476L111.785 340.807L113.234 341.196L111.714 346.864L110.265 346.476ZM115.808 348.086C115.213 347.927 114.727 347.668 114.351 347.311C113.977 346.945 113.73 346.506 113.611 345.994C113.491 345.481 113.512 344.924 113.674 344.321C113.836 343.718 114.094 343.232 114.45 342.864C114.808 342.488 115.238 342.243 115.74 342.129C116.245 342.007 116.795 342.027 117.39 342.186C117.753 342.283 118.097 342.438 118.422 342.649C118.746 342.86 118.996 343.101 119.172 343.372L118.473 344.266C118.319 344.034 118.128 343.838 117.898 343.676C117.675 343.517 117.448 343.407 117.216 343.345C116.714 343.21 116.281 343.264 115.918 343.506C115.565 343.743 115.31 344.151 115.155 344.73C115.001 345.302 115.015 345.791 115.197 346.195C115.388 346.595 115.735 346.861 116.237 346.996C116.461 347.056 116.713 347.074 116.993 347.05C117.273 347.025 117.538 346.947 117.789 346.816L117.944 347.951C117.659 348.09 117.318 348.172 116.921 348.198C116.535 348.219 116.164 348.182 115.808 348.086ZM118.687 348.734L120.207 343.066L121.621 343.445L121.354 344.442C121.812 343.844 122.507 343.632 123.437 343.807L123.887 343.891L123.65 345.144L122.794 345.002C121.819 344.84 121.213 345.199 120.977 346.08L120.159 349.129L118.687 348.734ZM125.69 350.736C125.103 350.578 124.625 350.322 124.256 349.966C123.888 349.611 123.643 349.18 123.521 348.676C123.402 348.163 123.423 347.606 123.584 347.003C123.746 346.4 124.006 345.911 124.363 345.534C124.721 345.158 125.148 344.908 125.645 344.785C126.142 344.661 126.685 344.678 127.272 344.836C127.859 344.993 128.337 345.25 128.706 345.605C129.074 345.961 129.319 346.391 129.441 346.896C129.562 347.4 129.542 347.954 129.38 348.557C129.219 349.16 128.958 349.653 128.598 350.037C128.241 350.413 127.813 350.663 127.316 350.787C126.819 350.91 126.277 350.893 125.69 350.736ZM125.985 349.635C126.418 349.751 126.807 349.689 127.153 349.451C127.5 349.204 127.756 348.776 127.92 348.165C128.086 347.547 128.078 347.052 127.896 346.68C127.716 346.301 127.409 346.053 126.977 345.937C126.544 345.821 126.155 345.882 125.809 346.121C125.465 346.352 125.211 346.776 125.045 347.395C124.881 348.005 124.888 348.504 125.066 348.891C125.246 349.271 125.552 349.519 125.985 349.635ZM131.859 352.39C131.38 352.261 130.947 352.083 130.561 351.855C130.175 351.628 129.871 351.368 129.651 351.077L130.277 350.226C130.511 350.496 130.791 350.733 131.118 350.936C131.446 351.132 131.788 351.278 132.144 351.373C132.515 351.472 132.806 351.484 133.017 351.408C133.237 351.326 133.376 351.181 133.432 350.973C133.519 350.648 133.335 350.375 132.881 350.154L131.781 349.623C130.849 349.174 130.495 348.533 130.719 347.698C130.818 347.327 131.005 347.033 131.278 346.817C131.559 346.602 131.901 346.47 132.304 346.421C132.706 346.371 133.143 346.41 133.615 346.536C134.017 346.644 134.387 346.805 134.727 347.021C135.069 347.228 135.342 347.48 135.544 347.774L134.895 348.619C134.721 348.373 134.49 348.154 134.202 347.961C133.922 347.77 133.639 347.636 133.353 347.559C132.974 347.458 132.674 347.448 132.454 347.53C132.241 347.613 132.105 347.763 132.047 347.98C131.956 348.32 132.12 348.587 132.54 348.783L133.64 349.314C134.118 349.541 134.451 349.813 134.64 350.128C134.836 350.446 134.878 350.814 134.766 351.231C134.615 351.795 134.276 352.181 133.748 352.387C133.223 352.586 132.593 352.587 131.859 352.39ZM137.984 354.032C136.485 353.63 135.934 352.687 136.332 351.203L136.994 348.734L135.904 348.442L136.196 347.353L137.286 347.645L137.74 345.952L139.189 346.341L138.735 348.033L140.451 348.493L140.159 349.583L138.443 349.123L137.803 351.511C137.703 351.882 137.71 352.182 137.822 352.411C137.935 352.64 138.173 352.803 138.536 352.9C138.644 352.929 138.759 352.948 138.881 352.956C139.006 352.956 139.134 352.957 139.266 352.959L139.2 354.085C139.04 354.125 138.846 354.139 138.617 354.127C138.396 354.118 138.185 354.086 137.984 354.032ZM142.365 355.207C141.777 355.049 141.299 354.793 140.931 354.437C140.562 354.081 140.317 353.651 140.196 353.147C140.077 352.634 140.098 352.076 140.259 351.474C140.421 350.871 140.681 350.381 141.038 350.005C141.396 349.629 141.823 349.379 142.32 349.255C142.817 349.132 143.359 349.149 143.947 349.306C144.534 349.464 145.012 349.72 145.381 350.076C145.749 350.432 145.994 350.862 146.116 351.366C146.237 351.871 146.217 352.425 146.055 353.028C145.894 353.63 145.633 354.124 145.273 354.508C144.916 354.884 144.488 355.134 143.991 355.258C143.494 355.381 142.952 355.364 142.365 355.207ZM142.66 354.105C143.093 354.221 143.482 354.16 143.828 353.921C144.175 353.675 144.431 353.247 144.595 352.636C144.76 352.018 144.752 351.523 144.57 351.151C144.391 350.771 144.084 350.524 143.651 350.408C143.219 350.292 142.829 350.353 142.484 350.592C142.14 350.822 141.886 351.247 141.72 351.865C141.556 352.476 141.563 352.975 141.741 353.362C141.921 353.742 142.227 353.989 142.66 354.105ZM149.078 357.007C148.483 356.847 147.998 356.589 147.622 356.231C147.247 355.865 147.001 355.427 146.881 354.914C146.762 354.402 146.783 353.844 146.944 353.241C147.106 352.638 147.365 352.153 147.72 351.784C148.078 351.408 148.508 351.163 149.011 351.049C149.516 350.928 150.065 350.947 150.66 351.106C151.024 351.204 151.367 351.358 151.692 351.569C152.016 351.781 152.266 352.022 152.442 352.292L151.743 353.186C151.59 352.954 151.398 352.758 151.168 352.597C150.945 352.438 150.718 352.327 150.486 352.265C149.984 352.13 149.551 352.184 149.188 352.426C148.835 352.663 148.581 353.071 148.425 353.651C148.272 354.223 148.286 354.711 148.467 355.116C148.658 355.515 149.005 355.782 149.507 355.916C149.732 355.977 149.984 355.994 150.263 355.97C150.543 355.946 150.809 355.868 151.059 355.736L151.215 356.871C150.929 357.01 150.588 357.093 150.192 357.119C149.805 357.139 149.434 357.102 149.078 357.007ZM151.957 357.654L154.149 349.482L155.598 349.871L154.28 354.786L154.303 354.792L157.233 352.993L158.984 353.462L155.683 355.485L157.626 359.174L155.852 358.699L154.107 355.522L154.084 355.516L153.406 358.043L151.957 357.654Z" fill="#364250"/>
<path d="M86.4812 404.294L87.5338 400.368L92.4179 401.678L95.7746 389.158L91.4458 390.35L90.5585 386.368L98.5994 384.184L102 385.095L97.2093 402.962L101.784 404.189L100.732 408.115L86.4812 404.294ZM110.582 411.12C109.057 410.712 107.662 410.106 106.398 409.303C105.133 408.5 104.157 407.608 103.47 406.629L105.954 403.418C107.423 405.27 109.261 406.492 111.466 407.083C113.98 407.757 115.488 407.156 115.991 405.281C116.455 403.55 115.513 402.37 113.163 401.74L109.516 400.762L110.552 396.898L113.736 397.751C114.766 398.028 115.644 398.009 116.368 397.695C117.093 397.381 117.569 396.802 117.795 395.957C118.248 394.267 117.372 393.127 115.167 392.536C113.107 391.983 111.087 392.182 109.11 393.131L108.54 389.201C109.662 388.641 110.941 388.321 112.376 388.242C113.816 388.142 115.247 388.283 116.669 388.664C119.019 389.294 120.712 390.311 121.749 391.716C122.786 393.12 123.059 394.74 122.567 396.574C122.263 397.707 121.707 398.629 120.898 399.34C120.088 400.051 119.116 400.464 117.981 400.579C119.123 401.261 119.908 402.167 120.333 403.298C120.786 404.413 120.835 405.63 120.481 406.949C119.951 408.927 118.802 410.287 117.035 411.028C115.268 411.769 113.117 411.8 110.582 411.12ZM122.624 413.985L137.051 398.734L126.695 395.958L127.756 392.001L143.429 396.203L142.467 399.789L127.91 415.402L122.624 413.985Z" fill="#364250"/>
<path d="M257.717 386.01L263.127 380.291L259.244 379.25L259.642 377.766L265.519 379.342L265.158 380.687L259.699 386.542L257.717 386.01ZM264.668 387.874L270.078 382.155L266.194 381.114L266.592 379.63L272.469 381.206L272.109 382.55L266.65 388.405L264.668 387.874ZM274.435 390.865L273.487 389.903L280.441 382.97L281.376 383.929L274.435 390.865ZM274.243 386.9C273.571 386.72 273.109 386.356 272.858 385.808C272.61 385.253 272.588 384.592 272.793 383.827C272.998 383.062 273.346 382.505 273.837 382.156C274.336 381.81 274.918 381.726 275.582 381.904C276.247 382.082 276.704 382.449 276.952 383.004C277.211 383.554 277.239 384.207 277.036 384.965C276.83 385.73 276.477 386.29 275.977 386.644C275.485 386.993 274.908 387.078 274.243 386.9ZM274.541 385.787C274.765 385.847 274.968 385.786 275.15 385.602C275.341 385.413 275.502 385.076 275.633 384.589C275.763 384.102 275.791 383.736 275.716 383.493C275.65 383.243 275.505 383.088 275.281 383.028C275.049 382.966 274.843 383.023 274.664 383.198C274.484 383.374 274.328 383.709 274.196 384.203C274.061 384.706 274.026 385.082 274.092 385.331C274.16 385.573 274.309 385.725 274.541 385.787ZM279.293 391.932C278.62 391.751 278.159 391.387 277.908 390.84C277.659 390.284 277.639 389.62 277.846 388.847C278.051 388.082 278.398 387.529 278.887 387.188C279.386 386.842 279.968 386.757 280.632 386.936C281.297 387.114 281.755 387.477 282.005 388.024C282.264 388.574 282.292 389.228 282.089 389.985C281.881 390.758 281.531 391.322 281.038 391.679C280.547 392.028 279.965 392.112 279.293 391.932ZM279.594 390.807C279.826 390.869 280.033 390.809 280.215 390.626C280.396 390.442 280.553 390.104 280.686 389.609C280.814 389.13 280.842 388.764 280.769 388.513C280.703 388.263 280.558 388.108 280.334 388.048C280.102 387.986 279.896 388.043 279.717 388.218C279.537 388.394 279.381 388.729 279.249 389.224C279.114 389.726 279.079 390.102 279.145 390.351C279.213 390.593 279.362 390.745 279.594 390.807Z" fill="#22D558"/>
<path d="M92.8951 329.395L83.2351 326.805L79.0911 342.261L88.7511 344.851L92.8951 329.395Z" fill="#00D3BD"/>
<g filter="url(#filter10_d)">
<path d="M71.9686 387.828C72.0938 387.71 72.2469 387.627 72.4134 387.585C72.58 387.543 72.7545 387.544 72.9203 387.589C73.0862 387.633 73.2379 387.72 73.3612 387.839C73.4845 387.959 73.5752 388.108 73.6248 388.272L75.4067 394.089C75.4595 394.261 75.465 394.445 75.4227 394.62C75.3804 394.796 75.2918 394.956 75.1662 395.086C75.0407 395.215 74.8826 395.309 74.7087 395.357C74.5347 395.404 74.3511 395.404 74.1771 395.357L67.9421 393.685C67.7687 393.638 67.6111 393.545 67.4856 393.417C67.36 393.288 67.2711 393.128 67.228 392.954C67.1849 392.78 67.1892 392.597 67.2405 392.424C67.2917 392.252 67.3881 392.097 67.5195 391.974L71.9686 387.828Z" fill="#22D558"/>
</g>
<g filter="url(#filter11_d)">
<path d="M183.394 442.884C183.394 442.884 201.62 433.855 207.769 438.512C213.918 443.169 222.231 447.279 225.527 446.282C228.822 445.285 233.84 446.631 236.632 446.251C239.424 445.87 239.925 441.495 241.368 437.365C242.811 433.236 249.556 436.928 250.623 437.967C251.689 439.006 252.473 433.574 257.365 430.377C262.257 427.179 264.613 433.448 267.404 433.068C270.196 432.688 281.084 424.696 281.084 424.696" stroke="#00D3BD" stroke-width="3.02586" stroke-linecap="round"/>
</g>
<g filter="url(#filter12_d)">
<path d="M540.705 273.157L323.456 214.909C314.847 212.601 305.997 217.708 303.689 226.317L283.315 302.305C281.007 310.914 286.115 319.764 294.724 322.072L511.973 380.32C520.581 382.628 529.431 377.52 531.739 368.912L552.113 292.923C554.421 284.315 549.313 275.465 540.705 273.157Z" fill="white"/>
</g>
<path opacity="0.5" d="M338.851 247.519L341.042 239.347L342.283 239.679L343.748 245.8L348.067 241.23L349.284 241.557L347.093 249.729L345.748 249.368L347.225 243.862L343.739 247.5L342.87 247.267L341.666 242.397L340.196 247.88L338.851 247.519ZM350.588 250.79C350.178 250.68 349.832 250.505 349.549 250.263C349.275 250.016 349.082 249.732 348.969 249.412C348.864 249.094 348.857 248.765 348.948 248.425C349.06 248.007 349.256 247.708 349.537 247.526C349.82 247.337 350.219 247.254 350.735 247.276C351.251 247.298 351.918 247.419 352.737 247.639L353.143 247.748L353.208 247.504C353.312 247.118 353.302 246.817 353.177 246.601C353.053 246.386 352.79 246.224 352.388 246.116C352.071 246.031 351.733 245.995 351.374 246.006C351.016 246.01 350.641 246.066 350.247 246.176L350.094 245.079C350.332 244.994 350.6 244.937 350.897 244.909C351.204 244.875 351.516 244.872 351.832 244.899C352.158 244.92 352.456 244.967 352.726 245.039C353.553 245.261 354.116 245.619 354.414 246.113C354.714 246.599 354.757 247.244 354.541 248.048L353.621 251.479L352.265 251.116L352.507 250.211C352.291 250.493 352.015 250.688 351.679 250.797C351.346 250.898 350.982 250.896 350.588 250.79ZM351.156 249.874C351.535 249.976 351.883 249.928 352.201 249.732C352.527 249.537 352.743 249.239 352.851 248.837L352.919 248.582L352.525 248.477C351.799 248.282 351.277 248.204 350.96 248.243C350.653 248.277 350.46 248.441 350.381 248.734C350.313 248.989 350.346 249.222 350.48 249.432C350.614 249.642 350.84 249.789 351.156 249.874ZM355.092 251.874L356.612 246.205L358.026 246.584L357.759 247.581C358.217 246.983 358.912 246.772 359.842 246.947L360.292 247.03L360.055 248.284L359.199 248.141C358.224 247.979 357.618 248.339 357.382 249.22L356.564 252.268L355.092 251.874ZM359.631 253.091L361.823 244.918L363.272 245.307L361.954 250.222L361.977 250.228L364.907 248.429L366.657 248.898L363.357 250.921L365.3 254.61L363.526 254.135L361.781 250.958L361.758 250.952L361.08 253.479L359.631 253.091ZM368.496 255.592C367.854 255.42 367.334 255.152 366.934 254.788C366.535 254.424 366.267 253.988 366.13 253.479C366.001 252.972 366.017 252.417 366.178 251.814C366.336 251.227 366.593 250.745 366.951 250.369C367.317 249.995 367.745 249.741 368.236 249.608C368.737 249.469 369.262 249.473 369.811 249.62C370.615 249.835 371.18 250.26 371.507 250.895C371.842 251.531 371.891 252.29 371.655 253.171L371.54 253.6L367.482 252.512C367.319 253.553 367.763 254.215 368.814 254.497C369.131 254.581 369.46 254.62 369.802 254.612C370.146 254.597 370.477 254.52 370.796 254.382L370.94 255.464C370.61 255.616 370.222 255.702 369.777 255.724C369.332 255.746 368.905 255.701 368.496 255.592ZM369.605 250.621C369.18 250.507 368.801 250.546 368.467 250.738C368.134 250.93 367.88 251.243 367.706 251.677L370.558 252.442C370.653 251.962 370.618 251.567 370.453 251.258C370.297 250.943 370.014 250.73 369.605 250.621ZM374.559 257.217C373.059 256.815 372.509 255.872 372.907 254.389L373.569 251.919L372.479 251.627L372.771 250.538L373.861 250.83L374.315 249.137L375.764 249.526L375.31 251.218L377.025 251.678L376.733 252.768L375.018 252.308L374.377 254.696C374.278 255.067 374.284 255.367 374.397 255.596C374.51 255.825 374.747 255.988 375.111 256.085C375.219 256.114 375.334 256.133 375.456 256.141C375.58 256.141 375.708 256.142 375.84 256.144L375.775 257.27C375.615 257.31 375.421 257.324 375.192 257.312C374.971 257.303 374.76 257.271 374.559 257.217ZM375.883 259.684L377.962 251.929L379.376 252.309L379.134 253.213C379.379 252.947 379.689 252.765 380.063 252.667C380.445 252.57 380.845 252.578 381.262 252.69C381.756 252.823 382.157 253.058 382.464 253.397C382.778 253.738 382.981 254.157 383.071 254.654C383.164 255.142 383.128 255.692 382.965 256.303C382.803 256.905 382.558 257.403 382.229 257.795C381.902 258.18 381.521 258.442 381.086 258.582C380.651 258.722 380.182 258.725 379.68 258.59C379.278 258.483 378.938 258.3 378.659 258.043C378.389 257.78 378.209 257.479 378.118 257.14L377.332 260.073L375.883 259.684ZM379.569 257.38C380.002 257.496 380.391 257.435 380.737 257.196C381.085 256.95 381.34 256.521 381.504 255.911C381.67 255.293 381.662 254.798 381.48 254.426C381.3 254.046 380.994 253.798 380.561 253.682C380.128 253.566 379.739 253.628 379.393 253.866C379.05 254.097 378.795 254.522 378.629 255.14C378.466 255.751 378.473 256.25 378.651 256.637C378.83 257.016 379.137 257.264 379.569 257.38ZM385.332 260.106C384.66 259.925 384.21 259.61 383.983 259.16C383.766 258.704 383.752 258.121 383.943 257.41L385.584 251.289L387.033 251.678L385.41 257.729C385.224 258.424 385.424 258.851 386.012 259.008C386.097 259.031 386.183 259.05 386.27 259.065C386.357 259.08 386.442 259.086 386.526 259.084L386.195 260.225C385.898 260.22 385.61 260.18 385.332 260.106ZM388.93 261.07C388.52 260.96 388.174 260.785 387.891 260.543C387.617 260.296 387.424 260.012 387.311 259.692C387.206 259.374 387.199 259.045 387.29 258.705C387.402 258.287 387.598 257.988 387.879 257.806C388.162 257.617 388.561 257.534 389.077 257.556C389.593 257.578 390.26 257.699 391.079 257.919L391.485 258.028L391.55 257.784C391.654 257.398 391.643 257.097 391.519 256.881C391.395 256.666 391.131 256.504 390.73 256.396C390.413 256.311 390.075 256.275 389.715 256.286C389.358 256.29 388.983 256.346 388.589 256.456L388.436 255.359C388.674 255.274 388.942 255.217 389.239 255.189C389.546 255.155 389.858 255.152 390.174 255.179C390.5 255.2 390.798 255.247 391.068 255.319C391.895 255.541 392.458 255.899 392.756 256.393C393.056 256.879 393.099 257.524 392.883 258.328L391.963 261.759L390.607 261.396L390.849 260.492C390.633 260.773 390.357 260.968 390.021 261.077C389.688 261.178 389.324 261.176 388.93 261.07ZM389.498 260.154C389.877 260.256 390.225 260.208 390.543 260.012C390.868 259.817 391.085 259.519 391.193 259.117L391.261 258.862L390.867 258.757C390.141 258.562 389.619 258.484 389.302 258.523C388.995 258.557 388.802 258.721 388.723 259.014C388.655 259.269 388.688 259.502 388.822 259.712C388.956 259.922 389.182 260.069 389.498 260.154ZM396.023 262.972C395.428 262.812 394.942 262.554 394.566 262.196C394.191 261.831 393.945 261.392 393.825 260.879C393.706 260.367 393.727 259.809 393.889 259.207C394.05 258.604 394.309 258.118 394.664 257.75C395.022 257.373 395.452 257.128 395.955 257.015C396.46 256.893 397.009 256.912 397.605 257.072C397.968 257.169 398.312 257.323 398.636 257.535C398.96 257.746 399.211 257.987 399.386 258.258L398.687 259.151C398.534 258.92 398.342 258.723 398.112 258.562C397.89 258.403 397.662 258.292 397.431 258.23C396.928 258.096 396.496 258.149 396.132 258.392C395.779 258.628 395.525 259.036 395.369 259.616C395.216 260.188 395.23 260.676 395.411 261.081C395.602 261.48 395.949 261.747 396.452 261.882C396.676 261.942 396.928 261.96 397.208 261.935C397.487 261.911 397.753 261.833 398.003 261.701L398.159 262.836C397.873 262.975 397.532 263.058 397.136 263.084C396.749 263.105 396.378 263.067 396.023 262.972ZM401.551 264.454C400.91 264.282 400.389 264.014 399.99 263.65C399.59 263.287 399.322 262.85 399.185 262.341C399.056 261.834 399.072 261.28 399.234 260.677C399.391 260.09 399.649 259.608 400.006 259.232C400.372 258.857 400.8 258.604 401.292 258.47C401.793 258.331 402.318 258.335 402.866 258.482C403.67 258.698 404.235 259.123 404.562 259.757C404.897 260.394 404.946 261.152 404.71 262.033L404.595 262.462L400.538 261.374C400.374 262.416 400.818 263.077 401.869 263.359C402.186 263.444 402.516 263.483 402.857 263.475C403.201 263.459 403.532 263.383 403.851 263.244L403.996 264.327C403.665 264.478 403.277 264.565 402.833 264.587C402.388 264.608 401.961 264.564 401.551 264.454ZM402.66 259.483C402.235 259.369 401.856 259.408 401.523 259.601C401.19 259.793 400.936 260.106 400.762 260.54L403.613 261.304C403.709 260.825 403.674 260.43 403.508 260.121C403.352 259.806 403.07 259.593 402.66 259.483Z" fill="#364250"/>
<path d="M329.268 309.509C328.093 309.194 326.984 308.676 325.94 307.954C324.917 307.238 324.075 306.383 323.414 305.388L325.913 302.248C326.484 303.085 327.147 303.782 327.904 304.339C328.681 304.901 329.512 305.3 330.399 305.538C333.799 306.449 336.093 304.69 337.281 300.259L337.438 299.672C336.735 300.566 335.852 301.18 334.791 301.513C333.73 301.847 332.601 301.854 331.406 301.534C330.19 301.208 329.178 300.616 328.37 299.759C327.567 298.881 327.028 297.842 326.753 296.641C326.484 295.421 326.532 294.13 326.897 292.77C327.284 291.327 327.935 290.133 328.852 289.186C329.795 288.223 330.898 287.569 332.161 287.223C333.445 286.883 334.809 286.906 336.251 287.293C339.054 288.044 340.951 289.58 341.941 291.9C342.937 294.199 342.968 297.09 342.035 300.573C341.383 303.005 340.436 304.971 339.194 306.471C337.973 307.977 336.517 309.001 334.826 309.541C333.14 310.061 331.287 310.05 329.268 309.509ZM333.645 298.125C334.593 298.379 335.452 298.267 336.221 297.788C336.995 297.289 337.52 296.524 337.797 295.494C338.078 294.443 338.009 293.507 337.588 292.688C337.167 291.868 336.483 291.331 335.535 291.077C334.587 290.823 333.726 290.945 332.951 291.444C332.177 291.944 331.649 292.719 331.367 293.77C331.091 294.8 331.163 295.725 331.584 296.545C332.01 297.344 332.697 297.871 333.645 298.125ZM342.577 312.713L357.004 297.463L346.648 294.686L347.709 290.729L363.381 294.931L362.42 298.517L347.863 314.13L342.577 312.713Z" fill="#364250"/>
<path d="M508.006 293.009C507.465 292.864 506.957 292.641 506.483 292.34C506.019 292.033 505.664 291.702 505.42 291.346L506.352 290.142C506.91 290.839 507.584 291.293 508.372 291.504C508.813 291.622 509.182 291.605 509.479 291.453C509.785 291.303 509.986 291.047 510.083 290.683C510.183 290.312 510.143 289.983 509.963 289.694C509.792 289.408 509.505 289.211 509.103 289.103C508.523 288.948 507.97 289.036 507.442 289.366L506.283 289.055L507.635 284.013L512.805 285.399L512.41 286.871L508.967 285.948L508.476 287.78C508.921 287.634 509.41 287.633 509.944 287.776C510.461 287.914 510.883 288.148 511.21 288.475C511.538 288.795 511.758 289.181 511.868 289.634C511.979 290.086 511.965 290.571 511.826 291.088C511.679 291.637 511.427 292.083 511.07 292.426C510.713 292.77 510.271 292.995 509.745 293.103C509.22 293.21 508.64 293.179 508.006 293.009ZM515.13 295.155L514.182 294.193L521.135 287.26L522.071 288.219L515.13 295.155ZM514.938 291.19C514.265 291.009 513.804 290.645 513.553 290.098C513.304 289.542 513.283 288.882 513.488 288.117C513.693 287.352 514.041 286.795 514.532 286.446C515.031 286.1 515.613 286.015 516.277 286.193C516.942 286.372 517.399 286.738 517.647 287.294C517.906 287.844 517.933 288.497 517.73 289.254C517.525 290.02 517.172 290.579 516.671 290.934C516.18 291.283 515.602 291.368 514.938 291.19ZM515.236 290.077C515.46 290.137 515.663 290.075 515.845 289.892C516.036 289.703 516.197 289.365 516.328 288.878C516.458 288.392 516.486 288.026 516.41 287.782C516.345 287.533 516.2 287.378 515.976 287.318C515.744 287.256 515.538 287.312 515.359 287.488C515.179 287.663 515.023 287.998 514.89 288.493C514.756 288.995 514.721 289.371 514.787 289.621C514.855 289.863 515.004 290.015 515.236 290.077ZM519.988 296.221C519.315 296.041 518.854 295.677 518.603 295.13C518.354 294.574 518.334 293.91 518.541 293.137C518.746 292.372 519.093 291.819 519.582 291.478C520.081 291.131 520.663 291.047 521.327 291.225C521.992 291.403 522.45 291.766 522.7 292.314C522.959 292.864 522.986 293.517 522.783 294.275C522.576 295.048 522.226 295.612 521.733 295.969C521.242 296.317 520.66 296.402 519.988 296.221ZM520.289 295.097C520.521 295.159 520.728 295.099 520.909 294.915C521.091 294.732 521.248 294.393 521.381 293.899C521.509 293.42 521.537 293.054 521.463 292.803C521.398 292.553 521.253 292.398 521.029 292.338C520.797 292.276 520.591 292.333 520.412 292.508C520.232 292.684 520.076 293.019 519.943 293.513C519.809 294.016 519.774 294.392 519.84 294.641C519.908 294.883 520.057 295.035 520.289 295.097Z" fill="#F6328D"/>
<path d="M331.383 233.093L321.723 230.503L317.579 245.959L327.239 248.549L331.383 233.093Z" fill="#E732FB"/>
<g filter="url(#filter13_d)">
<path d="M311.694 296.637C311.569 296.755 311.416 296.838 311.25 296.88C311.083 296.922 310.909 296.92 310.743 296.876C310.577 296.832 310.425 296.745 310.302 296.626C310.179 296.506 310.088 296.357 310.038 296.193L308.256 290.376C308.204 290.203 308.198 290.02 308.24 289.845C308.283 289.669 308.371 289.508 308.497 289.379C308.622 289.249 308.78 289.156 308.954 289.108C309.128 289.061 309.312 289.061 309.486 289.108L315.721 290.78C315.894 290.827 316.052 290.92 316.178 291.048C316.303 291.177 316.392 291.337 316.435 291.511C316.478 291.685 316.474 291.868 316.423 292.04C316.371 292.213 316.275 292.368 316.144 292.491L311.694 296.637Z" fill="#F6328D"/>
</g>
<g filter="url(#filter14_d)">
<path d="M511.055 364.566C511.055 364.566 497.026 357.327 489.371 358.284C481.717 359.242 474.704 350.891 472.351 348.38C469.999 345.868 459.407 347.745 460.222 343.45C461.037 339.156 456.224 328.259 454.781 328.625C453.338 328.991 450.936 340.457 448.299 335.241C445.661 330.025 444.666 318.688 442.439 316.962C440.211 315.236 432.955 309.688 432.955 309.688" stroke="#E732FB" stroke-width="3.02586" stroke-linecap="round"/>
</g>
<g filter="url(#filter15_d)">
<path d="M244.158 197.097L26.9092 138.849C18.3005 136.54 9.45068 141.648 7.14255 150.257L-13.2312 226.245C-15.5393 234.854 -10.4317 243.704 -1.82301 246.012L215.426 304.26C224.035 306.568 232.885 301.46 235.193 292.852L255.566 216.863C257.874 208.254 252.767 199.405 244.158 197.097Z" fill="white"/>
</g>
<path opacity="0.5" d="M43.5389 171.75L45.73 163.578L49.2772 164.529C50.1736 164.769 50.8052 165.179 51.1719 165.757C51.5385 166.336 51.6141 167.027 51.3987 167.831C51.1832 168.635 50.7709 169.199 50.1618 169.525C49.5547 169.842 48.803 169.881 47.9065 169.641L45.8431 169.087L45.0226 172.148L43.5389 171.75ZM46.1571 167.917L47.9886 168.408C49.0551 168.694 49.7126 168.373 49.9612 167.446C50.2078 166.526 49.7979 165.923 48.7314 165.637L46.8999 165.146L46.1571 167.917ZM50.8485 173.71L52.3683 168.041L53.7826 168.42L53.5153 169.417C53.9737 168.82 54.6683 168.608 55.5988 168.783L56.0486 168.866L55.8119 170.12L54.9555 169.977C53.9801 169.815 53.3743 170.175 53.1381 171.056L52.3207 174.104L50.8485 173.71ZM57.8513 175.712C57.264 175.554 56.7861 175.298 56.4175 174.942C56.049 174.586 55.804 174.156 55.6825 173.651C55.5632 173.139 55.5843 172.581 55.7459 171.979C55.9075 171.376 56.1671 170.886 56.5248 170.51C56.8825 170.134 57.3098 169.884 57.8068 169.76C58.3038 169.637 58.846 169.654 59.4333 169.811C60.0206 169.969 60.4986 170.225 60.8671 170.581C61.2356 170.936 61.4806 171.367 61.6021 171.871C61.7236 172.376 61.7035 172.93 61.5419 173.533C61.3803 174.135 61.1196 174.629 60.7598 175.013C60.4022 175.389 59.9748 175.639 59.4778 175.762C58.9808 175.886 58.4387 175.869 57.8513 175.712ZM58.1466 174.61C58.5794 174.726 58.9686 174.665 59.3142 174.426C59.6619 174.18 59.9176 173.752 60.0813 173.141C60.247 172.523 60.239 172.028 60.057 171.656C59.8771 171.276 59.5708 171.029 59.1381 170.912C58.7053 170.796 58.3161 170.858 57.9705 171.096C57.6269 171.327 57.3722 171.752 57.2065 172.37C57.0428 172.981 57.0498 173.48 57.2276 173.867C57.4075 174.247 57.7138 174.494 58.1466 174.61ZM63.7762 169.795L64.1553 168.381L65.7782 168.816L65.399 170.23L63.7762 169.795ZM60.1014 178.589L60.2799 177.506L60.8287 177.591C61.4424 177.681 61.8332 177.413 62.001 176.787L63.5426 171.037L64.9916 171.426L63.4997 176.99C63.2967 177.747 62.9736 178.257 62.5305 178.519C62.0854 178.789 61.4449 178.845 60.6092 178.688L60.1014 178.589ZM67.7389 178.363C67.0974 178.191 66.577 177.923 66.1776 177.559C65.7781 177.195 65.5099 176.759 65.373 176.25C65.2438 175.743 65.26 175.188 65.4216 174.585C65.5791 173.998 65.8367 173.516 66.1944 173.14C66.5598 172.766 66.9881 172.512 67.4795 172.379C67.9806 172.24 68.5055 172.244 69.0542 172.391C69.8579 172.606 70.4232 173.031 70.7502 173.666C71.0848 174.302 71.1341 175.061 70.8978 175.942L70.7829 176.371L66.7257 175.283C66.5624 176.324 67.0063 176.986 68.0573 177.268C68.3742 177.353 68.7034 177.391 69.0451 177.383C69.3889 177.368 69.7202 177.291 70.0389 177.153L70.1835 178.235C69.8529 178.387 69.4653 178.473 69.0204 178.495C68.5756 178.517 68.1484 178.472 67.7389 178.363ZM68.848 173.392C68.423 173.278 68.0438 173.317 67.7106 173.509C67.3774 173.701 67.1237 174.014 66.9494 174.448L69.8011 175.213C69.8965 174.733 69.8615 174.338 69.696 174.029C69.5402 173.714 69.2576 173.501 68.848 173.392ZM73.8478 180C73.2527 179.841 72.767 179.582 72.3908 179.225C72.0166 178.859 71.7698 178.42 71.6504 177.908C71.531 177.395 71.5521 176.838 71.7137 176.235C71.8753 175.632 72.134 175.147 72.4896 174.778C72.8472 174.402 73.2774 174.157 73.78 174.043C74.2848 173.922 74.8347 173.941 75.4297 174.1C75.7929 174.198 76.1368 174.352 76.4612 174.563C76.7856 174.774 77.0357 175.015 77.2116 175.286L76.5123 176.18C76.359 175.948 76.1673 175.752 75.9372 175.591C75.7147 175.432 75.4876 175.321 75.2558 175.259C74.7534 175.124 74.3207 175.178 73.9575 175.42C73.6042 175.657 73.3498 176.065 73.1944 176.644C73.0411 177.216 73.0551 177.705 73.2365 178.109C73.4277 178.509 73.7744 178.776 74.2767 178.91C74.5009 178.97 74.7529 178.988 75.0327 178.964C75.3126 178.939 75.5779 178.861 75.8286 178.73L75.984 179.865C75.6982 180.004 75.3572 180.086 74.9608 180.113C74.5743 180.133 74.2032 180.096 73.8478 180ZM79.3149 181.466C77.8157 181.064 77.265 180.121 77.6628 178.638L78.3248 176.169L77.2352 175.876L77.5273 174.787L78.617 175.079L79.0707 173.387L80.5197 173.775L80.066 175.467L81.7816 175.927L81.4894 177.017L79.7738 176.557L79.1336 178.945C79.0341 179.316 79.0407 179.616 79.1532 179.845C79.2658 180.074 79.5037 180.237 79.8669 180.334C79.9751 180.364 80.0902 180.382 80.2124 180.39C80.3366 180.39 80.4647 180.391 80.5966 180.393L80.5309 181.519C80.3711 181.559 80.1768 181.573 79.9479 181.561C79.7269 181.552 79.5158 181.52 79.3149 181.466Z" fill="#364250"/>
<path d="M35.8021 234.235C34.3596 233.848 33.0059 233.253 31.7412 232.45C30.5027 231.632 29.5576 230.749 28.9061 229.802L31.3904 226.591C32.8805 228.448 34.6765 229.659 36.7785 230.222C37.9532 230.537 38.9373 230.492 39.7309 230.086C40.545 229.686 41.082 229.002 41.3416 228.033C41.6069 227.044 41.5002 226.165 41.0215 225.396C40.5635 224.633 39.7987 224.107 38.7271 223.82C37.1815 223.405 35.7051 223.639 34.298 224.521L31.2068 223.692L34.812 210.245L48.5988 213.942L47.5462 217.868L38.3654 215.406L37.0559 220.29C38.2425 219.902 39.5467 219.898 40.9687 220.279C42.3494 220.649 43.4749 221.271 44.345 222.145C45.2207 222.999 45.8062 224.028 46.1014 225.234C46.3967 226.439 46.3592 227.733 45.989 229.113C45.5967 230.577 44.9244 231.766 43.9721 232.681C43.0198 233.597 41.8425 234.198 40.4403 234.484C39.038 234.771 37.492 234.688 35.8021 234.235Z" fill="#364250"/>
<path d="M204.255 214.977C203.211 214.697 202.499 214.125 202.118 213.261C201.746 212.391 201.736 211.303 202.086 209.997C202.453 208.629 203.058 207.653 203.903 207.067C204.747 206.482 205.738 206.342 206.874 206.646C207.314 206.764 207.726 206.958 208.11 207.226C208.501 207.497 208.822 207.815 209.072 208.18L208.135 209.357C207.921 209.043 207.667 208.785 207.373 208.582C207.09 208.373 206.782 208.224 206.449 208.135C205.182 207.795 204.326 208.456 203.88 210.118L203.821 210.338C204.087 209.995 204.418 209.765 204.814 209.647C205.212 209.522 205.631 209.519 206.072 209.637C206.535 209.761 206.914 209.987 207.207 210.314C207.51 210.636 207.712 211.025 207.813 211.483C207.916 211.933 207.899 212.413 207.763 212.923C207.618 213.464 207.368 213.915 207.015 214.276C206.671 214.631 206.258 214.872 205.777 215C205.303 215.13 204.796 215.122 204.255 214.977ZM204.538 213.55C204.894 213.645 205.212 213.602 205.492 213.42C205.783 213.233 205.981 212.942 206.086 212.548C206.19 212.162 206.163 211.815 206.005 211.508C205.855 211.202 205.602 211.002 205.247 210.907C204.883 210.809 204.557 210.854 204.266 211.041C203.984 211.231 203.79 211.519 203.687 211.905C203.581 212.299 203.603 212.649 203.753 212.954C203.913 213.254 204.175 213.452 204.538 213.55ZM210.695 216.704C210.123 216.551 209.6 216.323 209.126 216.022C208.652 215.721 208.286 215.387 208.028 215.02L208.96 213.816C209.511 214.51 210.2 214.968 211.027 215.19C211.97 215.443 212.535 215.217 212.724 214.514C212.898 213.865 212.544 213.422 211.663 213.186L210.296 212.819L210.684 211.37L211.878 211.691C212.264 211.794 212.593 211.787 212.865 211.67C213.137 211.552 213.315 211.335 213.4 211.018C213.57 210.384 213.242 209.956 212.415 209.735C211.642 209.527 210.885 209.602 210.143 209.958L209.93 208.484C210.35 208.274 210.83 208.154 211.368 208.124C211.908 208.087 212.445 208.14 212.978 208.283C213.859 208.519 214.494 208.9 214.883 209.427C215.272 209.954 215.374 210.561 215.19 211.249C215.076 211.674 214.867 212.02 214.564 212.286C214.26 212.553 213.896 212.708 213.47 212.751C213.898 213.007 214.192 213.347 214.352 213.77C214.522 214.189 214.54 214.645 214.407 215.14C214.209 215.882 213.778 216.391 213.115 216.669C212.452 216.947 211.646 216.959 210.695 216.704ZM218.027 218.906L217.08 217.944L224.033 211.011L224.969 211.97L218.027 218.906ZM217.836 214.941C217.163 214.76 216.702 214.396 216.451 213.849C216.202 213.293 216.181 212.633 216.386 211.868C216.591 211.103 216.939 210.546 217.43 210.197C217.929 209.85 218.511 209.766 219.175 209.944C219.84 210.123 220.296 210.489 220.545 211.045C220.804 211.595 220.831 212.248 220.628 213.005C220.423 213.77 220.07 214.33 219.569 214.685C219.078 215.033 218.5 215.119 217.836 214.941ZM218.134 213.828C218.358 213.888 218.561 213.826 218.743 213.643C218.934 213.454 219.095 213.116 219.226 212.629C219.356 212.142 219.384 211.777 219.308 211.533C219.243 211.284 219.098 211.129 218.874 211.069C218.642 211.007 218.436 211.063 218.257 211.239C218.077 211.414 217.921 211.749 217.788 212.244C217.654 212.746 217.619 213.122 217.685 213.372C217.752 213.614 217.902 213.766 218.134 213.828ZM222.886 219.972C222.213 219.792 221.752 219.428 221.501 218.88C221.252 218.325 221.232 217.661 221.439 216.888C221.644 216.123 221.991 215.57 222.48 215.229C222.979 214.882 223.561 214.798 224.225 214.976C224.89 215.154 225.347 215.517 225.598 216.065C225.857 216.615 225.884 217.268 225.681 218.026C225.474 218.798 225.124 219.363 224.631 219.72C224.14 220.068 223.558 220.153 222.886 219.972ZM223.187 218.848C223.419 218.91 223.626 218.85 223.807 218.666C223.989 218.483 224.146 218.144 224.279 217.65C224.407 217.17 224.435 216.805 224.361 216.553C224.296 216.304 224.151 216.149 223.927 216.089C223.695 216.027 223.489 216.084 223.31 216.259C223.13 216.435 222.974 216.77 222.841 217.264C222.707 217.767 222.672 218.142 222.738 218.392C222.805 218.634 222.955 218.786 223.187 218.848Z" fill="#22D558"/>
<path d="M36.0938 157.33L26.4338 154.74L22.2898 170.196L31.9498 172.786L36.0938 157.33Z" fill="#437BFF"/>
<g filter="url(#filter16_d)">
<path d="M14.9166 215.034C15.0418 214.917 15.1949 214.833 15.3614 214.791C15.528 214.749 15.7025 214.751 15.8683 214.795C16.0342 214.84 16.1859 214.926 16.3092 215.045C16.4325 215.165 16.5232 215.314 16.5728 215.478L18.3547 221.295C18.4075 221.468 18.413 221.651 18.3707 221.827C18.3284 222.002 18.2398 222.163 18.1142 222.292C17.9887 222.422 17.8306 222.515 17.6567 222.563C17.4827 222.611 17.2991 222.611 17.1251 222.563L10.8901 220.892C10.7167 220.844 10.5591 220.752 10.4336 220.623C10.308 220.495 10.2191 220.335 10.176 220.16C10.1329 219.986 10.1372 219.803 10.1885 219.631C10.2397 219.459 10.3361 219.303 10.4675 219.181L14.9166 215.034Z" fill="#22D558"/>
</g>
<g filter="url(#filter17_d)">
<path d="M128.17 263.271C128.17 263.271 146.397 254.242 152.546 258.899C158.694 263.556 167.53 265.717 170.825 264.72C174.121 263.723 181.306 274.543 182.749 270.417C184.192 266.29 190.937 269.98 192.004 271.019C193.07 272.057 194.637 263.703 199.53 260.505C204.422 257.308 206.516 264.552 209.308 264.171C212.1 263.791 222.726 256.773 222.726 256.773" stroke="#437BFF" stroke-width="3.02586" stroke-linecap="round"/>
</g>
<g filter="url(#filter18_d)">
<path d="M140.076 488.16L-77.1735 429.912C-85.7822 427.604 -94.632 432.711 -96.9401 441.32L-117.314 517.309C-119.622 525.917 -114.514 534.767 -105.906 537.075L111.343 595.323C119.952 597.631 128.802 592.524 131.11 583.915L151.484 507.927C153.792 499.318 148.684 490.468 140.076 488.16Z" fill="white"/>
</g>
<path d="M100.085 504.665C99.5129 504.512 98.9898 504.285 98.5156 503.984C98.0413 503.683 97.6753 503.348 97.4176 502.981L98.3492 501.777C98.9003 502.472 99.5892 502.93 100.416 503.151C101.359 503.404 101.925 503.179 102.113 502.476C102.287 501.826 101.934 501.384 101.053 501.148L99.6849 500.781L100.073 499.332L101.267 499.652C101.654 499.756 101.983 499.749 102.255 499.631C102.526 499.513 102.705 499.296 102.79 498.979C102.96 498.345 102.631 497.918 101.804 497.696C101.031 497.489 100.274 497.563 99.5326 497.919L99.3189 496.446C99.7398 496.235 100.219 496.116 100.757 496.086C101.298 496.048 101.834 496.101 102.367 496.244C103.248 496.48 103.883 496.862 104.272 497.389C104.661 497.915 104.764 498.523 104.579 499.21C104.465 499.635 104.256 499.981 103.953 500.248C103.65 500.514 103.285 500.669 102.859 500.712C103.288 500.968 103.582 501.308 103.742 501.732C103.911 502.15 103.929 502.606 103.797 503.101C103.598 503.843 103.167 504.353 102.505 504.631C101.842 504.909 101.035 504.92 100.085 504.665ZM104.601 505.739L110.011 500.021L106.127 498.979L106.525 497.496L112.402 499.071L112.042 500.416L106.583 506.271L104.601 505.739ZM114.368 508.731L113.42 507.769L120.373 500.836L121.309 501.795L114.368 508.731ZM114.176 504.765C113.503 504.585 113.042 504.221 112.791 503.674C112.542 503.118 112.521 502.458 112.726 501.693C112.931 500.928 113.279 500.371 113.77 500.022C114.269 499.675 114.851 499.591 115.515 499.769C116.18 499.948 116.637 500.314 116.885 500.87C117.144 501.419 117.171 502.073 116.968 502.83C116.763 503.595 116.41 504.155 115.909 504.51C115.418 504.858 114.84 504.944 114.176 504.765ZM114.474 503.653C114.698 503.713 114.901 503.651 115.083 503.468C115.274 503.279 115.435 502.941 115.566 502.454C115.696 501.967 115.724 501.602 115.648 501.358C115.583 501.109 115.438 500.954 115.214 500.894C114.982 500.832 114.776 500.888 114.597 501.064C114.417 501.239 114.261 501.574 114.128 502.069C113.994 502.571 113.959 502.947 114.025 503.197C114.093 503.438 114.242 503.59 114.474 503.653ZM119.226 509.797C118.553 509.617 118.092 509.253 117.841 508.705C117.592 508.15 117.572 507.486 117.779 506.713C117.984 505.948 118.331 505.395 118.82 505.054C119.319 504.707 119.901 504.623 120.565 504.801C121.23 504.979 121.688 505.342 121.938 505.89C122.197 506.44 122.225 507.093 122.021 507.851C121.814 508.623 121.464 509.188 120.971 509.545C120.48 509.893 119.898 509.978 119.226 509.797ZM119.527 508.673C119.759 508.735 119.966 508.675 120.147 508.491C120.329 508.308 120.486 507.969 120.619 507.475C120.747 506.995 120.775 506.63 120.701 506.378C120.636 506.129 120.491 505.974 120.267 505.914C120.035 505.852 119.829 505.909 119.65 506.084C119.47 506.26 119.314 506.595 119.181 507.089C119.047 507.591 119.012 507.967 119.078 508.217C119.146 508.459 119.295 508.611 119.527 508.673Z" fill="#22D558"/>
<g filter="url(#filter19_d)">
<path d="M27.483 541.669C27.483 541.669 39.7018 555.048 45.8506 559.705C51.9994 564.362 62.4021 560.677 65.6977 559.68C68.9933 558.683 74.0112 560.03 76.8032 559.649C79.5951 559.269 85.0258 567.863 86.0922 568.902C87.1587 569.94 90.2934 555.741 95.1856 552.543C100.078 549.346 100.866 561.46 103.658 561.08C106.45 560.7 117.337 552.708 117.337 552.708" stroke="#FFBA00" stroke-width="3.02586" stroke-linecap="round"/>
</g>
</g>
<defs>
<filter id="filter0_d" x="1108.35" y="90.689" width="231.996" height="231.997" filterUnits="userSpaceOnUse" color-interpolation-filters="sRGB">
<feFlood flood-opacity="0" result="BackgroundImageFix"/>
<feColorMatrix in="SourceAlpha" type="matrix" values="0 0 0 0 0 0 0 0 0 0 0 0 0 0 0 0 0 0 127 0"/>
<feOffset dx="22.9839" dy="35.9748"/>
<feGaussianBlur stdDeviation="35.9748"/>
<feColorMatrix type="matrix" values="0 0 0 0 0.211765 0 0 0 0 0.258824 0 0 0 0 0.313726 0 0 0 0.078 0"/>
<feBlend mode="normal" in2="BackgroundImageFix" result="effect1_dropShadow"/>
<feBlend mode="normal" in="SourceGraphic" in2="effect1_dropShadow" result="shape"/>
</filter>
<filter id="filter1_d" x="952.045" y="212.71" width="231.996" height="231.997" filterUnits="userSpaceOnUse" color-interpolation-filters="sRGB">
<feFlood flood-opacity="0" result="BackgroundImageFix"/>
<feColorMatrix in="SourceAlpha" type="matrix" values="0 0 0 0 0 0 0 0 0 0 0 0 0 0 0 0 0 0 127 0"/>
<feOffset dx="22.9839" dy="35.9748"/>
<feGaussianBlur stdDeviation="35.9748"/>
<feColorMatrix type="matrix" values="0 0 0 0 0.211765 0 0 0 0 0.258824 0 0 0 0 0.313726 0 0 0 0.078 0"/>
<feBlend mode="normal" in2="BackgroundImageFix" result="effect1_dropShadow"/>
<feBlend mode="normal" in="SourceGraphic" in2="effect1_dropShadow" result="shape"/>
</filter>
<filter id="filter2_d" x="991.041" y="80.8312" width="279.962" height="279.963" filterUnits="userSpaceOnUse" color-interpolation-filters="sRGB">
<feFlood flood-opacity="0" result="BackgroundImageFix"/>
<feColorMatrix in="SourceAlpha" type="matrix" values="0 0 0 0 0 0 0 0 0 0 0 0 0 0 0 0 0 0 127 0"/>
<feOffset dx="22.9839" dy="35.9748"/>
<feGaussianBlur stdDeviation="47.9664"/>
<feColorMatrix type="matrix" values="0 0 0 0 0.211765 0 0 0 0 0.258824 0 0 0 0 0.313726 0 0 0 0.122 0"/>
<feBlend mode="normal" in2="BackgroundImageFix" result="effect1_dropShadow"/>
<feBlend mode="normal" in="SourceGraphic" in2="effect1_dropShadow" result="shape"/>
</filter>
<filter id="filter3_d" x="1045.17" y="198" width="231.996" height="231.997" filterUnits="userSpaceOnUse" color-interpolation-filters="sRGB">
<feFlood flood-opacity="0" result="BackgroundImageFix"/>
<feColorMatrix in="SourceAlpha" type="matrix" values="0 0 0 0 0 0 0 0 0 0 0 0 0 0 0 0 0 0 127 0"/>
<feOffset dx="22.9839" dy="35.9748"/>
<feGaussianBlur stdDeviation="35.9748"/>
<feColorMatrix type="matrix" values="0 0 0 0 0.211765 0 0 0 0 0.258824 0 0 0 0 0.313726 0 0 0 0.078 0"/>
<feBlend mode="normal" in2="BackgroundImageFix" result="effect1_dropShadow"/>
<feBlend mode="normal" in="SourceGraphic" in2="effect1_dropShadow" result="shape"/>
</filter>
<filter id="filter4_d" x="1083.31" y="299.095" width="216.053" height="216.054" filterUnits="userSpaceOnUse" color-interpolation-filters="sRGB">
<feFlood flood-opacity="0" result="BackgroundImageFix"/>
<feColorMatrix in="SourceAlpha" type="matrix" values="0 0 0 0 0 0 0 0 0 0 0 0 0 0 0 0 0 0 127 0"/>
<feOffset dx="22.9893" dy="35.9833"/>
<feGaussianBlur stdDeviation="31.9852"/>
<feColorMatrix type="matrix" values="0 0 0 0 0.211765 0 0 0 0 0.258824 0 0 0 0 0.313726 0 0 0 0.078 0"/>
<feBlend mode="normal" in2="BackgroundImageFix" result="effect1_dropShadow"/>
<feBlend mode="normal" in="SourceGraphic" in2="effect1_dropShadow" result="shape"/>
</filter>
<filter id="filter5_d" x="1223.61" y="127.652" width="216.007" height="216.008" filterUnits="userSpaceOnUse" color-interpolation-filters="sRGB">
<feFlood flood-opacity="0" result="BackgroundImageFix"/>
<feColorMatrix in="SourceAlpha" type="matrix" values="0 0 0 0 0 0 0 0 0 0 0 0 0 0 0 0 0 0 127 0"/>
<feOffset dx="22.9839" dy="35.9748"/>
<feGaussianBlur stdDeviation="31.9776"/>
<feColorMatrix type="matrix" values="0 0 0 0 0.211765 0 0 0 0 0.258824 0 0 0 0 0.313726 0 0 0 0.078 0"/>
<feBlend mode="normal" in2="BackgroundImageFix" result="effect1_dropShadow"/>
<feBlend mode="normal" in="SourceGraphic" in2="effect1_dropShadow" result="shape"/>
</filter>
<filter id="filter6_d" x="1146.51" y="191.944" width="216.007" height="216.008" filterUnits="userSpaceOnUse" color-interpolation-filters="sRGB">
<feFlood flood-opacity="0" result="BackgroundImageFix"/>
<feColorMatrix in="SourceAlpha" type="matrix" values="0 0 0 0 0 0 0 0 0 0 0 0 0 0 0 0 0 0 127 0"/>
<feOffset dx="22.9839" dy="35.9748"/>
<feGaussianBlur stdDeviation="31.9776"/>
<feColorMatrix type="matrix" values="0 0 0 0 0.211765 0 0 0 0 0.258824 0 0 0 0 0.313726 0 0 0 0.078 0"/>
<feBlend mode="normal" in2="BackgroundImageFix" result="effect1_dropShadow"/>
<feBlend mode="normal" in="SourceGraphic" in2="effect1_dropShadow" result="shape"/>
</filter>
<filter id="filter7_d" x="815.007" y="141.868" width="279.962" height="279.963" filterUnits="userSpaceOnUse" color-interpolation-filters="sRGB">
<feFlood flood-opacity="0" result="BackgroundImageFix"/>
<feColorMatrix in="SourceAlpha" type="matrix" values="0 0 0 0 0 0 0 0 0 0 0 0 0 0 0 0 0 0 127 0"/>
<feOffset dx="22.9839" dy="35.9748"/>
<feGaussianBlur stdDeviation="47.9664"/>
<feColorMatrix type="matrix" values="0 0 0 0 0.211765 0 0 0 0 0.258824 0 0 0 0 0.313726 0 0 0 0.122 0"/>
<feBlend mode="normal" in2="BackgroundImageFix" result="effect1_dropShadow"/>
<feBlend mode="normal" in="SourceGraphic" in2="effect1_dropShadow" result="shape"/>
</filter>
<filter id="filter8_d" x="897.884" y="95.4763" width="279.962" height="279.963" filterUnits="userSpaceOnUse" color-interpolation-filters="sRGB">
<feFlood flood-opacity="0" result="BackgroundImageFix"/>
<feColorMatrix in="SourceAlpha" type="matrix" values="0 0 0 0 0 0 0 0 0 0 0 0 0 0 0 0 0 0 127 0"/>
<feOffset dx="22.9839" dy="35.9748"/>
<feGaussianBlur stdDeviation="47.9664"/>
<feColorMatrix type="matrix" values="0 0 0 0 0.211765 0 0 0 0 0.258824 0 0 0 0 0.313726 0 0 0 0.122 0"/>
<feBlend mode="normal" in2="BackgroundImageFix" result="effect1_dropShadow"/>
<feBlend mode="normal" in="SourceGraphic" in2="effect1_dropShadow" result="shape"/>
</filter>
<filter id="filter9_d" x="13.5282" y="301.437" width="329.383" height="225.996" filterUnits="userSpaceOnUse" color-interpolation-filters="sRGB">
<feFlood flood-opacity="0" result="BackgroundImageFix"/>
<feColorMatrix in="SourceAlpha" type="matrix" values="0 0 0 0 0 0 0 0 0 0 0 0 0 0 0 0 0 0 127 0"/>
<feOffset dy="20.0872"/>
<feGaussianBlur stdDeviation="13.0567"/>
<feColorMatrix type="matrix" values="0 0 0 0 0.211765 0 0 0 0 0.258824 0 0 0 0 0.313726 0 0 0 0.059 0"/>
<feBlend mode="normal" in2="BackgroundImageFix" result="effect1_dropShadow"/>
<feBlend mode="normal" in="SourceGraphic" in2="effect1_dropShadow" result="shape"/>
</filter>
<filter id="filter10_d" x="60.9455" y="383.479" width="22.0945" height="21.1791" filterUnits="userSpaceOnUse" color-interpolation-filters="sRGB">
<feFlood flood-opacity="0" result="BackgroundImageFix"/>
<feColorMatrix in="SourceAlpha" type="matrix" values="0 0 0 0 0 0 0 0 0 0 0 0 0 0 0 0 0 0 127 0"/>
<feOffset dy="3.01308"/>
<feGaussianBlur stdDeviation="3.01308"/>
<feColorMatrix type="matrix" values="0 0 0 0 0.133333 0 0 0 0 0.835294 0 0 0 0 0.345098 0 0 0 0.302 0"/>
<feBlend mode="normal" in2="BackgroundImageFix" result="effect1_dropShadow"/>
<feBlend mode="normal" in="SourceGraphic" in2="effect1_dropShadow" result="shape"/>
</filter>
<filter id="filter11_d" x="175.515" y="396.614" width="113.449" height="80.3785" filterUnits="userSpaceOnUse" color-interpolation-filters="sRGB">
<feFlood flood-opacity="0" result="BackgroundImageFix"/>
<feColorMatrix in="SourceAlpha" type="matrix" values="0 0 0 0 0 0 0 0 0 0 0 0 0 0 0 0 0 0 127 0"/>
<feOffset dy="3.01308"/>
<feGaussianBlur stdDeviation="3.01308"/>
<feColorMatrix type="matrix" values="0 0 0 0 0.145098 0 0 0 0 0.835294 0 0 0 0 0.909804 0 0 0 0.451 0"/>
<feBlend mode="normal" in2="BackgroundImageFix" result="effect1_dropShadow"/>
<feBlend mode="normal" in="SourceGraphic" in2="effect1_dropShadow" result="shape"/>
</filter>
<filter id="filter12_d" x="253.023" y="204.703" width="329.383" height="225.996" filterUnits="userSpaceOnUse" color-interpolation-filters="sRGB">
<feFlood flood-opacity="0" result="BackgroundImageFix"/>
<feColorMatrix in="SourceAlpha" type="matrix" values="0 0 0 0 0 0 0 0 0 0 0 0 0 0 0 0 0 0 127 0"/>
<feOffset dy="20.0872"/>
<feGaussianBlur stdDeviation="13.0567"/>
<feColorMatrix type="matrix" values="0 0 0 0 0.211765 0 0 0 0 0.258824 0 0 0 0 0.313726 0 0 0 0.059 0"/>
<feBlend mode="normal" in2="BackgroundImageFix" result="effect1_dropShadow"/>
<feBlend mode="normal" in="SourceGraphic" in2="effect1_dropShadow" result="shape"/>
</filter>
<filter id="filter13_d" x="300.623" y="285.833" width="22.0945" height="21.1791" filterUnits="userSpaceOnUse" color-interpolation-filters="sRGB">
<feFlood flood-opacity="0" result="BackgroundImageFix"/>
<feColorMatrix in="SourceAlpha" type="matrix" values="0 0 0 0 0 0 0 0 0 0 0 0 0 0 0 0 0 0 127 0"/>
<feOffset dy="3.01308"/>
<feGaussianBlur stdDeviation="3.01308"/>
<feColorMatrix type="matrix" values="0 0 0 0 0.964706 0 0 0 0 0.196078 0 0 0 0 0.552941 0 0 0 0.302 0"/>
<feBlend mode="normal" in2="BackgroundImageFix" result="effect1_dropShadow"/>
<feBlend mode="normal" in="SourceGraphic" in2="effect1_dropShadow" result="shape"/>
</filter>
<filter id="filter14_d" x="416.506" y="304.821" width="110.918" height="70.9343" filterUnits="userSpaceOnUse" color-interpolation-filters="sRGB">
<feFlood flood-opacity="0" result="BackgroundImageFix"/>
<feColorMatrix in="SourceAlpha" type="matrix" values="0 0 0 0 0 0 0 0 0 0 0 0 0 0 0 0 0 0 127 0"/>
<feOffset dy="3.01308"/>
<feGaussianBlur stdDeviation="3.01308"/>
<feColorMatrix type="matrix" values="0 0 0 0 0.964706 0 0 0 0 0.196078 0 0 0 0 0.552941 0 0 0 0.451 0"/>
<feBlend mode="normal" in2="BackgroundImageFix" result="effect1_dropShadow"/>
<feBlend mode="normal" in="SourceGraphic" in2="effect1_dropShadow" result="shape"/>
</filter>
<filter id="filter15_d" x="-43.5238" y="128.643" width="329.383" height="225.996" filterUnits="userSpaceOnUse" color-interpolation-filters="sRGB">
<feFlood flood-opacity="0" result="BackgroundImageFix"/>
<feColorMatrix in="SourceAlpha" type="matrix" values="0 0 0 0 0 0 0 0 0 0 0 0 0 0 0 0 0 0 127 0"/>
<feOffset dy="20.0872"/>
<feGaussianBlur stdDeviation="13.0567"/>
<feColorMatrix type="matrix" values="0 0 0 0 0.211765 0 0 0 0 0.258824 0 0 0 0 0.313726 0 0 0 0.059 0"/>
<feBlend mode="normal" in2="BackgroundImageFix" result="effect1_dropShadow"/>
<feBlend mode="normal" in="SourceGraphic" in2="effect1_dropShadow" result="shape"/>
</filter>
<filter id="filter16_d" x="3.89352" y="210.686" width="22.0945" height="21.1791" filterUnits="userSpaceOnUse" color-interpolation-filters="sRGB">
<feFlood flood-opacity="0" result="BackgroundImageFix"/>
<feColorMatrix in="SourceAlpha" type="matrix" values="0 0 0 0 0 0 0 0 0 0 0 0 0 0 0 0 0 0 127 0"/>
<feOffset dy="3.01308"/>
<feGaussianBlur stdDeviation="3.01308"/>
<feColorMatrix type="matrix" values="0 0 0 0 0.133333 0 0 0 0 0.835294 0 0 0 0 0.345098 0 0 0 0.302 0"/>
<feBlend mode="normal" in2="BackgroundImageFix" result="effect1_dropShadow"/>
<feBlend mode="normal" in="SourceGraphic" in2="effect1_dropShadow" result="shape"/>
</filter>
<filter id="filter17_d" x="120.291" y="228.691" width="110.314" height="68.6879" filterUnits="userSpaceOnUse" color-interpolation-filters="sRGB">
<feFlood flood-opacity="0" result="BackgroundImageFix"/>
<feColorMatrix in="SourceAlpha" type="matrix" values="0 0 0 0 0 0 0 0 0 0 0 0 0 0 0 0 0 0 127 0"/>
<feOffset dy="3.01308"/>
<feGaussianBlur stdDeviation="3.01308"/>
<feColorMatrix type="matrix" values="0 0 0 0 0.262745 0 0 0 0 0.482353 0 0 0 0 1 0 0 0 0.451 0"/>
<feBlend mode="normal" in2="BackgroundImageFix" result="effect1_dropShadow"/>
<feBlend mode="normal" in="SourceGraphic" in2="effect1_dropShadow" result="shape"/>
</filter>
<filter id="filter18_d" x="-147.606" y="419.707" width="329.383" height="225.996" filterUnits="userSpaceOnUse" color-interpolation-filters="sRGB">
<feFlood flood-opacity="0" result="BackgroundImageFix"/>
<feColorMatrix in="SourceAlpha" type="matrix" values="0 0 0 0 0 0 0 0 0 0 0 0 0 0 0 0 0 0 127 0"/>
<feOffset dy="20.0872"/>
<feGaussianBlur stdDeviation="13.0567"/>
<feColorMatrix type="matrix" values="0 0 0 0 0.211765 0 0 0 0 0.258824 0 0 0 0 0.313726 0 0 0 0.059 0"/>
<feBlend mode="normal" in2="BackgroundImageFix" result="effect1_dropShadow"/>
<feBlend mode="normal" in="SourceGraphic" in2="effect1_dropShadow" result="shape"/>
</filter>
<filter id="filter19_d" x="16.1276" y="524.625" width="109.089" height="64.1163" filterUnits="userSpaceOnUse" color-interpolation-filters="sRGB">
<feFlood flood-opacity="0" result="BackgroundImageFix"/>
<feColorMatrix in="SourceAlpha" type="matrix" values="0 0 0 0 0 0 0 0 0 0 0 0 0 0 0 0 0 0 127 0"/>
<feOffset dy="3.01308"/>
<feGaussianBlur stdDeviation="3.01308"/>
<feColorMatrix type="matrix" values="0 0 0 0 1 0 0 0 0 0.729412 0 0 0 0 0 0 0 0 0.451 0"/>
<feBlend mode="normal" in2="BackgroundImageFix" result="effect1_dropShadow"/>
<feBlend mode="normal" in="SourceGraphic" in2="effect1_dropShadow" result="shape"/>
</filter>
<clipPath id="clip0">
<rect width="1342" height="712" fill="white"/>
</clipPath>
</defs>
</svg>
