<svg width="680" height="720" viewBox="0 0 680 720" fill="none" xmlns="http://www.w3.org/2000/svg">
<g clip-path="url(#clip0)">
<g opacity="0.4" filter="url(#filter0_d)">
<path d="M757 384.5C757 236.212 636.788 116 488.5 116C340.212 116 220 236.212 220 384.5C220 532.788 340.212 653 488.5 653C636.788 653 757 532.788 757 384.5Z" fill="white"/>
</g>
<g opacity="0.64" filter="url(#filter1_d)">
<path opacity="0.64" d="M693 384.5C693 271.558 601.442 180 488.5 180C375.558 180 284 271.558 284 384.5C284 497.442 375.558 589 488.5 589C601.442 589 693 497.442 693 384.5Z" fill="white"/>
</g>
<g opacity="0.72" filter="url(#filter2_d)">
<path d="M637 384.5C637 302.486 570.514 236 488.5 236C406.486 236 340 302.486 340 384.5C340 466.514 406.486 533 488.5 533C570.514 533 637 466.514 637 384.5Z" fill="white"/>
</g>
<g opacity="0.8" filter="url(#filter3_d)">
<path d="M601 384.5C601 322.368 550.632 272 488.5 272C426.368 272 376 322.368 376 384.5C376 446.632 426.368 497 488.5 497C550.632 497 601 446.632 601 384.5Z" fill="white"/>
</g>
<path d="M443.246 253.014L577.507 289.831L487.677 378.763H340.356L443.246 253.014Z" fill="url(#paint0_radial)"/>
<path style="mix-blend-mode:screen" d="M539.03 322.103C515.742 298.995 481.07 308.211 458.767 314.187C450.455 316.414 460.513 312.547 482.313 308.682C509.451 303.941 536.996 301.929 564.535 302.675L541.508 325.475C540.75 324.302 539.922 323.176 539.03 322.103V322.103Z" fill="url(#paint1_radial)"/>
<g style="mix-blend-mode:color-burn">
<path d="M539.03 322.103C515.742 298.995 481.07 308.211 458.767 314.187C450.455 316.414 460.513 312.547 482.313 308.682C501.868 305.213 530.868 301.745 552.643 314.449L541.508 325.471C540.75 324.3 539.922 323.175 539.03 322.103V322.103Z" fill="#437BFF"/>
</g>
<path d="M458.753 314.167C481.058 308.186 515.732 298.964 539.026 322.071C540.09 322.659 579.279 381.63 580.507 386.21C583.152 396.081 551.566 433.128 509.953 444.285C468.339 455.442 422.457 446.486 419.811 436.617C418.443 431.514 405.561 367.95 405.56 367.948C410.59 340.694 438.653 319.556 458.753 314.167Z" fill="url(#paint2_radial)"/>
<path d="M570.054 368.633C575.697 377.485 580.106 384.718 580.505 386.206C583.153 396.081 551.566 433.128 509.953 444.285C468.34 455.442 422.457 446.486 419.811 436.617C419.362 434.943 417.674 426.98 415.561 416.798C413.352 406.162 434.519 382.463 474.671 370.404C509.991 359.799 564.282 359.589 570.054 368.633Z" fill="url(#paint3_radial)"/>
<path d="M480.365 388.543C521.982 375.385 577.861 376.339 580.507 386.209C583.153 396.078 551.566 433.128 509.953 444.285C468.34 455.442 422.457 446.486 419.811 436.617C417.165 426.747 438.751 401.701 480.365 388.543Z" fill="url(#paint4_radial)"/>
<g style="mix-blend-mode:screen">
<path d="M539.349 279.367C539.349 279.367 539.11 278.016 542.049 278.344C542.904 278.445 543.72 278.76 544.422 279.261C545.123 279.761 545.686 280.431 546.06 281.207C546.06 281.207 555.285 301.931 535.19 321.378C515.095 340.825 465.678 359 465.678 359V353.685C465.678 353.685 513.908 335.873 532.326 317.294C541.719 307.819 543.358 298.145 542.682 290.656C542.34 286.707 541.207 282.868 539.349 279.367V279.367Z" fill="#437BFF"/>
</g>
<g filter="url(#filter4_d)">
<path d="M539.349 279.367C539.349 279.367 539.11 278.016 542.049 278.344C542.904 278.445 543.72 278.76 544.422 279.261C545.123 279.761 545.686 280.431 546.06 281.207C546.06 281.207 555.285 301.931 535.19 321.378C515.095 340.825 465.678 359 465.678 359V353.685C465.678 353.685 513.908 335.873 532.326 317.294C541.719 307.819 543.358 298.145 542.682 290.656C542.34 286.707 541.207 282.868 539.349 279.367V279.367Z" fill="url(#paint5_radial)"/>
</g>
<g style="mix-blend-mode:screen">
<path d="M465.678 351.948C466.672 352.048 467.064 358.026 466.478 359.791C465.892 361.556 457.948 366.851 452.948 366.36C447.948 365.869 441.673 354.693 444.712 351.947C447.751 349.201 465.678 351.948 465.678 351.948Z" fill="#437BFF"/>
</g>
<g filter="url(#filter5_d)">
<path d="M465.678 351.948C466.672 352.048 467.064 358.026 466.478 359.791C465.892 361.556 457.948 366.851 452.948 366.36C447.948 365.869 441.673 354.693 444.712 351.947C447.751 349.201 465.678 351.948 465.678 351.948Z" fill="url(#paint6_radial)"/>
</g>
<g style="mix-blend-mode:screen" filter="url(#filter6_f)">
<path d="M390.5 410C425.018 410 453 382.018 453 347.5C453 312.982 425.018 285 390.5 285C355.982 285 328 312.982 328 347.5C328 382.018 355.982 410 390.5 410Z" fill="url(#paint7_radial)" style="mix-blend-mode:screen"/>
</g>
<g style="mix-blend-mode:screen" opacity="0.8" filter="url(#filter7_f)">
<path d="M390.5 497C473.067 497 540 430.067 540 347.5C540 264.933 473.067 198 390.5 198C307.933 198 241 264.933 241 347.5C241 430.067 307.933 497 390.5 497Z" fill="url(#paint8_radial)" style="mix-blend-mode:screen"/>
</g>
</g>
<defs>
<filter id="filter0_d" x="124" y="-4" width="729" height="729" filterUnits="userSpaceOnUse" color-interpolation-filters="sRGB">
<feFlood flood-opacity="0" result="BackgroundImageFix"/>
<feColorMatrix in="SourceAlpha" type="matrix" values="0 0 0 0 0 0 0 0 0 0 0 0 0 0 0 0 0 0 127 0"/>
<feOffset dy="-24"/>
<feGaussianBlur stdDeviation="48"/>
<feColorMatrix type="matrix" values="0 0 0 0 0.145098 0 0 0 0 0.835294 0 0 0 0 0.909804 0 0 0 0.08 0"/>
<feBlend mode="normal" in2="BackgroundImageFix" result="effect1_dropShadow"/>
<feBlend mode="normal" in="SourceGraphic" in2="effect1_dropShadow" result="shape"/>
</filter>
<filter id="filter1_d" x="220" y="92" width="537" height="537" filterUnits="userSpaceOnUse" color-interpolation-filters="sRGB">
<feFlood flood-opacity="0" result="BackgroundImageFix"/>
<feColorMatrix in="SourceAlpha" type="matrix" values="0 0 0 0 0 0 0 0 0 0 0 0 0 0 0 0 0 0 127 0"/>
<feOffset dy="-24"/>
<feGaussianBlur stdDeviation="32"/>
<feColorMatrix type="matrix" values="0 0 0 0 0.145098 0 0 0 0 0.835294 0 0 0 0 0.909804 0 0 0 0.161 0"/>
<feBlend mode="normal" in2="BackgroundImageFix" result="effect1_dropShadow"/>
<feBlend mode="normal" in="SourceGraphic" in2="effect1_dropShadow" result="shape"/>
</filter>
<filter id="filter2_d" x="276" y="148" width="425" height="425" filterUnits="userSpaceOnUse" color-interpolation-filters="sRGB">
<feFlood flood-opacity="0" result="BackgroundImageFix"/>
<feColorMatrix in="SourceAlpha" type="matrix" values="0 0 0 0 0 0 0 0 0 0 0 0 0 0 0 0 0 0 127 0"/>
<feOffset dy="-24"/>
<feGaussianBlur stdDeviation="32"/>
<feColorMatrix type="matrix" values="0 0 0 0 0.145098 0 0 0 0 0.835294 0 0 0 0 0.909804 0 0 0 0.161 0"/>
<feBlend mode="normal" in2="BackgroundImageFix" result="effect1_dropShadow"/>
<feBlend mode="normal" in="SourceGraphic" in2="effect1_dropShadow" result="shape"/>
</filter>
<filter id="filter3_d" x="312" y="184" width="353" height="353" filterUnits="userSpaceOnUse" color-interpolation-filters="sRGB">
<feFlood flood-opacity="0" result="BackgroundImageFix"/>
<feColorMatrix in="SourceAlpha" type="matrix" values="0 0 0 0 0 0 0 0 0 0 0 0 0 0 0 0 0 0 127 0"/>
<feOffset dy="-24"/>
<feGaussianBlur stdDeviation="32"/>
<feColorMatrix type="matrix" values="0 0 0 0 0.145098 0 0 0 0 0.835294 0 0 0 0 0.909804 0 0 0 0.161 0"/>
<feBlend mode="normal" in2="BackgroundImageFix" result="effect1_dropShadow"/>
<feBlend mode="normal" in="SourceGraphic" in2="effect1_dropShadow" result="shape"/>
</filter>
<filter id="filter4_d" x="459.678" y="274.293" width="98.4956" height="96.7071" filterUnits="userSpaceOnUse" color-interpolation-filters="sRGB">
<feFlood flood-opacity="0" result="BackgroundImageFix"/>
<feColorMatrix in="SourceAlpha" type="matrix" values="0 0 0 0 0 0 0 0 0 0 0 0 0 0 0 0 0 0 127 0"/>
<feOffset dx="2" dy="4"/>
<feGaussianBlur stdDeviation="4"/>
<feColorMatrix type="matrix" values="0 0 0 0 0.262745 0 0 0 0 0.482353 0 0 0 0 1 0 0 0 0.239 0"/>
<feBlend mode="normal" in2="BackgroundImageFix" result="effect1_dropShadow"/>
<feBlend mode="normal" in="SourceGraphic" in2="effect1_dropShadow" result="shape"/>
</filter>
<filter id="filter5_d" x="437.915" y="346.727" width="38.838" height="31.6652" filterUnits="userSpaceOnUse" color-interpolation-filters="sRGB">
<feFlood flood-opacity="0" result="BackgroundImageFix"/>
<feColorMatrix in="SourceAlpha" type="matrix" values="0 0 0 0 0 0 0 0 0 0 0 0 0 0 0 0 0 0 127 0"/>
<feOffset dx="2" dy="4"/>
<feGaussianBlur stdDeviation="4"/>
<feColorMatrix type="matrix" values="0 0 0 0 0.262745 0 0 0 0 0.482353 0 0 0 0 1 0 0 0 0.239 0"/>
<feBlend mode="normal" in2="BackgroundImageFix" result="effect1_dropShadow"/>
<feBlend mode="normal" in="SourceGraphic" in2="effect1_dropShadow" result="shape"/>
</filter>
<filter id="filter6_f" x="268" y="225" width="245" height="245" filterUnits="userSpaceOnUse" color-interpolation-filters="sRGB">
<feFlood flood-opacity="0" result="BackgroundImageFix"/>
<feBlend mode="normal" in="SourceGraphic" in2="BackgroundImageFix" result="shape"/>
<feGaussianBlur stdDeviation="30" result="effect1_foregroundBlur"/>
</filter>
<filter id="filter7_f" x="181" y="138" width="419" height="419" filterUnits="userSpaceOnUse" color-interpolation-filters="sRGB">
<feFlood flood-opacity="0" result="BackgroundImageFix"/>
<feBlend mode="normal" in="SourceGraphic" in2="BackgroundImageFix" result="shape"/>
<feGaussianBlur stdDeviation="30" result="effect1_foregroundBlur"/>
</filter>
<radialGradient id="paint0_radial" cx="0" cy="0" r="1" gradientUnits="userSpaceOnUse" gradientTransform="translate(514.662 4829.86) scale(137.785 149.189)">
<stop stop-color="#25D5E8"/>
<stop offset="1" stop-color="#82E397"/>
</radialGradient>
<radialGradient id="paint1_radial" cx="0" cy="0" r="1" gradientUnits="userSpaceOnUse" gradientTransform="translate(502.919 362.678) scale(63.1376 27.2296)">
<stop stop-color="#437BFF"/>
<stop offset="1" stop-color="#25D5E8" stop-opacity="0.161"/>
</radialGradient>
<radialGradient id="paint2_radial" cx="0" cy="0" r="1" gradientUnits="userSpaceOnUse" gradientTransform="translate(429.547 348.177) rotate(-15.0089) scale(127.211 105.037)">
<stop stop-color="#FBF432"/>
<stop offset="1" stop-color="#FFBA00"/>
</radialGradient>
<radialGradient id="paint3_radial" cx="0" cy="0" r="1" gradientUnits="userSpaceOnUse" gradientTransform="translate(423.38 394.701) rotate(-15.0089) scale(241.295 216.487)">
<stop stop-color="#FFBA00"/>
<stop offset="0.33" stop-color="#EBC018"/>
<stop offset="1" stop-color="#82E397"/>
</radialGradient>
<radialGradient id="paint4_radial" cx="0" cy="0" r="1" gradientUnits="userSpaceOnUse" gradientTransform="translate(486.273 368.718) rotate(-15.0089) scale(79.5907 71.9015)">
<stop stop-color="#437BFF"/>
<stop offset="1" stop-color="#E732FB"/>
</radialGradient>
<radialGradient id="paint5_radial" cx="0" cy="0" r="1" gradientUnits="userSpaceOnUse" gradientTransform="translate(538.026 697.431) scale(77.1334 82.7809)">
<stop stop-color="#437BFF"/>
<stop offset="1" stop-color="#E732FB"/>
</radialGradient>
<radialGradient id="paint6_radial" cx="0" cy="0" r="1" gradientUnits="userSpaceOnUse" gradientTransform="translate(447.043 172.351) scale(18.3846 12.0808)">
<stop stop-color="white"/>
<stop offset="1" stop-color="#F2F1F9"/>
</radialGradient>
<radialGradient id="paint7_radial" cx="0" cy="0" r="1" gradientUnits="userSpaceOnUse" gradientTransform="translate(390.5 347.5) scale(62.5)">
<stop stop-color="#25D5E8"/>
<stop offset="1" stop-color="#F6328D"/>
</radialGradient>
<radialGradient id="paint8_radial" cx="0" cy="0" r="1" gradientUnits="userSpaceOnUse" gradientTransform="translate(390.5 347.5) scale(149.5)">
<stop stop-color="#25D5E8"/>
<stop offset="1" stop-color="#25D5E8"/>
</radialGradient>
<clipPath id="clip0">
<rect width="680" height="720" fill="white"/>
</clipPath>
</defs>
</svg>
