<svg width="1366" height="1076" viewBox="0 0 1366 1076" fill="none" xmlns="http://www.w3.org/2000/svg">
<g clip-path="url(#clip0)">
<path d="M1377 0H0V1076H1377V0Z" fill="url(#paint0_linear)"/>
<g opacity="0.8" filter="url(#filter0_f)">
<path d="M1102 637C1132.93 637 1158 611.928 1158 581C1158 550.072 1132.93 525 1102 525C1071.07 525 1046 550.072 1046 581C1046 611.928 1071.07 637 1102 637Z" fill="white"/>
</g>
<g opacity="0.8" filter="url(#filter1_f)">
<path d="M683 714C834.878 714 958 590.878 958 439C958 287.122 834.878 164 683 164C531.122 164 408 287.122 408 439C408 590.878 531.122 714 683 714Z" fill="url(#paint1_radial)"/>
</g>
<path style="mix-blend-mode:overlay" opacity="0.8" d="M608.565 685.224L618.347 659.57C616.289 660.678 614.009 661.311 611.675 661.422C609.34 661.534 607.01 661.121 604.856 660.214C598.54 657.806 594.473 653.584 592.716 647.682C590.959 641.78 591.656 634.7 594.842 626.343L595.142 625.566C598.366 617.111 602.561 611.366 607.8 608.131C613 604.994 618.75 604.515 625.067 606.923C627.534 607.81 629.754 609.274 631.539 611.194C633.324 613.114 634.623 615.434 635.328 617.959L638.009 612.971L652.391 618.455L624.599 691.338L608.565 685.224ZM615.136 623.624C613.338 626.452 611.883 629.484 610.802 632.656C608.913 637.612 608.26 641.37 608.802 644.027C609.048 645.28 609.627 646.443 610.479 647.395C611.331 648.346 612.423 649.05 613.641 649.433C617.241 650.805 620.282 650.407 622.68 648.204L630.461 627.797C630.138 624.557 628.13 622.233 624.437 620.826C623.408 620.412 622.311 620.191 621.202 620.172C618.865 620.168 616.864 621.327 615.136 623.619V623.624ZM738.069 615.81L754.617 611.271L775.249 686.488L758.701 691.027L738.069 615.81ZM679.169 672.087C675.061 668.718 672.909 664.07 672.714 658.144L672.349 633.811C672.271 628.716 671.38 624.881 669.883 622.199L669.869 621.367L686.923 621.106C687.692 622.652 688.276 624.284 688.662 625.968C691.721 621.968 696.062 619.925 701.778 619.838C706.603 619.638 711.33 621.232 715.049 624.311C716.804 625.728 718.217 627.522 719.185 629.56C720.152 631.597 720.649 633.826 720.638 636.082C720.729 642.009 718.615 646.618 714.294 649.701C709.869 652.785 703.549 654.442 695.127 654.572L689.827 654.653L689.871 657.564C689.948 662.555 692.171 665.122 696.539 665.055C700.594 664.993 702.639 662.986 702.582 658.93L719.636 658.669C719.723 661.213 719.167 663.737 718.02 666.01C716.873 668.282 715.172 670.228 713.074 671.669C708.654 675.069 702.856 676.819 695.889 676.925C695.668 676.928 695.448 676.93 695.229 676.93C688.564 676.928 683.149 675.345 679.172 672.083L679.169 672.087ZM697.798 632.068C695.926 632.056 694.091 632.59 692.517 633.605C691.279 634.352 690.257 635.407 689.548 636.667L689.683 645.506L694.674 645.429C700.601 645.338 703.574 642.589 703.494 637.285C703.503 636.571 703.364 635.862 703.086 635.204C702.807 634.546 702.395 633.953 701.876 633.462C700.776 632.522 699.365 632.025 697.918 632.067L697.798 632.068ZM774.541 603.638L789.833 595.852L825.226 665.36L809.934 673.146L774.541 603.638ZM552.685 625.779C547.43 625.498 542.249 623.222 537.134 618.802C531.626 614.043 528.307 608.976 527.11 603.68C526.5 601.217 526.504 598.641 527.121 596.18C527.738 593.718 528.949 591.445 530.649 589.561L543.633 600.78C540.709 604.163 541.012 607.312 544.554 610.371C545.76 611.468 547.324 612.088 548.954 612.114C549.681 612.184 550.414 612.074 551.088 611.793C551.762 611.513 552.356 611.071 552.819 610.506C553.286 609.914 553.591 609.211 553.705 608.466C553.818 607.721 553.737 606.959 553.467 606.255C552.582 603.873 551.272 601.67 549.601 599.755C547.76 597.466 546.08 595.05 544.575 592.527C540.115 584.962 540.375 578.455 545.206 572.867C548.469 569.09 552.774 567.449 558.198 568.012C563.69 568.496 569.038 571.056 574.389 575.679C577.734 578.441 580.409 581.927 582.211 585.873C583.872 589.231 584.581 592.979 584.261 596.711C584.029 600.006 582.761 603.144 580.639 605.676L568.519 595.204C570.072 593.247 570.666 591.287 570.234 589.404C569.63 587.275 568.385 585.384 566.668 583.987C565.331 582.656 563.579 581.821 561.703 581.621C561.002 581.585 560.303 581.711 559.658 581.988C559.013 582.266 558.441 582.687 557.985 583.221C557.517 583.797 557.216 584.491 557.114 585.226C557.012 585.961 557.112 586.71 557.405 587.392C557.974 589.12 559.633 591.654 562.247 595.149C564.475 598.142 566.322 601.401 567.747 604.849C568.796 607.517 569.183 610.399 568.876 613.249C568.511 615.916 567.358 618.413 565.565 620.421C564.127 622.152 562.316 623.535 560.269 624.469C558.221 625.402 555.989 625.861 553.739 625.811C553.392 625.811 553.041 625.8 552.685 625.779ZM845.359 616.919C838.452 616.512 831.887 613.17 825.811 606.893L825.377 606.444C819.377 600.244 816.39 593.722 816.277 586.88C816.17 579.892 819.067 573.613 824.895 567.971C830.495 562.546 836.721 559.852 843.339 559.959C850.031 559.994 856.312 562.744 862.106 568.281L864.206 570.301C867.779 573.899 870.476 578.272 872.089 583.079C873.52 587.467 873.597 592.184 872.31 596.616C870.878 601.306 868.22 605.528 864.61 608.847C859.032 614.247 853.038 616.947 846.51 616.947C846.127 616.946 845.749 616.937 845.358 616.919H845.359ZM834.086 577.46C829.753 581.656 830.766 587.189 837.126 594.06L838.355 595.331C845.227 602.431 850.943 603.699 855.426 599.359C859.536 595.38 858.812 590.147 853.326 583.732L851.156 581.49C847.612 577.829 844.41 575.717 841.625 575.084C840.27 574.795 838.863 574.863 837.542 575.279C836.22 575.696 835.03 576.448 834.085 577.462L834.086 577.46ZM898.092 558.111L905.63 542.004C909.819 543.849 913.223 544.18 915.894 543.134C918.516 541.95 920.824 539.47 922.675 535.514C924.575 531.464 924.43 527.839 922.297 524.544C920.164 521.249 915.797 518.06 909.251 514.88L904.541 512.68C897.382 509.329 891.855 507.891 887.909 508.226C884.057 508.605 881.139 510.914 879.067 515.341C877.349 519.015 876.874 522.238 877.643 525.009C878.507 527.824 880.753 530.139 884.572 532.041L877.034 548.148C872.717 545.973 869.063 542.677 866.457 538.605C863.936 534.508 862.605 529.79 862.615 524.98C862.721 519.574 863.995 514.255 866.351 509.389C870.451 500.629 876.633 495.025 884.759 492.627C892.747 490.28 902.038 491.527 912.494 496.421L915.885 498.009C921.84 500.639 927.15 504.533 931.449 509.421C935.22 513.677 937.584 518.994 938.218 524.645C938.904 530.402 937.891 536.235 935.304 541.424C931.512 549.524 926.26 555.104 919.729 558.018C916.439 559.491 912.874 560.246 909.269 560.235C905.448 560.19 901.664 559.471 898.092 558.111V558.111ZM450.649 356.723L457.463 340.296L513.084 363.368L524.959 334.742L537.639 340.002L518.949 385.055L450.649 356.723ZM519.885 318.693L518.761 317.768C514.731 314.591 511.482 310.534 509.261 305.908C507.247 301.774 506.563 297.117 507.303 292.578C508.164 287.668 510.351 283.086 513.627 279.329C518.518 273.387 524.264 270.17 530.8 269.757C537.336 269.344 543.863 271.888 550.527 277.374L555.667 281.604L534.049 307.861C536.513 309.25 539.377 309.754 542.167 309.289C545.027 308.735 547.583 307.145 549.344 304.824C552.78 300.649 554.044 296.167 552.991 291.393L565.091 291.253C566.025 295.036 565.925 299.002 564.801 302.733C563.593 306.888 561.556 310.755 558.812 314.101C553.459 320.601 547.17 324.319 539.93 325.095C538.937 325.213 537.937 325.272 536.936 325.273C530.901 325.274 525.199 323.067 519.885 318.693ZM529.491 284.439C527.361 284.572 525.477 285.715 523.759 287.803C520.586 291.658 521.239 296.103 525.783 301.054L536.755 287.724L535.711 286.865C534.205 285.382 532.204 284.507 530.092 284.41C529.891 284.411 529.691 284.42 529.491 284.439V284.439ZM831.673 310.9C827.435 306.9 825.254 302.849 825.066 298.956C824.948 294.986 826.742 290.956 830.666 286.798L849.355 266.97L844.284 262.19L852.416 253.563L857.487 258.342L866.903 248.352L879.39 260.122L869.974 270.112L876.558 276.317L868.426 284.945L861.842 278.739L844.579 297.054C843.224 298.492 842.452 299.766 842.487 300.942C842.446 302.046 843.22 303.346 844.81 304.842C845.835 305.836 846.945 306.74 848.126 307.542L839.709 316.473C836.772 315.018 834.065 313.141 831.673 310.9V310.9ZM583.092 285.285C579.177 284.621 575.582 282.072 572.27 277.407L556.495 255.19L550.813 259.225L543.949 249.557L549.631 245.523L541.684 234.33L555.675 224.396L563.623 235.589L571 230.351L577.864 240.018L570.486 245.256L585.057 265.778C586.201 267.389 587.298 268.395 588.457 268.592C589.533 268.849 590.96 268.345 592.741 267.081C593.918 266.271 595.023 265.36 596.041 264.358L603.141 274.365C601.138 276.959 598.765 279.246 596.098 281.151C592.062 284.017 588.275 285.416 584.862 285.416C584.27 285.416 583.678 285.373 583.092 285.285V285.285ZM783.713 272.303L814.249 226.663L827.649 235.626L824.149 241.793C829.577 238.917 834.365 238.868 838.687 241.759C840.045 242.637 841.267 243.708 842.317 244.938L833.21 257.99L828.774 254.521C824.274 251.514 820.501 250.989 817.296 252.974L797.981 281.846L783.713 272.303ZM761.343 262.146C761.152 260.43 761.165 258.697 761.38 256.983C757.134 259.688 752.358 260.118 746.957 258.236C742.355 256.766 738.46 253.643 736.024 249.471C734.863 247.537 734.152 245.367 733.943 243.121C733.734 240.876 734.033 238.612 734.818 236.497C736.767 230.897 740.336 227.297 745.452 225.884C750.667 224.507 757.172 225.121 765.127 227.893L770.135 229.637L771.093 226.887C772.735 222.173 771.529 218.998 767.404 217.562C763.574 216.227 760.959 217.409 759.624 221.239L743.518 215.628C744.311 213.21 745.699 211.03 747.557 209.29C749.414 207.55 751.679 206.306 754.144 205.673C759.462 204.002 765.509 204.346 772.089 206.639C778.669 208.932 783.425 212.35 786.126 216.925C788.827 221.5 789.253 226.605 787.4 232.237L779.394 255.219C777.717 260.031 777.237 263.938 777.723 266.971L777.449 267.757L761.343 262.146ZM751.329 241.257C751.075 241.925 750.963 242.638 750.999 243.352C751.034 244.066 751.217 244.765 751.536 245.404C752.269 246.7 753.468 247.668 754.888 248.113C756.643 248.768 758.55 248.896 760.376 248.483C761.795 248.206 763.118 247.567 764.216 246.627L767.124 238.279L762.41 236.636C761.052 236.131 759.619 235.856 758.17 235.823C754.885 235.823 752.589 237.642 751.329 241.257ZM644.385 255.257C639.14 254.186 634.955 252.133 631.807 248.998C628.524 245.806 626.275 241.703 625.349 237.219L642.811 233.337C643.669 237.195 645.317 239.812 647.753 241.188C650.087 242.588 653.538 242.78 658.108 241.763C660.539 241.348 662.778 240.18 664.508 238.423C665.162 237.621 665.618 236.676 665.837 235.664C666.057 234.653 666.034 233.604 665.771 232.603C665.589 231.451 665.134 230.359 664.443 229.42C663.752 228.48 662.846 227.72 661.8 227.203C659.657 226.188 656.194 225.467 651.286 224.959C647.237 224.579 643.217 223.942 639.249 223.05C628.871 220.456 622.802 215.199 621.019 207.179C620.099 203.388 620.487 199.397 622.119 195.853C624.006 192.021 626.89 188.768 630.467 186.434C634.663 183.7 639.325 181.76 644.222 180.711C649.024 179.549 654.023 179.456 658.864 180.439C663.116 181.229 667.043 183.245 670.164 186.239C673.264 189.158 675.377 192.971 676.211 197.146L658.854 201.011C658.647 199.729 658.158 198.508 657.423 197.437C656.687 196.366 655.724 195.472 654.601 194.818C652.514 193.578 649.897 193.308 646.75 194.007C643.704 194.684 641.301 195.857 639.891 197.662C639.173 198.423 638.652 199.348 638.375 200.357C638.097 201.366 638.072 202.428 638.301 203.449C638.73 205.378 640.106 206.776 642.373 207.871C644.743 208.942 648.533 209.698 653.873 210.216C658.455 210.569 662.99 211.381 667.409 212.641C676.118 215.392 681.453 220.705 683.209 228.624C683.947 231.488 683.978 234.488 683.3 237.366C682.622 240.245 681.256 242.916 679.318 245.15C675.438 249.742 669.245 253.036 661.018 254.864C657.933 255.561 654.781 255.917 651.618 255.925C649.192 255.924 646.771 255.7 644.385 255.255V255.257ZM716.319 251.828C710.509 251.428 706.25 249.683 703.632 246.795C701.021 243.802 699.851 239.554 700.239 233.847L702.089 206.662L695.137 206.189L695.937 194.361L702.889 194.833L703.821 181.133L720.949 182.3L720.017 196L729.044 196.615L728.244 208.443L719.217 207.829L717.508 232.939C717.374 234.91 717.586 236.384 718.359 237.271C719.026 238.15 720.45 238.664 722.632 238.813C724.055 238.929 725.486 238.922 726.908 238.791L726.075 251.035C723.592 251.607 721.052 251.898 718.504 251.904C717.777 251.901 717.049 251.875 716.319 251.826V251.828Z" fill="url(#paint2_radial)"/>
<g opacity="0.8" filter="url(#filter2_f)">
<path d="M1102 637C1132.93 637 1158 611.928 1158 581C1158 550.072 1132.93 525 1102 525C1071.07 525 1046 550.072 1046 581C1046 611.928 1071.07 637 1102 637Z" fill="url(#paint3_radial)"/>
</g>
<g opacity="0.8" filter="url(#filter3_f)">
<path d="M1102 637C1132.93 637 1158 611.928 1158 581C1158 550.072 1132.93 525 1102 525C1071.07 525 1046 550.072 1046 581C1046 611.928 1071.07 637 1102 637Z" fill="white"/>
</g>
<g opacity="0.64" filter="url(#filter4_f)">
<path d="M374 960C422.601 960 462 920.601 462 872C462 823.399 422.601 784 374 784C325.399 784 286 823.399 286 872C286 920.601 325.399 960 374 960Z" fill="url(#paint4_radial)"/>
</g>
<g opacity="0.64" filter="url(#filter5_f)">
<path d="M374 960C422.601 960 462 920.601 462 872C462 823.399 422.601 784 374 784C325.399 784 286 823.399 286 872C286 920.601 325.399 960 374 960Z" fill="white"/>
</g>
<g style="mix-blend-mode:multiply" opacity="0.56">
<path d="M706 467.955C706 467.955 784.83 546.742 831.7 522.191C878.57 497.64 945.53 446.304 974.545 522.191C1003.56 598.078 983.473 816.809 1128.55 778.866C1273.63 740.923 1434.33 537.814 1472.27 738.69C1510.22 939.566 1275.19 1467.87 799.338 1337.3C323.485 1206.73 674.572 1021.03 738.406 948.493C802.24 875.954 787.732 875.954 674.572 815.022C561.412 754.09 697.1 583.14 688.513 522.19C679.926 461.24 698.402 455.783 674.572 467.954C650.742 480.125 372.232 536.764 409.952 638.608C447.672 740.452 379.776 921.508 277.932 846.068C176.088 770.628 145.912 691.416 21.4321 710.276C-103.048 729.136 -329.368 649.924 -201.116 423.604C-72.8639 197.284 119.506 133.16 161 246.32C202.494 359.48 237.632 413.564 303.667 344.888C369.702 276.212 485.922 121.338 508.373 246.32C530.824 371.302 640.44 433.374 657.609 421.488C674.778 409.602 701.192 406.96 668.174 344.888C635.156 282.816 544.294 184.821 590.65 121.3C637.006 57.779 520.257 9.7 439.564 -21.2C358.871 -52.1 1047.34 -45.242 1047.34 -45.242C1047.34 -45.242 1078.25 95.543 1004.42 98.977C930.593 102.411 846.466 85.242 873.936 165.936C901.406 246.63 889.388 317.022 815.562 315.305C741.736 313.588 679.928 409.734 717.699 409.734" stroke="#F6328D"/>
</g>
<g style="mix-blend-mode:screen">
<path d="M706 467.955C706 467.955 784.83 546.742 831.7 522.191C878.57 497.64 945.53 446.304 974.545 522.191C1003.56 598.078 983.473 816.809 1128.55 778.866C1273.63 740.923 1434.33 537.814 1472.27 738.69C1510.22 939.566 1275.19 1467.87 799.338 1337.3C323.485 1206.73 674.572 1021.03 738.406 948.493C802.24 875.954 787.732 875.954 674.572 815.022C561.412 754.09 697.1 583.14 688.513 522.19C679.926 461.24 698.402 455.783 674.572 467.954C650.742 480.125 372.232 536.764 409.952 638.608C447.672 740.452 379.776 921.508 277.932 846.068C176.088 770.628 145.912 691.416 21.4321 710.276C-103.048 729.136 -329.368 649.924 -201.116 423.604C-72.8639 197.284 119.506 133.16 161 246.32C202.494 359.48 237.632 413.564 303.667 344.888C369.702 276.212 485.922 121.338 508.373 246.32C530.824 371.302 640.44 433.374 657.609 421.488C674.778 409.602 701.192 406.96 668.174 344.888C635.156 282.816 544.294 184.821 590.65 121.3C637.006 57.779 520.257 9.7 439.564 -21.2C358.871 -52.1 1047.34 -45.242 1047.34 -45.242C1047.34 -45.242 1078.25 95.543 1004.42 98.977C930.593 102.411 846.466 85.242 873.936 165.936C901.406 246.63 889.388 317.022 815.562 315.305C741.736 313.588 679.928 409.734 717.699 409.734" stroke="#F6328D"/>
</g>
<g opacity="0.72" filter="url(#filter6_f)">
<path d="M0.5 394C38.8838 394 70 362.884 70 324.5C70 286.116 38.8838 255 0.5 255C-37.8838 255 -69 286.116 -69 324.5C-69 362.884 -37.8838 394 0.5 394Z" fill="url(#paint5_radial)"/>
</g>
<g opacity="0.8" filter="url(#filter7_f)">
<path d="M0.5 394C38.8838 394 70 362.884 70 324.5C70 286.116 38.8838 255 0.5 255C-37.8838 255 -69 286.116 -69 324.5C-69 362.884 -37.8838 394 0.5 394Z" fill="white"/>
</g>
<g filter="url(#filter8_f)">
<path d="M683 572C756.454 572 816 512.454 816 439C816 365.546 756.454 306 683 306C609.546 306 550 365.546 550 439C550 512.454 609.546 572 683 572Z" fill="url(#paint6_radial)"/>
</g>
<g filter="url(#filter9_f)">
<path d="M683 518C726.63 518 762 482.63 762 439C762 395.37 726.63 360 683 360C639.37 360 604 395.37 604 439C604 482.63 639.37 518 683 518Z" fill="url(#paint7_radial)"/>
</g>
<path d="M683 505C719.451 505 749 475.451 749 439C749 402.549 719.451 373 683 373C646.549 373 617 402.549 617 439C617 475.451 646.549 505 683 505Z" fill="url(#paint8_radial)"/>
<g filter="url(#filter10_f)">
<path d="M683 481C706.196 481 725 462.196 725 439C725 415.804 706.196 397 683 397C659.804 397 641 415.804 641 439C641 462.196 659.804 481 683 481Z" fill="url(#paint9_radial)"/>
</g>
<g style="mix-blend-mode:overlay" filter="url(#filter11_f)">
<path d="M683 462C695.703 462 706 451.703 706 439C706 426.297 695.703 416 683 416C670.297 416 660 426.297 660 439C660 451.703 670.297 462 683 462Z" fill="url(#paint10_radial)" style="mix-blend-mode:overlay"/>
</g>
<g style="mix-blend-mode:multiply" filter="url(#filter12_f)">
<path d="M629.143 434.8C641.592 428.341 646.928 422.294 649.418 432.609C651.908 442.924 651.552 454.309 661.512 447.909C671.472 441.509 683.565 433.681 688.545 442.574C693.525 451.467 704.907 463.204 704.907 473.164C704.907 483.124 685.344 496.284 674.317 499.13C663.29 501.976 656.888 506.244 649.417 508.022C641.946 509.8 621.317 509.445 615.27 492.016C609.223 474.587 629.143 434.8 629.143 434.8Z" fill="#437BFF"/>
</g>
<g style="mix-blend-mode:screen" filter="url(#filter13_f)">
<path d="M635.768 444.488C643.873 439.908 647.347 435.62 648.968 442.935C650.589 450.25 650.357 458.321 656.842 453.781C663.327 449.241 671.2 443.692 674.442 449.997C677.684 456.302 685.094 464.627 685.094 471.689C685.094 478.751 672.357 488.089 665.179 490.102C658.001 492.115 653.832 495.147 648.969 496.408C644.106 497.669 630.675 497.417 626.738 485.058C622.801 472.699 635.768 444.488 635.768 444.488Z" fill="#FBF432"/>
</g>
<path d="M607.017 453.659L645.91 431.204L651.63 464.747L612.737 487.202L607.017 453.659Z" fill="#00D3BD"/>
<path d="M638.925 508.925L677.818 486.47L651.628 464.745L612.736 487.2L638.925 508.925Z" fill="#25D5E8"/>
<path d="M676.662 440.741L647.493 457.582L667.135 473.876L696.304 457.036L676.662 440.741Z" fill="#437BFF"/>
<path d="M700.594 482.193L671.425 499.034L667.135 473.876L696.304 457.036L700.594 482.193Z" fill="#437BFF"/>
<g style="mix-blend-mode:multiply" filter="url(#filter14_f)">
<path d="M777.306 385.821C813.757 385.821 814.791 360.315 814.791 396.766C814.791 409.966 833.101 447.034 827.651 459.697C824.306 467.468 814.78 461.223 807.13 463.528C794.285 467.401 781.982 475.455 780.863 475.567C778.127 475.841 728.876 472.891 728.876 436.44C728.876 424.411 747.056 429.111 750.218 421.391C756.322 406.482 752.884 385.821 777.306 385.821Z" fill="#437BFF"/>
</g>
<g style="mix-blend-mode:screen" filter="url(#filter15_f)">
<path d="M789.764 408.815C802.497 408.815 802.858 397.202 802.858 413.798C802.858 419.806 809.258 436.685 807.35 442.45C806.182 445.988 802.85 443.145 800.182 444.194C795.695 445.957 791.397 449.624 791.006 449.675C790.05 449.8 772.846 448.457 772.846 431.861C772.846 426.384 779.197 428.524 780.301 425.009C782.434 418.22 781.233 408.815 789.764 408.815Z" fill="#FBF432"/>
</g>
<g style="mix-blend-mode:multiply" filter="url(#filter16_f)">
<path d="M619.975 434.8C632.675 434.8 638.307 436.442 641.043 455.047C642.483 464.834 629.217 472.777 627.363 484C625.78 493.586 639.949 492.259 635.571 498.279C622.869 498.279 607 496.7 607 484C607 471.3 607.273 434.8 619.975 434.8Z" fill="#437BFF"/>
</g>
<path d="M598.5 444C611.429 444 613.913 430.138 622.118 430.332C636.155 430.664 637.269 446.481 637.269 459.209C637.269 466.18 618.248 480.384 619.269 483.629C621.208 489.812 632.586 493.242 630.321 496.463C625.5 503.316 607.81 499 598.5 499C591.207 499 584.212 496.103 579.055 490.945C573.897 485.788 571 478.793 571 471.5C571 464.207 573.897 457.212 579.055 452.055C584.212 446.897 591.207 444 598.5 444V444Z" fill="url(#paint11_linear)"/>
<path d="M598.5 444C611.429 444 613.913 430.138 622.118 430.332C636.155 430.664 637.269 446.481 637.269 459.209C637.269 466.18 618.248 480.384 619.269 483.629C621.208 489.812 632.586 493.242 630.321 496.463C625.5 503.316 607.81 499 598.5 499C591.207 499 584.212 496.103 579.055 490.945C573.897 485.788 571 478.793 571 471.5C571 464.207 573.897 457.212 579.055 452.055C584.212 446.897 591.207 444 598.5 444V444Z" fill="url(#paint12_radial)"/>
<path d="M-16.7271 527.794C-16.7271 527.794 116.373 461.803 288.621 438.315C460.869 414.827 558.974 453.243 558.974 453.243L575.22 508.78C575.22 508.78 508.8 532.974 350.809 627.431C192.818 721.888 -16.7271 986.606 -16.7271 986.606V527.794Z" fill="url(#paint13_radial)"/>
<path d="M-16.7271 527.794C-16.7271 527.794 116.373 461.803 288.621 438.315C460.869 414.827 558.974 453.243 558.974 453.243L575.22 508.78C575.22 508.78 508.8 532.974 350.809 627.431C192.818 721.888 -16.7271 986.606 -16.7271 986.606V527.794Z" fill="url(#paint14_linear)"/>
<path style="mix-blend-mode:overlay" opacity="0.8" d="M-43.667 869.2C-43.667 869.2 41.571 773.463 190.539 677.258C252.694 637.117 343.224 591.69 456.865 546.243C535.382 514.843 576.105 500.162 576.105 500.162L575.22 508.782C575.22 508.782 508.8 532.974 350.809 627.431C192.818 721.888 -16.7271 986.606 -16.7271 986.606L-43.667 869.2Z" fill="url(#paint15_linear)"/>
<path d="M795.038 420.068L805.531 459.226L777.581 472.933L733.219 436.632L771.253 426.441C771.313 426.924 771.406 427.402 771.533 427.872C772.232 430.481 773.939 432.705 776.277 434.055C778.616 435.405 781.395 435.771 784.004 435.072C786.612 434.373 788.836 432.667 790.186 430.328C791.537 427.989 791.902 425.21 791.204 422.602C791.079 422.131 790.921 421.671 790.731 421.223L795.038 420.068Z" fill="#00D3BD"/>
<path d="M805.531 459.226L795.038 420.068L814.709 414.797L826.756 459.757L805.531 459.226Z" fill="#25D5E8"/>
<path d="M795.74 386.17L804.921 420.433L801.233 421.422C800.619 419.141 799.125 417.197 797.08 416.016C795.034 414.836 792.604 414.514 790.322 415.123C788.041 415.737 786.097 417.23 784.916 419.275C783.735 421.321 783.413 423.751 784.022 426.033L750.829 434.927L768.564 388.012L795.74 386.17Z" fill="#437BFF"/>
<path d="M795.74 386.17L804.921 420.433L822.132 415.822L811.591 376.483L795.74 386.17Z" fill="#437BFF"/>
<g style="mix-blend-mode:multiply" filter="url(#filter17_f)">
<path d="M803 406C806.713 406 810.274 407.475 812.899 410.1C815.525 412.726 817 416.287 817 420C817 421.67 811.781 400.322 814.244 399.5C817.01 396.044 819.89 397.476 823.82 406C830.49 420.461 836.3 448.608 821.632 451.761C792.355 458.054 789 427.732 789 420C789 416.287 790.475 412.726 793.101 410.1C795.726 407.475 799.287 406 803 406V406Z" fill="#437BFF"/>
</g>
<path d="M560.087 449.048C569 442.987 585.042 437.64 588.964 449.048C592.886 460.456 601.456 495.633 601.812 500.089C602.168 504.545 580.706 518.131 573.398 510.823C566.09 503.515 551.174 455.109 560.087 449.048Z" fill="url(#paint16_radial)"/>
<path d="M824.061 451.206C827.004 450.526 829.785 449.274 832.244 447.52C834.703 445.766 836.792 443.545 838.393 440.983C839.993 438.422 841.074 435.57 841.572 432.591C842.071 429.612 841.978 426.564 841.298 423.621C838.441 411.247 826.606 395.3 814.228 398.158C810.428 399.035 819.811 409.602 816.809 413.3C815.191 415.291 810.14 406.396 801.667 411.55C791.516 417.724 795.016 427.64 796.477 433.969C797.849 439.913 801.526 445.068 806.699 448.3C811.872 451.533 818.118 452.578 824.061 451.206V451.206Z" fill="url(#paint17_linear)"/>
<path d="M824.061 451.206C827.004 450.526 829.785 449.274 832.244 447.52C834.703 445.766 836.792 443.545 838.393 440.983C839.993 438.422 841.074 435.57 841.572 432.591C842.071 429.612 841.978 426.564 841.298 423.621C838.441 411.247 826.606 395.3 814.228 398.158C810.428 399.035 819.811 409.602 816.809 413.3C815.191 415.291 810.14 406.396 801.667 411.55C791.516 417.724 795.016 427.64 796.477 433.969C797.849 439.913 801.526 445.068 806.699 448.3C811.872 451.533 818.118 452.578 824.061 451.206V451.206Z" fill="url(#paint18_radial)"/>
<path d="M1373 179.5C1373 179.5 1312.21 186.3 1221.22 210.681C1152.36 229.131 1063.56 266.687 1000.85 302.894C892.741 365.306 844.6 401.876 844.6 401.876L851.88 433.644C851.88 433.644 1030.18 402.408 1185.46 417C1340.74 431.592 1373 512 1373 512V179.5Z" fill="url(#paint19_radial)"/>
<path opacity="0.4" d="M1373 179.5C1373 179.5 1312.21 186.3 1221.22 210.681C1152.36 229.131 1063.56 266.687 1000.85 302.894C892.741 365.306 844.6 401.876 844.6 401.876L851.88 433.644C851.88 433.644 1030.18 402.408 1185.46 417C1340.74 431.592 1373 512 1373 512V179.5Z" fill="url(#paint20_radial)"/>
<path style="mix-blend-mode:overlay" opacity="0.4" d="M1373 443.521C1373 443.521 1280.88 372.758 1093.85 382.059C906.832 391.36 850.554 425.777 850.554 425.777L851.875 433.644C851.875 433.644 1030.18 402.408 1185.46 417C1340.74 431.592 1373 512 1373 512V443.521Z" fill="url(#paint21_linear)"/>
<path d="M843.711 400.021C845.293 400.021 856.262 433.772 852.993 435.249C849.724 436.726 842.129 439.89 839.809 439.257C837.489 438.624 828.418 405.189 831.16 401.919C833.902 398.649 843.711 400.021 843.711 400.021Z" fill="url(#paint22_radial)"/>
<g style="mix-blend-mode:overlay" filter="url(#filter18_f)">
<path d="M683 1027C1007.74 1027 1271 763.743 1271 439C1271 114.257 1007.74 -149 683 -149C358.257 -149 95 114.257 95 439C95 763.743 358.257 1027 683 1027Z" fill="url(#paint23_radial)" style="mix-blend-mode:overlay"/>
</g>
<g style="mix-blend-mode:overlay" filter="url(#filter19_f)">
<path d="M683 538C737.676 538 782 493.676 782 439C782 384.324 737.676 340 683 340C628.324 340 584 384.324 584 439C584 493.676 628.324 538 683 538Z" fill="url(#paint24_radial)" style="mix-blend-mode:overlay"/>
</g>
<g opacity="0.8" filter="url(#filter20_f)">
<path d="M924 940C942.778 940 958 924.778 958 906C958 887.222 942.778 872 924 872C905.222 872 890 887.222 890 906C890 924.778 905.222 940 924 940Z" fill="url(#paint25_radial)"/>
</g>
<g opacity="0.4" filter="url(#filter21_f)">
<path d="M279 198C297.778 198 313 182.778 313 164C313 145.222 297.778 130 279 130C260.222 130 245 145.222 245 164C245 182.778 260.222 198 279 198Z" fill="url(#paint26_radial)"/>
</g>
<g opacity="0.8" filter="url(#filter22_f)">
<path d="M924 940C942.778 940 958 924.778 958 906C958 887.222 942.778 872 924 872C905.222 872 890 887.222 890 906C890 924.778 905.222 940 924 940Z" fill="white"/>
</g>
<g opacity="0.4" filter="url(#filter23_f)">
<path d="M279 198C297.778 198 313 182.778 313 164C313 145.222 297.778 130 279 130C260.222 130 245 145.222 245 164C245 182.778 260.222 198 279 198Z" fill="white"/>
</g>
<g filter="url(#filter24_f)">
<path d="M495 66C529.242 66 557 38.2417 557 4C557 -30.2417 529.242 -58 495 -58C460.758 -58 433 -30.2417 433 4C433 38.2417 460.758 66 495 66Z" fill="#FDFEFE"/>
</g>
<g opacity="0.4" filter="url(#filter25_f)">
<path d="M550 86C584.242 86 612 58.2417 612 24C612 -10.2417 584.242 -38 550 -38C515.758 -38 488 -10.2417 488 24C488 58.2417 515.758 86 550 86Z" fill="#FDFEFE"/>
</g>
<g filter="url(#filter26_f)">
<path d="M1043 58C1077.24 58 1105 30.2417 1105 -4C1105 -38.2417 1077.24 -66 1043 -66C1008.76 -66 981 -38.2417 981 -4C981 30.2417 1008.76 58 1043 58Z" fill="#FDFEFE"/>
</g>
<g opacity="0.4" filter="url(#filter27_f)">
<path d="M1040 91C1074.24 91 1102 63.2417 1102 29C1102 -5.24165 1074.24 -33 1040 -33C1005.76 -33 978 -5.24165 978 29C978 63.2417 1005.76 91 1040 91Z" fill="#FDFEFE"/>
</g>
<g filter="url(#filter28_f)">
<path d="M1043 13C1052.39 13 1060 5.38884 1060 -4C1060 -13.3888 1052.39 -21 1043 -21C1033.61 -21 1026 -13.3888 1026 -4C1026 5.38884 1033.61 13 1043 13Z" fill="#FDFEFE"/>
</g>
</g>
<defs>
<filter id="filter0_f" x="926" y="405" width="352" height="352" filterUnits="userSpaceOnUse" color-interpolation-filters="sRGB">
<feFlood flood-opacity="0" result="BackgroundImageFix"/>
<feBlend mode="normal" in="SourceGraphic" in2="BackgroundImageFix" result="shape"/>
<feGaussianBlur stdDeviation="60" result="effect1_foregroundBlur"/>
</filter>
<filter id="filter1_f" x="288" y="44" width="790" height="790" filterUnits="userSpaceOnUse" color-interpolation-filters="sRGB">
<feFlood flood-opacity="0" result="BackgroundImageFix"/>
<feBlend mode="normal" in="SourceGraphic" in2="BackgroundImageFix" result="shape"/>
<feGaussianBlur stdDeviation="60" result="effect1_foregroundBlur"/>
</filter>
<filter id="filter2_f" x="926" y="405" width="352" height="352" filterUnits="userSpaceOnUse" color-interpolation-filters="sRGB">
<feFlood flood-opacity="0" result="BackgroundImageFix"/>
<feBlend mode="normal" in="SourceGraphic" in2="BackgroundImageFix" result="shape"/>
<feGaussianBlur stdDeviation="60" result="effect1_foregroundBlur"/>
</filter>
<filter id="filter3_f" x="926" y="405" width="352" height="352" filterUnits="userSpaceOnUse" color-interpolation-filters="sRGB">
<feFlood flood-opacity="0" result="BackgroundImageFix"/>
<feBlend mode="normal" in="SourceGraphic" in2="BackgroundImageFix" result="shape"/>
<feGaussianBlur stdDeviation="60" result="effect1_foregroundBlur"/>
</filter>
<filter id="filter4_f" x="166" y="664" width="416" height="416" filterUnits="userSpaceOnUse" color-interpolation-filters="sRGB">
<feFlood flood-opacity="0" result="BackgroundImageFix"/>
<feBlend mode="normal" in="SourceGraphic" in2="BackgroundImageFix" result="shape"/>
<feGaussianBlur stdDeviation="60" result="effect1_foregroundBlur"/>
</filter>
<filter id="filter5_f" x="166" y="664" width="416" height="416" filterUnits="userSpaceOnUse" color-interpolation-filters="sRGB">
<feFlood flood-opacity="0" result="BackgroundImageFix"/>
<feBlend mode="normal" in="SourceGraphic" in2="BackgroundImageFix" result="shape"/>
<feGaussianBlur stdDeviation="60" result="effect1_foregroundBlur"/>
</filter>
<filter id="filter6_f" x="-189" y="135" width="379" height="379" filterUnits="userSpaceOnUse" color-interpolation-filters="sRGB">
<feFlood flood-opacity="0" result="BackgroundImageFix"/>
<feBlend mode="normal" in="SourceGraphic" in2="BackgroundImageFix" result="shape"/>
<feGaussianBlur stdDeviation="60" result="effect1_foregroundBlur"/>
</filter>
<filter id="filter7_f" x="-189" y="135" width="379" height="379" filterUnits="userSpaceOnUse" color-interpolation-filters="sRGB">
<feFlood flood-opacity="0" result="BackgroundImageFix"/>
<feBlend mode="normal" in="SourceGraphic" in2="BackgroundImageFix" result="shape"/>
<feGaussianBlur stdDeviation="60" result="effect1_foregroundBlur"/>
</filter>
<filter id="filter8_f" x="492" y="248" width="382" height="382" filterUnits="userSpaceOnUse" color-interpolation-filters="sRGB">
<feFlood flood-opacity="0" result="BackgroundImageFix"/>
<feBlend mode="normal" in="SourceGraphic" in2="BackgroundImageFix" result="shape"/>
<feGaussianBlur stdDeviation="29" result="effect1_foregroundBlur"/>
</filter>
<filter id="filter9_f" x="484" y="240" width="398" height="398" filterUnits="userSpaceOnUse" color-interpolation-filters="sRGB">
<feFlood flood-opacity="0" result="BackgroundImageFix"/>
<feBlend mode="normal" in="SourceGraphic" in2="BackgroundImageFix" result="shape"/>
<feGaussianBlur stdDeviation="60" result="effect1_foregroundBlur"/>
</filter>
<filter id="filter10_f" x="583" y="339" width="200" height="200" filterUnits="userSpaceOnUse" color-interpolation-filters="sRGB">
<feFlood flood-opacity="0" result="BackgroundImageFix"/>
<feBlend mode="normal" in="SourceGraphic" in2="BackgroundImageFix" result="shape"/>
<feGaussianBlur stdDeviation="29" result="effect1_foregroundBlur"/>
</filter>
<filter id="filter11_f" x="648" y="404" width="70" height="70" filterUnits="userSpaceOnUse" color-interpolation-filters="sRGB">
<feFlood flood-opacity="0" result="BackgroundImageFix"/>
<feBlend mode="normal" in="SourceGraphic" in2="BackgroundImageFix" result="shape"/>
<feGaussianBlur stdDeviation="6" result="effect1_foregroundBlur"/>
</filter>
<filter id="filter12_f" x="514.127" y="327.06" width="290.78" height="281.668" filterUnits="userSpaceOnUse" color-interpolation-filters="sRGB">
<feFlood flood-opacity="0" result="BackgroundImageFix"/>
<feBlend mode="normal" in="SourceGraphic" in2="BackgroundImageFix" result="shape"/>
<feGaussianBlur stdDeviation="50" result="effect1_foregroundBlur"/>
</filter>
<filter id="filter13_f" x="525.994" y="339" width="259.1" height="257.909" filterUnits="userSpaceOnUse" color-interpolation-filters="sRGB">
<feFlood flood-opacity="0" result="BackgroundImageFix"/>
<feBlend mode="normal" in="SourceGraphic" in2="BackgroundImageFix" result="shape"/>
<feGaussianBlur stdDeviation="50" result="effect1_foregroundBlur"/>
</filter>
<filter id="filter14_f" x="628.876" y="277.145" width="299.788" height="298.438" filterUnits="userSpaceOnUse" color-interpolation-filters="sRGB">
<feFlood flood-opacity="0" result="BackgroundImageFix"/>
<feBlend mode="normal" in="SourceGraphic" in2="BackgroundImageFix" result="shape"/>
<feGaussianBlur stdDeviation="50" result="effect1_foregroundBlur"/>
</filter>
<filter id="filter15_f" x="748.846" y="380.865" width="82.8592" height="92.8176" filterUnits="userSpaceOnUse" color-interpolation-filters="sRGB">
<feFlood flood-opacity="0" result="BackgroundImageFix"/>
<feBlend mode="normal" in="SourceGraphic" in2="BackgroundImageFix" result="shape"/>
<feGaussianBlur stdDeviation="12" result="effect1_foregroundBlur"/>
</filter>
<filter id="filter16_f" x="549" y="376.8" width="150.152" height="179.479" filterUnits="userSpaceOnUse" color-interpolation-filters="sRGB">
<feFlood flood-opacity="0" result="BackgroundImageFix"/>
<feBlend mode="normal" in="SourceGraphic" in2="BackgroundImageFix" result="shape"/>
<feGaussianBlur stdDeviation="29" result="effect1_foregroundBlur"/>
</filter>
<filter id="filter17_f" x="745" y="353.755" width="129.784" height="142.86" filterUnits="userSpaceOnUse" color-interpolation-filters="sRGB">
<feFlood flood-opacity="0" result="BackgroundImageFix"/>
<feBlend mode="normal" in="SourceGraphic" in2="BackgroundImageFix" result="shape"/>
<feGaussianBlur stdDeviation="22" result="effect1_foregroundBlur"/>
</filter>
<filter id="filter18_f" x="-25" y="-269" width="1416" height="1416" filterUnits="userSpaceOnUse" color-interpolation-filters="sRGB">
<feFlood flood-opacity="0" result="BackgroundImageFix"/>
<feBlend mode="normal" in="SourceGraphic" in2="BackgroundImageFix" result="shape"/>
<feGaussianBlur stdDeviation="60" result="effect1_foregroundBlur"/>
</filter>
<filter id="filter19_f" x="464" y="220" width="438" height="438" filterUnits="userSpaceOnUse" color-interpolation-filters="sRGB">
<feFlood flood-opacity="0" result="BackgroundImageFix"/>
<feBlend mode="normal" in="SourceGraphic" in2="BackgroundImageFix" result="shape"/>
<feGaussianBlur stdDeviation="60" result="effect1_foregroundBlur"/>
</filter>
<filter id="filter20_f" x="770" y="752" width="308" height="308" filterUnits="userSpaceOnUse" color-interpolation-filters="sRGB">
<feFlood flood-opacity="0" result="BackgroundImageFix"/>
<feBlend mode="normal" in="SourceGraphic" in2="BackgroundImageFix" result="shape"/>
<feGaussianBlur stdDeviation="60" result="effect1_foregroundBlur"/>
</filter>
<filter id="filter21_f" x="125" y="10" width="308" height="308" filterUnits="userSpaceOnUse" color-interpolation-filters="sRGB">
<feFlood flood-opacity="0" result="BackgroundImageFix"/>
<feBlend mode="normal" in="SourceGraphic" in2="BackgroundImageFix" result="shape"/>
<feGaussianBlur stdDeviation="60" result="effect1_foregroundBlur"/>
</filter>
<filter id="filter22_f" x="770" y="752" width="308" height="308" filterUnits="userSpaceOnUse" color-interpolation-filters="sRGB">
<feFlood flood-opacity="0" result="BackgroundImageFix"/>
<feBlend mode="normal" in="SourceGraphic" in2="BackgroundImageFix" result="shape"/>
<feGaussianBlur stdDeviation="60" result="effect1_foregroundBlur"/>
</filter>
<filter id="filter23_f" x="125" y="10" width="308" height="308" filterUnits="userSpaceOnUse" color-interpolation-filters="sRGB">
<feFlood flood-opacity="0" result="BackgroundImageFix"/>
<feBlend mode="normal" in="SourceGraphic" in2="BackgroundImageFix" result="shape"/>
<feGaussianBlur stdDeviation="60" result="effect1_foregroundBlur"/>
</filter>
<filter id="filter24_f" x="389" y="-102" width="212" height="212" filterUnits="userSpaceOnUse" color-interpolation-filters="sRGB">
<feFlood flood-opacity="0" result="BackgroundImageFix"/>
<feBlend mode="normal" in="SourceGraphic" in2="BackgroundImageFix" result="shape"/>
<feGaussianBlur stdDeviation="22" result="effect1_foregroundBlur"/>
</filter>
<filter id="filter25_f" x="444" y="-82" width="212" height="212" filterUnits="userSpaceOnUse" color-interpolation-filters="sRGB">
<feFlood flood-opacity="0" result="BackgroundImageFix"/>
<feBlend mode="normal" in="SourceGraphic" in2="BackgroundImageFix" result="shape"/>
<feGaussianBlur stdDeviation="22" result="effect1_foregroundBlur"/>
</filter>
<filter id="filter26_f" x="923" y="-124" width="240" height="240" filterUnits="userSpaceOnUse" color-interpolation-filters="sRGB">
<feFlood flood-opacity="0" result="BackgroundImageFix"/>
<feBlend mode="normal" in="SourceGraphic" in2="BackgroundImageFix" result="shape"/>
<feGaussianBlur stdDeviation="29" result="effect1_foregroundBlur"/>
</filter>
<filter id="filter27_f" x="920" y="-91" width="240" height="240" filterUnits="userSpaceOnUse" color-interpolation-filters="sRGB">
<feFlood flood-opacity="0" result="BackgroundImageFix"/>
<feBlend mode="normal" in="SourceGraphic" in2="BackgroundImageFix" result="shape"/>
<feGaussianBlur stdDeviation="29" result="effect1_foregroundBlur"/>
</filter>
<filter id="filter28_f" x="968" y="-79" width="150" height="150" filterUnits="userSpaceOnUse" color-interpolation-filters="sRGB">
<feFlood flood-opacity="0" result="BackgroundImageFix"/>
<feBlend mode="normal" in="SourceGraphic" in2="BackgroundImageFix" result="shape"/>
<feGaussianBlur stdDeviation="29" result="effect1_foregroundBlur"/>
</filter>
<linearGradient id="paint0_linear" x1="688.5" y1="0" x2="688.5" y2="1076" gradientUnits="userSpaceOnUse">
<stop stop-color="white"/>
<stop offset="1" stop-color="#F2F1F9"/>
</linearGradient>
<radialGradient id="paint1_radial" cx="0" cy="0" r="1" gradientUnits="userSpaceOnUse" gradientTransform="translate(683 439) scale(275)">
<stop stop-color="white"/>
<stop offset="0.745" stop-color="#437BFF"/>
<stop offset="1" stop-color="#E732FB" stop-opacity="0.322"/>
</radialGradient>
<radialGradient id="paint2_radial" cx="0" cy="0" r="1" gradientUnits="userSpaceOnUse" gradientTransform="translate(701.119 429.239) rotate(-1.466) scale(376.564 394.935)">
<stop stop-color="white"/>
<stop offset="0.335" stop-color="white" stop-opacity="0.957"/>
<stop offset="0.423" stop-color="white" stop-opacity="0.82"/>
<stop offset="1" stop-color="white" stop-opacity="0"/>
</radialGradient>
<radialGradient id="paint3_radial" cx="0" cy="0" r="1" gradientUnits="userSpaceOnUse" gradientTransform="translate(1102 581) scale(56)">
<stop stop-color="white"/>
<stop offset="0.745" stop-color="#437BFF"/>
<stop offset="1" stop-color="#E732FB" stop-opacity="0.322"/>
</radialGradient>
<radialGradient id="paint4_radial" cx="0" cy="0" r="1" gradientUnits="userSpaceOnUse" gradientTransform="translate(374 872) scale(88)">
<stop stop-color="white"/>
<stop offset="0.745" stop-color="#437BFF"/>
<stop offset="1" stop-color="#E732FB" stop-opacity="0.322"/>
</radialGradient>
<radialGradient id="paint5_radial" cx="0" cy="0" r="1" gradientUnits="userSpaceOnUse" gradientTransform="translate(0.5 324.5) scale(69.5)">
<stop stop-color="white"/>
<stop offset="0.745" stop-color="#437BFF"/>
<stop offset="1" stop-color="#E732FB" stop-opacity="0.322"/>
</radialGradient>
<radialGradient id="paint6_radial" cx="0" cy="0" r="1" gradientUnits="userSpaceOnUse" gradientTransform="translate(683 439) scale(133)">
<stop stop-color="#25D5E8"/>
<stop offset="1" stop-color="#00D3BD"/>
</radialGradient>
<radialGradient id="paint7_radial" cx="0" cy="0" r="1" gradientUnits="userSpaceOnUse" gradientTransform="translate(683 439) scale(79)">
<stop stop-color="#FDFDFD"/>
<stop offset="1" stop-color="#F1F0F8"/>
</radialGradient>
<radialGradient id="paint8_radial" cx="0" cy="0" r="1" gradientUnits="userSpaceOnUse" gradientTransform="translate(683 439) scale(66)">
<stop stop-color="#FDFDFD"/>
<stop offset="1" stop-color="#F1F0F8"/>
</radialGradient>
<radialGradient id="paint9_radial" cx="0" cy="0" r="1" gradientUnits="userSpaceOnUse" gradientTransform="translate(683 439) scale(42)">
<stop stop-color="#25D5E8"/>
<stop offset="1" stop-color="#00D3BD"/>
</radialGradient>
<radialGradient id="paint10_radial" cx="0" cy="0" r="1" gradientUnits="userSpaceOnUse" gradientTransform="translate(683 439) scale(23)">
<stop stop-color="#FDFDFD"/>
<stop offset="1" stop-color="#F1F0F8"/>
</radialGradient>
<linearGradient id="paint11_linear" x1="630.112" y1="430.33" x2="601.559" y2="499.275" gradientUnits="userSpaceOnUse">
<stop stop-color="#FBF231"/>
<stop offset="1" stop-color="#FCD25E"/>
</linearGradient>
<radialGradient id="paint12_radial" cx="0" cy="0" r="1" gradientUnits="userSpaceOnUse" gradientTransform="translate(592.579 500.866) rotate(6.71988) scale(36.1119 62.0894)">
<stop stop-color="white" stop-opacity="0"/>
<stop offset="0.571" stop-color="white" stop-opacity="0.196"/>
<stop offset="1" stop-color="white"/>
</radialGradient>
<radialGradient id="paint13_radial" cx="0" cy="0" r="1" gradientUnits="userSpaceOnUse" gradientTransform="translate(560 534) rotate(103.415) scale(704.729 502.059)">
<stop stop-color="#FBF432"/>
<stop offset="0.206" stop-color="#FFBA00"/>
<stop offset="0.719" stop-color="#82E397"/>
<stop offset="1" stop-color="#25D5E8"/>
</radialGradient>
<linearGradient id="paint14_linear" x1="279.246" y1="430.71" x2="279.246" y2="986.606" gradientUnits="userSpaceOnUse">
<stop stop-color="white" stop-opacity="0"/>
<stop offset="1" stop-color="white"/>
</linearGradient>
<linearGradient id="paint15_linear" x1="537.679" y1="500.162" x2="90.3009" y2="1279.63" gradientUnits="userSpaceOnUse">
<stop stop-color="white" stop-opacity="0"/>
<stop offset="1" stop-color="white"/>
</linearGradient>
<radialGradient id="paint16_radial" cx="0" cy="0" r="1" gradientUnits="userSpaceOnUse" gradientTransform="translate(602 469) rotate(139.554) scale(40.0781 114.976)">
<stop stop-color="#FFBA00"/>
<stop offset="1" stop-color="#F6328D"/>
</radialGradient>
<linearGradient id="paint17_linear" x1="817.992" y1="442.594" x2="837.066" y2="434.227" gradientUnits="userSpaceOnUse">
<stop stop-color="#FBF231"/>
<stop offset="1" stop-color="#FCD25E"/>
</linearGradient>
<radialGradient id="paint18_radial" cx="0" cy="0" r="1" gradientUnits="userSpaceOnUse" gradientTransform="translate(836.875 449.075) rotate(-13) scale(29.6007 48.1742)">
<stop stop-color="white" stop-opacity="0"/>
<stop offset="0.487" stop-color="white" stop-opacity="0.196"/>
<stop offset="1" stop-color="white"/>
</radialGradient>
<radialGradient id="paint19_radial" cx="0" cy="0" r="1" gradientUnits="userSpaceOnUse" gradientTransform="translate(873.5 406.5) rotate(-9.97029) scale(528.481 1156.61)">
<stop stop-color="#FBF432"/>
<stop offset="0.138" stop-color="#FFBA00"/>
<stop offset="0.452" stop-color="#F7437B"/>
<stop offset="0.519" stop-color="#F6328D"/>
<stop offset="0.559" stop-color="#F332A2"/>
<stop offset="0.687" stop-color="#E732FB"/>
<stop offset="0.825" stop-color="#C93FFC"/>
<stop offset="1" stop-color="#437BFF"/>
</radialGradient>
<radialGradient id="paint20_radial" cx="0" cy="0" r="1" gradientUnits="userSpaceOnUse" gradientTransform="translate(830.35 686.512) rotate(3.55489) scale(721.74 780.884)">
<stop stop-color="white" stop-opacity="0"/>
<stop offset="1" stop-color="white"/>
</radialGradient>
<linearGradient id="paint21_linear" x1="850.554" y1="480.743" x2="1371.47" y2="509.876" gradientUnits="userSpaceOnUse">
<stop stop-color="white" stop-opacity="0"/>
<stop offset="1" stop-color="white"/>
</linearGradient>
<radialGradient id="paint22_radial" cx="0" cy="0" r="1" gradientUnits="userSpaceOnUse" gradientTransform="translate(854 418) rotate(-110.993) scale(46.057 30.0628)">
<stop stop-color="#F6328D"/>
<stop offset="1" stop-color="#FFBA00"/>
</radialGradient>
<radialGradient id="paint23_radial" cx="0" cy="0" r="1" gradientUnits="userSpaceOnUse" gradientTransform="translate(683 439) scale(588)">
<stop stop-color="#82E397"/>
<stop offset="1" stop-color="#25D5E8"/>
</radialGradient>
<radialGradient id="paint24_radial" cx="0" cy="0" r="1" gradientUnits="userSpaceOnUse" gradientTransform="translate(683 439) scale(99)">
<stop stop-color="#82E397"/>
<stop offset="1" stop-color="#25D5E8"/>
</radialGradient>
<radialGradient id="paint25_radial" cx="0" cy="0" r="1" gradientUnits="userSpaceOnUse" gradientTransform="translate(924 906) scale(34)">
<stop stop-color="white"/>
<stop offset="0.745" stop-color="#437BFF"/>
<stop offset="1" stop-color="#E732FB" stop-opacity="0.322"/>
</radialGradient>
<radialGradient id="paint26_radial" cx="0" cy="0" r="1" gradientUnits="userSpaceOnUse" gradientTransform="translate(279 164) scale(34)">
<stop stop-color="white"/>
<stop offset="0.745" stop-color="#25D5E8"/>
<stop offset="1" stop-color="#82E397"/>
</radialGradient>
<clipPath id="clip0">
<rect width="1366" height="1076" fill="white"/>
</clipPath>
</defs>
</svg>
