<svg width="1373" height="2441" viewBox="0 0 1373 2441" fill="none" xmlns="http://www.w3.org/2000/svg">
<g clip-path="url(#clip0)">
<rect width="1373" height="2441" fill="white"/>
<path d="M1377 321H0V2762H1377V321Z" fill="url(#paint0_linear)"/>
<g opacity="0.8" filter="url(#filter0_f)">
<path d="M1102 958C1132.93 958 1158 932.928 1158 902C1158 871.072 1132.93 846 1102 846C1071.07 846 1046 871.072 1046 902C1046 932.928 1071.07 958 1102 958Z" fill="white"/>
</g>
<g opacity="0.8" filter="url(#filter1_f)">
<path d="M683 1035C834.878 1035 958 911.878 958 760C958 608.122 834.878 485 683 485C531.122 485 408 608.122 408 760C408 911.878 531.122 1035 683 1035Z" fill="url(#paint1_radial)"/>
</g>
<path style="mix-blend-mode:overlay" opacity="0.8" d="M608.565 1006.22L618.347 980.57C616.289 981.678 614.009 982.311 611.674 982.422C609.34 982.534 607.01 982.121 604.856 981.214C598.54 978.806 594.473 974.584 592.716 968.682C590.959 962.78 591.656 955.7 594.842 947.343L595.142 946.566C598.366 938.111 602.561 932.366 607.8 929.131C613 925.994 618.75 925.515 625.067 927.923C627.534 928.81 629.753 930.274 631.538 932.194C633.324 934.114 634.623 936.434 635.328 938.959L638.009 933.971L652.391 939.455L624.599 1012.34L608.565 1006.22ZM615.136 944.624C613.337 947.452 611.883 950.484 610.802 953.656C608.913 958.612 608.26 962.37 608.802 965.027C609.048 966.28 609.627 967.443 610.479 968.395C611.33 969.346 612.423 970.05 613.641 970.433C617.241 971.805 620.282 971.407 622.68 969.204L630.461 948.797C630.138 945.557 628.13 943.233 624.437 941.826C623.408 941.412 622.311 941.191 621.202 941.172C618.865 941.168 616.864 942.327 615.136 944.619V944.624ZM738.069 936.81L754.617 932.271L775.249 1007.49L758.701 1012.03L738.069 936.81ZM679.169 993.087C675.06 989.718 672.909 985.07 672.714 979.144L672.349 954.811C672.271 949.716 671.38 945.881 669.883 943.199L669.869 942.367L686.923 942.106C687.692 943.652 688.276 945.284 688.662 946.968C691.721 942.968 696.062 940.925 701.778 940.838C706.602 940.638 711.33 942.232 715.049 945.311C716.804 946.728 718.217 948.522 719.185 950.56C720.152 952.597 720.649 954.826 720.638 957.082C720.729 963.009 718.615 967.618 714.294 970.701C709.869 973.785 703.549 975.442 695.127 975.572L689.827 975.653L689.871 978.564C689.948 983.555 692.171 986.122 696.539 986.055C700.594 985.993 702.639 983.986 702.582 979.93L719.636 979.669C719.723 982.213 719.167 984.737 718.02 987.01C716.873 989.282 715.172 991.228 713.074 992.669C708.654 996.069 702.856 997.819 695.889 997.925C695.668 997.928 695.448 997.93 695.229 997.93C688.564 997.928 683.149 996.345 679.172 993.083L679.169 993.087ZM697.798 953.068C695.926 953.056 694.091 953.59 692.517 954.605C691.279 955.352 690.256 956.407 689.548 957.667L689.683 966.506L694.674 966.429C700.601 966.338 703.574 963.589 703.494 958.285C703.503 957.571 703.364 956.862 703.085 956.204C702.807 955.546 702.395 954.953 701.876 954.462C700.775 953.522 699.365 953.025 697.918 953.067L697.798 953.068ZM774.541 924.638L789.833 916.852L825.226 986.36L809.934 994.146L774.541 924.638ZM552.685 946.779C547.43 946.498 542.249 944.222 537.134 939.802C531.626 935.043 528.307 929.976 527.11 924.68C526.5 922.217 526.503 919.641 527.12 917.18C527.737 914.718 528.949 912.445 530.649 910.561L543.633 921.78C540.709 925.163 541.012 928.312 544.554 931.371C545.759 932.468 547.324 933.088 548.954 933.114C549.681 933.184 550.413 933.074 551.087 932.793C551.761 932.513 552.356 932.071 552.819 931.506C553.286 930.914 553.591 930.211 553.705 929.466C553.818 928.721 553.736 927.959 553.467 927.255C552.581 924.873 551.272 922.67 549.601 920.755C547.759 918.466 546.08 916.05 544.575 913.527C540.115 905.962 540.375 899.455 545.206 893.867C548.469 890.09 552.774 888.449 558.198 889.012C563.69 889.496 569.038 892.056 574.389 896.679C577.734 899.441 580.408 902.927 582.211 906.873C583.872 910.231 584.581 913.979 584.261 917.711C584.028 921.006 582.761 924.144 580.639 926.676L568.519 916.204C570.072 914.247 570.666 912.287 570.234 910.404C569.63 908.275 568.384 906.384 566.668 904.987C565.331 903.656 563.579 902.821 561.703 902.621C561.002 902.585 560.302 902.711 559.658 902.988C559.013 903.266 558.441 903.687 557.985 904.221C557.517 904.797 557.216 905.491 557.114 906.226C557.011 906.961 557.112 907.71 557.405 908.392C557.974 910.12 559.633 912.654 562.247 916.149C564.475 919.142 566.322 922.401 567.747 925.849C568.796 928.517 569.183 931.399 568.876 934.249C568.511 936.916 567.358 939.413 565.565 941.421C564.127 943.152 562.316 944.535 560.268 945.469C558.221 946.402 555.989 946.861 553.739 946.811C553.392 946.811 553.04 946.8 552.685 946.779ZM845.359 937.919C838.452 937.512 831.887 934.17 825.811 927.893L825.377 927.444C819.377 921.244 816.39 914.722 816.277 907.88C816.17 900.892 819.067 894.613 824.895 888.971C830.495 883.546 836.721 880.852 843.339 880.959C850.031 880.994 856.312 883.744 862.106 889.281L864.206 891.301C867.779 894.899 870.476 899.272 872.089 904.079C873.52 908.467 873.597 913.184 872.31 917.616C870.878 922.306 868.22 926.528 864.61 929.847C859.032 935.247 853.038 937.947 846.51 937.947C846.127 937.946 845.749 937.937 845.358 937.919H845.359ZM834.086 898.46C829.753 902.656 830.766 908.189 837.126 915.06L838.355 916.331C845.227 923.431 850.943 924.699 855.426 920.359C859.536 916.38 858.812 911.147 853.326 904.732L851.156 902.49C847.612 898.829 844.41 896.717 841.625 896.084C840.27 895.795 838.863 895.863 837.542 896.279C836.22 896.696 835.029 897.448 834.085 898.462L834.086 898.46ZM898.092 879.111L905.63 863.004C909.819 864.849 913.223 865.18 915.894 864.134C918.516 862.95 920.824 860.47 922.675 856.514C924.575 852.464 924.43 848.839 922.297 845.544C920.164 842.249 915.797 839.06 909.251 835.88L904.541 833.68C897.382 830.329 891.855 828.891 887.909 829.226C884.057 829.605 881.139 831.914 879.067 836.341C877.348 840.015 876.874 843.238 877.643 846.009C878.507 848.824 880.753 851.139 884.572 853.041L877.034 869.148C872.716 866.973 869.063 863.677 866.457 859.605C863.935 855.508 862.605 850.79 862.615 845.98C862.72 840.574 863.995 835.255 866.351 830.389C870.451 821.629 876.633 816.025 884.759 813.627C892.747 811.28 902.038 812.527 912.494 817.421L915.885 819.009C921.839 821.639 927.15 825.533 931.449 830.421C935.22 834.677 937.584 839.994 938.218 845.645C938.904 851.402 937.891 857.235 935.304 862.424C931.512 870.524 926.26 876.104 919.729 879.018C916.439 880.491 912.873 881.246 909.269 881.235C905.447 881.19 901.664 880.471 898.092 879.111V879.111ZM450.649 677.723L457.463 661.296L513.084 684.368L524.959 655.742L537.639 661.002L518.949 706.055L450.649 677.723ZM519.885 639.693L518.761 638.768C514.731 635.591 511.482 631.534 509.261 626.908C507.247 622.774 506.563 618.117 507.303 613.578C508.164 608.668 510.35 604.086 513.627 600.329C518.518 594.387 524.264 591.17 530.8 590.757C537.336 590.344 543.863 592.888 550.527 598.374L555.667 602.604L534.049 628.861C536.512 630.25 539.377 630.754 542.167 630.289C545.027 629.735 547.583 628.145 549.344 625.824C552.78 621.649 554.044 617.167 552.991 612.393L565.091 612.253C566.025 616.036 565.925 620.002 564.801 623.733C563.593 627.888 561.555 631.755 558.812 635.101C553.459 641.601 547.17 645.319 539.93 646.095C538.936 646.213 537.937 646.272 536.936 646.273C530.901 646.274 525.199 644.067 519.885 639.693ZM529.491 605.439C527.361 605.572 525.477 606.715 523.759 608.803C520.586 612.658 521.239 617.103 525.783 622.054L536.755 608.724L535.711 607.865C534.205 606.382 532.204 605.507 530.092 605.41C529.891 605.411 529.69 605.42 529.491 605.439V605.439ZM831.673 631.9C827.435 627.9 825.254 623.849 825.066 619.956C824.948 615.986 826.742 611.956 830.666 607.798L849.355 587.97L844.284 583.19L852.416 574.563L857.487 579.342L866.903 569.352L879.39 581.122L869.974 591.112L876.558 597.317L868.426 605.945L861.842 599.739L844.579 618.054C843.224 619.492 842.452 620.766 842.487 621.942C842.446 623.046 843.22 624.346 844.81 625.842C845.835 626.836 846.945 627.74 848.126 628.542L839.709 637.473C836.772 636.018 834.065 634.141 831.673 631.9V631.9ZM583.092 606.285C579.177 605.621 575.582 603.072 572.27 598.407L556.495 576.19L550.813 580.225L543.949 570.557L549.631 566.523L541.684 555.33L555.675 545.396L563.623 556.589L571 551.351L577.864 561.018L570.486 566.256L585.057 586.778C586.201 588.389 587.298 589.395 588.457 589.592C589.532 589.849 590.96 589.345 592.741 588.081C593.918 587.271 595.022 586.36 596.041 585.358L603.141 595.365C601.138 597.959 598.765 600.246 596.098 602.151C592.062 605.017 588.275 606.416 584.862 606.416C584.269 606.416 583.678 606.373 583.092 606.285V606.285ZM783.713 593.303L814.249 547.663L827.649 556.626L824.149 562.793C829.577 559.917 834.365 559.868 838.687 562.759C840.044 563.637 841.267 564.708 842.317 565.938L833.21 578.99L828.774 575.521C824.274 572.514 820.501 571.989 817.296 573.974L797.981 602.846L783.713 593.303ZM761.343 583.146C761.152 581.43 761.165 579.697 761.38 577.983C757.134 580.688 752.358 581.118 746.957 579.236C742.355 577.766 738.46 574.643 736.024 570.471C734.863 568.537 734.151 566.367 733.943 564.121C733.734 561.876 734.033 559.612 734.818 557.497C736.767 551.897 740.336 548.297 745.452 546.884C750.667 545.507 757.172 546.121 765.127 548.893L770.135 550.637L771.093 547.887C772.735 543.173 771.529 539.998 767.404 538.562C763.574 537.227 760.959 538.409 759.624 542.239L743.518 536.628C744.31 534.21 745.699 532.03 747.556 530.29C749.414 528.55 751.679 527.306 754.144 526.673C759.462 525.002 765.509 525.346 772.089 527.639C778.669 529.932 783.425 533.35 786.126 537.925C788.827 542.5 789.253 547.605 787.4 553.237L779.394 576.219C777.717 581.031 777.237 584.938 777.723 587.971L777.449 588.757L761.343 583.146ZM751.329 562.257C751.075 562.925 750.963 563.638 750.998 564.352C751.034 565.066 751.217 565.765 751.536 566.404C752.269 567.7 753.467 568.668 754.888 569.113C756.642 569.768 758.55 569.896 760.376 569.483C761.795 569.206 763.118 568.567 764.216 567.627L767.124 559.279L762.41 557.636C761.052 557.131 759.619 556.856 758.17 556.823C754.885 556.823 752.589 558.642 751.329 562.257ZM644.385 576.257C639.14 575.186 634.955 573.133 631.807 569.998C628.524 566.806 626.274 562.703 625.349 558.219L642.811 554.337C643.669 558.195 645.316 560.812 647.753 562.188C650.086 563.588 653.538 563.78 658.108 562.763C660.539 562.348 662.777 561.18 664.508 559.423C665.162 558.621 665.618 557.676 665.837 556.664C666.057 555.653 666.034 554.604 665.771 553.603C665.589 552.451 665.134 551.359 664.443 550.42C663.752 549.48 662.845 548.72 661.8 548.203C659.657 547.188 656.194 546.467 651.286 545.959C647.237 545.579 643.217 544.942 639.249 544.05C628.871 541.456 622.802 536.199 621.019 528.179C620.099 524.388 620.487 520.397 622.119 516.853C624.006 513.021 626.889 509.768 630.467 507.434C634.663 504.7 639.325 502.76 644.222 501.711C649.024 500.549 654.022 500.456 658.864 501.439C663.115 502.229 667.043 504.245 670.164 507.239C673.263 510.158 675.377 513.971 676.211 518.146L658.854 522.011C658.647 520.729 658.158 519.508 657.422 518.437C656.687 517.366 655.723 516.472 654.601 515.818C652.514 514.578 649.897 514.308 646.75 515.007C643.704 515.684 641.301 516.857 639.891 518.662C639.172 519.423 638.652 520.348 638.374 521.357C638.097 522.366 638.072 523.428 638.301 524.449C638.73 526.378 640.106 527.776 642.373 528.871C644.743 529.942 648.533 530.698 653.873 531.216C658.455 531.569 662.99 532.381 667.409 533.641C676.118 536.392 681.453 541.705 683.209 549.624C683.946 552.488 683.978 555.488 683.3 558.366C682.622 561.245 681.256 563.916 679.318 566.15C675.438 570.742 669.245 574.036 661.018 575.864C657.933 576.561 654.781 576.917 651.618 576.925C649.191 576.924 646.77 576.7 644.385 576.255V576.257ZM716.319 572.828C710.509 572.428 706.25 570.683 703.632 567.795C701.021 564.802 699.851 560.554 700.239 554.847L702.089 527.662L695.137 527.189L695.937 515.361L702.889 515.833L703.821 502.133L720.949 503.3L720.017 517L729.044 517.615L728.244 529.443L719.217 528.829L717.508 553.939C717.374 555.91 717.586 557.384 718.359 558.271C719.026 559.15 720.45 559.664 722.632 559.813C724.055 559.929 725.486 559.922 726.908 559.791L726.075 572.035C723.592 572.607 721.052 572.898 718.504 572.904C717.777 572.901 717.048 572.875 716.319 572.826V572.828Z" fill="url(#paint2_radial)"/>
<g opacity="0.8" filter="url(#filter2_f)">
<path d="M1102 958C1132.93 958 1158 932.928 1158 902C1158 871.072 1132.93 846 1102 846C1071.07 846 1046 871.072 1046 902C1046 932.928 1071.07 958 1102 958Z" fill="url(#paint3_radial)"/>
</g>
<g opacity="0.8" filter="url(#filter3_f)">
<path d="M1102 958C1132.93 958 1158 932.928 1158 902C1158 871.072 1132.93 846 1102 846C1071.07 846 1046 871.072 1046 902C1046 932.928 1071.07 958 1102 958Z" fill="white"/>
</g>
<g opacity="0.64" filter="url(#filter4_f)">
<path d="M374 1281C422.601 1281 462 1241.6 462 1193C462 1144.4 422.601 1105 374 1105C325.399 1105 286 1144.4 286 1193C286 1241.6 325.399 1281 374 1281Z" fill="url(#paint4_radial)"/>
</g>
<g opacity="0.64" filter="url(#filter5_f)">
<path d="M374 1281C422.601 1281 462 1241.6 462 1193C462 1144.4 422.601 1105 374 1105C325.399 1105 286 1144.4 286 1193C286 1241.6 325.399 1281 374 1281Z" fill="white"/>
</g>
<g style="mix-blend-mode:multiply" opacity="0.56">
<path d="M706 788.955C706 788.955 784.83 867.742 831.7 843.191C878.57 818.64 945.53 767.304 974.545 843.191C1003.56 919.078 983.473 1137.81 1128.55 1099.87C1273.63 1061.92 1434.33 858.814 1472.27 1059.69C1510.22 1260.57 1275.19 1788.87 799.338 1658.3C323.485 1527.73 674.572 1342.03 738.406 1269.49C802.24 1196.95 787.732 1196.95 674.572 1136.02C561.412 1075.09 697.1 904.14 688.513 843.19C679.926 782.24 698.402 776.783 674.572 788.954C650.742 801.125 372.232 857.764 409.952 959.608C447.672 1061.45 379.776 1242.51 277.932 1167.07C176.088 1091.63 145.912 1012.42 21.4321 1031.28C-103.048 1050.14 -329.368 970.924 -201.116 744.604C-72.8639 518.284 119.506 454.16 161 567.32C202.494 680.48 237.632 734.564 303.667 665.888C369.702 597.212 485.922 442.338 508.373 567.32C530.824 692.302 640.44 754.374 657.609 742.488C674.778 730.602 701.192 727.96 668.174 665.888C635.156 603.816 544.294 505.821 590.65 442.3C637.006 378.779 520.257 330.7 439.564 299.8C358.871 268.9 1047.34 275.758 1047.34 275.758C1047.34 275.758 1078.25 416.543 1004.42 419.977C930.593 423.411 846.466 406.242 873.936 486.936C901.406 567.63 889.388 638.022 815.562 636.305C741.736 634.588 679.928 730.734 717.699 730.734" stroke="#F6328D"/>
</g>
<g style="mix-blend-mode:screen">
<path d="M706 788.955C706 788.955 784.83 867.742 831.7 843.191C878.57 818.64 945.53 767.304 974.545 843.191C1003.56 919.078 983.473 1137.81 1128.55 1099.87C1273.63 1061.92 1434.33 858.814 1472.27 1059.69C1510.22 1260.57 1275.19 1788.87 799.338 1658.3C323.485 1527.73 674.572 1342.03 738.406 1269.49C802.24 1196.95 787.732 1196.95 674.572 1136.02C561.412 1075.09 697.1 904.14 688.513 843.19C679.926 782.24 698.402 776.783 674.572 788.954C650.742 801.125 372.232 857.764 409.952 959.608C447.672 1061.45 379.776 1242.51 277.932 1167.07C176.088 1091.63 145.912 1012.42 21.4321 1031.28C-103.048 1050.14 -329.368 970.924 -201.116 744.604C-72.8639 518.284 119.506 454.16 161 567.32C202.494 680.48 237.632 734.564 303.667 665.888C369.702 597.212 485.922 442.338 508.373 567.32C530.824 692.302 640.44 754.374 657.609 742.488C674.778 730.602 701.192 727.96 668.174 665.888C635.156 603.816 544.294 505.821 590.65 442.3C637.006 378.779 520.257 330.7 439.564 299.8C358.871 268.9 1047.34 275.758 1047.34 275.758C1047.34 275.758 1078.25 416.543 1004.42 419.977C930.593 423.411 846.466 406.242 873.936 486.936C901.406 567.63 889.388 638.022 815.562 636.305C741.736 634.588 679.928 730.734 717.699 730.734" stroke="#F6328D"/>
</g>
<g opacity="0.72" filter="url(#filter6_f)">
<path d="M0.5 715C38.8838 715 70 683.884 70 645.5C70 607.116 38.8838 576 0.5 576C-37.8838 576 -69 607.116 -69 645.5C-69 683.884 -37.8838 715 0.5 715Z" fill="url(#paint5_radial)"/>
</g>
<g opacity="0.8" filter="url(#filter7_f)">
<path d="M0.5 715C38.8838 715 70 683.884 70 645.5C70 607.116 38.8838 576 0.5 576C-37.8838 576 -69 607.116 -69 645.5C-69 683.884 -37.8838 715 0.5 715Z" fill="white"/>
</g>
<g filter="url(#filter8_f)">
<path d="M683 893C756.454 893 816 833.454 816 760C816 686.546 756.454 627 683 627C609.546 627 550 686.546 550 760C550 833.454 609.546 893 683 893Z" fill="url(#paint6_radial)"/>
</g>
<g filter="url(#filter9_f)">
<path d="M683 839C726.63 839 762 803.63 762 760C762 716.37 726.63 681 683 681C639.37 681 604 716.37 604 760C604 803.63 639.37 839 683 839Z" fill="url(#paint7_radial)"/>
</g>
<path d="M683 826C719.451 826 749 796.451 749 760C749 723.549 719.451 694 683 694C646.549 694 617 723.549 617 760C617 796.451 646.549 826 683 826Z" fill="url(#paint8_radial)"/>
<g filter="url(#filter10_f)">
<path d="M683 802C706.196 802 725 783.196 725 760C725 736.804 706.196 718 683 718C659.804 718 641 736.804 641 760C641 783.196 659.804 802 683 802Z" fill="url(#paint9_radial)"/>
</g>
<g style="mix-blend-mode:overlay" filter="url(#filter11_f)">
<path d="M683 783C695.703 783 706 772.703 706 760C706 747.297 695.703 737 683 737C670.297 737 660 747.297 660 760C660 772.703 670.297 783 683 783Z" fill="url(#paint10_radial)" style="mix-blend-mode:overlay"/>
</g>
<g style="mix-blend-mode:multiply" filter="url(#filter12_f)">
<path d="M629.143 755.8C641.592 749.341 646.928 743.294 649.418 753.609C651.908 763.924 651.552 775.309 661.512 768.909C671.472 762.509 683.565 754.681 688.545 763.574C693.525 772.467 704.907 784.204 704.907 794.164C704.907 804.124 685.344 817.284 674.317 820.13C663.29 822.976 656.888 827.244 649.417 829.022C641.946 830.8 621.317 830.445 615.27 813.016C609.223 795.587 629.143 755.8 629.143 755.8Z" fill="#437BFF"/>
</g>
<g style="mix-blend-mode:screen" filter="url(#filter13_f)">
<path d="M635.768 765.488C643.873 760.908 647.347 756.62 648.968 763.935C650.589 771.25 650.357 779.321 656.842 774.781C663.327 770.241 671.2 764.692 674.442 770.997C677.684 777.302 685.094 785.627 685.094 792.689C685.094 799.751 672.357 809.089 665.179 811.102C658.001 813.115 653.832 816.147 648.969 817.408C644.106 818.669 630.675 818.417 626.738 806.058C622.801 793.699 635.768 765.488 635.768 765.488Z" fill="#FBF432"/>
</g>
<path d="M607.017 774.659L645.91 752.204L651.63 785.747L612.737 808.202L607.017 774.659Z" fill="#00D3BD"/>
<path d="M638.926 829.925L677.818 807.47L651.629 785.745L612.736 808.2L638.926 829.925Z" fill="#25D5E8"/>
<path d="M676.663 761.741L647.493 778.582L667.136 794.876L696.304 778.036L676.663 761.741Z" fill="#437BFF"/>
<path d="M700.594 803.193L671.425 820.034L667.135 794.876L696.304 778.036L700.594 803.193Z" fill="#437BFF"/>
<g style="mix-blend-mode:multiply" filter="url(#filter14_f)">
<path d="M777.306 706.821C813.757 706.821 814.791 681.315 814.791 717.766C814.791 730.966 833.101 768.034 827.651 780.697C824.306 788.468 814.78 782.223 807.13 784.528C794.285 788.401 781.982 796.455 780.863 796.567C778.127 796.841 728.876 793.891 728.876 757.44C728.876 745.411 747.056 750.111 750.218 742.391C756.322 727.482 752.884 706.821 777.306 706.821Z" fill="#437BFF"/>
</g>
<g style="mix-blend-mode:screen" filter="url(#filter15_f)">
<path d="M789.764 729.815C802.497 729.815 802.858 718.202 802.858 734.798C802.858 740.806 809.258 757.685 807.35 763.45C806.182 766.988 802.85 764.145 800.182 765.194C795.695 766.957 791.397 770.624 791.006 770.675C790.05 770.8 772.846 769.457 772.846 752.861C772.846 747.384 779.197 749.524 780.301 746.009C782.434 739.22 781.233 729.815 789.764 729.815Z" fill="#FBF432"/>
</g>
<g style="mix-blend-mode:multiply" filter="url(#filter16_f)">
<path d="M619.975 755.8C632.675 755.8 638.307 757.442 641.043 776.047C642.483 785.834 629.217 793.777 627.363 805C625.78 814.586 639.949 813.259 635.571 819.279C622.869 819.279 607 817.7 607 805C607 792.3 607.273 755.8 619.975 755.8Z" fill="#437BFF"/>
</g>
<path d="M598.5 765C611.429 765 613.913 751.138 622.118 751.332C636.155 751.664 637.269 767.481 637.269 780.209C637.269 787.18 618.248 801.384 619.269 804.629C621.208 810.812 632.586 814.242 630.321 817.463C625.5 824.316 607.81 820 598.5 820C591.207 820 584.212 817.103 579.055 811.945C573.897 806.788 571 799.793 571 792.5C571 785.207 573.897 778.212 579.055 773.055C584.212 767.897 591.207 765 598.5 765V765Z" fill="url(#paint11_linear)"/>
<path d="M598.5 765C611.429 765 613.913 751.138 622.118 751.332C636.155 751.664 637.269 767.481 637.269 780.209C637.269 787.18 618.248 801.384 619.269 804.629C621.208 810.812 632.586 814.242 630.321 817.463C625.5 824.316 607.81 820 598.5 820C591.207 820 584.212 817.103 579.055 811.945C573.897 806.788 571 799.793 571 792.5C571 785.207 573.897 778.212 579.055 773.055C584.212 767.897 591.207 765 598.5 765V765Z" fill="url(#paint12_radial)"/>
<path d="M-16.7271 848.794C-16.7271 848.794 116.373 782.803 288.621 759.315C460.869 735.827 558.974 774.243 558.974 774.243L575.22 829.78C575.22 829.78 508.8 853.974 350.809 948.431C192.818 1042.89 -16.7271 1307.61 -16.7271 1307.61V848.794Z" fill="url(#paint13_radial)"/>
<path d="M-16.7271 848.794C-16.7271 848.794 116.373 782.803 288.621 759.315C460.869 735.827 558.974 774.243 558.974 774.243L575.22 829.78C575.22 829.78 508.8 853.974 350.809 948.431C192.818 1042.89 -16.7271 1307.61 -16.7271 1307.61V848.794Z" fill="url(#paint14_linear)"/>
<path style="mix-blend-mode:overlay" opacity="0.8" d="M-43.667 1190.2C-43.667 1190.2 41.571 1094.46 190.539 998.258C252.694 958.117 343.224 912.69 456.865 867.243C535.382 835.843 576.105 821.162 576.105 821.162L575.22 829.782C575.22 829.782 508.8 853.974 350.809 948.431C192.818 1042.89 -16.7271 1307.61 -16.7271 1307.61L-43.667 1190.2Z" fill="url(#paint15_linear)"/>
<path d="M795.038 741.068L805.531 780.226L777.581 793.933L733.219 757.632L771.253 747.441C771.313 747.924 771.406 748.402 771.533 748.872C772.232 751.481 773.939 753.705 776.277 755.055C778.616 756.405 781.395 756.771 784.004 756.072C786.612 755.373 788.836 753.667 790.186 751.328C791.537 748.989 791.902 746.21 791.204 743.602C791.079 743.131 790.921 742.671 790.731 742.223L795.038 741.068Z" fill="#00D3BD"/>
<path d="M805.531 780.226L795.038 741.068L814.709 735.797L826.756 780.757L805.531 780.226Z" fill="#25D5E8"/>
<path d="M795.74 707.17L804.92 741.433L801.233 742.422C800.618 740.141 799.125 738.197 797.079 737.016C795.034 735.835 792.604 735.514 790.322 736.123C788.041 736.737 786.097 738.23 784.915 740.275C783.734 742.321 783.413 744.751 784.022 747.033L750.829 755.927L768.563 709.012L795.74 707.17Z" fill="#437BFF"/>
<path d="M795.74 707.17L804.92 741.433L822.131 736.822L811.59 697.483L795.74 707.17Z" fill="#437BFF"/>
<g style="mix-blend-mode:multiply" filter="url(#filter17_f)">
<path d="M803 727C806.713 727 810.274 728.475 812.899 731.1C815.525 733.726 817 737.287 817 741C817 742.67 811.781 721.322 814.244 720.5C817.01 717.044 819.89 718.476 823.82 727C830.49 741.461 836.3 769.608 821.632 772.761C792.355 779.054 789 748.732 789 741C789 737.287 790.475 733.726 793.101 731.1C795.726 728.475 799.287 727 803 727V727Z" fill="#437BFF"/>
</g>
<path d="M560.087 770.048C569 763.987 585.042 758.64 588.964 770.048C592.886 781.456 601.456 816.633 601.812 821.089C602.168 825.545 580.706 839.131 573.398 831.823C566.09 824.515 551.174 776.109 560.087 770.048Z" fill="url(#paint16_radial)"/>
<path d="M824.061 772.206C827.004 771.526 829.785 770.274 832.244 768.52C834.703 766.766 836.792 764.545 838.393 761.983C839.993 759.422 841.074 756.57 841.572 753.591C842.071 750.612 841.978 747.564 841.298 744.621C838.441 732.247 826.606 716.3 814.228 719.158C810.428 720.035 819.811 730.602 816.809 734.3C815.191 736.291 810.14 727.396 801.667 732.55C791.516 738.724 795.016 748.64 796.477 754.969C797.849 760.913 801.526 766.068 806.699 769.3C811.872 772.533 818.118 773.578 824.061 772.206V772.206Z" fill="url(#paint17_linear)"/>
<path d="M824.061 772.206C827.004 771.526 829.785 770.274 832.244 768.52C834.703 766.766 836.792 764.545 838.393 761.983C839.993 759.422 841.074 756.57 841.572 753.591C842.071 750.612 841.978 747.564 841.298 744.621C838.441 732.247 826.606 716.3 814.228 719.158C810.428 720.035 819.811 730.602 816.809 734.3C815.191 736.291 810.14 727.396 801.667 732.55C791.516 738.724 795.016 748.64 796.477 754.969C797.849 760.913 801.526 766.068 806.699 769.3C811.872 772.533 818.118 773.578 824.061 772.206V772.206Z" fill="url(#paint18_radial)"/>
<path d="M1373 500.5C1373 500.5 1312.21 507.3 1221.22 531.681C1152.36 550.131 1063.56 587.687 1000.85 623.894C892.741 686.306 844.6 722.876 844.6 722.876L851.88 754.644C851.88 754.644 1030.18 723.408 1185.46 738C1340.74 752.592 1373 833 1373 833V500.5Z" fill="url(#paint19_radial)"/>
<path opacity="0.4" d="M1373 500.5C1373 500.5 1312.21 507.3 1221.22 531.681C1152.36 550.131 1063.56 587.687 1000.85 623.894C892.741 686.306 844.6 722.876 844.6 722.876L851.88 754.644C851.88 754.644 1030.18 723.408 1185.46 738C1340.74 752.592 1373 833 1373 833V500.5Z" fill="url(#paint20_radial)"/>
<path style="mix-blend-mode:overlay" opacity="0.4" d="M1373 764.521C1373 764.521 1280.88 693.758 1093.85 703.059C906.832 712.36 850.554 746.777 850.554 746.777L851.875 754.644C851.875 754.644 1030.18 723.408 1185.46 738C1340.74 752.592 1373 833 1373 833V764.521Z" fill="url(#paint21_linear)"/>
<path d="M843.711 721.021C845.293 721.021 856.262 754.772 852.993 756.249C849.724 757.726 842.129 760.89 839.809 760.257C837.489 759.624 828.418 726.189 831.16 722.919C833.902 719.649 843.711 721.021 843.711 721.021Z" fill="url(#paint22_radial)"/>
<g style="mix-blend-mode:overlay" filter="url(#filter18_f)">
<path d="M683 1348C1007.74 1348 1271 1084.74 1271 760C1271 435.257 1007.74 172 683 172C358.257 172 95 435.257 95 760C95 1084.74 358.257 1348 683 1348Z" fill="url(#paint23_radial)" style="mix-blend-mode:overlay"/>
</g>
<g style="mix-blend-mode:overlay" filter="url(#filter19_f)">
<path d="M683 859C737.676 859 782 814.676 782 760C782 705.324 737.676 661 683 661C628.324 661 584 705.324 584 760C584 814.676 628.324 859 683 859Z" fill="url(#paint24_radial)" style="mix-blend-mode:overlay"/>
</g>
<g opacity="0.8" filter="url(#filter20_f)">
<path d="M924 1261C942.778 1261 958 1245.78 958 1227C958 1208.22 942.778 1193 924 1193C905.222 1193 890 1208.22 890 1227C890 1245.78 905.222 1261 924 1261Z" fill="url(#paint25_radial)"/>
</g>
<g opacity="0.4" filter="url(#filter21_f)">
<path d="M279 519C297.778 519 313 503.778 313 485C313 466.222 297.778 451 279 451C260.222 451 245 466.222 245 485C245 503.778 260.222 519 279 519Z" fill="url(#paint26_radial)"/>
</g>
<g opacity="0.8" filter="url(#filter22_f)">
<path d="M924 1261C942.778 1261 958 1245.78 958 1227C958 1208.22 942.778 1193 924 1193C905.222 1193 890 1208.22 890 1227C890 1245.78 905.222 1261 924 1261Z" fill="white"/>
</g>
<g opacity="0.4" filter="url(#filter23_f)">
<path d="M279 519C297.778 519 313 503.778 313 485C313 466.222 297.778 451 279 451C260.222 451 245 466.222 245 485C245 503.778 260.222 519 279 519Z" fill="white"/>
</g>
<g filter="url(#filter24_f)">
<path d="M495 387C529.242 387 557 359.242 557 325C557 290.758 529.242 263 495 263C460.758 263 433 290.758 433 325C433 359.242 460.758 387 495 387Z" fill="#FDFEFE"/>
</g>
<g opacity="0.4" filter="url(#filter25_f)">
<path d="M550 407C584.242 407 612 379.242 612 345C612 310.758 584.242 283 550 283C515.758 283 488 310.758 488 345C488 379.242 515.758 407 550 407Z" fill="#FDFEFE"/>
</g>
<g filter="url(#filter26_f)">
<path d="M1043 379C1077.24 379 1105 351.242 1105 317C1105 282.758 1077.24 255 1043 255C1008.76 255 981 282.758 981 317C981 351.242 1008.76 379 1043 379Z" fill="#FDFEFE"/>
</g>
<g opacity="0.4" filter="url(#filter27_f)">
<path d="M1040 412C1074.24 412 1102 384.242 1102 350C1102 315.758 1074.24 288 1040 288C1005.76 288 978 315.758 978 350C978 384.242 1005.76 412 1040 412Z" fill="#FDFEFE"/>
</g>
<g filter="url(#filter28_f)">
<path d="M1043 334C1052.39 334 1060 326.389 1060 317C1060 307.611 1052.39 300 1043 300C1033.61 300 1026 307.611 1026 317C1026 326.389 1033.61 334 1043 334Z" fill="#FDFEFE"/>
</g>
</g>
<defs>
<filter id="filter0_f" x="926" y="726" width="352" height="352" filterUnits="userSpaceOnUse" color-interpolation-filters="sRGB">
<feFlood flood-opacity="0" result="BackgroundImageFix"/>
<feBlend mode="normal" in="SourceGraphic" in2="BackgroundImageFix" result="shape"/>
<feGaussianBlur stdDeviation="60" result="effect1_foregroundBlur"/>
</filter>
<filter id="filter1_f" x="288" y="365" width="790" height="790" filterUnits="userSpaceOnUse" color-interpolation-filters="sRGB">
<feFlood flood-opacity="0" result="BackgroundImageFix"/>
<feBlend mode="normal" in="SourceGraphic" in2="BackgroundImageFix" result="shape"/>
<feGaussianBlur stdDeviation="60" result="effect1_foregroundBlur"/>
</filter>
<filter id="filter2_f" x="926" y="726" width="352" height="352" filterUnits="userSpaceOnUse" color-interpolation-filters="sRGB">
<feFlood flood-opacity="0" result="BackgroundImageFix"/>
<feBlend mode="normal" in="SourceGraphic" in2="BackgroundImageFix" result="shape"/>
<feGaussianBlur stdDeviation="60" result="effect1_foregroundBlur"/>
</filter>
<filter id="filter3_f" x="926" y="726" width="352" height="352" filterUnits="userSpaceOnUse" color-interpolation-filters="sRGB">
<feFlood flood-opacity="0" result="BackgroundImageFix"/>
<feBlend mode="normal" in="SourceGraphic" in2="BackgroundImageFix" result="shape"/>
<feGaussianBlur stdDeviation="60" result="effect1_foregroundBlur"/>
</filter>
<filter id="filter4_f" x="166" y="985" width="416" height="416" filterUnits="userSpaceOnUse" color-interpolation-filters="sRGB">
<feFlood flood-opacity="0" result="BackgroundImageFix"/>
<feBlend mode="normal" in="SourceGraphic" in2="BackgroundImageFix" result="shape"/>
<feGaussianBlur stdDeviation="60" result="effect1_foregroundBlur"/>
</filter>
<filter id="filter5_f" x="166" y="985" width="416" height="416" filterUnits="userSpaceOnUse" color-interpolation-filters="sRGB">
<feFlood flood-opacity="0" result="BackgroundImageFix"/>
<feBlend mode="normal" in="SourceGraphic" in2="BackgroundImageFix" result="shape"/>
<feGaussianBlur stdDeviation="60" result="effect1_foregroundBlur"/>
</filter>
<filter id="filter6_f" x="-189" y="456" width="379" height="379" filterUnits="userSpaceOnUse" color-interpolation-filters="sRGB">
<feFlood flood-opacity="0" result="BackgroundImageFix"/>
<feBlend mode="normal" in="SourceGraphic" in2="BackgroundImageFix" result="shape"/>
<feGaussianBlur stdDeviation="60" result="effect1_foregroundBlur"/>
</filter>
<filter id="filter7_f" x="-189" y="456" width="379" height="379" filterUnits="userSpaceOnUse" color-interpolation-filters="sRGB">
<feFlood flood-opacity="0" result="BackgroundImageFix"/>
<feBlend mode="normal" in="SourceGraphic" in2="BackgroundImageFix" result="shape"/>
<feGaussianBlur stdDeviation="60" result="effect1_foregroundBlur"/>
</filter>
<filter id="filter8_f" x="492" y="569" width="382" height="382" filterUnits="userSpaceOnUse" color-interpolation-filters="sRGB">
<feFlood flood-opacity="0" result="BackgroundImageFix"/>
<feBlend mode="normal" in="SourceGraphic" in2="BackgroundImageFix" result="shape"/>
<feGaussianBlur stdDeviation="29" result="effect1_foregroundBlur"/>
</filter>
<filter id="filter9_f" x="484" y="561" width="398" height="398" filterUnits="userSpaceOnUse" color-interpolation-filters="sRGB">
<feFlood flood-opacity="0" result="BackgroundImageFix"/>
<feBlend mode="normal" in="SourceGraphic" in2="BackgroundImageFix" result="shape"/>
<feGaussianBlur stdDeviation="60" result="effect1_foregroundBlur"/>
</filter>
<filter id="filter10_f" x="583" y="660" width="200" height="200" filterUnits="userSpaceOnUse" color-interpolation-filters="sRGB">
<feFlood flood-opacity="0" result="BackgroundImageFix"/>
<feBlend mode="normal" in="SourceGraphic" in2="BackgroundImageFix" result="shape"/>
<feGaussianBlur stdDeviation="29" result="effect1_foregroundBlur"/>
</filter>
<filter id="filter11_f" x="648" y="725" width="70" height="70" filterUnits="userSpaceOnUse" color-interpolation-filters="sRGB">
<feFlood flood-opacity="0" result="BackgroundImageFix"/>
<feBlend mode="normal" in="SourceGraphic" in2="BackgroundImageFix" result="shape"/>
<feGaussianBlur stdDeviation="6" result="effect1_foregroundBlur"/>
</filter>
<filter id="filter12_f" x="514.127" y="648.06" width="290.78" height="281.668" filterUnits="userSpaceOnUse" color-interpolation-filters="sRGB">
<feFlood flood-opacity="0" result="BackgroundImageFix"/>
<feBlend mode="normal" in="SourceGraphic" in2="BackgroundImageFix" result="shape"/>
<feGaussianBlur stdDeviation="50" result="effect1_foregroundBlur"/>
</filter>
<filter id="filter13_f" x="525.994" y="660" width="259.1" height="257.909" filterUnits="userSpaceOnUse" color-interpolation-filters="sRGB">
<feFlood flood-opacity="0" result="BackgroundImageFix"/>
<feBlend mode="normal" in="SourceGraphic" in2="BackgroundImageFix" result="shape"/>
<feGaussianBlur stdDeviation="50" result="effect1_foregroundBlur"/>
</filter>
<filter id="filter14_f" x="628.876" y="598.145" width="299.788" height="298.438" filterUnits="userSpaceOnUse" color-interpolation-filters="sRGB">
<feFlood flood-opacity="0" result="BackgroundImageFix"/>
<feBlend mode="normal" in="SourceGraphic" in2="BackgroundImageFix" result="shape"/>
<feGaussianBlur stdDeviation="50" result="effect1_foregroundBlur"/>
</filter>
<filter id="filter15_f" x="748.846" y="701.865" width="82.8592" height="92.8176" filterUnits="userSpaceOnUse" color-interpolation-filters="sRGB">
<feFlood flood-opacity="0" result="BackgroundImageFix"/>
<feBlend mode="normal" in="SourceGraphic" in2="BackgroundImageFix" result="shape"/>
<feGaussianBlur stdDeviation="12" result="effect1_foregroundBlur"/>
</filter>
<filter id="filter16_f" x="549" y="697.8" width="150.152" height="179.479" filterUnits="userSpaceOnUse" color-interpolation-filters="sRGB">
<feFlood flood-opacity="0" result="BackgroundImageFix"/>
<feBlend mode="normal" in="SourceGraphic" in2="BackgroundImageFix" result="shape"/>
<feGaussianBlur stdDeviation="29" result="effect1_foregroundBlur"/>
</filter>
<filter id="filter17_f" x="745" y="674.755" width="129.784" height="142.86" filterUnits="userSpaceOnUse" color-interpolation-filters="sRGB">
<feFlood flood-opacity="0" result="BackgroundImageFix"/>
<feBlend mode="normal" in="SourceGraphic" in2="BackgroundImageFix" result="shape"/>
<feGaussianBlur stdDeviation="22" result="effect1_foregroundBlur"/>
</filter>
<filter id="filter18_f" x="-25" y="52" width="1416" height="1416" filterUnits="userSpaceOnUse" color-interpolation-filters="sRGB">
<feFlood flood-opacity="0" result="BackgroundImageFix"/>
<feBlend mode="normal" in="SourceGraphic" in2="BackgroundImageFix" result="shape"/>
<feGaussianBlur stdDeviation="60" result="effect1_foregroundBlur"/>
</filter>
<filter id="filter19_f" x="464" y="541" width="438" height="438" filterUnits="userSpaceOnUse" color-interpolation-filters="sRGB">
<feFlood flood-opacity="0" result="BackgroundImageFix"/>
<feBlend mode="normal" in="SourceGraphic" in2="BackgroundImageFix" result="shape"/>
<feGaussianBlur stdDeviation="60" result="effect1_foregroundBlur"/>
</filter>
<filter id="filter20_f" x="770" y="1073" width="308" height="308" filterUnits="userSpaceOnUse" color-interpolation-filters="sRGB">
<feFlood flood-opacity="0" result="BackgroundImageFix"/>
<feBlend mode="normal" in="SourceGraphic" in2="BackgroundImageFix" result="shape"/>
<feGaussianBlur stdDeviation="60" result="effect1_foregroundBlur"/>
</filter>
<filter id="filter21_f" x="125" y="331" width="308" height="308" filterUnits="userSpaceOnUse" color-interpolation-filters="sRGB">
<feFlood flood-opacity="0" result="BackgroundImageFix"/>
<feBlend mode="normal" in="SourceGraphic" in2="BackgroundImageFix" result="shape"/>
<feGaussianBlur stdDeviation="60" result="effect1_foregroundBlur"/>
</filter>
<filter id="filter22_f" x="770" y="1073" width="308" height="308" filterUnits="userSpaceOnUse" color-interpolation-filters="sRGB">
<feFlood flood-opacity="0" result="BackgroundImageFix"/>
<feBlend mode="normal" in="SourceGraphic" in2="BackgroundImageFix" result="shape"/>
<feGaussianBlur stdDeviation="60" result="effect1_foregroundBlur"/>
</filter>
<filter id="filter23_f" x="125" y="331" width="308" height="308" filterUnits="userSpaceOnUse" color-interpolation-filters="sRGB">
<feFlood flood-opacity="0" result="BackgroundImageFix"/>
<feBlend mode="normal" in="SourceGraphic" in2="BackgroundImageFix" result="shape"/>
<feGaussianBlur stdDeviation="60" result="effect1_foregroundBlur"/>
</filter>
<filter id="filter24_f" x="389" y="219" width="212" height="212" filterUnits="userSpaceOnUse" color-interpolation-filters="sRGB">
<feFlood flood-opacity="0" result="BackgroundImageFix"/>
<feBlend mode="normal" in="SourceGraphic" in2="BackgroundImageFix" result="shape"/>
<feGaussianBlur stdDeviation="22" result="effect1_foregroundBlur"/>
</filter>
<filter id="filter25_f" x="444" y="239" width="212" height="212" filterUnits="userSpaceOnUse" color-interpolation-filters="sRGB">
<feFlood flood-opacity="0" result="BackgroundImageFix"/>
<feBlend mode="normal" in="SourceGraphic" in2="BackgroundImageFix" result="shape"/>
<feGaussianBlur stdDeviation="22" result="effect1_foregroundBlur"/>
</filter>
<filter id="filter26_f" x="923" y="197" width="240" height="240" filterUnits="userSpaceOnUse" color-interpolation-filters="sRGB">
<feFlood flood-opacity="0" result="BackgroundImageFix"/>
<feBlend mode="normal" in="SourceGraphic" in2="BackgroundImageFix" result="shape"/>
<feGaussianBlur stdDeviation="29" result="effect1_foregroundBlur"/>
</filter>
<filter id="filter27_f" x="920" y="230" width="240" height="240" filterUnits="userSpaceOnUse" color-interpolation-filters="sRGB">
<feFlood flood-opacity="0" result="BackgroundImageFix"/>
<feBlend mode="normal" in="SourceGraphic" in2="BackgroundImageFix" result="shape"/>
<feGaussianBlur stdDeviation="29" result="effect1_foregroundBlur"/>
</filter>
<filter id="filter28_f" x="968" y="242" width="150" height="150" filterUnits="userSpaceOnUse" color-interpolation-filters="sRGB">
<feFlood flood-opacity="0" result="BackgroundImageFix"/>
<feBlend mode="normal" in="SourceGraphic" in2="BackgroundImageFix" result="shape"/>
<feGaussianBlur stdDeviation="29" result="effect1_foregroundBlur"/>
</filter>
<linearGradient id="paint0_linear" x1="688.5" y1="321" x2="688.5" y2="2762" gradientUnits="userSpaceOnUse">
<stop stop-color="white"/>
<stop offset="1" stop-color="#F2F1F9"/>
</linearGradient>
<radialGradient id="paint1_radial" cx="0" cy="0" r="1" gradientUnits="userSpaceOnUse" gradientTransform="translate(683 760) scale(275)">
<stop stop-color="white"/>
<stop offset="0.745" stop-color="#437BFF"/>
<stop offset="1" stop-color="#E732FB" stop-opacity="0.322"/>
</radialGradient>
<radialGradient id="paint2_radial" cx="0" cy="0" r="1" gradientUnits="userSpaceOnUse" gradientTransform="translate(701.118 750.239) rotate(-1.466) scale(376.564 394.935)">
<stop stop-color="white"/>
<stop offset="0.335" stop-color="white" stop-opacity="0.957"/>
<stop offset="0.423" stop-color="white" stop-opacity="0.82"/>
<stop offset="1" stop-color="white" stop-opacity="0"/>
</radialGradient>
<radialGradient id="paint3_radial" cx="0" cy="0" r="1" gradientUnits="userSpaceOnUse" gradientTransform="translate(1102 902) scale(56)">
<stop stop-color="white"/>
<stop offset="0.745" stop-color="#437BFF"/>
<stop offset="1" stop-color="#E732FB" stop-opacity="0.322"/>
</radialGradient>
<radialGradient id="paint4_radial" cx="0" cy="0" r="1" gradientUnits="userSpaceOnUse" gradientTransform="translate(374 1193) scale(88)">
<stop stop-color="white"/>
<stop offset="0.745" stop-color="#437BFF"/>
<stop offset="1" stop-color="#E732FB" stop-opacity="0.322"/>
</radialGradient>
<radialGradient id="paint5_radial" cx="0" cy="0" r="1" gradientUnits="userSpaceOnUse" gradientTransform="translate(0.5 645.5) scale(69.5)">
<stop stop-color="white"/>
<stop offset="0.745" stop-color="#437BFF"/>
<stop offset="1" stop-color="#E732FB" stop-opacity="0.322"/>
</radialGradient>
<radialGradient id="paint6_radial" cx="0" cy="0" r="1" gradientUnits="userSpaceOnUse" gradientTransform="translate(683 760) scale(133)">
<stop stop-color="#25D5E8"/>
<stop offset="1" stop-color="#00D3BD"/>
</radialGradient>
<radialGradient id="paint7_radial" cx="0" cy="0" r="1" gradientUnits="userSpaceOnUse" gradientTransform="translate(683 760) scale(79)">
<stop stop-color="#FDFDFD"/>
<stop offset="1" stop-color="#F1F0F8"/>
</radialGradient>
<radialGradient id="paint8_radial" cx="0" cy="0" r="1" gradientUnits="userSpaceOnUse" gradientTransform="translate(683 760) scale(66)">
<stop stop-color="#FDFDFD"/>
<stop offset="1" stop-color="#F1F0F8"/>
</radialGradient>
<radialGradient id="paint9_radial" cx="0" cy="0" r="1" gradientUnits="userSpaceOnUse" gradientTransform="translate(683 760) scale(42)">
<stop stop-color="#25D5E8"/>
<stop offset="1" stop-color="#00D3BD"/>
</radialGradient>
<radialGradient id="paint10_radial" cx="0" cy="0" r="1" gradientUnits="userSpaceOnUse" gradientTransform="translate(683 760) scale(23)">
<stop stop-color="#FDFDFD"/>
<stop offset="1" stop-color="#F1F0F8"/>
</radialGradient>
<linearGradient id="paint11_linear" x1="630.112" y1="751.33" x2="601.559" y2="820.275" gradientUnits="userSpaceOnUse">
<stop stop-color="#FBF231"/>
<stop offset="1" stop-color="#FCD25E"/>
</linearGradient>
<radialGradient id="paint12_radial" cx="0" cy="0" r="1" gradientUnits="userSpaceOnUse" gradientTransform="translate(592.579 821.866) rotate(6.71988) scale(36.1119 62.0894)">
<stop stop-color="white" stop-opacity="0"/>
<stop offset="0.571" stop-color="white" stop-opacity="0.196"/>
<stop offset="1" stop-color="white"/>
</radialGradient>
<radialGradient id="paint13_radial" cx="0" cy="0" r="1" gradientUnits="userSpaceOnUse" gradientTransform="translate(560 855) rotate(103.415) scale(704.729 502.059)">
<stop stop-color="#FBF432"/>
<stop offset="0.206" stop-color="#FFBA00"/>
<stop offset="0.719" stop-color="#82E397"/>
<stop offset="1" stop-color="#25D5E8"/>
</radialGradient>
<linearGradient id="paint14_linear" x1="279.246" y1="751.71" x2="279.246" y2="1307.61" gradientUnits="userSpaceOnUse">
<stop stop-color="white" stop-opacity="0"/>
<stop offset="1" stop-color="white"/>
</linearGradient>
<linearGradient id="paint15_linear" x1="537.679" y1="821.162" x2="90.3009" y2="1600.63" gradientUnits="userSpaceOnUse">
<stop stop-color="white" stop-opacity="0"/>
<stop offset="1" stop-color="white"/>
</linearGradient>
<radialGradient id="paint16_radial" cx="0" cy="0" r="1" gradientUnits="userSpaceOnUse" gradientTransform="translate(602 790) rotate(139.554) scale(40.0781 114.976)">
<stop stop-color="#FFBA00"/>
<stop offset="1" stop-color="#F6328D"/>
</radialGradient>
<linearGradient id="paint17_linear" x1="817.992" y1="763.594" x2="837.066" y2="755.227" gradientUnits="userSpaceOnUse">
<stop stop-color="#FBF231"/>
<stop offset="1" stop-color="#FCD25E"/>
</linearGradient>
<radialGradient id="paint18_radial" cx="0" cy="0" r="1" gradientUnits="userSpaceOnUse" gradientTransform="translate(836.875 770.075) rotate(-13) scale(29.6007 48.1742)">
<stop stop-color="white" stop-opacity="0"/>
<stop offset="0.487" stop-color="white" stop-opacity="0.196"/>
<stop offset="1" stop-color="white"/>
</radialGradient>
<radialGradient id="paint19_radial" cx="0" cy="0" r="1" gradientUnits="userSpaceOnUse" gradientTransform="translate(873.5 727.5) rotate(-9.97029) scale(528.481 1156.61)">
<stop stop-color="#FBF432"/>
<stop offset="0.138" stop-color="#FFBA00"/>
<stop offset="0.452" stop-color="#F7437B"/>
<stop offset="0.519" stop-color="#F6328D"/>
<stop offset="0.559" stop-color="#F332A2"/>
<stop offset="0.687" stop-color="#E732FB"/>
<stop offset="0.825" stop-color="#C93FFC"/>
<stop offset="1" stop-color="#437BFF"/>
</radialGradient>
<radialGradient id="paint20_radial" cx="0" cy="0" r="1" gradientUnits="userSpaceOnUse" gradientTransform="translate(830.35 1007.51) rotate(3.55489) scale(721.74 780.884)">
<stop stop-color="white" stop-opacity="0"/>
<stop offset="1" stop-color="white"/>
</radialGradient>
<linearGradient id="paint21_linear" x1="850.554" y1="801.743" x2="1371.47" y2="830.876" gradientUnits="userSpaceOnUse">
<stop stop-color="white" stop-opacity="0"/>
<stop offset="1" stop-color="white"/>
</linearGradient>
<radialGradient id="paint22_radial" cx="0" cy="0" r="1" gradientUnits="userSpaceOnUse" gradientTransform="translate(854 739) rotate(-110.993) scale(46.057 30.0628)">
<stop stop-color="#F6328D"/>
<stop offset="1" stop-color="#FFBA00"/>
</radialGradient>
<radialGradient id="paint23_radial" cx="0" cy="0" r="1" gradientUnits="userSpaceOnUse" gradientTransform="translate(683 760) scale(588)">
<stop stop-color="#82E397"/>
<stop offset="1" stop-color="#25D5E8"/>
</radialGradient>
<radialGradient id="paint24_radial" cx="0" cy="0" r="1" gradientUnits="userSpaceOnUse" gradientTransform="translate(683 760) scale(99)">
<stop stop-color="#82E397"/>
<stop offset="1" stop-color="#25D5E8"/>
</radialGradient>
<radialGradient id="paint25_radial" cx="0" cy="0" r="1" gradientUnits="userSpaceOnUse" gradientTransform="translate(924 1227) scale(34)">
<stop stop-color="white"/>
<stop offset="0.745" stop-color="#437BFF"/>
<stop offset="1" stop-color="#E732FB" stop-opacity="0.322"/>
</radialGradient>
<radialGradient id="paint26_radial" cx="0" cy="0" r="1" gradientUnits="userSpaceOnUse" gradientTransform="translate(279 485) scale(34)">
<stop stop-color="white"/>
<stop offset="0.745" stop-color="#25D5E8"/>
<stop offset="1" stop-color="#82E397"/>
</radialGradient>
<clipPath id="clip0">
<rect width="1373" height="2441" fill="white"/>
</clipPath>
</defs>
</svg>
