<?xml version="1.0" encoding="UTF-8" standalone="no"?>
<svg
   xmlns:dc="http://purl.org/dc/elements/1.1/"
   xmlns:cc="http://creativecommons.org/ns#"
   xmlns:rdf="http://www.w3.org/1999/02/22-rdf-syntax-ns#"
   xmlns:svg="http://www.w3.org/2000/svg"
   xmlns="http://www.w3.org/2000/svg"
   xmlns:sodipodi="http://sodipodi.sourceforge.net/DTD/sodipodi-0.dtd"
   xmlns:inkscape="http://www.inkscape.org/namespaces/inkscape"
   width="64.002"
   height="64.001"
   viewBox="0 0 64.002 64.001"
   version="1.1"
   id="svg3"
   sodipodi:docname="img_icon_play.svg"
   inkscape:version="1.0 (4035a4fb49, 2020-05-01)">
  <metadata
     id="metadata9">
    <rdf:RDF>
      <cc:Work
         rdf:about="">
        <dc:format>image/svg+xml</dc:format>
        <dc:type
           rdf:resource="http://purl.org/dc/dcmitype/StillImage" />
      </cc:Work>
    </rdf:RDF>
  </metadata>
  <defs
     id="defs7" />
  <sodipodi:namedview
     inkscape:document-rotation="0"
     pagecolor="#ffffff"
     bordercolor="#666666"
     borderopacity="1"
     objecttolerance="10"
     gridtolerance="10"
     guidetolerance="10"
     inkscape:pageopacity="0"
     inkscape:pageshadow="2"
     inkscape:window-width="1366"
     inkscape:window-height="745"
     id="namedview5"
     showgrid="false"
     inkscape:zoom="3.4802369"
     inkscape:cx="36.849315"
     inkscape:cy="47.776009"
     inkscape:window-x="-8"
     inkscape:window-y="-8"
     inkscape:window-maximized="1"
     inkscape:current-layer="svg3" />
  <path
     transform="translate(17527.002 2784.002)"
     id="img_icon_play"
     d="M-17495-2720a31.794,31.794,0,0,1-12.455-2.515,31.889,31.889,0,0,1-10.172-6.858,31.856,31.856,0,0,1-6.857-10.172A31.815,31.815,0,0,1-17527-2752a31.815,31.815,0,0,1,2.516-12.457,31.856,31.856,0,0,1,6.857-10.172,31.889,31.889,0,0,1,10.172-6.858A31.794,31.794,0,0,1-17495-2784a31.8,31.8,0,0,1,12.457,2.515,31.889,31.889,0,0,1,10.172,6.858,31.856,31.856,0,0,1,6.857,10.172A31.815,31.815,0,0,1-17463-2752a31.815,31.815,0,0,1-2.516,12.456,31.856,31.856,0,0,1-6.857,10.172,31.889,31.889,0,0,1-10.172,6.858A31.8,31.8,0,0,1-17495-2720Zm-9-45h0v26l22-13-22-13Z"
     fill="#437bff"
     opacity="0.8"
     style="opacity:1" />
</svg>
