<svg xmlns="http://www.w3.org/2000/svg" width="1366" height="768" viewBox="0 0 1366 768">
  <g id="Grid" transform="translate(0 -62)">
    <g id="Rectangle_2" data-name="Rectangle 2" transform="translate(23 62)" fill="none" stroke="#dcf4ff" stroke-width="1">
      <rect width="88" height="768" stroke="none"/>
      <rect x="0.5" y="0.5" width="87" height="767" fill="none"/>
    </g>
    <g id="Rectangle_2-2" data-name="Rectangle 2" transform="translate(135 62)" fill="none" stroke="#dcf4ff" stroke-width="1">
      <rect width="88" height="768" stroke="none"/>
      <rect x="0.5" y="0.5" width="87" height="767" fill="none"/>
    </g>
    <g id="Rectangle_2-3" data-name="Rectangle 2" transform="translate(247 62)" fill="none" stroke="#dcf4ff" stroke-width="1">
      <rect width="88" height="768" stroke="none"/>
      <rect x="0.5" y="0.5" width="87" height="767" fill="none"/>
    </g>
    <g id="Rectangle_2-4" data-name="Rectangle 2" transform="translate(359 62)" fill="none" stroke="#dcf4ff" stroke-width="1">
      <rect width="88" height="768" stroke="none"/>
      <rect x="0.5" y="0.5" width="87" height="767" fill="none"/>
    </g>
    <g id="Rectangle_2-5" data-name="Rectangle 2" transform="translate(471 62)" fill="none" stroke="#dcf4ff" stroke-width="1">
      <rect width="88" height="768" stroke="none"/>
      <rect x="0.5" y="0.5" width="87" height="767" fill="none"/>
    </g>
    <g id="Rectangle_2-6" data-name="Rectangle 2" transform="translate(583 62)" fill="none" stroke="#dcf4ff" stroke-width="1">
      <rect width="88" height="768" stroke="none"/>
      <rect x="0.5" y="0.5" width="87" height="767" fill="none"/>
    </g>
    <g id="Rectangle_2-7" data-name="Rectangle 2" transform="translate(695 62)" fill="none" stroke="#dcf4ff" stroke-width="1">
      <rect width="88" height="768" stroke="none"/>
      <rect x="0.5" y="0.5" width="87" height="767" fill="none"/>
    </g>
    <g id="Rectangle_2-8" data-name="Rectangle 2" transform="translate(807 62)" fill="none" stroke="#dcf4ff" stroke-width="1">
      <rect width="88" height="768" stroke="none"/>
      <rect x="0.5" y="0.5" width="87" height="767" fill="none"/>
    </g>
    <g id="Rectangle_2-9" data-name="Rectangle 2" transform="translate(919 62)" fill="none" stroke="#dcf4ff" stroke-width="1">
      <rect width="88" height="768" stroke="none"/>
      <rect x="0.5" y="0.5" width="87" height="767" fill="none"/>
    </g>
    <g id="Rectangle_2-10" data-name="Rectangle 2" transform="translate(1031 62)" fill="none" stroke="#dcf4ff" stroke-width="1">
      <rect width="88" height="768" stroke="none"/>
      <rect x="0.5" y="0.5" width="87" height="767" fill="none"/>
    </g>
    <g id="Rectangle_2-11" data-name="Rectangle 2" transform="translate(1143 62)" fill="none" stroke="#dcf4ff" stroke-width="1">
      <rect width="88" height="768" stroke="none"/>
      <rect x="0.5" y="0.5" width="87" height="767" fill="none"/>
    </g>
    <g id="Rectangle_2-12" data-name="Rectangle 2" transform="translate(1255 62)" fill="none" stroke="#dcf4ff" stroke-width="1">
      <rect width="88" height="768" stroke="none"/>
      <rect x="0.5" y="0.5" width="87" height="767" fill="none"/>
    </g>
    <g id="Rectangle_8" data-name="Rectangle 8" transform="translate(0 800)" fill="none" stroke="#25d5e8" stroke-width="1">
      <rect width="1366" height="30" stroke="none"/>
      <rect x="0.5" y="0.5" width="1365" height="29" fill="none"/>
    </g>
  </g>
</svg>
