<svg xmlns="http://www.w3.org/2000/svg" xmlns:xlink="http://www.w3.org/1999/xlink" width="88" height="88" viewBox="0 0 88 88">
  <defs>
    <radialGradient id="radial-gradient" cx="0.399" cy="0.333" r="0.652" gradientUnits="objectBoundingBox">
      <stop offset="0" stop-color="#0e0e17" stop-opacity="0.851"/>
      <stop offset="0.767" stop-color="#0e0e17"/>
    </radialGradient>
  </defs>
  <g id="icon-tool-xd" transform="translate(-365 -502)">
    <rect id="Rectangle_78" data-name="Rectangle 78" width="88" height="88" rx="44" transform="translate(365 502)" fill="#e732fb" opacity="0"/>
    <rect id="Rectangle_70" data-name="Rectangle 70" width="40" height="40" rx="20" transform="translate(389 526)" fill="#e732fb"/>
    <text id="XD" transform="translate(409 550)" fill="#fff" font-size="12" font-family="Roboto-Bold, Roboto" font-weight="700" letter-spacing="0.064em"><tspan x="-8.095" y="0">XD</tspan></text>
    <g id="Adobe_XD" transform="translate(389 526)">
      <path id="path0_fill" d="M0,20A20,20,0,1,1,20,40,20,20,0,0,1,0,20Z" fill="#ff2bc2"/>
      <path id="path0_fill-2" data-name="path0_fill" d="M0,18A18,18,0,1,1,18,36,18,18,0,0,1,0,18Z" transform="translate(2 2)" fill="url(#radial-gradient)"/>
      <path id="Shape" d="M16.452,14.76a4.91,4.91,0,0,1-3.62-1.367,5.7,5.7,0,0,1-1.417-4.13,5.867,5.867,0,0,1,1.432-3.993,5.161,5.161,0,0,1,3.931-1.627,5.981,5.981,0,0,1,.7.027V.149a.136.136,0,0,1,.136-.135H19.8c.112,0,.135.043.135.108V12.5A9.616,9.616,0,0,0,20,13.826c0,.094,0,.109-.081.149A8.116,8.116,0,0,1,16.452,14.76Zm.244-9.1c-1.727,0-2.843,1.371-2.843,3.494a4.051,4.051,0,0,0,.772,2.681,2.421,2.421,0,0,0,1.91.812,2.519,2.519,0,0,0,.934-.149V5.8h.013A1.835,1.835,0,0,0,16.7,5.66Zm-6.188,8.978H8.151a.265.265,0,0,1-.284-.176C6.939,12.548,6,10.575,5.213,8.9H5.186c-.837,1.868-1.729,3.838-2.573,5.579a.26.26,0,0,1-.244.149H.121a.115.115,0,0,1-.113-.055.131.131,0,0,1,.032-.135L3.75,7.3.162.2A.127.127,0,0,1,.14.067.13.13,0,0,1,.256,0H2.586c.129,0,.2.023.244.149.231.488.466.979.692,1.454.613,1.284,1.247,2.611,1.84,3.936h.027c.568-1.293,1.187-2.611,1.786-3.885l0,0c.227-.484.462-.984.69-1.474l0,0C7.937.065,7.977,0,8.111,0h2.18a.11.11,0,0,1,.1.046.163.163,0,0,1-.02.157L6.8,7.069l3.792,7.353a.163.163,0,0,1,.019.163A.108.108,0,0,1,10.507,14.638Z" transform="translate(10 12.667)" fill="#fed7f0"/>
    </g>
  </g>
</svg>
