<svg xmlns="http://www.w3.org/2000/svg" width="88" height="88" viewBox="0 0 88 88">
  <g id="icon-social-behance" transform="translate(-695 -289)">
    <circle id="Ellipse_7" data-name="Ellipse 7" cx="44" cy="44" r="44" transform="translate(695 289)" fill="#0057ff" opacity="0"/>
    <path id="Behance" d="M31.1,25a10.076,10.076,0,0,1-6.437-2.217c-1.852-1.468-2.791-3.9-2.791-7.219,0-3.11.847-5.529,2.517-7.19a8.93,8.93,0,0,1,6.535-2.5,10.55,10.55,0,0,1,4.3.847,7.386,7.386,0,0,1,3.156,2.667,8.757,8.757,0,0,1,1.46,3.729A23.047,23.047,0,0,1,40,16.7H26.678a4.331,4.331,0,0,0,1.915,3.8,4.922,4.922,0,0,0,2.636.68,4.1,4.1,0,0,0,2.651-.826,3.93,3.93,0,0,0,.986-1.241h4.88a5.927,5.927,0,0,1-1.771,3.26A8.988,8.988,0,0,1,31.1,25ZM30.922,9.764a3.838,3.838,0,0,0-2.853,1.029,4.9,4.9,0,0,0-1.275,2.791h8.237a3.949,3.949,0,0,0-1.271-2.851A4.262,4.262,0,0,0,30.922,9.764ZM11.139,24.386H0V0H11.945c3,.044,5.155.918,6.406,2.6A6.18,6.18,0,0,1,19.485,6.32a5.41,5.41,0,0,1-1.143,3.592A5.944,5.944,0,0,1,16.456,11.3a5.569,5.569,0,0,1,2.858,2.153,6.415,6.415,0,0,1,.962,3.573,7.069,7.069,0,0,1-1.1,3.888,6.8,6.8,0,0,1-1.749,1.919,6.9,6.9,0,0,1-2.792,1.225A17.47,17.47,0,0,1,11.139,24.386ZM4.928,13.65v6.5h6a5.951,5.951,0,0,0,2.5-.43,3.077,3.077,0,0,0,1.626-3.043,2.629,2.629,0,0,0-1.574-2.618,6.323,6.323,0,0,0-2.472-.413Zm0-9.415V9.616h6.011a5.05,5.05,0,0,0,2.616-.606,2.3,2.3,0,0,0,1-2.139,2.2,2.2,0,0,0-1.326-2.256,9.526,9.526,0,0,0-2.923-.38Zm31.226-.063H25.56V1.137H36.154V4.17Z" transform="translate(719 321)" fill="#0057ff"/>
  </g>
</svg>
