<svg xmlns="http://www.w3.org/2000/svg" width="88" height="88" viewBox="0 0 88 88">
  <g id="icon-tool-figma" transform="translate(-471 -502)">
    <rect id="Rectangle_79" data-name="Rectangle 79" width="88" height="88" rx="44" transform="translate(471 502)" fill="#25d5e8" opacity="0"/>
    <rect id="Rectangle_71" data-name="Rectangle 71" width="40" height="40" rx="20" transform="translate(495 526)" fill="#25d5e8"/>
    <text id="Fig" transform="translate(515 550)" fill="#fff" font-size="12" font-family="Roboto-Bold, Roboto" font-weight="700" letter-spacing="0.064em"><tspan x="-9.071" y="0">Fig</tspan></text>
    <g id="Figma" transform="translate(495 526)">
      <g id="Color">
        <g id="Taobao">
          <g id="back">
            <g id="path0_fill-link">
              <path id="path0_fill" d="M0,20A20,20,0,1,1,20,40,20,20,0,0,1,0,20Z" fill="#333"/>
            </g>
          </g>
        </g>
      </g>
      <g id="Group" transform="translate(12 8)">
        <g id="_5" data-name="5" transform="translate(0 16)">
          <g id="path1_fill-link">
            <path id="path1_fill" d="M4,8A4,4,0,0,0,8,4V0H4A4,4,0,0,0,4,8Z" fill="#0acf83"/>
          </g>
        </g>
        <g id="_4" data-name="4" transform="translate(0 8)">
          <g id="path2_fill-link">
            <path id="path2_fill" d="M0,4A4,4,0,0,1,4,0H8V8H4A4,4,0,0,1,0,4Z" fill="#a259ff"/>
          </g>
        </g>
        <g id="_3" data-name="3">
          <g id="path2_fill-link-2" data-name="path2_fill-link">
            <path id="path2_fill-2" data-name="path2_fill" d="M0,4A4,4,0,0,1,4,0H8V8H4A4,4,0,0,1,0,4Z" fill="#f24e1e"/>
          </g>
        </g>
        <g id="_2" data-name="2" transform="translate(8)">
          <g id="path3_fill-link">
            <path id="path3_fill" d="M0,0H4A4,4,0,0,1,4,8H0Z" fill="#ff7262"/>
          </g>
        </g>
        <g id="_1" data-name="1" transform="translate(8 8)">
          <g id="path4_fill-link">
            <path id="path4_fill" d="M8,4A4,4,0,1,1,4,0,4,4,0,0,1,8,4Z" fill="#1abcfe"/>
          </g>
        </g>
      </g>
    </g>
  </g>
</svg>
