<svg xmlns="http://www.w3.org/2000/svg" width="88" height="88" viewBox="0 0 88 88">
  <g id="icon-social-dribbble" transform="translate(-807 -289)">
    <circle id="Ellipse_8" data-name="Ellipse 8" cx="44" cy="44" r="44" transform="translate(807 289)" fill="#ea4c89" opacity="0"/>
    <path id="dribbble-ball-mark" d="M20,0A20,20,0,1,0,40,20,20.006,20.006,0,0,0,20,0ZM33.21,9.219a17,17,0,0,1,3.861,10.629,40.337,40.337,0,0,0-11.887-.542c-.13-.282-.239-.586-.369-.889-.347-.824-.738-1.67-1.128-2.473A22.863,22.863,0,0,0,33.21,9.219ZM20,2.95a17.045,17.045,0,0,1,11.323,4.3c-.3.434-2.885,3.883-8.959,6.161a92.225,92.225,0,0,0-6.377-10A17.372,17.372,0,0,1,20,2.95ZM12.733,4.555a107.8,107.8,0,0,1,6.334,9.87A64.065,64.065,0,0,1,3.275,16.508,17.162,17.162,0,0,1,12.733,4.555ZM2.907,20.022V19.5a62.418,62.418,0,0,0,17.549-2.429c.5.954.954,1.931,1.388,2.907-.217.065-.456.13-.672.2C12.364,23.015,7.679,30.781,7.289,31.432A17.043,17.043,0,0,1,2.907,20.022ZM20,37.093a16.964,16.964,0,0,1-10.477-3.6c.3-.629,3.774-7.31,13.406-10.672.043-.022.065-.022.108-.043a70.617,70.617,0,0,1,3.644,12.95A16.8,16.8,0,0,1,20,37.093Zm9.523-2.928A73.5,73.5,0,0,0,26.2,22a24.947,24.947,0,0,1,10.629.738A16.936,16.936,0,0,1,29.523,34.165Z" transform="translate(831 313)" fill="#ea4c89" fill-rule="evenodd"/>
  </g>
</svg>
