<svg xmlns="http://www.w3.org/2000/svg" width="88" height="88" viewBox="0 0 88 88">
  <g id="icon-tool-html" transform="translate(-701 -502)">
    <rect id="Rectangle_81" data-name="Rectangle 81" width="88" height="88" rx="44" transform="translate(701 502)" fill="#00d3bd" opacity="0"/>
    <rect id="Rectangle_73" data-name="Rectangle 73" width="40" height="40" rx="20" transform="translate(725 526)" fill="#00d3bd"/>
    <text id="html" transform="translate(745 550)" fill="#fff" font-size="12" font-family="Roboto-Bold, Roboto" font-weight="700" letter-spacing="0.064em"><tspan x="-13.322" y="0">html</tspan></text>
    <g id="HTML5" transform="translate(725 526)">
      <path id="back" d="M0,20A20,20,0,1,1,20,40,20,20,0,0,1,0,20Z" fill="#25d5e8"/>
      <path id="Shape" d="M1.931,21.6,0,0H21.217L19.284,21.6,10.6,24Z" transform="translate(9.333 9.333)" fill="#e44d26"/>
      <path id="Shape-2" data-name="Shape" d="M0,20.348l7.039-1.937L8.7,0H0Z" transform="translate(19.942 11.072)" fill="#f16529"/>
      <path id="Shape-3" data-name="Shape" d="M6.609,5.355H3.121L2.88,2.646H6.609V0H0L.063.71.711,8h5.9Z" transform="translate(13.333 13.681)" fill="#ebebeb"/>
      <path id="Shape-4" data-name="Shape" d="M5.739,2.944l-.011,0L2.813,2.14,2.627,0H0L.367,4.213l5.36,1.526.012,0Z" transform="translate(14.203 23.072)" fill="#ebebeb"/>
      <path id="Shape-5" data-name="Shape" d="M0,0V2.677H3.225l-.3,3.472L0,6.954V9.739L5.368,8.218l.039-.452L6.023.719,6.087,0H0Z" transform="translate(19.942 19.072)" fill="#fff"/>
      <path id="Shape-6" data-name="Shape" d="M0,0V2.609H6.372l.053-.586L6.546.7,6.609,0Z" transform="translate(19.942 13.681)" fill="#fff"/>
    </g>
  </g>
</svg>
