<svg xmlns="http://www.w3.org/2000/svg" width="88" height="88" viewBox="0 0 88 88">
  <g id="icon-tool-invision" transform="translate(-813 -502)">
    <path id="Path_15" data-name="Path 15" d="M44,0A44,44,0,1,1,0,44,44,44,0,0,1,44,0Z" transform="translate(813 502)" fill="#ffba00" opacity="0"/>
    <path id="Path_14" data-name="Path 14" d="M20,0A20,20,0,1,1,0,20,20,20,0,0,1,20,0Z" transform="translate(837 526)" fill="#ffba00"/>
    <text id="invision" transform="translate(857 550)" fill="#fff" font-size="12" font-family="Roboto-Bold, Roboto" font-weight="700" letter-spacing="0.064em"><tspan x="-23.691" y="0">invision</tspan></text>
    <g id="Invision-2" data-name="Invision" transform="translate(837 526)">
      <path id="back" d="M0,20A20,20,0,1,1,20,40,20,20,0,0,1,0,20Z" fill="#f36"/>
      <path id="Combined_Shape" data-name="Combined Shape" d="M16.571,17.271a5.646,5.646,0,0,1,.222-1.588l1.048-3.746A3.812,3.812,0,0,0,18,10.795a1.777,1.777,0,0,0-1.9-1.937c-1.493,0-2.477,1.042-2.985,3.106l-2.032,8.122H7.522l.638-2.533a5.069,5.069,0,0,1-4.288,2.795A2.843,2.843,0,0,1,.7,17.237a7.152,7.152,0,0,1,.19-1.578L2.508,9.065H0L.762,6.245H6.794L4.413,15.679a5.935,5.935,0,0,0-.223,1.447c0,.6.3.778.763.883.283.064,2.539.034,3.767-2.7l1.564-6.247H7.745l.762-2.819h5.429l-.7,3.179c.952-1.778,2.858-3.474,4.73-3.474,2,0,3.652,1.422,3.652,4.152a8.04,8.04,0,0,1-.349,2.314l-1.016,3.649a4.226,4.226,0,0,0-.159.985c0,.635.254.952.731.952s1.079-.35,1.778-2.285l1.4.539c-.826,2.89-2.318,4.1-4.191,4.1A2.9,2.9,0,0,1,16.571,17.271ZM3.206,2.126A2.159,2.159,0,1,1,5.365,4.255,2.134,2.134,0,0,1,3.206,2.126Z" transform="translate(8 10)" fill="#fff"/>
    </g>
  </g>
</svg>
