<svg xmlns="http://www.w3.org/2000/svg" xmlns:xlink="http://www.w3.org/1999/xlink" width="30" height="22" viewBox="0 0 30 22">
  <defs>
    <clipPath id="clip-path">
      <path id="Mask" d="M2,0H26a2,2,0,0,1,2,2V18a2,2,0,0,1-2,2H2a2,2,0,0,1-2-2V2A2,2,0,0,1,2,0Z" fill="#fff" stroke="#f5f5f5" stroke-miterlimit="10" stroke-width="0.5"/>
    </clipPath>
  </defs>
  <g id="icon-language-indonesia" transform="translate(1 1)">
    <g id="Mask-2" data-name="Mask" fill="#fff" stroke-miterlimit="10">
      <path d="M 26 20.5 L 2 20.5 C 0.6215000152587891 20.5 -0.5 19.37849998474121 -0.5 18 L -0.5 2 C -0.5 0.6215000152587891 0.6215000152587891 -0.5 2 -0.5 L 26 -0.5 C 27.37849998474121 -0.5 28.5 0.6215000152587891 28.5 2 L 28.5 18 C 28.5 19.37849998474121 27.37849998474121 20.5 26 20.5 Z" stroke="none"/>
      <path d="M 2 0 C 0.8954296112060547 0 0 0.8954296112060547 0 2 L 0 18 C 0 19.10457038879395 0.8954296112060547 20 2 20 L 26 20 C 27.10457038879395 20 28 19.10457038879395 28 18 L 28 2 C 28 0.8954296112060547 27.10457038879395 0 26 0 L 2 0 M 2 -1 L 26 -1 C 27.65420913696289 -1 29 0.3457908630371094 29 2 L 29 18 C 29 19.65420913696289 27.65420913696289 21 26 21 L 2 21 C 0.3457908630371094 21 -1 19.65420913696289 -1 18 L -1 2 C -1 0.3457908630371094 0.3457908630371094 -1 2 -1 Z" stroke="none" fill="#f1f0f8"/>
    </g>
    <g id="ID" clip-path="url(#clip-path)">
      <path id="Rectangle_2" data-name="Rectangle 2" d="M0,0H28V10.667H0Z" fill="#e12237"/>
    </g>
  </g>
</svg>
