<?xml version="1.0" encoding="UTF-8" standalone="no"?>
<!DOCTYPE svg PUBLIC "-//W3C//DTD SVG 1.1//EN" "http://www.w3.org/Graphics/SVG/1.1/DTD/svg11.dtd">
<svg width="100%" height="100%" viewBox="0 0 431 270" version="1.1" xmlns="http://www.w3.org/2000/svg" xmlns:xlink="http://www.w3.org/1999/xlink" xml:space="preserve" xmlns:serif="http://www.serif.com/" style="fill-rule:evenodd;clip-rule:evenodd;stroke-linecap:round;">
    <g transform="matrix(1,0,0,1,-13602.1,-15240.9)">
        <g id="Group-218.svg" serif:id="Group 218.svg" transform="matrix(2,0,0,2,13817.4,15375.5)">
            <g transform="matrix(1,0,0,1,-107.648,-67.3015)">
                <g id="Group_218" transform="matrix(1,0,0,1,-5.203,-12.782)">
                    <g transform="matrix(1,0,0,1,131,87)">
                        <g id="Zhop-2">
                            <text x="0px" y="0px" style="font-family:'Poppins-ExtraBold', 'Poppins';font-weight:800;font-size:28px;fill:rgb(54,66,80);">Zhop</text>
                        </g>
                    </g>
                    <g id="Group_214" transform="matrix(1,0,0,1,46.439,54.018)">
                        <g opacity="0.12">
                            <g id="Path_64" transform="matrix(0.866025,0.5,-0.5,0.866025,15.774,0)">
                                <path d="M38.675,31.547L16.224,31.547L10,5.327L4.67,0L0,0" style="fill:none;fill-rule:nonzero;stroke:rgb(67,123,255);stroke-width:3px;"/>
                            </g>
                            <g id="Path_65" transform="matrix(0.866025,0.5,-0.5,0.866025,22.249,6.483)">
                                <path d="M9.177,23.409C7.926,23.409 6.363,22.939 5.382,19.277L5.38,19.27L1.504,5.06C1.601,3.08 3.241,1.5 5.244,1.5L31.464,1.5C32.464,1.5 33.404,1.889 34.112,2.597C34.789,3.274 35.175,4.166 35.206,5.12L32.61,19.397L32.586,19.53L32.586,19.665C32.586,21.73 30.907,23.409 28.842,23.409L9.177,23.409Z" style="fill:rgb(37,213,232);fill-rule:nonzero;"/>
                                <path d="M31.464,-0L31.464,3L5.244,3C4.115,3 3.178,3.838 3.023,4.925L6.831,18.889C7.224,20.357 7.68,21.074 7.993,21.417C8.271,21.721 8.565,21.909 9.177,21.909L28.842,21.909C30.08,21.909 31.086,20.902 31.086,19.665L31.086,19.395L33.698,5.029C33.59,3.892 32.629,3 31.464,3L31.464,-0M31.464,-0C34.36,-0 36.708,2.348 36.708,5.244L34.086,19.665C34.086,22.561 31.738,24.909 28.842,24.909L9.177,24.909C6.281,24.909 4.757,22.739 3.933,19.665L-0,5.244C-0,2.348 2.348,-0 5.244,-0L31.464,-0Z" style="fill:rgb(67,123,255);fill-rule:nonzero;"/>
                            </g>
                            <g id="Path_66" transform="matrix(0.866025,0.5,-0.5,0.866025,9.619,30.981)">
                                <path d="M3.933,6.366C2.591,6.366 1.5,5.275 1.5,3.933C1.5,2.591 2.591,1.5 3.933,1.5C5.275,1.5 6.366,2.591 6.366,3.933C6.366,5.275 5.275,6.366 3.933,6.366Z" style="fill:rgb(37,213,232);fill-rule:nonzero;"/>
                                <path d="M3.933,3C3.419,3 3,3.419 3,3.933C3,4.448 3.419,4.866 3.933,4.866C4.447,4.866 4.866,4.447 4.866,3.933C4.866,3.419 4.447,3 3.933,3M3.933,-0C6.105,-0 7.866,1.761 7.866,3.933L7.866,3.933C7.866,6.105 6.105,7.866 3.933,7.866C1.761,7.866 -0,6.105 -0,3.933L-0,3.933C-0,1.761 1.761,-0 3.933,-0Z" style="fill:rgb(67,123,255);fill-rule:nonzero;"/>
                            </g>
                            <g id="Path_67" transform="matrix(0.866025,0.5,-0.5,0.866025,31.19,43.436)">
                                <path d="M3.933,6.366C2.591,6.366 1.5,5.275 1.5,3.933C1.5,2.591 2.591,1.5 3.933,1.5C5.275,1.5 6.366,2.591 6.366,3.933C6.366,5.275 5.275,6.366 3.933,6.366Z" style="fill:rgb(37,213,232);fill-rule:nonzero;"/>
                                <path d="M3.933,3C3.419,3 3,3.419 3,3.933C3,4.448 3.419,4.866 3.933,4.866C4.447,4.866 4.866,4.447 4.866,3.933C4.866,3.419 4.447,3 3.933,3M3.933,-0C6.105,-0 7.866,1.761 7.866,3.933L7.866,3.933C7.866,6.105 6.105,7.866 3.933,7.866C1.761,7.866 -0,6.105 -0,3.933L-0,3.933C-0,1.761 1.761,-0 3.933,-0Z" style="fill:rgb(67,123,255);fill-rule:nonzero;"/>
                            </g>
                            <g id="Path_68" transform="matrix(0.866025,0.5,-0.5,0.866025,53.495,19.225)">
                                <path d="M0,0L18.354,0" style="fill:none;fill-rule:nonzero;stroke:rgb(67,123,255);stroke-width:3px;"/>
                            </g>
                            <g id="Path_69" transform="matrix(-0.5,0.866025,-0.866025,-0.5,66.031,15.866)">
                                <path d="M0,0L18.354,0" style="fill:none;fill-rule:nonzero;stroke:rgb(67,123,255);stroke-width:3px;"/>
                            </g>
                        </g>
                    </g>
                    <g id="Group_217" transform="matrix(1,0,0,1,42.42,50)">
                        <g id="Group_215" transform="matrix(0.866025,0.5,-0.5,0.866025,18.887,0)">
                            <path d="M38.675,30.047L17.41,30.047C17.41,30.047 11.361,4.567 11.361,4.567L5.291,-1.5L0,-1.5C-0.828,-1.5 -1.5,-0.828 -1.5,0C-1.5,0.828 -0.828,1.5 0,1.5L4.049,1.5C4.049,1.5 8.639,6.087 8.639,6.087C8.639,6.087 15.038,33.047 15.038,33.047L38.675,33.047C39.503,33.047 40.175,32.375 40.175,31.547C40.175,30.719 39.503,30.047 38.675,30.047Z" style="fill:rgb(0,211,189);"/>
                            <g id="Path_71" transform="matrix(1,0,0,1,8.849,2.377)">
                                <path d="M9.177,23.409C7.926,23.409 6.363,22.939 5.382,19.277L5.38,19.27L1.504,5.06C1.601,3.08 3.241,1.5 5.244,1.5L31.464,1.5C32.464,1.5 33.404,1.889 34.112,2.597C34.789,3.274 35.175,4.166 35.206,5.12L32.61,19.397L32.586,19.53L32.586,19.665C32.586,21.73 30.907,23.409 28.842,23.409L9.177,23.409Z" style="fill:white;fill-rule:nonzero;"/>
                                <path d="M31.464,-0L31.464,3L5.244,3C4.115,3 3.178,3.838 3.023,4.925L6.831,18.889C7.224,20.357 7.68,21.074 7.993,21.417C8.271,21.721 8.565,21.909 9.177,21.909L28.842,21.909C30.08,21.909 31.086,20.902 31.086,19.665L31.086,19.395L33.698,5.029C33.59,3.892 32.629,3 31.464,3L31.464,-0M31.464,-0C34.36,-0 36.708,2.348 36.708,5.244L34.086,19.665C34.086,22.561 31.738,24.909 28.842,24.909L9.177,24.909C6.281,24.909 4.757,22.739 3.933,19.665L-0,5.244C-0,2.348 2.348,-0 5.244,-0L31.464,-0Z" style="fill:rgb(0,211,189);fill-rule:nonzero;"/>
                            </g>
                            <g id="Rectangle_877" transform="matrix(1,0,0,1,10.16,29.908)">
                                <path d="M7.866,3.933C7.866,1.762 6.104,0 3.933,0C1.762,0 0,1.762 0,3.933C0,6.104 1.762,7.866 3.933,7.866C6.104,7.866 7.866,6.104 7.866,3.933Z" style="fill:white;"/>
                                <path d="M7.866,3.933C7.866,1.762 6.104,0 3.933,0C1.762,-0 0,1.762 0,3.933C0,6.104 1.762,7.866 3.933,7.866C6.104,7.866 7.866,6.104 7.866,3.933ZM4.866,3.933C4.866,4.448 4.448,4.866 3.933,4.866C3.418,4.866 3,4.448 3,3.933C3,3.418 3.418,3 3.933,3C4.448,3 4.866,3.418 4.866,3.933Z" style="fill:rgb(0,211,189);"/>
                            </g>
                            <g id="Rectangle_878" transform="matrix(1,0,0,1,35.069,29.908)">
                                <path d="M7.866,3.933C7.866,1.762 6.104,0 3.933,0C1.762,0 0,1.762 0,3.933C0,6.104 1.762,7.866 3.933,7.866C6.104,7.866 7.866,6.104 7.866,3.933Z" style="fill:white;"/>
                                <path d="M7.866,3.933C7.866,1.762 6.104,0 3.933,0C1.762,-0 0,1.762 0,3.933C-0,6.104 1.762,7.866 3.933,7.866C6.104,7.866 7.866,6.104 7.866,3.933ZM4.866,3.933C4.866,4.448 4.448,4.866 3.933,4.866C3.418,4.866 3,4.448 3,3.933C3,3.418 3.418,3 3.933,3C4.448,3 4.866,3.418 4.866,3.933Z" style="fill:rgb(0,211,189);"/>
                            </g>
                        </g>
                        <g id="Group_216" transform="matrix(0.866025,0.5,-0.5,0.866025,61.197,11.277)">
                            <g transform="matrix(1,-5.55112e-17,5.55112e-17,1,0,9.177)">
                                <path d="M0,1.5L18.354,1.5C19.182,1.5 19.854,0.828 19.854,0C19.854,-0.828 19.182,-1.5 18.354,-1.5L-0,-1.5C-0.828,-1.5 -1.5,-0.828 -1.5,0C-1.5,0.828 -0.828,1.5 0,1.5Z" style="fill:rgb(0,211,189);"/>
                            </g>
                            <g transform="matrix(-3.33067e-16,1,-1,-3.33067e-16,9.177,0)">
                                <path d="M0,1.5L18.354,1.5C19.182,1.5 19.854,0.828 19.854,0C19.854,-0.828 19.182,-1.5 18.354,-1.5L0,-1.5C-0.828,-1.5 -1.5,-0.828 -1.5,0C-1.5,0.828 -0.828,1.5 0,1.5Z" style="fill:rgb(0,211,189);"/>
                            </g>
                        </g>
                    </g>
                </g>
            </g>
        </g>
    </g>
</svg>
