<svg xmlns="http://www.w3.org/2000/svg" xmlns:xlink="http://www.w3.org/1999/xlink" width="88" height="88" viewBox="0 0 88 88">
  <defs>
    <clipPath id="clip-path">
      <path id="use9088" d="M17.763,9.438,8.936,18.477C5.593,21.818,11.1,21.54,13.092,22.8c.921.6-2.957,1.371-2.164,2.163.771.793,4.649,1.521,5.421,2.292.771.793-1.564,1.628-.793,2.42.75.793,2.55.043,2.871,1.842.236,1.328,3.3.664,4.671-.471.857-.728-1.478-.728-.707-1.521,1.928-1.949,3.642-.878,4.349-2.677.386-.964-2.914-1.649-2.035-2.27,2.1-1.478,9.813-2.228,6.256-5.783l-9.149-9.36A2.953,2.953,0,0,0,17.763,9.438ZM15.642,23.3c.193,0,6.6.857,4.135,1.521C18.834,25.074,14.506,23.3,15.642,23.3ZM27.9,26.852c0,.45,3.492.707,3.3-.107C30.918,25.374,28.283,25.481,27.9,26.852ZM13.006,29.229c.793.685,1.993-.15,2.378-1.114C14.613,27.109,11.764,28.18,13.006,29.229Zm14.462-1.435c-.986.9.171,1.842,1.136,1.221C28.861,28.844,28.583,28.008,27.469,27.794Z" transform="translate(-7.883 -8.635)" fill="#fff" opacity="0.25"/>
    </clipPath>
    <linearGradient id="linear-gradient" x1="0.662" y1="0.102" x2="0.464" y2="0.283" gradientUnits="objectBoundingBox">
      <stop offset="0" stop-color="#c0cdf9"/>
      <stop offset="1" stop-color="#07092d" stop-opacity="0.286"/>
    </linearGradient>
    <linearGradient id="linear-gradient-2" x1="0.339" y1="0.385" x2="0.769" y2="0.812" gradientUnits="objectBoundingBox">
      <stop offset="0" stop-color="#fff"/>
      <stop offset="1" stop-color="#fff" stop-opacity="0"/>
    </linearGradient>
    <linearGradient id="linear-gradient-3" x1="0.478" y1="0.232" x2="1.037" y2="1.192" xlink:href="#linear-gradient-2"/>
    <radialGradient id="radial-gradient" cx="0" cy="0.926" r="1.168" gradientTransform="translate(0.048 0.381) scale(0.684 0.669)" xlink:href="#linear-gradient-2"/>
    <radialGradient id="radial-gradient-2" cx="0.421" cy="0.954" r="1.49" gradientTransform="translate(0.133 0.39) scale(0.684 0.669)" xlink:href="#linear-gradient-2"/>
    <radialGradient id="radial-gradient-3" cx="0.5" cy="0.5" r="1.181" gradientTransform="translate(0.288 0.288) scale(0.423 0.423)" xlink:href="#linear-gradient-2"/>
    <radialGradient id="radial-gradient-4" cx="0.606" cy="0.698" r="1.181" gradientTransform="translate(0.349 0.558) scale(0.423 0.423)" xlink:href="#linear-gradient-2"/>
    <linearGradient id="linear-gradient-4" x1="0.606" y1="-0.295" x2="0.614" y2="1" xlink:href="#linear-gradient-2"/>
    <linearGradient id="linear-gradient-5" x1="0.591" y1="-0.206" x2="0.591" y2="0.707" xlink:href="#linear-gradient-2"/>
    <radialGradient id="radial-gradient-5" cx="0.5" cy="0.5" r="3.384" gradientTransform="translate(0.426 0.426) scale(0.148 0.148)" xlink:href="#linear-gradient-2"/>
    <linearGradient id="linear-gradient-6" x1="0.63" y1="-0.129" x2="0.639" y2="0.895" xlink:href="#linear-gradient-2"/>
    <linearGradient id="linear-gradient-7" x1="0.602" y1="-0.304" x2="0.602" y2="0.736" xlink:href="#linear-gradient-2"/>
    <radialGradient id="radial-gradient-6" cx="0.44" cy="0.575" r="2.8" gradientTransform="translate(0.353 0.49) scale(0.199 0.148)" xlink:href="#linear-gradient-2"/>
    <radialGradient id="radial-gradient-7" cx="0.475" cy="0.338" r="1.228" gradientTransform="translate(0.282 0.061) scale(0.407 0.407)" gradientUnits="objectBoundingBox">
      <stop offset="0" stop-color="#fff" stop-opacity="0.329"/>
      <stop offset="1" stop-color="#fff" stop-opacity="0"/>
    </radialGradient>
    <radialGradient id="radial-gradient-8" cx="0.467" cy="0.961" r="1.336" gradientTransform="matrix(0.443, -0.267, 0.046, 0.361, 0.191, 1.085)" xlink:href="#linear-gradient-2"/>
    <linearGradient id="linear-gradient-10" x1="0.182" y1="0.5" x2="0.722" y2="0.712" xlink:href="#linear-gradient-2"/>
    <linearGradient id="linear-gradient-11" x1="0.703" y1="-0.086" x2="0.544" y2="1.083" gradientUnits="objectBoundingBox">
      <stop offset="0" stop-color="#eeeeec"/>
      <stop offset="1" stop-color="#eeeeec" stop-opacity="0"/>
    </linearGradient>
    <radialGradient id="radial-gradient-9" cx="0.511" cy="0.489" r="0.544" gradientTransform="translate(-0.138 -0.132) scale(1.271 1.271)" xlink:href="#linear-gradient-2"/>
    <linearGradient id="linear-gradient-12" x1="4.214" y1="11.585" x2="4.998" y2="12.386" xlink:href="#linear-gradient-2"/>
    <linearGradient id="linear-gradient-13" x1="1.556" y1="1.278" x2="1.313" y2="0.835" gradientUnits="objectBoundingBox">
      <stop offset="0" stop-color="#729fcf"/>
      <stop offset="1" stop-color="#729fcf" stop-opacity="0"/>
    </linearGradient>
  </defs>
  <g id="icon-tool-svg" transform="translate(-589 -502)">
    <rect id="Rectangle_80" data-name="Rectangle 80" width="88" height="88" rx="44" transform="translate(589 502)" fill="#437bff" opacity="0"/>
    <rect id="Rectangle_72" data-name="Rectangle 72" width="40" height="40" rx="20" transform="translate(613 526)" fill="#437bff"/>
    <text id="svg" transform="translate(633 550)" fill="#fff" font-size="12" font-family="Roboto-Bold, Roboto" font-weight="700" letter-spacing="0.064em"><tspan x="-10.272" y="0">svg</tspan></text>
    <rect id="Rectangle_82" data-name="Rectangle 82" width="40" height="40" rx="20" transform="translate(613 526)" fill="#437bff"/>
    <rect id="Rectangle_84" data-name="Rectangle 84" width="36" height="36" rx="18" transform="translate(615 528)" fill="#f1f0f8"/>
    <g id="g9139" transform="translate(612.927 525.164)">
      <g id="g6035" transform="translate(7.958 8.929)" opacity="0.783">
        <path id="path5987" d="M17.933,10.015,9.021,19.14c-3.374,3.373,2.185,3.092,4.2,4.368.93.605-2.985,1.384-2.185,2.184.779.8,4.694,1.535,5.472,2.314.779.8-1.579,1.643-.8,2.443.757.8,2.574.043,2.9,1.86.238,1.341,3.331.67,4.715-.476.865-.735-1.492-.735-.714-1.535,1.947-1.968,3.677-.887,4.391-2.7.389-.973-2.942-1.665-2.055-2.292,2.12-1.492,9.907-2.249,6.316-5.838l-9.236-9.45a2.981,2.981,0,0,0-4.088,0Zm10.231,17.58c0,.454,3.526.714,3.331-.108C31.214,26.1,28.553,26.211,28.164,27.595Zm-15.033,2.4c.8.692,2.012-.151,2.4-1.124C14.753,27.854,11.876,28.935,13.131,29.995Zm14.6-1.449c-.995.908.173,1.86,1.146,1.233C29.137,29.606,28.856,28.762,27.731,28.546Z" transform="translate(-7.958 -9.204)"/>
        <path id="path6021" d="M17.933,10.988,9.021,20.113c-3.374,3.373,2.185,3.092,4.2,4.368.93.605-2.985,1.384-2.185,2.184.779.8,4.694,1.535,5.472,2.314.779.8-1.579,1.643-.8,2.443.757.8,2.574.043,2.9,1.86.238,1.341,3.331.67,4.715-.476.865-.735-1.492-.735-.714-1.535,1.947-1.968,3.677-.887,4.391-2.7.389-.973-2.942-1.665-2.055-2.292,2.12-1.492,9.907-2.249,6.316-5.838l-9.236-9.45a2.981,2.981,0,0,0-4.088,0Zm10.231,17.58c0,.454,3.526.714,3.331-.108C31.214,27.076,28.553,27.184,28.164,28.568Zm-15.033,2.4c.8.692,2.012-.151,2.4-1.124C14.753,28.827,11.876,29.908,13.131,30.968Zm14.6-1.449c-.995.908.173,1.86,1.146,1.233C29.137,30.579,28.856,29.735,27.731,29.519Z" transform="translate(-7.958 -9.966)" opacity="0.576"/>
      </g>
      <path id="use7631" d="M17.933,9.528,9.021,18.653c-3.374,3.373,2.185,3.092,4.2,4.368.93.605-2.985,1.384-2.185,2.184.779.8,4.694,1.535,5.472,2.314.779.8-1.579,1.643-.8,2.443.757.8,2.574.043,2.9,1.86.238,1.341,3.331.67,4.715-.476.865-.735-1.492-.735-.714-1.535,1.947-1.968,3.677-.887,4.391-2.7.389-.973-2.942-1.665-2.055-2.292,2.12-1.492,9.907-2.249,6.316-5.838l-9.236-9.45A2.981,2.981,0,0,0,17.933,9.528Zm10.231,17.58c0,.454,3.526.714,3.331-.108C31.214,25.616,28.553,25.724,28.164,27.108Zm-15.033,2.4c.8.692,2.012-.151,2.4-1.124C14.753,27.368,11.876,28.449,13.131,29.508Zm14.6-1.449c-.995.908.173,1.86,1.146,1.233C29.137,29.119,28.856,28.276,27.731,28.06Z" transform="translate(0 0)"/>
      <path id="use7639" d="M17.933,9.528,9.021,18.653c-3.374,3.373,2.185,3.092,4.2,4.368.93.605-2.985,1.384-2.185,2.184.779.8,4.694,1.535,5.472,2.314.779.8-1.579,1.643-.8,2.443.757.8,2.574.043,2.9,1.86.238,1.341,3.331.67,4.715-.476.865-.735-1.492-.735-.714-1.535,1.947-1.968,3.677-.887,4.391-2.7.389-.973-2.942-1.665-2.055-2.292,2.12-1.492,9.907-2.249,6.316-5.838l-9.236-9.45A2.981,2.981,0,0,0,17.933,9.528Zm10.231,17.58c0,.454,3.526.714,3.331-.108C31.214,25.616,28.553,25.724,28.164,27.108Zm-15.033,2.4c.8.692,2.012-.151,2.4-1.124C14.753,27.368,11.876,28.449,13.131,29.508Zm14.6-1.449c-.995.908.173,1.86,1.146,1.233C29.137,29.119,28.856,28.276,27.731,28.06Z" transform="translate(0 0)" fill="none"/>
      <g id="Group_34" data-name="Group 34" transform="translate(8.072 8.83)" clip-path="url(#clip-path)">
        <path id="use7641" d="M17.763,9.438,8.936,18.477C5.593,21.818,11.1,21.54,13.092,22.8c.921.6-2.957,1.371-2.164,2.163.771.793,4.649,1.521,5.421,2.292.771.793-1.564,1.628-.793,2.42.75.793,2.55.043,2.871,1.842.236,1.328,3.3.664,4.671-.471.857-.728-1.478-.728-.707-1.521,1.928-1.949,3.642-.878,4.349-2.677.386-.964-2.914-1.649-2.035-2.27,2.1-1.478,9.813-2.228,6.256-5.783l-9.149-9.36A2.953,2.953,0,0,0,17.763,9.438ZM15.642,23.3c.193,0,6.6.857,4.135,1.521C18.834,25.074,14.506,23.3,15.642,23.3ZM27.9,26.852c0,.45,3.492.707,3.3-.107C30.918,25.374,28.283,25.481,27.9,26.852ZM13.006,29.229c.793.685,1.993-.15,2.378-1.114C14.613,27.109,11.764,28.18,13.006,29.229Zm14.462-1.435c-.986.9.171,1.842,1.136,1.221C28.861,28.844,28.583,28.008,27.469,27.794Z" transform="translate(-7.883 -8.635)" opacity="0.67" fill="url(#linear-gradient)"/>
      </g>
      <path id="path7643" d="M13.933,22.071c-2.423,2.4,1.834,1.724,5.108,3.011l6.767-11.893a2.156,2.156,0,0,0-3.274,0Z" transform="translate(-4.119 -2.911)" opacity="0.505" fill="url(#linear-gradient-2)"/>
      <path id="icecap-7" d="M42.012,13.307l3.526,3.59a1.034,1.034,0,0,1,.13,1.189l-1.752-1.427-.346,2.1-1.449-.778-2.358,1.492-.779-3.135-1.255,2.725-3.136-.022c-.606,0-.519-.627.108-1.254,1.233-1.362,3.634-3.676,4.391-4.476A2.1,2.1,0,0,1,42.012,13.307Z" transform="translate(-20.532 -3.13)" fill="url(#linear-gradient-3)"/>
      <path id="path8566" d="M57.213,107.382s.383.584.344.859c-.077.539-1.238.808-.981,1.288s1.171.205,1.94.7.56,1.5,1.117,1.754c1.086.494,3.938-.852,3.795-.823s-2.815.584-3.416.1c-.686-.555-.882-.943-1.388-1.271-.474-.308-1.14-.433-1.295-.685s.31-.577.343-1.062C57.69,107.949,57.213,107.382,57.213,107.382Z" transform="translate(-40.572 -80.248)" fill-rule="evenodd" opacity="0.217" fill="url(#radial-gradient)"/>
      <path id="path8718" d="M57.213,107.382s.383.584.344.859c-.077.539-1.238.808-.981,1.288s1.171.205,1.94.7.56,1.5,1.117,1.754c1.086.494,3.938-.852,3.795-.823-4.736.018-3.852-1.2-5.678-2-.264-.116-.111-.431-.079-.916C57.69,107.949,57.213,107.382,57.213,107.382Z" transform="translate(-40.572 -80.248)" fill-rule="evenodd" opacity="0.276" fill="url(#radial-gradient-2)"/>
      <path id="path8736" d="M93.73,84.44c4.251-1.564,5.616-1.779,7.017-3.178-1.622,1.369-5.052,2.1-7.848,3.321Z" transform="translate(-69.041 -59.797)" fill-rule="evenodd" opacity="0.453" fill="url(#radial-gradient-3)"/>
      <path id="path8746" d="M93.73,84.44c7-2.48,5.817-2.466,7.017-3.178-2.226.852-6.385.943-7.848,3.321Z" transform="translate(-69.041 -59.997)" fill-rule="evenodd" opacity="0.512" fill="url(#radial-gradient-4)"/>
      <path id="path8864" d="M119,104.033c0,.154-.407.279-.909.279s-.909-.125-.909-.279.407-.279.909-.279S119,103.879,119,104.033Z" transform="translate(-88.195 -77.608)" opacity="0.286" fill="url(#linear-gradient-4)"/>
      <path id="path8874" d="M160.227,224.071c0,.332-.548.6-1.224.6s-1.224-.269-1.224-.6.548-.6,1.224-.6S160.227,223.739,160.227,224.071Z" transform="translate(-129.108 -197.323)" opacity="0.621" fill="url(#linear-gradient-5)"/>
      <path id="path8914" d="M113.023,107.1c.432.4,2.836.6,3.229-.115C115.481,107.534,113.765,107.341,113.023,107.1Z" transform="translate(-84.797 -80.019)" fill-rule="evenodd" fill="url(#radial-gradient-5)"/>
      <path id="path8984" d="M.645.353A.339.339,0,0,1,.322.706.339.339,0,0,1,0,.353.339.339,0,0,1,.322,0,.339.339,0,0,1,.645.353Z" transform="matrix(0.892, -0.452, 0.452, 0.892, 27.5, 28.39)" opacity="0.286" fill="url(#linear-gradient-6)"/>
      <path id="path8986" d="M.941.528a.5.5,0,0,1-.471.528A.5.5,0,0,1,0,.528.5.5,0,0,1,.471,0,.5.5,0,0,1,.941.528Z" transform="matrix(0.892, -0.452, 0.452, 0.892, 27.327, 28.445)" opacity="0.621" fill="url(#linear-gradient-7)"/>
      <path id="path8988" d="M0,0C.187.4,1.336,1.021,1.251.093,1.087.7.321.241,0,0Z" transform="matrix(0.892, -0.452, 0.452, 0.892, 27.636, 29.22)" fill-rule="evenodd" fill="url(#radial-gradient-6)"/>
      <path id="path8996" d="M36.025,98.138c0-.071,4.45,1.356,5.213,2.119a15.739,15.739,0,0,0-4.282-2.033A4.936,4.936,0,0,1,36.025,98.138Z" transform="translate(-24.511 -73.008)" fill-rule="evenodd" fill="url(#radial-gradient-7)"/>
      <g id="g9018" transform="translate(13.048 28.1)">
        <path id="path9006" d="M33.969,98.106c.036.107-.293.273-.734.37s-.829.088-.865-.019.293-.273.734-.37S33.933,98,33.969,98.106Z" transform="translate(-32.16 -98.02)" opacity="0.286" fill="url(#linear-gradient-4)"/>
        <path id="path9008" d="M33.571,98.289c.078.231-.341.524-.936.655s-1.139.049-1.217-.182.341-.524.936-.655S33.493,98.058,33.571,98.289Z" transform="translate(-31.409 -98.039)" opacity="0.621" fill="url(#linear-gradient-5)"/>
      </g>
      <path id="path9038" d="M42.491,114.6a1.082,1.082,0,0,0,.9.68,1.933,1.933,0,0,0,1.5-1.1,1.992,1.992,0,0,1-1.582,1.024C42.838,115.193,42.491,114.6,42.491,114.6Z" transform="translate(-29.552 -85.689)" fill-rule="evenodd" opacity="0.616" fill="url(#radial-gradient-8)"/>
      <path id="_87235" data-name="87235" d="M21.1,10.181a2.5,2.5,0,0,0-1.791.716L10.4,20.019c-.815.814-1.01,1.347-.96,1.649a.688.688,0,0,0,.257.419,2.609,2.609,0,0,0,.683.392,18.875,18.875,0,0,0,2.1.642,7.8,7.8,0,0,1,2.062.784.664.664,0,0,1,.223.223.5.5,0,0,1,.054.338.714.714,0,0,1-.318.439,6.391,6.391,0,0,1-1.034.568,5.934,5.934,0,0,0-.953.527.559.559,0,0,0-.128.142s-.025-.059.02-.014a3.438,3.438,0,0,0,.967.52c.475.188,1.056.377,1.643.568s1.18.378,1.683.574a3.433,3.433,0,0,1,1.183.649.86.86,0,0,1,.25.487.873.873,0,0,1-.095.48,2.818,2.818,0,0,1-.548.7,2.8,2.8,0,0,0-.439.534.254.254,0,0,0-.034.135c0,.027.008.053.068.115l.007.007c.258.273.819.311,1.453.459a2.1,2.1,0,0,1,.933.432,1.888,1.888,0,0,1,.588,1.128c.038.215.152.32.426.405a2.782,2.782,0,0,0,1.149.034,5.883,5.883,0,0,0,2.629-1.1c.039-.033.028-.024.041-.041a2.336,2.336,0,0,0-.3-.176,1.55,1.55,0,0,1-.595-.405.612.612,0,0,1-.122-.453.8.8,0,0,1,.243-.439,5.454,5.454,0,0,1,2.8-1.487,3.469,3.469,0,0,0,.94-.345,1.437,1.437,0,0,0,.588-.764.1.1,0,0,0-.007-.108.775.775,0,0,0-.189-.223,5.737,5.737,0,0,0-.879-.554,4.668,4.668,0,0,1-.9-.581.684.684,0,0,1-.257-.46.613.613,0,0,1,.284-.514,10.659,10.659,0,0,1,2.467-1.074c.976-.338,2.025-.688,2.88-1.088a3.354,3.354,0,0,0,1.683-1.324,1,1,0,0,0,.014-.77,3.075,3.075,0,0,0-.771-1.1L22.96,10.9l-.007-.007A2.713,2.713,0,0,0,21.1,10.181Zm9.936,17.3a1.553,1.553,0,0,0-1.318.689,1.445,1.445,0,0,0,.223.074,5.958,5.958,0,0,0,1.122.122,4.134,4.134,0,0,0,1.068-.095.655.655,0,0,0,.2-.081.775.775,0,0,0-.412-.527,1.741,1.741,0,0,0-.879-.182Zm-15.249,1.96a2.124,2.124,0,0,0-1.3.372.473.473,0,0,0-.2.284c-.005.069.017.16.2.318t0,.007a.809.809,0,0,0,1,.02,2.147,2.147,0,0,0,.784-.838A.989.989,0,0,0,15.788,29.439Zm13.194.135a.659.659,0,0,0-.155.318.32.32,0,0,0,.108.277.758.758,0,0,0,.858.027.43.43,0,0,0-.074-.182A1.359,1.359,0,0,0,28.983,29.574Z" transform="translate(-1.156 -1.146)" fill="none" stroke="#707070" stroke-width="1"/>
      <path id="path5897" d="M39.053,83.676c-.538.159-2.281.817-2.033,1.32.237.482,4.29.676,4.911,2.112.271.626-.622,1.1-.4,1.742a8.969,8.969,0,0,0,2.375,2.33.839.839,0,0,0,1.19-1.063c-.57-1.1,1.948-2.45,3.089-3.062.666-.357-1.373-2.112-1.373-2.112Z" transform="translate(-23.993 -60.355)" fill-rule="evenodd" opacity="0.325" fill="url(#linear-gradient-10)"/>
      <path id="path5783" d="M41.3,76.93c.483.354,1.436.141,2.008.4,1.373.618,3.062,1.307,2.751.087l-.349.29-.007-.553-.812.2s-.629-.5-.917-.671c-.06-.035-.369.28-.369.28l-.056-.334a10.305,10.305,0,0,0-1.15-.059c-.839.007-1.406.138-1.1.363Z" transform="translate(-26.036 -53.123)" fill-rule="evenodd" fill="url(#linear-gradient-11)"/>
      <path id="path5803" d="M79.793,91.095c-.186.684,2.284,1.613,2.1,2.085-.408,1.039-2.638.331-4.344,2.508-.244.312.343,1.425.264,1.293s-.683-1.052-.528-1.5c.485-1.42,5.177-1.949,4.317-2.627C81.108,92.461,79.331,91.384,79.793,91.095Z" transform="translate(-55.517 -66.164)" fill-rule="evenodd" opacity="0.478" fill="url(#radial-gradient-9)"/>
      <path id="path6041" d="M113.138,97.471c0,.062-.121.112-.271.112s-.271-.05-.271-.112.121-.112.271-.112S113.138,97.409,113.138,97.471Z" transform="translate(-83.303 -71.134)" fill="#fff" opacity="0.586"/>
      <path id="path6043" d="M71.746,97.471c0,.062-.077.112-.172.112s-.172-.05-.172-.112.077-.112.172-.112S71.746,97.409,71.746,97.471Z" transform="translate(-43.72 -69.062)" fill="#fff" opacity="0.586"/>
      <path id="path6045" d="M126.935,97.471c0,.062-.136.112-.3.112s-.3-.05-.3-.112.136-.112.3-.112S126.935,97.409,126.935,97.471Z" transform="translate(-112.6 -69.161)" fill="#fff" opacity="0.586"/>
      <path id="path5049" d="M27.554,76.243c-1.547.957-3.953,1.3-1.32,1.94C25.92,77.485,26.912,77.562,27.554,76.243Z" transform="translate(-13.391 -52.87)" opacity="0.251" fill="url(#linear-gradient-12)"/>
      <path id="path10207" d="M3.466,20.656s2.386-.225,2.938-.913c.323-.4-1.283-.873-.937-1.267,1.3-1.484,2.4-1.422,3.913-2.044s.954-.926.465-1.2c-.838-.467-2.7-.965-2.086-2.074s6.057-2.666,6.057-2.666c1.647-.563,1.441-1.58.634-2.429L9.592,3.234s.241,4.581-.739,6.547c-1.212,2.428-7.662,5.138-4.964,5.438a1.987,1.987,0,0,1,1.8,1.161c.8,1.507-2.218,4.276-2.218,4.276Z" transform="translate(16.189 11.429)" opacity="0.363" fill="url(#linear-gradient-13)"/>
    </g>
  </g>
</svg>
