<svg width="38" height="38" viewBox="0 0 38 38" fill="none" xmlns="http://www.w3.org/2000/svg">
<path d="M0 12C0 5.37258 5.37258 0 12 0H26C32.6274 0 38 5.37258 38 12V26C38 32.6274 32.6274 38 26 38H12C5.37258 38 0 32.6274 0 26V12Z" fill="white"/>
<path fill-rule="evenodd" clip-rule="evenodd" d="M26 1H12C5.92487 1 1 5.92487 1 12V26C1 32.0751 5.92487 37 12 37H26C32.0751 37 37 32.0751 37 26V12C37 5.92487 32.0751 1 26 1ZM12 0C5.37258 0 0 5.37258 0 12V26C0 32.6274 5.37258 38 12 38H26C32.6274 38 38 32.6274 38 26V12C38 5.37258 32.6274 0 26 0H12Z" fill="url(#paint0_radial_415_2101)"/>
<path d="M19 18C20.3261 18 21.5979 18.5268 22.5355 19.4645C23.4732 20.4021 24 21.6739 24 23V29H22V23C22 22.2348 21.7077 21.4985 21.1827 20.9417C20.6578 20.385 19.9399 20.0499 19.176 20.005L19 20C18.2348 20 17.4985 20.2923 16.9417 20.8173C16.385 21.3422 16.0499 22.0601 16.005 22.824L16 23V29H14V23C14 21.6739 14.5268 20.4021 15.4645 19.4645C16.4021 18.5268 17.6739 18 19 18ZM12.5 21C12.779 21 13.05 21.033 13.31 21.094C13.139 21.603 13.0378 22.1328 13.009 22.669L13 23V23.086C12.8851 23.0449 12.7655 23.018 12.644 23.006L12.5 23C12.1271 23 11.7676 23.1389 11.4916 23.3896C11.2156 23.6403 11.0428 23.9848 11.007 24.356L11 24.5V29H9V24.5C9 23.5717 9.36875 22.6815 10.0251 22.0251C10.6815 21.3687 11.5717 21 12.5 21V21ZM25.5 21C26.4283 21 27.3185 21.3687 27.9749 22.0251C28.6313 22.6815 29 23.5717 29 24.5V29H27V24.5C27 24.1271 26.8611 23.7676 26.6104 23.4916C26.3597 23.2156 26.0152 23.0428 25.644 23.007L25.5 23C25.325 23 25.157 23.03 25 23.085V23C25 22.334 24.892 21.694 24.691 21.096C24.95 21.033 25.221 21 25.5 21ZM12.5 15C13.163 15 13.7989 15.2634 14.2678 15.7322C14.7366 16.2011 15 16.837 15 17.5C15 18.163 14.7366 18.7989 14.2678 19.2678C13.7989 19.7366 13.163 20 12.5 20C11.837 20 11.2011 19.7366 10.7322 19.2678C10.2634 18.7989 10 18.163 10 17.5C10 16.837 10.2634 16.2011 10.7322 15.7322C11.2011 15.2634 11.837 15 12.5 15V15ZM25.5 15C26.163 15 26.7989 15.2634 27.2678 15.7322C27.7366 16.2011 28 16.837 28 17.5C28 18.163 27.7366 18.7989 27.2678 19.2678C26.7989 19.7366 26.163 20 25.5 20C24.837 20 24.2011 19.7366 23.7322 19.2678C23.2634 18.7989 23 18.163 23 17.5C23 16.837 23.2634 16.2011 23.7322 15.7322C24.2011 15.2634 24.837 15 25.5 15V15ZM12.5 17C12.3674 17 12.2402 17.0527 12.1464 17.1464C12.0527 17.2402 12 17.3674 12 17.5C12 17.6326 12.0527 17.7598 12.1464 17.8536C12.2402 17.9473 12.3674 18 12.5 18C12.6326 18 12.7598 17.9473 12.8536 17.8536C12.9473 17.7598 13 17.6326 13 17.5C13 17.3674 12.9473 17.2402 12.8536 17.1464C12.7598 17.0527 12.6326 17 12.5 17ZM25.5 17C25.3674 17 25.2402 17.0527 25.1464 17.1464C25.0527 17.2402 25 17.3674 25 17.5C25 17.6326 25.0527 17.7598 25.1464 17.8536C25.2402 17.9473 25.3674 18 25.5 18C25.6326 18 25.7598 17.9473 25.8536 17.8536C25.9473 17.7598 26 17.6326 26 17.5C26 17.3674 25.9473 17.2402 25.8536 17.1464C25.7598 17.0527 25.6326 17 25.5 17ZM19 9C20.0609 9 21.0783 9.42143 21.8284 10.1716C22.5786 10.9217 23 11.9391 23 13C23 14.0609 22.5786 15.0783 21.8284 15.8284C21.0783 16.5786 20.0609 17 19 17C17.9391 17 16.9217 16.5786 16.1716 15.8284C15.4214 15.0783 15 14.0609 15 13C15 11.9391 15.4214 10.9217 16.1716 10.1716C16.9217 9.42143 17.9391 9 19 9V9ZM19 11C18.4696 11 17.9609 11.2107 17.5858 11.5858C17.2107 11.9609 17 12.4696 17 13C17 13.5304 17.2107 14.0391 17.5858 14.4142C17.9609 14.7893 18.4696 15 19 15C19.5304 15 20.0391 14.7893 20.4142 14.4142C20.7893 14.0391 21 13.5304 21 13C21 12.4696 20.7893 11.9609 20.4142 11.5858C20.0391 11.2107 19.5304 11 19 11V11Z" fill="#437BFF"/>
<defs>
<radialGradient id="paint0_radial_415_2101" cx="0" cy="0" r="1" gradientUnits="userSpaceOnUse" gradientTransform="translate(37.023 7.06071) rotate(102.625) scale(48.0206 32.3326)">
<stop stop-color="#FBF432"/>
<stop offset="0.206" stop-color="#FFBA00"/>
<stop offset="0.719" stop-color="#82E397"/>
<stop offset="1" stop-color="#25D5E8"/>
</radialGradient>
</defs>
</svg>
