<svg width="38" height="38" viewBox="0 0 38 38" fill="none" xmlns="http://www.w3.org/2000/svg">
<path d="M0 12C0 5.37258 5.37258 0 12 0H26C32.6274 0 38 5.37258 38 12V26C38 32.6274 32.6274 38 26 38H12C5.37258 38 0 32.6274 0 26V12Z" fill="white"/>
<path fill-rule="evenodd" clip-rule="evenodd" d="M26 1H12C5.92487 1 1 5.92487 1 12V26C1 32.0751 5.92487 37 12 37H26C32.0751 37 37 32.0751 37 26V12C37 5.92487 32.0751 1 26 1ZM12 0C5.37258 0 0 5.37258 0 12V26C0 32.6274 5.37258 38 12 38H26C32.6274 38 38 32.6274 38 26V12C38 5.37258 32.6274 0 26 0H12Z" fill="url(#paint0_radial_418_363)"/>
<path d="M22.7295 15.208C22.2565 15.171 21.7485 15.284 20.9705 15.581C21.0365 15.556 20.2285 15.871 20.0025 15.951C19.5005 16.126 19.0875 16.222 18.6245 16.222C18.1665 16.222 17.7446 16.13 17.2586 15.967C17.1036 15.914 16.9476 15.857 16.7536 15.781C16.6716 15.749 16.3716 15.629 16.3056 15.604C15.6576 15.35 15.2925 15.254 14.9895 15.262C13.8375 15.277 12.7465 15.942 12.1135 17.044C10.8215 19.288 11.5365 23.343 13.4255 26.075C14.4316 27.519 14.9815 28.035 15.2035 28.028C15.4255 28.018 15.5885 27.971 15.9865 27.803L16.1535 27.732C17.1585 27.303 17.8635 27.114 18.9245 27.114C19.9455 27.114 20.6275 27.3 21.5925 27.716L21.7605 27.788C22.1585 27.958 22.3025 27.996 22.5525 27.99C22.9105 27.985 23.3515 27.573 24.3305 26.136C24.5985 25.745 24.8356 25.333 25.0406 24.916C24.9058 24.805 24.7751 24.6893 24.6486 24.569C23.3595 23.341 22.5625 21.685 22.5405 19.639C22.519 18.1251 23.0166 16.6496 23.9506 15.458C23.5586 15.3133 23.1469 15.229 22.7295 15.208V15.208ZM22.8845 13.214C23.5925 13.262 25.6205 13.478 26.9405 15.41C26.8325 15.47 24.5166 16.814 24.5406 19.622C24.5766 22.982 27.4806 24.098 27.5166 24.11C27.4926 24.194 27.0485 25.706 25.9805 27.266C25.0565 28.622 24.0965 29.966 22.5845 29.99C21.0965 30.026 20.6165 29.114 18.9245 29.114C17.2205 29.114 16.6925 29.966 15.2885 30.026C13.8245 30.074 12.7205 28.562 11.7845 27.218C9.87655 24.458 8.42455 19.442 10.3805 16.046C11.3525 14.354 13.0806 13.286 14.9646 13.262C16.3925 13.226 17.7485 14.222 18.6245 14.222C19.4885 14.222 21.0365 13.07 22.8845 13.214V13.214ZM21.7445 11.39C20.9645 12.326 19.6925 13.058 18.4565 12.962C18.2885 11.69 18.9125 10.358 19.6325 9.52998C20.4365 8.59398 21.7805 7.89798 22.8965 7.84998C23.0405 9.14598 22.5245 10.454 21.7445 11.39Z" fill="#437BFF"/>
<defs>
<radialGradient id="paint0_radial_418_363" cx="0" cy="0" r="1" gradientUnits="userSpaceOnUse" gradientTransform="translate(37.023 7.06071) rotate(102.625) scale(48.0206 32.3326)">
<stop stop-color="#FBF432"/>
<stop offset="0.206" stop-color="#FFBA00"/>
<stop offset="0.719" stop-color="#82E397"/>
<stop offset="1" stop-color="#25D5E8"/>
</radialGradient>
</defs>
</svg>
