<svg xmlns="http://www.w3.org/2000/svg" width="88" height="88" viewBox="0 0 88 88">
  <g id="icon-social-whatsapp" transform="translate(-359 -289)">
    <circle id="Ellipse_4" data-name="Ellipse 4" cx="44" cy="44" r="44" transform="translate(359 289)" fill="#25d366" opacity="0"/>
    <g id="g32" transform="translate(790.185 649.282)">
      <path id="path34" d="M-378.021-312.2c-.5-.249-2.944-1.453-3.4-1.619s-.788-.249-1.12.249-1.285,1.619-1.576,1.951-.581.374-1.078.125a13.588,13.588,0,0,1-4-2.47,15,15,0,0,1-2.768-3.447c-.29-.5-.031-.768.218-1.016.224-.223.5-.581.747-.872a3.394,3.394,0,0,0,.5-.83.916.916,0,0,0-.042-.872c-.124-.249-1.12-2.7-1.534-3.7-.4-.97-.814-.839-1.12-.854-.29-.014-.622-.017-.954-.017a1.828,1.828,0,0,0-1.327.623,5.582,5.582,0,0,0-1.742,4.152,9.679,9.679,0,0,0,2.032,5.148c.249.332,3.509,5.359,8.5,7.514a28.571,28.571,0,0,0,2.837,1.048,6.82,6.82,0,0,0,3.134.2c.956-.143,2.944-1.2,3.359-2.366a4.16,4.16,0,0,0,.29-2.367c-.124-.208-.456-.332-.954-.581m-9.08,12.4h-.007a16.529,16.529,0,0,1-8.425-2.307l-.6-.359-6.265,1.643,1.672-6.109-.394-.626a16.513,16.513,0,0,1-2.531-8.81,16.578,16.578,0,0,1,16.561-16.552,16.441,16.441,0,0,1,11.7,4.855,16.454,16.454,0,0,1,4.844,11.711A16.577,16.577,0,0,1-387.1-299.8m14.088-30.642a19.787,19.787,0,0,0-14.089-5.841,19.944,19.944,0,0,0-19.917,19.915,19.881,19.881,0,0,0,2.659,9.957l-2.826,10.32,10.558-2.77a19.9,19.9,0,0,0,9.518,2.424h.008a19.945,19.945,0,0,0,19.916-19.916,19.8,19.8,0,0,0-5.828-14.09" fill="#25d366" fill-rule="evenodd"/>
    </g>
  </g>
</svg>
