<svg width="38" height="38" viewBox="0 0 38 38" fill="none" xmlns="http://www.w3.org/2000/svg">
<path d="M0 12C0 5.37258 5.37258 0 12 0H26C32.6274 0 38 5.37258 38 12V26C38 32.6274 32.6274 38 26 38H12C5.37258 38 0 32.6274 0 26V12Z" fill="white"/>
<path fill-rule="evenodd" clip-rule="evenodd" d="M26 1H12C5.92487 1 1 5.92487 1 12V26C1 32.0751 5.92487 37 12 37H26C32.0751 37 37 32.0751 37 26V12C37 5.92487 32.0751 1 26 1ZM12 0C5.37258 0 0 5.37258 0 12V26C0 32.6274 5.37258 38 12 38H26C32.6274 38 38 32.6274 38 26V12C38 5.37258 32.6274 0 26 0H12Z" fill="url(#paint0_radial_415_2105)"/>
<path d="M10.1601 11.4689C11.3201 10.3086 12.8761 9.63001 14.5157 9.56917C16.1553 9.50834 17.7572 10.0698 19.0001 11.1409C20.2418 10.0716 21.8417 9.51075 23.4793 9.57068C25.1169 9.63061 26.6715 10.3069 27.8317 11.4641C28.992 12.6214 29.6724 14.1741 29.7366 15.8116C29.8008 17.4491 29.2441 19.0504 28.1781 20.2949L20.4131 28.0849C20.0563 28.4418 19.5778 28.6506 19.0736 28.6695C18.5693 28.6885 18.0766 28.5161 17.6941 28.1869L17.5841 28.0859L9.82007 20.2949C8.75456 19.0514 8.19765 17.4516 8.26068 15.8153C8.32372 14.179 9.00205 12.6267 10.1601 11.4689V11.4689ZM11.5741 12.8829C10.7563 13.7009 10.2849 14.8024 10.2577 15.9587C10.2305 17.115 10.6497 18.2374 11.4281 19.0929L11.5741 19.2469L18.9991 26.6719L24.3021 21.3679L20.7671 17.8329L19.7071 18.8929C19.4285 19.1716 19.0978 19.3927 18.7339 19.5435C18.3699 19.6944 17.9798 19.7721 17.5858 19.7722C16.7901 19.7724 16.0269 19.4564 15.4641 18.8939C14.9013 18.3314 14.585 17.5683 14.5848 16.7726C14.5846 15.9769 14.9005 15.2137 15.4631 14.6509L17.5651 12.5479C16.7285 11.8803 15.6815 11.5326 14.6118 11.5672C13.542 11.6019 12.5197 12.0166 11.7281 12.7369L11.5741 12.8829V12.8829ZM20.0601 15.7109C20.2476 15.5234 20.5019 15.4181 20.7671 15.4181C21.0322 15.4181 21.2865 15.5234 21.4741 15.7109L25.7161 19.9529L26.4241 19.2469C27.2555 18.4161 27.7289 17.2928 27.7429 16.1175C27.7569 14.9421 27.3105 13.8079 26.4991 12.9575C25.6877 12.107 24.5757 11.6078 23.401 11.5666C22.2263 11.5254 21.0821 11.9454 20.2131 12.7369L20.0601 12.8829L16.8781 16.0649C16.7047 16.2381 16.601 16.469 16.5867 16.7136C16.5723 16.9582 16.6482 17.1996 16.8001 17.3919L16.8781 17.4789C17.0513 17.6523 17.2821 17.7559 17.5267 17.7703C17.7714 17.7847 18.0127 17.7088 18.2051 17.5569L18.2921 17.4789L20.0601 15.7109V15.7109Z" fill="#437BFF"/>
<defs>
<radialGradient id="paint0_radial_415_2105" cx="0" cy="0" r="1" gradientUnits="userSpaceOnUse" gradientTransform="translate(37.023 7.06071) rotate(102.625) scale(48.0206 32.3326)">
<stop stop-color="#FBF432"/>
<stop offset="0.206" stop-color="#FFBA00"/>
<stop offset="0.719" stop-color="#82E397"/>
<stop offset="1" stop-color="#25D5E8"/>
</radialGradient>
</defs>
</svg>
