<svg width="38" height="38" viewBox="0 0 38 38" fill="none" xmlns="http://www.w3.org/2000/svg">
<path d="M0 12C0 5.37258 5.37258 0 12 0H26C32.6274 0 38 5.37258 38 12V26C38 32.6274 32.6274 38 26 38H12C5.37258 38 0 32.6274 0 26V12Z" fill="white"/>
<path fill-rule="evenodd" clip-rule="evenodd" d="M26 1H12C5.92487 1 1 5.92487 1 12V26C1 32.0751 5.92487 37 12 37H26C32.0751 37 37 32.0751 37 26V12C37 5.92487 32.0751 1 26 1ZM12 0C5.37258 0 0 5.37258 0 12V26C0 32.6274 5.37258 38 12 38H26C32.6274 38 38 32.6274 38 26V12C38 5.37258 32.6274 0 26 0H12Z" fill="url(#paint0_radial_415_2103)"/>
<path d="M20.1202 24.023L15.9212 21.733C15.373 22.319 14.6612 22.7266 13.8783 22.9028C13.0954 23.079 12.2776 23.0157 11.5311 22.721C10.7847 22.4263 10.1442 21.9139 9.69277 21.2504C9.24138 20.5869 9 19.803 9 19.0005C9 18.198 9.24138 17.414 9.69277 16.7505C10.1442 16.087 10.7847 15.5746 11.5311 15.2799C12.2776 14.9852 13.0954 14.9219 13.8783 15.0981C14.6612 15.2743 15.373 15.6819 15.9212 16.268L20.1212 13.978C19.8828 13.034 19.9968 12.0355 20.4418 11.1697C20.8869 10.3038 21.6325 9.62994 22.5389 9.27446C23.4452 8.91898 24.4501 8.90626 25.3652 9.23869C26.2803 9.57112 27.0427 10.2259 27.5095 11.0802C27.9764 11.9346 28.1156 12.9298 27.9011 13.8795C27.6866 14.8292 27.1332 15.668 26.3444 16.2388C25.5557 16.8095 24.5859 17.0731 23.6168 16.98C22.6477 16.8868 21.7458 16.4435 21.0802 15.733L16.8802 18.023C17.0414 18.6643 17.0414 19.3356 16.8802 19.977L21.0792 22.267C21.7448 21.5564 22.6467 21.1131 23.6158 21.02C24.5849 20.9268 25.5547 21.1904 26.3434 21.7611C27.1322 22.3319 27.6856 23.1708 27.9001 24.1204C28.1146 25.0701 27.9754 26.0654 27.5085 26.9197C27.0417 27.774 26.2793 28.4288 25.3642 28.7612C24.4491 29.0937 23.4442 29.0809 22.5379 28.7255C21.6315 28.37 20.8859 27.6961 20.4408 26.8303C19.9958 25.9644 19.8818 24.9659 20.1202 24.022V24.023ZM13.0002 21C13.5306 21 14.0393 20.7892 14.4144 20.4142C14.7895 20.0391 15.0002 19.5304 15.0002 19C15.0002 18.4695 14.7895 17.9608 14.4144 17.5857C14.0393 17.2107 13.5306 17 13.0002 17C12.4698 17 11.9611 17.2107 11.586 17.5857C11.2109 17.9608 11.0002 18.4695 11.0002 19C11.0002 19.5304 11.2109 20.0391 11.586 20.4142C11.9611 20.7892 12.4698 21 13.0002 21V21ZM24.0002 15C24.5306 15 25.0393 14.7892 25.4144 14.4142C25.7895 14.0391 26.0002 13.5304 26.0002 13C26.0002 12.4695 25.7895 11.9608 25.4144 11.5857C25.0393 11.2107 24.5306 11 24.0002 11C23.4698 11 22.9611 11.2107 22.586 11.5857C22.2109 11.9608 22.0002 12.4695 22.0002 13C22.0002 13.5304 22.2109 14.0391 22.586 14.4142C22.9611 14.7892 23.4698 15 24.0002 15V15ZM24.0002 27C24.5306 27 25.0393 26.7892 25.4144 26.4142C25.7895 26.0391 26.0002 25.5304 26.0002 25C26.0002 24.4695 25.7895 23.9608 25.4144 23.5857C25.0393 23.2107 24.5306 23 24.0002 23C23.4698 23 22.9611 23.2107 22.586 23.5857C22.2109 23.9608 22.0002 24.4695 22.0002 25C22.0002 25.5304 22.2109 26.0391 22.586 26.4142C22.9611 26.7892 23.4698 27 24.0002 27V27Z" fill="#437BFF"/>
<defs>
<radialGradient id="paint0_radial_415_2103" cx="0" cy="0" r="1" gradientUnits="userSpaceOnUse" gradientTransform="translate(37.023 7.06071) rotate(102.625) scale(48.0206 32.3326)">
<stop stop-color="#FBF432"/>
<stop offset="0.206" stop-color="#FFBA00"/>
<stop offset="0.719" stop-color="#82E397"/>
<stop offset="1" stop-color="#25D5E8"/>
</radialGradient>
</defs>
</svg>
