<svg width="38" height="38" viewBox="0 0 38 38" fill="none" xmlns="http://www.w3.org/2000/svg">
<path d="M0 12C0 5.37258 5.37258 0 12 0H26C32.6274 0 38 5.37258 38 12V26C38 32.6274 32.6274 38 26 38H12C5.37258 38 0 32.6274 0 26V12Z" fill="white"/>
<path fill-rule="evenodd" clip-rule="evenodd" d="M26 1H12C5.92487 1 1 5.92487 1 12V26C1 32.0751 5.92487 37 12 37H26C32.0751 37 37 32.0751 37 26V12C37 5.92487 32.0751 1 26 1ZM12 0C5.37258 0 0 5.37258 0 12V26C0 32.6274 5.37258 38 12 38H26C32.6274 38 38 32.6274 38 26V12C38 5.37258 32.6274 0 26 0H12Z" fill="url(#paint0_radial_415_2099)"/>
<path d="M10 26V12.7C9.99994 12.4947 10.0631 12.2944 10.1808 12.1263C10.2985 11.9581 10.4651 11.8302 10.658 11.76L20.329 8.24402C20.4045 8.21652 20.4856 8.20765 20.5653 8.21815C20.645 8.22865 20.721 8.25822 20.7869 8.30434C20.8527 8.35046 20.9065 8.41178 20.9436 8.4831C20.9807 8.55441 21 8.63363 21 8.71402V13.667L27.316 15.772C27.5152 15.8384 27.6885 15.9657 27.8112 16.1361C27.934 16.3064 28.0001 16.5111 28 16.721V26H30V28H8V26H10ZM12 26H19V10.855L12 13.401V26ZM26 26V17.442L21 15.775V26H26Z" fill="#437BFF"/>
<defs>
<radialGradient id="paint0_radial_415_2099" cx="0" cy="0" r="1" gradientUnits="userSpaceOnUse" gradientTransform="translate(37.023 7.06071) rotate(102.625) scale(48.0206 32.3326)">
<stop stop-color="#FBF432"/>
<stop offset="0.206" stop-color="#FFBA00"/>
<stop offset="0.719" stop-color="#82E397"/>
<stop offset="1" stop-color="#25D5E8"/>
</radialGradient>
</defs>
</svg>
