<svg xmlns="http://www.w3.org/2000/svg" width="88" height="88" viewBox="0 0 88 88">
  <g id="icon-social-youtube" transform="translate(-583 -289)">
    <circle id="Ellipse_6" data-name="Ellipse 6" cx="44" cy="44" r="44" transform="translate(583 289)" fill="red" opacity="0"/>
    <g id="Layer-1" transform="translate(597 284)">
      <g id="Group_3" data-name="Group 3" transform="translate(8 34)">
        <path id="Path_4" data-name="Path 4" d="M-129.242-99.8a5.528,5.528,0,0,0-3.89-3.915c-3.431-.926-17.19-.926-17.19-.926s-13.759,0-17.191.926A5.528,5.528,0,0,0-171.4-99.8c-.919,3.454-.919,10.659-.919,10.659s0,7.205.919,10.66a5.529,5.529,0,0,0,3.89,3.915c3.431.925,17.191.925,17.191.925s13.759,0,17.19-.925a5.529,5.529,0,0,0,3.89-3.915c.919-3.454.919-10.66.919-10.66s0-7.206-.919-10.659" transform="translate(172.322 104.637)" fill="red"/>
      </g>
      <g id="Group_4" data-name="Group 4" transform="translate(25.5 42.958)">
        <path id="Path_5" data-name="Path 5" d="M0,13.084,11.5,6.542,0,0Z" fill="#fff"/>
      </g>
    </g>
  </g>
</svg>
