<svg width="38" height="38" viewBox="0 0 38 38" fill="none" xmlns="http://www.w3.org/2000/svg">
<path d="M0 12C0 5.37258 5.37258 0 12 0H26C32.6274 0 38 5.37258 38 12V26C38 32.6274 32.6274 38 26 38H12C5.37258 38 0 32.6274 0 26V12Z" fill="white"/>
<path fill-rule="evenodd" clip-rule="evenodd" d="M26 1H12C5.92487 1 1 5.92487 1 12V26C1 32.0751 5.92487 37 12 37H26C32.0751 37 37 32.0751 37 26V12C37 5.92487 32.0751 1 26 1ZM12 0C5.37258 0 0 5.37258 0 12V26C0 32.6274 5.37258 38 12 38H26C32.6274 38 38 32.6274 38 26V12C38 5.37258 32.6274 0 26 0H12Z" fill="url(#paint0_radial_418_354)"/>
<path d="M26 20H12V27H26V20ZM26 18C26 16.1435 25.2625 14.363 23.9497 13.0503C22.637 11.7375 20.8565 11 19 11C17.1435 11 15.363 11.7375 14.0503 13.0503C12.7375 14.363 12 16.1435 12 18H26ZM13.382 10.968C14.9757 9.69108 16.9578 8.99676 19 9.00001C21.125 9.00001 23.078 9.73601 24.618 10.968L26.071 9.51501L27.485 10.929L26.032 12.382C27.3089 13.9758 28.0033 15.9578 28 18V28C28 28.2652 27.8946 28.5196 27.7071 28.7071C27.5196 28.8947 27.2652 29 27 29H11C10.7348 29 10.4804 28.8947 10.2929 28.7071C10.1054 28.5196 10 28.2652 10 28V18C10 15.875 10.736 13.922 11.968 12.382L10.515 10.93L11.929 9.51601L13.382 10.969V10.968ZM16 16C15.7348 16 15.4804 15.8947 15.2929 15.7071C15.1054 15.5196 15 15.2652 15 15C15 14.7348 15.1054 14.4804 15.2929 14.2929C15.4804 14.1054 15.7348 14 16 14C16.2652 14 16.5196 14.1054 16.7071 14.2929C16.8946 14.4804 17 14.7348 17 15C17 15.2652 16.8946 15.5196 16.7071 15.7071C16.5196 15.8947 16.2652 16 16 16ZM22 16C21.7348 16 21.4804 15.8947 21.2929 15.7071C21.1054 15.5196 21 15.2652 21 15C21 14.7348 21.1054 14.4804 21.2929 14.2929C21.4804 14.1054 21.7348 14 22 14C22.2652 14 22.5196 14.1054 22.7071 14.2929C22.8946 14.4804 23 14.7348 23 15C23 15.2652 22.8946 15.5196 22.7071 15.7071C22.5196 15.8947 22.2652 16 22 16Z" fill="#437BFF"/>
<defs>
<radialGradient id="paint0_radial_418_354" cx="0" cy="0" r="1" gradientUnits="userSpaceOnUse" gradientTransform="translate(37.023 7.06071) rotate(102.625) scale(48.0206 32.3326)">
<stop stop-color="#FBF432"/>
<stop offset="0.206" stop-color="#FFBA00"/>
<stop offset="0.719" stop-color="#82E397"/>
<stop offset="1" stop-color="#25D5E8"/>
</radialGradient>
</defs>
</svg>
