<svg width="38" height="38" viewBox="0 0 38 38" fill="none" xmlns="http://www.w3.org/2000/svg">
<path d="M0 12C0 5.37258 5.37258 0 12 0H26C32.6274 0 38 5.37258 38 12V26C38 32.6274 32.6274 38 26 38H12C5.37258 38 0 32.6274 0 26V12Z" fill="white"/>
<path fill-rule="evenodd" clip-rule="evenodd" d="M26 1H12C5.92487 1 1 5.92487 1 12V26C1 32.0751 5.92487 37 12 37H26C32.0751 37 37 32.0751 37 26V12C37 5.92487 32.0751 1 26 1ZM12 0C5.37258 0 0 5.37258 0 12V26C0 32.6274 5.37258 38 12 38H26C32.6274 38 38 32.6274 38 26V12C38 5.37258 32.6274 0 26 0H12Z" fill="url(#paint0_radial_415_2095)"/>
<path d="M21.0009 9C22.8309 8.99913 24.6059 9.62567 26.0298 10.7751C27.4537 11.9246 28.4405 13.5275 28.8256 15.3165C29.2107 17.1055 28.9708 18.9724 28.146 20.6059C27.3211 22.2395 25.9612 23.5408 24.2929 24.293C23.7597 25.4719 22.9485 26.5039 21.9288 27.3004C20.9091 28.097 19.7115 28.6343 18.4386 28.8663C17.1656 29.0984 15.8554 29.0182 14.6203 28.6327C13.3852 28.2472 12.262 27.5678 11.3471 26.6529C10.4321 25.738 9.75277 24.6148 9.36726 23.3796C8.98174 22.1445 8.90156 20.8343 9.1336 19.5614C9.36564 18.2884 9.90297 17.0908 10.6995 16.0711C11.4961 15.0515 12.528 14.2402 13.7069 13.707C14.3411 12.3039 15.3665 11.1135 16.6603 10.2786C17.954 9.44371 19.4612 8.99976 21.0009 9V9ZM17.0009 15C16.213 15 15.4328 15.1552 14.7048 15.4567C13.9769 15.7583 13.3155 16.2002 12.7583 16.7574C12.2011 17.3145 11.7592 17.9759 11.4577 18.7039C11.1561 19.4319 11.0009 20.2121 11.0009 21C11.0009 21.7879 11.1561 22.5681 11.4577 23.2961C11.7592 24.0241 12.2011 24.6855 12.7583 25.2426C13.3155 25.7998 13.9769 26.2417 14.7048 26.5433C15.4328 26.8448 16.213 27 17.0009 27C18.5922 27 20.1184 26.3679 21.2436 25.2426C22.3688 24.1174 23.0009 22.5913 23.0009 21C23.0009 19.4087 22.3688 17.8826 21.2436 16.7574C20.1184 15.6321 18.5922 15 17.0009 15ZM18.0009 16V17H20.0009V19H16.0009C15.876 18.9998 15.7555 19.0463 15.6632 19.1305C15.5708 19.2147 15.5134 19.3304 15.5021 19.4548C15.4908 19.5793 15.5265 19.7034 15.6022 19.8028C15.6778 19.9023 15.788 19.9697 15.9109 19.992L16.0009 20H18.0009C18.664 20 19.2999 20.2634 19.7687 20.7322C20.2375 21.2011 20.5009 21.837 20.5009 22.5C20.5009 23.163 20.2375 23.7989 19.7687 24.2678C19.2999 24.7366 18.664 25 18.0009 25V26H16.0009V25H14.0009V23H18.0009C18.1259 23.0002 18.2464 22.9537 18.3387 22.8695C18.4311 22.7853 18.4885 22.6696 18.4998 22.5452C18.5111 22.4207 18.4754 22.2966 18.3997 22.1972C18.324 22.0977 18.2139 22.0303 18.0909 22.008L18.0009 22H16.0009C15.3379 22 14.702 21.7366 14.2332 21.2678C13.7643 20.7989 13.5009 20.163 13.5009 19.5C13.5009 18.837 13.7643 18.2011 14.2332 17.7322C14.702 17.2634 15.3379 17 16.0009 17V16H18.0009ZM21.0009 11C20.1536 10.999 19.3158 11.1779 18.5428 11.525C17.7698 11.872 17.0793 12.3792 16.5169 13.013C17.6472 12.9444 18.7792 13.1165 19.8379 13.5179C20.8967 13.9194 21.8582 14.541 22.6589 15.3418C23.4595 16.1425 24.0811 17.1041 24.4824 18.1629C24.8837 19.2218 25.0557 20.3537 24.9869 21.484C25.8962 20.6756 26.5381 19.6099 26.8278 18.4283C27.1174 17.2467 27.0409 16.0049 26.6086 14.8677C26.1762 13.7305 25.4084 12.7516 24.4069 12.0609C23.4054 11.3701 22.2176 11.0001 21.0009 11V11Z" fill="#437BFF"/>
<defs>
<radialGradient id="paint0_radial_415_2095" cx="0" cy="0" r="1" gradientUnits="userSpaceOnUse" gradientTransform="translate(37.023 7.06071) rotate(102.625) scale(48.0206 32.3326)">
<stop stop-color="#FBF432"/>
<stop offset="0.206" stop-color="#FFBA00"/>
<stop offset="0.719" stop-color="#82E397"/>
<stop offset="1" stop-color="#25D5E8"/>
</radialGradient>
</defs>
</svg>
