<svg width="38" height="38" viewBox="0 0 38 38" fill="none" xmlns="http://www.w3.org/2000/svg">
<path d="M0 12C0 5.37258 5.37258 0 12 0H26C32.6274 0 38 5.37258 38 12V26C38 32.6274 32.6274 38 26 38H12C5.37258 38 0 32.6274 0 26V12Z" fill="white"/>
<path fill-rule="evenodd" clip-rule="evenodd" d="M26 1H12C5.92487 1 1 5.92487 1 12V26C1 32.0751 5.92487 37 12 37H26C32.0751 37 37 32.0751 37 26V12C37 5.92487 32.0751 1 26 1ZM12 0C5.37258 0 0 5.37258 0 12V26C0 32.6274 5.37258 38 12 38H26C32.6274 38 38 32.6274 38 26V12C38 5.37258 32.6274 0 26 0H12Z" fill="url(#paint0_radial_418_372)"/>
<path d="M11 23H27V12H11V23ZM20 25V27H24V29H14V27H18V25H9.99204C9.86073 24.9992 9.73086 24.9725 9.60988 24.9215C9.4889 24.8704 9.37919 24.7959 9.28703 24.7024C9.19488 24.6088 9.12209 24.498 9.07284 24.3763C9.02359 24.2546 8.99885 24.1243 9.00004 23.993V11.007C9.00004 10.451 9.45504 10 9.99204 10H28.008C28.556 10 29 10.449 29 11.007V23.993C29 24.549 28.545 25 28.008 25H20V25Z" fill="#437BFF"/>
<defs>
<radialGradient id="paint0_radial_418_372" cx="0" cy="0" r="1" gradientUnits="userSpaceOnUse" gradientTransform="translate(37.023 7.06071) rotate(102.625) scale(48.0206 32.3326)">
<stop stop-color="#FBF432"/>
<stop offset="0.206" stop-color="#FFBA00"/>
<stop offset="0.719" stop-color="#82E397"/>
<stop offset="1" stop-color="#25D5E8"/>
</radialGradient>
</defs>
</svg>
