<svg width="38" height="38" viewBox="0 0 38 38" fill="none" xmlns="http://www.w3.org/2000/svg">
<path d="M0 12C0 5.37258 5.37258 0 12 0H26C32.6274 0 38 5.37258 38 12V26C38 32.6274 32.6274 38 26 38H12C5.37258 38 0 32.6274 0 26V12Z" fill="white"/>
<path fill-rule="evenodd" clip-rule="evenodd" d="M26 1H12C5.92487 1 1 5.92487 1 12V26C1 32.0751 5.92487 37 12 37H26C32.0751 37 37 32.0751 37 26V12C37 5.92487 32.0751 1 26 1ZM12 0C5.37258 0 0 5.37258 0 12V26C0 32.6274 5.37258 38 12 38H26C32.6274 38 38 32.6274 38 26V12C38 5.37258 32.6274 0 26 0H12Z" fill="url(#paint0_radial_415_2097)"/>
<path d="M19 29C13.477 29 9 24.523 9 19C9 13.477 13.477 9 19 9C24.523 9 29 13.477 29 19C29 24.523 24.523 29 19 29ZM16.71 26.667C15.7234 24.5743 15.1519 22.3102 15.027 20H11.062C11.2566 21.5389 11.8939 22.9882 12.8966 24.1717C13.8992 25.3552 15.224 26.2221 16.71 26.667V26.667ZM17.03 20C17.181 22.439 17.878 24.73 19 26.752C20.1523 24.6766 20.8254 22.3695 20.97 20H17.03V20ZM26.938 20H22.973C22.8481 22.3102 22.2766 24.5743 21.29 26.667C22.776 26.2221 24.1008 25.3552 25.1034 24.1717C26.1061 22.9882 26.7434 21.5389 26.938 20V20ZM11.062 18H15.027C15.1519 15.6898 15.7234 13.4257 16.71 11.333C15.224 11.7779 13.8992 12.6448 12.8966 13.8283C11.8939 15.0118 11.2566 16.4611 11.062 18V18ZM17.031 18H20.969C20.8248 15.6306 20.152 13.3235 19 11.248C17.8477 13.3234 17.1746 15.6305 17.03 18H17.031ZM21.29 11.333C22.2766 13.4257 22.8481 15.6898 22.973 18H26.938C26.7434 16.4611 26.1061 15.0118 25.1034 13.8283C24.1008 12.6448 22.776 11.7779 21.29 11.333V11.333Z" fill="#437BFF"/>
<defs>
<radialGradient id="paint0_radial_415_2097" cx="0" cy="0" r="1" gradientUnits="userSpaceOnUse" gradientTransform="translate(37.023 7.06071) rotate(102.625) scale(48.0206 32.3326)">
<stop stop-color="#FBF432"/>
<stop offset="0.206" stop-color="#FFBA00"/>
<stop offset="0.719" stop-color="#82E397"/>
<stop offset="1" stop-color="#25D5E8"/>
</radialGradient>
</defs>
</svg>
